<svg width="1338" height="220" viewBox="0 0 1338 220" fill="none" xmlns="http://www.w3.org/2000/svg">
<g clip-path="url(#clip0)">
<path d="M1336.4 36.6062L1229.98 71.6916L1212.17 53.7861L1336.4 36.6062Z" fill="white"/>
<path d="M1336.4 36.6062L1274.41 112.052L1251.23 93.0448L1241.16 84.7814L1336.4 36.6062Z" fill="white"/>
<path d="M1336.4 36.6062L1241.16 84.7814L1236.9 99.9991L1229.98 71.6916L1336.4 36.6062Z" fill="#DBD8DD"/>
<path d="M1251.23 93.0449L1236.9 99.9992L1241.16 84.7815L1251.23 93.0449Z" fill="#BBBBCD"/>
</g>
<g clip-path="url(#clip1)">
<path d="M3.04159 24.921C2.19847 24.999 1.42035 25.3532 0.87212 25.9084C0.323895 26.4635 0.0486473 27.1761 0.104707 27.8951C0.143058 28.9577 0.180576 29.9972 0.408944 31.0529C0.63698 32.2776 0.962131 33.4868 1.38217 34.6723C2.26801 37.2739 3.32212 39.8304 4.5397 42.33L10.7206 40.3722L10.5155 39.9632C9.0826 37.1193 7.90456 34.1851 6.99143 31.1854C6.74523 29.9287 6.58149 28.6605 6.50098 27.3867C6.42761 26.6917 6.04615 26.0496 5.43397 25.5906C4.82179 25.1317 4.02473 24.8901 3.20446 24.9151L3.04159 24.921Z" fill="#FEFEFE"/>
<path d="M8.418 49.661C9.71219 51.8777 11.1418 54.0341 12.7011 56.1216C17.1093 61.8456 22.7564 66.7974 29.346 70.7172C30.4548 69.0581 31.5917 67.4211 32.7294 65.8072L33.0919 65.3084C29.4388 63.0899 26.0366 60.588 22.9284 57.8342L22.9234 57.6956C19.7577 54.6145 17.0103 51.2381 14.7321 47.629L8.41633 49.6148L8.418 49.661Z" fill="#FEFEFE"/>
<path d="M40.7132 70.1219C39.5763 71.7589 38.4386 73.3728 37.3569 75.031L39.3751 75.9759C44.7956 78.3135 50.5135 80.1243 56.422 81.3744C59.4114 82.0292 62.4529 82.5068 65.5247 82.8037C64.9589 80.5696 64.5684 78.3042 64.3558 76.0226C63.6459 75.9325 62.9639 75.8646 62.2803 75.7505C59.1438 75.2662 56.0508 74.6052 53.0218 73.7717C48.922 72.6609 44.9435 71.2571 41.1283 69.575L40.7132 70.1219Z" fill="#FEFEFE"/>
<path d="M82.8312 43.4364C82.1905 43.643 81.5721 43.8975 80.9832 44.197L79.7842 44.8648C78.4899 45.7665 77.4365 46.8933 76.6961 48.1682C74.9173 51.4152 74.0583 54.9647 74.1889 58.5284C74.2306 59.6834 74.0279 60.8472 74.0713 62.0484C74.1229 63.2164 74.338 64.3733 74.7121 65.4947C75.0884 66.8131 75.5895 68.1023 76.2103 69.3496C77.3144 71.6932 78.6136 73.9651 80.0979 76.1483C78.0445 76.4427 75.9673 76.5873 73.8891 76.5806L73.8933 76.6961C74.2877 78.9059 74.8204 81.0948 75.489 83.2536C78.7819 83.2993 82.0691 82.9076 85.2321 82.0924L85.767 82.6051C87.8024 84.4013 89.9881 86.0693 92.3074 87.5964C95.0995 89.618 98.3927 91.0794 101.948 91.8745C103.408 92.23 104.898 92.4932 106.407 92.6619C107.854 92.841 109.297 92.9276 110.74 92.9912C110.652 90.5426 110.836 88.1073 110.938 85.675L109.44 85.5903C107.396 85.4499 105.379 85.1194 103.425 84.6046C102.01 84.1928 100.644 83.6691 99.3458 83.0402C97.0015 81.6879 94.7925 80.1741 92.7407 78.5139C94.774 76.8929 96.4622 74.9845 97.7287 72.8752C98.3008 71.8771 98.7904 70.847 99.1939 69.7923C99.8698 68.3508 100.389 66.8609 100.746 65.3416C101.182 62.7626 101.088 60.1438 100.466 57.6031C100.446 57.0487 100.235 56.4781 100.053 55.9526C97.3872 57.3904 94.7227 58.8744 92.2762 60.3736C92.38 61.3713 92.4162 62.374 92.3846 63.3766C92.2339 64.451 91.9721 65.5131 91.6022 66.5505C91.3023 67.2783 91.0032 68.0293 90.649 68.7591C90.2271 69.6805 89.7039 70.5668 89.0866 71.4061C88.5734 72.0058 88.0226 72.5816 87.4364 73.131C86.6922 72.1997 86.0042 71.2364 85.3753 70.2447C83.9336 67.9486 82.789 65.5239 81.9613 63.0126C81.612 60.8649 81.5335 58.6889 81.727 56.5216C81.8789 55.149 82.1477 53.7865 82.5312 52.4448C82.8089 51.8485 83.1426 51.2718 83.529 50.7203C83.6885 50.5267 83.8635 50.3427 84.0527 50.1694L84.4253 49.9478L85.1507 49.7134L85.395 49.7046C85.6788 49.8038 85.9552 49.9174 86.2227 50.0448C86.3548 50.1121 86.4764 50.1932 86.5847 50.2862C87.302 51.0371 87.9657 51.8241 88.5725 52.6431C90.8882 51.2874 93.26 49.9759 95.6046 48.6654C95.4904 48.536 95.3857 48.4007 95.291 48.2603C94.807 47.6533 94.2975 47.0934 93.7609 46.5346C92.6774 45.4185 91.3415 44.4996 89.8309 43.8314C88.7989 43.4028 87.6856 43.13 86.5401 43.025L85.2643 43.071C84.4104 43.1012 83.5643 43.233 82.7506 43.4625L82.8312 43.4364Z" fill="#FEFEFE"/>
<path d="M140.835 70.5559C139.712 71.8223 138.645 73.1329 137.55 74.4215C136.455 75.71 135.566 76.6904 134.518 77.7691C133.71 78.6244 132.83 79.4291 131.886 80.1771C129.86 81.612 127.675 82.8762 125.363 83.9514C124.036 84.5061 122.65 84.9511 121.226 85.2804L120.52 85.3058C120.419 87.7844 120.346 90.285 120.327 92.7606L120.788 92.744C122.825 92.4989 124.825 92.0541 126.747 91.4187C128.615 90.7266 130.405 89.8877 132.093 88.9127C133.578 88.1879 134.993 87.3634 136.326 86.447C137.823 85.3668 139.252 84.2188 140.605 83.0081C141.861 81.8464 143.025 80.6143 144.087 79.3204C145.08 78.2206 145.99 77.0775 146.983 75.9777L147.139 75.787L145.353 72.9833C144.484 71.4881 143.535 70.0652 142.478 68.623C141.875 69.2462 141.3 69.8914 140.725 70.5367L140.835 70.5559Z" fill="#FEFEFE"/>
<path d="M174.796 52.8155C172.251 53.1885 169.744 53.7354 167.298 54.4508C164.527 55.2622 161.836 56.2644 159.252 57.4474C155.823 58.8535 152.593 60.5924 149.627 62.629C151.008 64.7302 152.497 66.8276 153.689 68.9819L153.95 69.4351C156.333 67.7242 158.911 66.2208 161.643 64.9477L165.42 63.4005C168.139 62.298 170.975 61.4211 173.887 60.7819C174.997 60.5997 176.118 60.4743 177.244 60.4063L177.507 58.6621C177.848 56.7994 178.078 54.8944 178.555 53.0499C178.547 52.842 178.54 52.6341 178.723 52.4425L178.397 52.4542C177.203 52.4974 176.01 52.5867 174.819 52.7222L174.796 52.8155Z" fill="#FEFEFE"/>
<path d="M187.468 56.0127C187.2 57.6183 186.933 59.2471 186.693 60.8749C187.65 61.0485 188.581 61.2461 189.432 61.4699C193.119 62.5361 196.645 63.961 199.941 65.7166C203.082 67.4612 206.036 69.4364 208.77 71.6199C210.123 70.6921 211.42 69.7201 212.799 68.7683L216.027 66.3387C214.571 65.1423 213.061 63.9709 211.499 62.8708C206.864 59.6065 201.685 56.9415 196.128 54.96C193.873 54.1677 191.541 53.54 189.157 53.0836L188.227 52.9322C187.964 53.9362 187.729 54.9393 187.466 55.9434L187.468 56.0127Z" fill="#FEFEFE"/>
<path d="M215.448 77.3926L217.388 79.173L216.653 78.4131L218.063 79.8194L217.048 80.2955C214.871 81.3934 212.824 82.668 210.933 84.1013C209.941 84.8069 209.057 85.6161 208.302 86.5093C207.464 87.609 206.751 88.7733 206.172 89.9863C205.582 91.0958 205.283 92.2985 205.293 93.5106C205.363 94.5444 205.601 95.5633 206 96.5383C206.66 98.4142 207.64 100.195 208.909 101.823C210.616 103.558 212.893 104.82 215.455 105.449C216.738 105.881 218.082 106.174 219.455 106.322C221.415 106.53 223.408 106.156 225.097 105.263C226.249 104.557 227.305 103.743 228.244 102.836C229.214 102.012 230.091 101.113 230.865 100.151C231.715 99.1219 232.397 98 232.892 96.8167C233.546 95.2232 233.907 93.5561 233.964 91.8745C233.978 89.3058 233.482 86.7586 232.496 84.3408C232.226 83.6335 231.93 82.9503 231.579 82.2691C232.698 82.0972 233.83 81.9945 234.965 81.9618C236.72 82.1586 238.451 82.4831 240.137 82.9317C243.658 84.1414 247.07 85.5642 250.348 87.1891C251.251 85.098 252.181 83.0058 253.139 80.9358C251.618 80.2043 250.097 79.4959 248.523 78.7894C246.484 77.9105 244.367 77.1672 242.191 76.5662C241.204 76.3243 240.244 76.1045 239.259 75.9087C237.082 75.448 234.825 75.3104 232.585 75.502C230.821 75.661 229.076 75.9562 227.371 76.384C225.929 74.8401 224.542 73.3173 222.861 71.9208C220.424 73.6742 218.013 75.4034 215.547 77.1346L215.448 77.3926ZM218.282 98.6855C217.344 98.4461 216.425 98.1547 215.532 97.8133C215.017 97.2638 214.559 96.6767 214.164 96.0586C213.647 95.1756 213.222 94.2543 212.896 93.3056C212.888 93.0746 212.881 92.8667 213.062 92.6288C213.444 91.7662 213.904 90.9297 214.44 90.1274C214.778 89.7819 215.138 89.4524 215.518 89.1401C216.982 88.0325 218.545 87.0248 220.193 86.1264C220.887 85.7544 221.609 85.4277 222.331 85.1009C223.11 86.5659 223.72 88.093 224.153 89.6611C224.345 90.5807 224.442 91.5136 224.444 92.4493C224.358 93.1959 224.203 93.9362 223.981 94.6634C223.677 95.2541 223.335 95.8301 222.956 96.3889C222.163 97.3671 221.288 98.2955 220.338 99.1665C219.661 99.0908 218.993 98.9679 218.34 98.7991L218.282 98.6855ZM213.336 91.9251C213.328 92.0022 213.331 92.0797 213.344 92.1561C213.331 92.0797 213.328 92.0022 213.336 91.9251ZM215.888 97.8699L216.22 98.0429L215.888 97.8699ZM221.026 98.6559C220.904 98.7328 220.769 98.7924 220.625 98.8323L221.026 98.6559ZM221.033 98.8407L220.68 98.8534L221.033 98.8407Z" fill="#FEFEFE"/>
<path d="M258.378 92.0342L260.846 93.3791C262.925 94.5069 265.001 95.5422 267.11 96.7613L269.882 98.2341C270.852 98.7542 271.927 99.178 272.922 99.6278C273.917 100.078 274.5 100.427 275.327 100.744L278.854 102.074C280.453 102.687 282.077 103.253 283.7 103.795C284.216 103.037 284.705 102.279 285.191 101.429C286.042 100.149 286.92 98.8913 287.772 97.6347C286.728 97.3254 285.71 96.9921 284.692 96.6356L279.374 94.6533C278.218 94.2325 277.138 93.6932 276.033 93.2011C274.928 92.709 273.575 92.1333 272.411 91.5045C269.78 90.1423 267.176 88.7791 264.543 87.3707L261.187 85.5258C260.259 87.6641 259.303 89.8034 258.347 91.9427L258.378 92.0342Z" fill="#FEFEFE"/>
<path d="M293.124 105.838L292.686 106.501L296.969 107.688C301.168 108.832 305.421 109.927 309.697 110.929C313.974 111.932 317.924 112.945 321.916 113.588L326.264 114.333C328.18 114.68 330.118 114.911 332.055 115.119C332.024 114.264 331.994 113.432 331.964 112.601C331.905 110.961 332.008 109.292 332.057 107.648C326.157 106.973 320.319 105.97 314.581 104.647C308.607 103.313 302.712 101.883 296.812 100.338C295.518 102.143 294.225 103.971 293.015 105.842L293.124 105.838Z" fill="#FEFEFE"/>
<path d="M386.683 100.657C383.998 101.586 380.98 102.32 378.1 103.094C375.22 103.869 372.444 104.548 369.588 105.229L370.294 105.203C368.189 105.626 366.059 106.12 363.923 106.428C361.787 106.736 358.953 107.278 356.46 107.484L351.691 107.91C350.795 107.943 349.872 107.976 348.977 108.008C346.534 108.096 344.118 108.184 341.702 108.271C341.759 109.865 341.626 111.442 341.57 112.902C341.602 113.802 341.635 114.703 341.667 115.604C343.025 115.555 344.382 115.506 345.712 115.458C347.775 115.384 349.811 115.31 351.874 115.236C353.937 115.161 356.19 115.08 358.295 114.657C360.998 114.236 363.975 113.874 366.781 113.31C369.587 112.746 371.91 112.339 374.415 111.693L378.189 110.84C379.562 110.466 380.877 110.003 382.249 109.606C384.722 108.846 387.11 107.973 389.495 107.032C390.469 106.704 391.27 106.082 391.742 105.285C392.042 104.75 392.174 104.159 392.127 103.571C392.08 102.982 391.855 102.416 391.474 101.927C391.092 101.438 390.567 101.043 389.95 100.78C389.333 100.517 388.645 100.395 387.952 100.426C387.537 100.438 387.126 100.508 386.736 100.632L386.683 100.657Z" fill="#FEFEFE"/>
</g>
<g clip-path="url(#clip2)">
<path d="M800.634 112.588C801.461 112.373 802.18 111.897 802.637 111.259C803.094 110.622 803.253 109.873 803.082 109.173C802.872 108.13 802.667 107.111 802.27 106.106C801.845 104.934 801.326 103.794 800.717 102.693C799.415 100.27 797.952 97.9191 796.336 95.6511L790.491 98.5935L790.761 98.9636C792.647 101.536 794.294 104.24 795.688 107.051C796.135 108.251 796.503 109.476 796.788 110.72C796.973 111.394 797.457 111.965 798.141 112.318C798.825 112.671 799.659 112.779 800.472 112.621L800.634 112.588Z" fill="#FEFEFE"/>
<path d="M791.289 89.0496C789.642 87.0734 787.87 85.1787 785.979 83.3733C780.664 78.4445 774.237 74.4802 767.038 71.6885C766.2 73.5071 765.331 75.3086 764.457 77.0874L764.176 77.6389C768.174 79.2314 771.968 81.1447 775.51 83.3546L775.537 83.4905C779.189 86.014 782.471 88.8974 785.323 92.087L791.298 89.0949L791.289 89.0496Z" fill="#FEFEFE"/>
<path d="M755.804 74.1337C756.674 72.3323 757.548 70.5535 758.359 68.7402L756.195 68.1375C750.416 66.7162 744.425 65.8636 738.334 65.5954C735.249 65.4377 732.141 65.4635 729.031 65.6724C729.955 67.7849 730.709 69.9569 731.289 72.174C732.011 72.1469 732.702 72.1024 733.402 72.1033C736.606 72.0687 739.795 72.2156 742.948 72.5432C747.213 72.9694 751.405 73.7048 755.479 74.7414L755.804 74.1337Z" fill="#FEFEFE"/>
<path d="M718.124 107.354C718.73 107.046 719.305 106.693 719.844 106.302L720.931 105.447C722.076 104.345 722.944 103.061 723.477 101.682C724.727 98.1863 725.011 94.5427 724.307 91.0469C724.079 89.9138 724.094 88.732 723.857 87.5536C723.617 86.4093 723.216 85.3026 722.663 84.2569C722.075 83.0173 721.368 81.8268 720.549 80.6972C719.071 78.5647 717.41 76.5347 715.579 74.6226C717.578 73.9964 719.625 73.5142 721.697 73.1813L721.674 73.068C720.925 70.9515 720.042 68.8781 719.028 66.8567C715.738 67.3498 712.525 68.2737 709.504 69.5951L708.888 69.1765C706.57 67.7365 704.123 66.4474 701.565 65.3193C698.456 63.7804 694.939 62.8763 691.267 62.6726C689.754 62.5604 688.227 62.5442 686.696 62.6242C685.225 62.6839 683.772 62.8343 682.324 63.0074C682.806 65.4096 683.015 67.8432 683.305 70.2605L684.812 70.0993C686.871 69.9038 688.935 69.9003 690.966 70.089C692.443 70.2641 693.889 70.5578 695.284 70.9663C697.838 71.9179 700.284 73.0509 702.596 74.3541C700.831 76.2862 699.456 78.4457 698.533 80.7344C698.124 81.813 697.802 82.9097 697.57 84.0166C697.128 85.5497 696.85 87.105 696.74 88.6628C696.72 91.2795 697.236 93.8486 698.265 96.2546C698.374 96.7985 698.676 97.3273 698.942 97.8161C701.368 95.9613 703.785 94.0613 705.982 92.1818C705.718 91.214 705.52 90.2304 705.39 89.2357C705.367 88.1506 705.457 87.0596 705.658 85.9753C705.84 85.208 706.017 84.4179 706.253 83.6398C706.525 82.6614 706.903 81.7012 707.383 80.772C707.798 80.0962 708.255 79.4379 708.75 78.7999C709.642 79.5974 710.483 80.4357 711.27 81.3116C713.076 83.3421 714.608 85.5482 715.837 87.8914C716.532 89.954 716.96 92.0888 717.117 94.2595C717.186 95.6389 717.138 97.0276 716.972 98.4145C716.791 99.0483 716.552 99.6721 716.255 100.28C716.127 100.497 715.983 100.707 715.822 100.909L715.486 101.188L714.801 101.538L714.559 101.587C714.26 101.535 713.966 101.468 713.679 101.386C713.537 101.342 713.403 101.281 713.28 101.207C712.444 100.583 711.655 99.9152 710.919 99.2061C708.829 100.923 706.676 102.605 704.551 104.281C704.685 104.39 704.811 104.507 704.928 104.63C705.509 105.15 706.107 105.619 706.731 106.083C707.991 107.007 709.471 107.696 711.084 108.108C712.182 108.363 713.335 108.45 714.494 108.367L715.758 108.113C716.604 107.943 717.426 107.675 718.2 107.315L718.124 107.354Z" fill="#FEFEFE"/>
<path d="M655.943 90.0683C656.858 88.6349 657.711 87.1669 658.594 85.7162C659.478 84.2655 660.206 83.1526 661.077 81.9167C661.745 80.9406 662.492 80.0026 663.312 79.1102C665.101 77.3627 667.075 75.758 669.205 74.319C670.439 73.5546 671.748 72.8889 673.115 72.3312L673.815 72.1907C673.516 69.728 673.186 67.2481 672.806 64.8016L672.349 64.8935C670.358 65.4683 668.436 66.234 666.623 67.1754C664.872 68.1637 663.224 69.2842 661.699 70.5223C660.335 71.4803 659.057 72.5254 657.877 73.6476C656.558 74.9584 655.32 76.3249 654.166 77.741C653.101 79.0928 652.14 80.4989 651.29 81.9496C650.477 83.1974 649.754 84.4743 648.941 85.722L648.816 85.9358L651.049 88.4109C652.156 89.7445 653.33 90.9939 654.617 92.2443C655.117 91.5308 655.586 90.8001 656.055 90.0693L655.943 90.0683Z" fill="#FEFEFE"/>
<path d="M624.952 113.127C627.428 112.344 629.839 111.394 632.161 110.288C634.792 109.035 637.313 107.606 639.698 106.016C642.889 104.068 645.828 101.824 648.457 99.3288C646.742 97.4806 644.92 95.654 643.385 93.7226L643.052 93.318C640.952 95.396 638.625 97.3011 636.107 99.0041L632.592 101.148C630.059 102.681 627.374 104.01 624.574 105.117C623.497 105.478 622.4 105.785 621.289 106.036L621.308 107.8C621.268 109.694 621.346 111.612 621.167 113.511C621.208 113.715 621.249 113.918 621.097 114.138L621.42 114.073C622.604 113.835 623.778 113.552 624.943 113.224L624.952 113.127Z" fill="#FEFEFE"/>
<path d="M611.806 112.043C611.815 110.415 611.819 108.763 611.796 107.118C610.814 107.103 609.854 107.06 608.97 106.978C605.123 106.528 601.379 105.698 597.811 104.504C594.399 103.296 591.137 101.829 588.06 100.121C586.861 101.258 585.725 102.429 584.504 103.594L581.678 106.519C583.322 107.462 585.016 108.371 586.75 109.202C591.896 111.666 597.486 113.45 603.344 114.497C605.72 114.911 608.145 115.149 610.595 115.21L611.546 115.207C611.646 114.174 611.72 113.145 611.82 112.111L611.806 112.043Z" fill="#FEFEFE"/>
<path d="M580.475 95.5149L578.254 94.0748L579.108 94.7048L577.477 93.5473L578.412 92.9114C580.405 91.4721 582.24 89.8795 583.893 88.156C584.769 87.2974 585.519 86.3543 586.128 85.3494C586.786 84.1271 587.31 82.8613 587.691 81.5696C588.1 80.3783 588.205 79.1423 587.999 77.9477C587.762 76.9389 587.361 75.9722 586.806 75.0751C585.847 73.3315 584.583 71.7346 583.056 70.3352C581.075 68.9015 578.602 68.0285 575.948 67.8258C574.599 67.6095 573.212 67.5396 571.82 67.6175C569.833 67.7327 567.907 68.4276 566.367 69.5853C565.332 70.4702 564.411 71.4462 563.621 72.4946C562.788 73.4664 562.058 74.4971 561.441 75.573C560.76 76.7279 560.261 77.9466 559.958 79.1953C559.564 80.8748 559.472 82.5793 559.686 84.2482C560.086 86.7857 560.991 89.2185 562.363 91.4437C562.746 92.0976 563.152 92.7234 563.611 93.3384C562.523 93.691 561.411 93.9773 560.285 94.1951C558.504 94.2877 556.727 94.2503 554.974 94.0832C551.27 93.4647 547.64 92.6181 544.111 91.55C543.548 93.7615 542.958 95.9784 542.337 98.1779C543.971 98.6513 545.6 99.1019 547.284 99.5418C549.457 100.076 551.687 100.464 553.953 100.701C554.976 100.779 555.967 100.839 556.981 100.871C559.224 100.97 561.497 100.737 563.699 100.182C565.431 99.7364 567.123 99.1598 568.753 98.459C570.439 99.7471 572.067 101.023 573.967 102.127C576.114 99.9981 578.239 97.8974 580.417 95.7858L580.475 95.5149ZM574.219 74.9631C575.193 75.0461 576.156 75.1835 577.1 75.3746C577.702 75.8327 578.253 76.3373 578.746 76.8828C579.405 77.6696 579.976 78.5095 580.454 79.3926C580.499 79.6192 580.54 79.8232 580.398 80.0877C580.157 81.0014 579.832 81.9022 579.428 82.7816C579.146 83.1778 578.84 83.562 578.512 83.9323C577.231 85.2646 575.836 86.5147 574.337 87.6707C573.706 88.1512 573.039 88.5917 572.372 89.0322C571.36 87.7135 570.506 86.3061 569.821 84.8293C569.482 83.9531 569.235 83.0482 569.082 82.125C569.047 81.3741 569.083 80.6181 569.187 79.8641C569.395 79.2315 569.643 78.607 569.931 77.9936C570.563 76.8986 571.286 75.8394 572.093 74.8244C572.78 74.7885 573.465 74.8006 574.143 74.8606L574.219 74.9631ZM580.238 80.827C580.234 80.7495 580.219 80.6735 580.193 80.6003C580.219 80.6735 580.234 80.7495 580.238 80.827ZM576.737 75.3768L576.378 75.2604L576.737 75.3768ZM571.489 75.4408C571.598 75.345 571.723 75.2641 571.861 75.2011L571.489 75.4408ZM571.452 75.2595L571.802 75.1893L571.452 75.2595Z" fill="#FEFEFE"/>
<path d="M535.327 88.0806L532.651 87.1565C530.397 86.3833 528.161 85.7008 525.862 84.8423L522.862 83.8417C521.812 83.4869 520.672 83.2444 519.608 82.963C518.544 82.6816 517.906 82.4325 517.031 82.2546L513.301 81.5186C511.609 81.1747 509.899 80.8817 508.194 80.6112C507.802 81.4445 507.436 82.2724 507.089 83.1909C506.447 84.5929 505.774 85.9777 505.128 87.3571C506.218 87.4917 507.286 87.6544 508.359 87.8397L513.978 88.9271C515.199 89.1534 516.362 89.5093 517.542 89.8144C518.723 90.1195 520.164 90.4666 521.425 90.8968C524.268 91.8112 527.083 92.731 529.934 93.6908L533.576 94.9632C534.157 92.7011 534.764 90.4335 535.372 88.1659L535.327 88.0806Z" fill="#FEFEFE"/>
<path d="M498.472 80.1359L498.802 79.4095L494.342 78.938C489.972 78.4956 485.557 78.1094 481.133 77.8192C476.709 77.529 472.608 77.1739 468.526 77.1923L464.072 77.1676C462.107 77.1379 460.138 77.227 458.174 77.3386C458.342 78.1771 458.506 78.993 458.67 79.8088C458.993 81.4178 459.16 83.0819 459.376 84.7126C465.365 84.4142 471.345 84.4494 477.278 84.8178C483.447 85.1582 489.553 85.6056 495.682 86.1662C496.681 84.1737 497.675 82.1585 498.58 80.1143L498.472 80.1359Z" fill="#FEFEFE"/>
<path d="M406.057 100.54C408.582 99.1834 411.472 97.9663 414.218 96.731C416.964 95.4956 419.621 94.3725 422.358 93.2332L421.659 93.3737C423.689 92.6123 425.732 91.7775 427.811 91.124C429.89 90.4705 432.628 89.4726 435.08 88.8622L439.764 87.6619C440.652 87.4836 441.566 87.2999 442.454 87.1216C444.875 86.6353 447.268 86.1544 449.662 85.6735C449.348 84.1098 449.227 82.531 449.048 81.0816C448.87 80.1978 448.693 79.314 448.515 78.4301C447.17 78.7003 445.825 78.9705 444.507 79.2352C442.463 79.6459 440.446 80.0511 438.402 80.4618C436.357 80.8724 434.125 81.3209 432.095 82.0823C429.469 82.9399 426.56 83.7836 423.854 84.7988C421.148 85.8139 418.898 86.5959 416.506 87.6423L412.881 89.1013C411.573 89.6941 410.337 90.3668 409.034 90.9823C406.691 92.1366 404.452 93.388 402.226 94.7074C401.308 95.1899 400.61 95.935 400.268 96.7984C400.056 97.3757 400.019 97.9803 400.16 98.5533C400.302 99.1264 400.618 99.6485 401.077 100.069C401.536 100.489 402.123 100.794 402.78 100.952C403.437 101.111 404.143 101.119 404.829 100.975C405.24 100.895 405.638 100.759 406.007 100.573L406.057 100.54Z" fill="#FEFEFE"/>
</g>
<g clip-path="url(#clip3)">
<path d="M806.955 119.97C806.147 120.251 805.47 120.785 805.066 121.457C804.662 122.13 804.564 122.888 804.792 123.573C805.086 124.595 805.373 125.594 805.851 126.563C806.369 127.696 806.979 128.791 807.676 129.839C809.171 132.148 810.819 134.372 812.615 136.501L818.201 133.094L817.902 132.747C815.813 130.336 813.952 127.775 812.334 125.087C811.79 123.927 811.325 122.736 810.939 121.519C810.7 120.863 810.171 120.332 809.461 120.036C808.75 119.74 807.911 119.7 807.113 119.924L806.955 119.97Z" fill="#FEFEFE"/>
<path d="M818.181 142.671C819.983 144.507 821.903 146.251 823.934 147.897C829.633 152.378 836.36 155.807 843.763 158.004C844.45 156.124 845.17 154.257 845.897 152.414L846.132 151.841C842.017 150.579 838.08 148.98 834.371 147.065L834.332 146.932C830.488 144.713 826.982 142.106 823.88 139.159L818.168 142.627L818.181 142.671Z" fill="#FEFEFE"/>
<path d="M854.76 154.654C854.04 156.52 853.314 158.364 852.653 160.238L854.858 160.662C860.734 161.609 866.774 161.972 872.866 161.745C875.954 161.651 879.05 161.373 882.132 160.912C881.04 158.882 880.112 156.778 879.354 154.615C878.636 154.701 877.952 154.802 877.254 154.858C874.063 155.153 870.873 155.265 867.703 155.195C863.418 155.117 859.18 154.724 855.036 154.022L854.76 154.654Z" fill="#FEFEFE"/>
<path d="M889.617 118.482C889.038 118.838 888.493 119.236 887.988 119.671L886.974 120.611C885.922 121.802 885.161 123.153 884.743 124.571C883.781 128.156 883.794 131.81 884.78 135.238C885.099 136.348 885.18 137.527 885.512 138.683C885.844 139.804 886.333 140.874 886.97 141.871C887.656 143.059 888.457 144.188 889.366 145.248C891.013 147.253 892.833 149.141 894.813 150.898C892.872 151.685 890.871 152.332 888.832 152.832L888.864 152.943C889.783 154.992 890.832 156.986 892.007 158.919C895.245 158.16 898.373 156.978 901.277 155.416L901.925 155.783C904.352 157.03 906.896 158.116 909.537 159.032C912.76 160.313 916.34 160.929 920.016 160.833C921.532 160.822 923.056 160.714 924.575 160.51C926.037 160.331 927.473 160.063 928.902 159.773C928.226 157.418 927.82 155.009 927.335 152.624L925.846 152.907C923.809 153.269 921.752 153.44 919.713 153.417C918.227 153.362 916.762 153.187 915.338 152.893C912.715 152.153 910.185 151.222 907.775 150.111C909.377 148.042 910.572 145.778 911.306 143.422C911.626 142.313 911.858 141.194 912 140.072C912.315 138.508 912.465 136.935 912.449 135.374C912.256 132.764 911.533 130.245 910.312 127.931C910.159 127.398 909.815 126.895 909.51 126.43C907.243 128.475 904.989 130.566 902.952 132.617C903.294 133.56 903.571 134.525 903.781 135.506C903.892 136.585 903.891 137.68 903.778 138.777C903.66 139.557 903.547 140.358 903.376 141.153C903.184 142.15 902.885 143.138 902.482 144.103C902.123 144.811 901.722 145.504 901.28 146.18C900.326 145.458 899.42 144.69 898.565 143.881C896.599 142.004 894.893 139.93 893.477 137.694C892.618 135.695 892.017 133.602 891.685 131.451C891.503 130.082 891.439 128.694 891.491 127.298C891.62 126.652 891.808 126.011 892.054 125.381C892.164 125.154 892.291 124.933 892.435 124.719L892.747 124.413L893.401 124.008L893.639 123.94C893.941 123.967 894.239 124.01 894.532 124.069C894.677 124.102 894.816 124.151 894.945 124.215C895.828 124.769 896.668 125.371 897.46 126.017C899.404 124.137 901.412 122.285 903.395 120.442C903.252 120.344 903.117 120.238 902.99 120.125C902.37 119.654 901.735 119.235 901.075 118.823C899.744 118.004 898.214 117.438 896.572 117.158C895.457 116.994 894.301 117 893.153 117.178L891.913 117.534C891.084 117.771 890.286 118.105 889.544 118.527L889.617 118.482Z" fill="#FEFEFE"/>
<path d="M952.997 130.658C952.201 132.161 951.471 133.693 950.708 135.211C949.945 136.729 949.31 137.897 948.542 139.2C947.956 140.227 947.288 141.222 946.543 142.178C944.902 144.066 943.065 145.825 941.058 147.433C939.891 148.295 938.64 149.065 937.322 149.732L936.637 149.929C937.135 152.359 937.666 154.804 938.243 157.211L938.691 157.082C940.628 156.348 942.481 155.428 944.212 154.343C945.877 153.216 947.429 151.965 948.848 150.607C950.129 149.541 951.318 148.396 952.403 147.181C953.611 145.768 954.735 144.305 955.77 142.8C956.721 141.366 957.565 139.887 958.294 138.372C959.003 137.062 959.62 135.73 960.328 134.421L960.436 134.198L958.01 131.912C956.798 130.673 955.525 129.523 954.142 128.381C953.701 129.133 953.293 129.899 952.885 130.666L952.997 130.658Z" fill="#FEFEFE"/>
<path d="M982.011 105.157C979.607 106.139 977.282 107.282 975.057 108.572C972.536 110.036 970.14 111.665 967.892 113.443C964.87 115.644 962.123 118.12 959.706 120.82C961.565 122.523 963.529 124.195 965.217 125.995L965.581 126.372C967.505 124.13 969.67 122.042 972.041 120.14L975.37 117.717C977.771 115.984 980.339 114.441 983.039 113.111C984.083 112.663 985.151 112.268 986.239 111.927L986.077 110.17C985.962 108.279 985.729 106.374 985.752 104.468C985.695 104.268 985.638 104.068 985.771 103.837L985.455 103.928C984.294 104.261 983.147 104.638 982.012 105.06L982.011 105.157Z" fill="#FEFEFE"/>
<path d="M995.202 105.169C995.326 106.793 995.456 108.439 995.612 110.078C996.593 110.013 997.553 109.977 998.441 109.987C1002.31 110.123 1006.11 110.646 1009.76 111.546C1013.26 112.473 1016.63 113.67 1019.84 115.122C1020.94 113.892 1021.98 112.632 1023.1 111.372L1025.68 108.227C1023.96 107.421 1022.2 106.652 1020.41 105.965C1015.08 103.927 1009.36 102.604 1003.44 102.036C1001.04 101.817 998.598 101.776 996.152 101.915L995.204 101.994C995.188 103.033 995.199 104.064 995.183 105.103L995.202 105.169Z" fill="#FEFEFE"/>
<path d="M1027.77 119.097L1030.1 120.352L1029.2 119.793L1030.92 120.815L1030.04 121.524C1028.17 123.121 1026.47 124.857 1024.96 126.709C1024.16 127.636 1023.49 128.637 1022.96 129.688C1022.41 130.96 1021.99 132.264 1021.71 133.583C1021.4 134.803 1021.4 136.044 1021.7 137.218C1022.02 138.204 1022.5 139.135 1023.12 139.984C1024.22 141.644 1025.61 143.133 1027.25 144.403C1029.34 145.671 1031.87 146.34 1034.53 146.327C1035.9 146.433 1037.28 146.39 1038.67 146.199C1040.64 145.923 1042.5 145.073 1043.94 143.794C1044.9 142.828 1045.74 141.781 1046.44 140.672C1047.19 139.635 1047.84 138.549 1048.36 137.426C1048.95 136.22 1049.35 134.965 1049.55 133.696C1049.8 131.989 1049.76 130.283 1049.41 128.637C1048.8 126.141 1047.7 123.789 1046.16 121.683C1045.72 121.062 1045.27 120.472 1044.76 119.896C1045.81 119.456 1046.9 119.08 1048 118.772C1049.77 118.535 1051.54 118.428 1053.31 118.452C1057.05 118.767 1060.73 119.316 1064.34 120.094C1064.72 117.844 1065.13 115.587 1065.57 113.344C1063.9 113.005 1062.24 112.688 1060.53 112.386C1058.32 112.03 1056.06 111.825 1053.79 111.773C1052.76 111.779 1051.77 111.799 1050.75 111.85C1048.51 111.933 1046.26 112.35 1044.11 113.082C1042.42 113.667 1040.78 114.379 1039.22 115.21C1037.43 114.063 1035.71 112.924 1033.72 111.978C1031.75 114.274 1029.81 116.541 1027.81 118.822L1027.77 119.097ZM1035.68 139.073C1034.7 139.069 1033.73 139.01 1032.77 138.897C1032.14 138.489 1031.55 138.031 1031.01 137.527C1030.29 136.796 1029.65 136.006 1029.1 135.164C1029.04 134.942 1028.98 134.742 1029.1 134.467C1029.27 133.537 1029.52 132.612 1029.85 131.703C1030.1 131.285 1030.37 130.878 1030.67 130.482C1031.84 129.05 1033.13 127.69 1034.53 126.417C1035.12 125.886 1035.75 125.393 1036.38 124.9C1037.49 126.132 1038.46 127.465 1039.26 128.882C1039.67 129.727 1039.99 130.609 1040.22 131.517C1040.31 132.262 1040.34 133.019 1040.29 133.779C1040.14 134.426 1039.94 135.069 1039.71 135.704C1039.16 136.846 1038.53 137.961 1037.81 139.038C1037.13 139.13 1036.44 139.173 1035.76 139.168L1035.68 139.073ZM1029.2 133.717C1029.21 133.794 1029.23 133.869 1029.27 133.939C1029.23 133.869 1029.21 133.794 1029.2 133.717ZM1033.13 138.865L1033.5 138.952L1033.13 138.865ZM1038.36 138.375C1038.26 138.479 1038.14 138.57 1038.01 138.644L1038.36 138.375ZM1038.41 138.552L1038.07 138.651L1038.41 138.552Z" fill="#FEFEFE"/>
<path d="M1073.38 122.838L1076.12 123.542C1078.43 124.129 1080.71 124.628 1083.07 125.297L1086.14 126.05C1087.22 126.319 1088.38 126.468 1089.46 126.662C1090.54 126.856 1091.2 127.052 1092.08 127.158L1095.86 127.589C1097.58 127.794 1099.3 127.947 1101.03 128.078C1101.35 127.216 1101.65 126.361 1101.92 125.417C1102.44 123.968 1103 122.533 1103.53 121.105C1102.44 121.06 1101.36 120.984 1100.27 120.887L1094.59 120.26C1093.35 120.133 1092.16 119.873 1090.96 119.665C1089.76 119.457 1088.29 119.228 1087 118.902C1084.1 118.221 1081.21 117.533 1078.29 116.808L1074.56 115.836C1074.17 118.138 1073.74 120.447 1073.32 122.757L1073.38 122.838Z" fill="#FEFEFE"/>
<path d="M1110.75 127.762L1110.48 128.513L1114.97 128.62C1119.36 128.706 1123.79 128.732 1128.22 128.662C1132.66 128.592 1136.77 128.612 1140.84 128.262L1145.28 127.925C1147.24 127.795 1149.2 127.546 1151.15 127.275C1150.91 126.453 1150.68 125.654 1150.45 124.854C1150 123.276 1149.7 121.631 1149.35 120.023C1143.4 120.808 1137.44 121.258 1131.5 121.373C1125.32 121.535 1119.2 121.586 1113.04 121.525C1112.21 123.592 1111.38 125.681 1110.65 127.792L1110.75 127.762Z" fill="#FEFEFE"/>
<path d="M1201.21 99.9163C1198.8 101.473 1196.02 102.921 1193.38 104.375C1190.74 105.83 1188.19 107.165 1185.55 108.523L1186.24 108.326C1184.28 109.25 1182.31 110.248 1180.29 111.068C1178.27 111.889 1175.62 113.106 1173.23 113.913L1168.66 115.49C1167.79 115.74 1166.89 115.998 1166.02 116.247C1163.65 116.929 1161.3 117.603 1158.95 118.276C1159.39 119.809 1159.64 121.373 1159.94 122.803C1160.19 123.67 1160.44 124.536 1160.68 125.403C1162 125.024 1163.32 124.645 1164.61 124.274C1166.62 123.699 1168.6 123.131 1170.6 122.556C1172.6 121.98 1174.79 121.352 1176.75 120.428C1179.3 119.36 1182.13 118.283 1184.75 117.051C1187.36 115.819 1189.54 114.857 1191.84 113.62L1195.33 111.871C1196.59 111.174 1197.77 110.403 1199.02 109.684C1201.26 108.343 1203.39 106.914 1205.5 105.418C1206.37 104.862 1207.01 104.063 1207.28 103.175C1207.44 102.582 1207.43 101.976 1207.24 101.417C1207.06 100.857 1206.7 100.362 1206.21 99.9807C1205.72 99.599 1205.11 99.3434 1204.44 99.2386C1203.77 99.1338 1203.07 99.1834 1202.39 99.3827C1201.99 99.4957 1201.6 99.6633 1201.25 99.8789L1201.21 99.9163Z" fill="#FEFEFE"/>
</g>
<defs>
<clipPath id="clip0">
<rect width="115" height="101" fill="white" transform="translate(1227.23) rotate(15.6401)"/>
</clipPath>
<clipPath id="clip1">
<rect width="389" height="103" fill="white" transform="translate(0 25.0308) rotate(-2.06704)"/>
</clipPath>
<clipPath id="clip2">
<rect width="412.44" height="103" fill="white" transform="translate(803.647 111.983) rotate(168.641)"/>
</clipPath>
<clipPath id="clip3">
<rect width="412.44" height="103" fill="white" transform="translate(804 120.818) rotate(-16.0194)"/>
</clipPath>
</defs>
</svg>
