<svg width="44" height="43" viewBox="0 0 44 43" fill="none" xmlns="http://www.w3.org/2000/svg">
<rect x="3.3418" y="2.9054" width="38.4304" height="38.3514" fill="white"/>
<path d="M40.0198 7.33104e-06H3.98016C1.782 7.33104e-06 0 1.74151 0 3.88971V39.1102C0 41.2585 1.782 43 3.98016 43H40.0197C42.218 43 44 41.2585 44 39.1102V3.88971C44 1.74151 42.218 7.33104e-06 40.0198 7.33104e-06ZM13.6155 37.129C13.6155 37.7542 13.0969 38.261 12.4572 38.261H7.52665C6.88692 38.261 6.36837 37.7542 6.36837 37.129V16.9302C6.36837 16.305 6.88692 15.7982 7.52665 15.7982H12.4572C13.0969 15.7982 13.6155 16.305 13.6155 16.9302V37.129ZM9.99192 13.8942C7.40502 13.8942 5.30787 11.8447 5.30787 9.3166C5.30787 6.78849 7.40502 4.73901 9.99192 4.73901C12.5788 4.73901 14.676 6.78849 14.676 9.3166C14.676 11.8447 12.5789 13.8942 9.99192 13.8942ZM39.3823 37.2202C39.3823 37.795 38.9054 38.261 38.3173 38.261H33.0265C32.4384 38.261 31.9615 37.795 31.9615 37.2202V27.7458C31.9615 26.3324 32.3857 21.5523 28.182 21.5523C24.9213 21.5523 24.2599 24.8242 24.1271 26.2925V37.2202C24.1271 37.795 23.6503 38.261 23.0621 38.261H17.945C17.3568 38.261 16.88 37.795 16.88 37.2202V16.839C16.88 16.2643 17.3568 15.7982 17.945 15.7982H23.0621C23.6502 15.7982 24.1271 16.2643 24.1271 16.839V18.6012C25.3362 16.828 27.133 15.4593 30.9588 15.4593C39.4308 15.4593 39.3823 23.1943 39.3823 27.4444V37.2202Z" fill="#0077B7"/>
</svg>
