<svg width="1326" height="210" viewBox="0 0 1326 210" fill="none" xmlns="http://www.w3.org/2000/svg">
<g clip-path="url(#clip0)">
<path d="M1.56862 36.6062L107.995 71.6916L125.8 53.7861L1.56862 36.6062Z" fill="white"/>
<path d="M1.56858 36.6062L63.5565 112.052L86.7403 93.0449L96.8069 84.7814L1.56858 36.6062Z" fill="white"/>
<path d="M1.5686 36.6062L96.8069 84.7814L101.067 99.9991L107.995 71.6916L1.5686 36.6062Z" fill="#DBD8DD"/>
<path d="M86.7403 93.0448L101.067 99.9992L96.8069 84.7814L86.7403 93.0448Z" fill="#BBBBCD"/>
</g>
<g clip-path="url(#clip1)">
<path d="M1329.55 49.661C1328.26 51.8776 1326.83 54.0341 1325.27 56.1216C1320.86 61.8456 1315.21 66.7974 1308.63 70.7172C1307.52 69.0581 1306.38 67.4211 1305.24 65.8072L1304.88 65.3084C1308.53 63.0899 1311.93 60.5879 1315.04 57.8341L1315.05 57.6955C1318.21 54.6144 1320.96 51.238 1323.24 47.629L1329.55 49.6148L1329.55 49.661Z" fill="#FEFEFE"/>
<path d="M1297.26 70.1219C1298.39 71.7589 1299.53 73.3728 1300.61 75.031L1298.6 75.9759C1293.18 78.3135 1287.46 80.1243 1281.55 81.3744C1278.56 82.0292 1275.52 82.5068 1272.45 82.8037C1273.01 80.5696 1273.4 78.3042 1273.62 76.0226C1274.33 75.9325 1275.01 75.8646 1275.69 75.7505C1278.83 75.2662 1281.92 74.6052 1284.95 73.7717C1289.05 72.6609 1293.03 71.2571 1296.84 69.575L1297.26 70.1219Z" fill="#FEFEFE"/>
<path d="M1255.14 43.4364C1255.78 43.6429 1256.4 43.8975 1256.99 44.197L1258.19 44.8647C1259.48 45.7664 1260.53 46.8932 1261.27 48.1681C1263.05 51.4152 1263.91 54.9646 1263.78 58.5283C1263.74 59.6833 1263.94 60.8471 1263.9 62.0483C1263.85 63.2163 1263.63 64.3733 1263.26 65.4947C1262.88 66.8131 1262.38 68.1022 1261.76 69.3496C1260.66 71.6931 1259.36 73.9651 1257.87 76.1483C1259.93 76.4427 1262 76.5873 1264.08 76.5805L1264.08 76.696C1263.68 78.9058 1263.15 81.0947 1262.48 83.2536C1259.19 83.2993 1255.9 82.9075 1252.74 82.0924L1252.2 82.6051C1250.17 84.4012 1247.98 86.0693 1245.66 87.5964C1242.87 89.6179 1239.58 91.0793 1236.02 91.8744C1234.56 92.2299 1233.07 92.4931 1231.56 92.6618C1230.12 92.8409 1228.67 92.9276 1227.23 92.9911C1227.32 90.5426 1227.14 88.1073 1227.03 85.6749L1228.53 85.5902C1230.57 85.4499 1232.59 85.1194 1234.55 84.6046C1235.96 84.1928 1237.33 83.669 1238.63 83.0402C1240.97 81.6878 1243.18 80.174 1245.23 78.5138C1243.2 76.8928 1241.51 74.9844 1240.24 72.8751C1239.67 71.8771 1239.18 70.8469 1238.78 69.7922C1238.1 68.3507 1237.58 66.8608 1237.23 65.3415C1236.79 62.7626 1236.88 60.1438 1237.5 57.603C1237.52 57.0486 1237.74 56.478 1237.92 55.9526C1240.58 57.3904 1243.25 58.8743 1245.69 60.3735C1245.59 61.3713 1245.55 62.3739 1245.59 63.3765C1245.74 64.451 1246 65.5131 1246.37 66.5504C1246.67 67.2783 1246.97 68.0292 1247.32 68.7591C1247.74 69.6805 1248.27 70.5667 1248.88 71.406C1249.4 72.0057 1249.95 72.5816 1250.53 73.1309C1251.28 72.1996 1251.97 71.2363 1252.6 70.2447C1254.04 67.9486 1255.18 65.5238 1256.01 63.0126C1256.36 60.8648 1256.44 58.6888 1256.24 56.5215C1256.09 55.1489 1255.82 53.7864 1255.44 52.4447C1255.16 51.8485 1254.83 51.2717 1254.44 50.7202C1254.28 50.5267 1254.11 50.3426 1253.92 50.1693L1253.55 49.9477L1252.82 49.7134L1252.58 49.7046C1252.29 49.8038 1252.02 49.9174 1251.75 50.0448C1251.62 50.1121 1251.49 50.1931 1251.39 50.2861C1250.67 51.037 1250.01 51.8241 1249.4 52.643C1247.08 51.2873 1244.71 49.9758 1242.37 48.6653C1242.48 48.5359 1242.59 48.4007 1242.68 48.2603C1243.16 47.6532 1243.67 47.0934 1244.21 46.5345C1245.29 45.4184 1246.63 44.4996 1248.14 43.8314C1249.17 43.4028 1250.29 43.1299 1251.43 43.0249L1252.71 43.071C1253.56 43.1012 1254.41 43.2329 1255.22 43.4624L1255.14 43.4364Z" fill="#FEFEFE"/>
<path d="M1197.14 70.5559C1198.26 71.8223 1199.33 73.133 1200.42 74.4215C1201.52 75.7101 1202.41 76.6905 1203.45 77.7692C1204.26 78.6244 1205.14 79.4292 1206.08 80.1771C1208.11 81.6121 1210.3 82.8762 1212.61 83.9514C1213.94 84.5062 1215.32 84.9512 1216.75 85.2804L1217.45 85.3059C1217.55 87.7844 1217.62 90.2851 1217.64 92.7607L1217.18 92.744C1215.15 92.4989 1213.15 92.0542 1211.22 91.4187C1209.36 90.7267 1207.57 89.8877 1205.88 88.9128C1204.39 88.188 1202.98 87.3634 1201.65 86.447C1200.15 85.3669 1198.72 84.2189 1197.37 83.0081C1196.11 81.8465 1194.95 80.6144 1193.88 79.3205C1192.89 78.2206 1191.98 77.0775 1190.99 75.9777L1190.83 75.787L1192.62 72.9834C1193.49 71.4882 1194.44 70.0652 1195.49 68.6231C1196.1 69.2462 1196.67 69.8915 1197.25 70.5367L1197.14 70.5559Z" fill="#FEFEFE"/>
<path d="M1163.18 52.8155C1165.72 53.1885 1168.23 53.7354 1170.67 54.4508C1173.44 55.2622 1176.13 56.2644 1178.72 57.4474C1182.15 58.8535 1185.38 60.5924 1188.34 62.629C1186.96 64.7302 1185.47 66.8276 1184.28 68.9819L1184.02 69.4351C1181.64 67.7242 1179.06 66.2208 1176.33 64.9477L1172.55 63.4005C1169.83 62.298 1167 61.4211 1164.08 60.7819C1162.97 60.5997 1161.85 60.4743 1160.73 60.4063L1160.46 58.6621C1160.12 56.7994 1159.89 54.8944 1159.42 53.0499C1159.42 52.842 1159.43 52.6341 1159.25 52.4425L1159.57 52.4542C1160.77 52.4974 1161.96 52.5867 1163.15 52.7222L1163.18 52.8155Z" fill="#FEFEFE"/>
<path d="M1150.5 56.0127C1150.77 57.6183 1151.04 59.2471 1151.28 60.8749C1150.32 61.0485 1149.39 61.2461 1148.54 61.4699C1144.85 62.5361 1141.33 63.961 1138.03 65.7166C1134.89 67.4612 1131.93 69.4364 1129.2 71.6199C1127.85 70.6921 1126.55 69.7201 1125.17 68.7683L1121.94 66.3387C1123.4 65.1423 1124.91 63.9709 1126.47 62.8708C1131.11 59.6065 1136.29 56.9415 1141.84 54.96C1144.1 54.1677 1146.43 53.54 1148.81 53.0836L1149.74 52.9322C1150.01 53.9362 1150.24 54.9393 1150.51 55.9434L1150.5 56.0127Z" fill="#FEFEFE"/>
<path d="M1122.52 77.3926L1120.58 79.173L1121.32 78.4131L1119.91 79.8194L1120.92 80.2955C1123.1 81.3934 1125.15 82.668 1127.04 84.1013C1128.03 84.8069 1128.91 85.6161 1129.67 86.5093C1130.51 87.609 1131.22 88.7733 1131.8 89.9863C1132.39 91.0958 1132.69 92.2985 1132.68 93.5106C1132.61 94.5444 1132.37 95.5633 1131.97 96.5383C1131.31 98.4142 1130.33 100.195 1129.06 101.823C1127.35 103.558 1125.08 104.82 1122.52 105.449C1121.23 105.881 1119.89 106.174 1118.52 106.322C1116.56 106.53 1114.56 106.156 1112.87 105.263C1111.72 104.557 1110.67 103.743 1109.73 102.836C1108.76 102.012 1107.88 101.113 1107.11 100.151C1106.26 99.1219 1105.57 98 1105.08 96.8167C1104.43 95.2232 1104.06 93.5561 1104.01 91.8745C1103.99 89.3058 1104.49 86.7586 1105.47 84.3408C1105.75 83.6335 1106.04 82.9503 1106.39 82.2691C1105.27 82.0972 1104.14 81.9945 1103.01 81.9618C1101.25 82.1586 1099.52 82.4831 1097.83 82.9317C1094.31 84.1414 1090.9 85.5642 1087.62 87.1891C1086.72 85.098 1085.79 83.0058 1084.83 80.9358C1086.35 80.2043 1087.87 79.4959 1089.45 78.7894C1091.49 77.9105 1093.6 77.1672 1095.78 76.5662C1096.77 76.3243 1097.73 76.1045 1098.71 75.9087C1100.89 75.448 1103.15 75.3104 1105.39 75.502C1107.15 75.661 1108.9 75.9562 1110.6 76.384C1112.04 74.8401 1113.43 73.3173 1115.11 71.9208C1117.55 73.6742 1119.96 75.4034 1122.42 77.1346L1122.52 77.3926ZM1119.69 98.6855C1120.63 98.4461 1121.55 98.1547 1122.44 97.8133C1122.95 97.2638 1123.41 96.6767 1123.81 96.0586C1124.32 95.1756 1124.75 94.2543 1125.07 93.3056C1125.08 93.0746 1125.09 92.8667 1124.91 92.6288C1124.53 91.7662 1124.07 90.9297 1123.53 90.1274C1123.19 89.7819 1122.83 89.4524 1122.45 89.1401C1120.99 88.0325 1119.43 87.0248 1117.78 86.1264C1117.08 85.7544 1116.36 85.4277 1115.64 85.1009C1114.86 86.5659 1114.25 88.093 1113.82 89.6611C1113.63 90.5807 1113.53 91.5136 1113.53 92.4493C1113.61 93.1959 1113.77 93.9362 1113.99 94.6634C1114.29 95.2541 1114.64 95.8301 1115.02 96.3889C1115.81 97.3671 1116.68 98.2955 1117.63 99.1665C1118.31 99.0908 1118.98 98.9679 1119.63 98.7991L1119.69 98.6855ZM1124.64 91.9251C1124.64 92.0022 1124.64 92.0797 1124.63 92.1561C1124.64 92.0797 1124.64 92.0022 1124.64 91.9251ZM1122.08 97.8699L1121.75 98.0429L1122.08 97.8699ZM1116.94 98.6559C1117.07 98.7328 1117.2 98.7924 1117.35 98.8323L1116.94 98.6559ZM1116.94 98.8407L1117.29 98.8534L1116.94 98.8407Z" fill="#FEFEFE"/>
<path d="M1079.59 92.0341L1077.13 93.3791C1075.05 94.5068 1072.97 95.5421 1070.86 96.7612L1068.09 98.2341C1067.12 98.7542 1066.04 99.1779 1065.05 99.6278C1064.05 100.078 1063.47 100.427 1062.64 100.744L1059.12 102.074C1057.52 102.687 1055.89 103.253 1054.27 103.795C1053.75 103.037 1053.27 102.279 1052.78 101.429C1051.93 100.149 1051.05 98.8912 1050.2 97.6346C1051.24 97.3253 1052.26 96.992 1053.28 96.6356L1058.6 94.6533C1059.75 94.2324 1060.83 93.6931 1061.94 93.201C1063.04 92.7089 1064.4 92.1332 1065.56 91.5045C1068.19 90.1423 1070.8 88.7791 1073.43 87.3706L1076.78 85.5257C1077.71 87.664 1078.67 89.8034 1079.62 91.9427L1079.59 92.0341Z" fill="#FEFEFE"/>
<path d="M1044.85 105.838L1045.29 106.501L1041 107.688C1036.8 108.832 1032.55 109.927 1028.27 110.929C1024 111.932 1020.05 112.945 1016.06 113.588L1011.71 114.333C1009.79 114.68 1007.85 114.911 1005.92 115.118C1005.95 114.264 1005.98 113.432 1006.01 112.601C1006.07 110.961 1005.96 109.291 1005.91 107.647C1011.81 106.973 1017.65 105.97 1023.39 104.647C1029.36 103.313 1035.26 101.883 1041.16 100.338C1042.45 102.143 1043.75 103.971 1044.96 105.841L1044.85 105.838Z" fill="#FEFEFE"/>
<path d="M951.289 100.657C953.973 101.586 956.991 102.32 959.871 103.094C962.751 103.869 965.527 104.548 968.383 105.229L967.677 105.203C969.782 105.626 971.912 106.12 974.048 106.428C976.184 106.736 979.018 107.278 981.512 107.484L986.28 107.91C987.176 107.943 988.099 107.976 988.994 108.008C991.438 108.096 993.853 108.184 996.269 108.271C996.212 109.865 996.345 111.442 996.401 112.902C996.369 113.802 996.336 114.703 996.304 115.604C994.946 115.555 993.589 115.506 992.259 115.458C990.196 115.384 988.16 115.31 986.097 115.236C984.034 115.161 981.781 115.08 979.676 114.657C976.973 114.236 973.996 113.874 971.19 113.31C968.384 112.746 966.061 112.339 963.556 111.693L959.782 110.84C958.409 110.466 957.094 110.003 955.722 109.606C953.249 108.846 950.861 107.973 948.476 107.032C947.502 106.704 946.701 106.082 946.229 105.285C945.929 104.75 945.797 104.159 945.844 103.571C945.891 102.982 946.116 102.416 946.498 101.927C946.879 101.438 947.404 101.043 948.021 100.78C948.638 100.517 949.327 100.395 950.019 100.426C950.434 100.438 950.845 100.508 951.235 100.632L951.289 100.657Z" fill="#FEFEFE"/>
</g>
<g clip-path="url(#clip2)">
<path d="M537.337 112.588C536.51 112.373 535.791 111.897 535.334 111.259C534.877 110.621 534.718 109.873 534.889 109.173C535.099 108.13 535.304 107.111 535.701 106.106C536.126 104.934 536.645 103.794 537.254 102.693C538.557 100.27 540.019 97.9191 541.635 95.6511L547.48 98.5935L547.21 98.9636C545.324 101.536 543.677 104.24 542.284 107.051C541.836 108.251 541.468 109.476 541.183 110.72C540.998 111.394 540.514 111.965 539.83 112.318C539.146 112.671 538.312 112.779 537.499 112.621L537.337 112.588Z" fill="#FEFEFE"/>
<path d="M546.682 89.0496C548.329 87.0733 550.101 85.1787 551.992 83.3733C557.307 78.4444 563.734 74.4801 570.933 71.6884C571.771 73.5071 572.64 75.3085 573.514 77.0873L573.795 77.6388C569.797 79.2314 566.003 81.1446 562.461 83.3545L562.434 83.4905C558.782 86.014 555.5 88.8974 552.648 92.087L546.673 89.0949L546.682 89.0496Z" fill="#FEFEFE"/>
<path d="M582.167 74.1337C581.297 72.3322 580.423 70.5534 579.612 68.7402L581.776 68.1375C587.555 66.7162 593.546 65.8635 599.637 65.5954C602.722 65.4377 605.83 65.4634 608.94 65.6724C608.016 67.7848 607.262 69.9568 606.682 72.174C605.96 72.1468 605.269 72.1024 604.57 72.1033C601.365 72.0686 598.176 72.2156 595.023 72.5431C590.758 72.9694 586.566 73.7047 582.492 74.7413L582.167 74.1337Z" fill="#FEFEFE"/>
<path d="M619.847 107.354C619.242 107.046 618.666 106.693 618.127 106.302L617.04 105.447C615.895 104.345 615.027 103.061 614.494 101.682C613.244 98.1863 612.96 94.5427 613.664 91.0469C613.892 89.9138 613.878 88.732 614.114 87.5536C614.354 86.4093 614.755 85.3026 615.308 84.2569C615.896 83.0173 616.603 81.8268 617.422 80.6972C618.901 78.5647 620.561 76.5347 622.393 74.6226C620.393 73.9964 618.346 73.5142 616.274 73.1813L616.297 73.068C617.046 70.9515 617.929 68.8781 618.944 66.8567C622.233 67.3498 625.446 68.2737 628.467 69.5951L629.083 69.1765C631.401 67.7365 633.848 66.4474 636.406 65.3193C639.515 63.7804 643.032 62.8763 646.704 62.6726C648.217 62.5604 649.745 62.5442 651.275 62.6242C652.746 62.6839 654.199 62.8343 655.647 63.0074C655.165 65.4096 654.956 67.8432 654.666 70.2605L653.159 70.0993C651.1 69.9038 649.036 69.9003 647.005 70.089C645.528 70.2641 644.083 70.5578 642.687 70.9663C640.133 71.9179 637.687 73.0509 635.375 74.3541C637.14 76.2862 638.515 78.4457 639.438 80.7344C639.847 81.813 640.169 82.9097 640.402 84.0166C640.843 85.5497 641.121 87.105 641.231 88.6628C641.251 91.2795 640.735 93.8486 639.706 96.2546C639.597 96.7985 639.295 97.3273 639.029 97.8161C636.603 95.9613 634.186 94.0613 631.989 92.1818C632.254 91.214 632.451 90.2304 632.581 89.2357C632.604 88.1506 632.514 87.0596 632.313 85.9753C632.131 85.208 631.954 84.4179 631.718 83.6398C631.446 82.6614 631.068 81.7012 630.588 80.772C630.173 80.0962 629.717 79.4379 629.221 78.7999C628.329 79.5974 627.488 80.4357 626.701 81.3116C624.895 83.3421 623.363 85.5482 622.134 87.8914C621.439 89.954 621.011 92.0888 620.854 94.2595C620.785 95.6389 620.833 97.0276 620.999 98.4145C621.18 99.0483 621.42 99.6721 621.716 100.28C621.844 100.497 621.988 100.707 622.149 100.909L622.485 101.188L623.17 101.538L623.412 101.587C623.711 101.535 624.005 101.468 624.292 101.386C624.434 101.342 624.569 101.281 624.692 101.207C625.527 100.583 626.316 99.9152 627.052 99.2061C629.142 100.923 631.295 102.605 633.42 104.281C633.286 104.39 633.16 104.507 633.043 104.63C632.462 105.15 631.865 105.619 631.24 106.083C629.98 107.007 628.5 107.696 626.887 108.108C625.789 108.363 624.636 108.45 623.477 108.367L622.213 108.113C621.367 107.943 620.545 107.675 619.771 107.315L619.847 107.354Z" fill="#FEFEFE"/>
<path d="M682.028 90.0683C681.113 88.6349 680.261 87.1669 679.377 85.7162C678.493 84.2655 677.765 83.1526 676.894 81.9167C676.226 80.9406 675.479 80.0026 674.659 79.1102C672.87 77.3627 670.896 75.758 668.766 74.319C667.532 73.5546 666.223 72.8889 664.856 72.3312L664.156 72.1907C664.455 69.728 664.786 67.2481 665.165 64.8016L665.622 64.8935C667.613 65.4683 669.535 66.234 671.348 67.1754C673.099 68.1637 674.747 69.2842 676.273 70.5223C677.636 71.4803 678.914 72.5254 680.094 73.6476C681.413 74.9584 682.652 76.3249 683.805 77.741C684.87 79.0928 685.831 80.4989 686.681 81.9496C687.494 83.1974 688.217 84.4743 689.03 85.722L689.155 85.9358L686.923 88.4109C685.815 89.7445 684.641 90.9939 683.354 92.2443C682.854 91.5308 682.385 90.8001 681.916 90.0693L682.028 90.0683Z" fill="#FEFEFE"/>
<path d="M713.019 113.127C710.543 112.344 708.132 111.394 705.81 110.288C703.179 109.035 700.658 107.606 698.273 106.016C695.082 104.068 692.143 101.824 689.514 99.3288C691.229 97.4806 693.051 95.6539 694.586 93.7226L694.919 93.318C697.019 95.396 699.346 97.301 701.864 99.004L705.379 101.148C707.912 102.681 710.598 104.01 713.397 105.117C714.474 105.478 715.571 105.785 716.682 106.036L716.663 107.8C716.703 109.694 716.625 111.612 716.804 113.511C716.763 113.714 716.722 113.918 716.874 114.138L716.551 114.073C715.367 113.835 714.193 113.552 713.028 113.223L713.019 113.127Z" fill="#FEFEFE"/>
<path d="M726.165 112.043C726.156 110.415 726.152 108.763 726.175 107.118C727.157 107.103 728.117 107.06 729.001 106.978C732.848 106.528 736.592 105.698 740.16 104.504C743.572 103.296 746.834 101.829 749.911 100.121C751.11 101.258 752.246 102.429 753.467 103.594L756.293 106.519C754.649 107.462 752.955 108.371 751.221 109.202C746.075 111.666 740.485 113.45 734.627 114.497C732.251 114.911 729.826 115.149 727.376 115.21L726.425 115.207C726.325 114.174 726.251 113.145 726.151 112.111L726.165 112.043Z" fill="#FEFEFE"/>
<path d="M757.497 95.5149L759.717 94.0748L758.863 94.7048L760.494 93.5473L759.559 92.9114C757.567 91.4721 755.731 89.8795 754.078 88.156C753.203 87.2974 752.452 86.3543 751.843 85.3494C751.185 84.1271 750.661 82.8613 750.28 81.5696C749.871 80.3783 749.766 79.1423 749.972 77.9477C750.209 76.9389 750.61 75.9722 751.165 75.0751C752.124 73.3315 753.388 71.7346 754.915 70.3352C756.896 68.9015 759.369 68.0285 762.023 67.8258C763.372 67.6095 764.759 67.5396 766.151 67.6175C768.138 67.7327 770.064 68.4276 771.604 69.5853C772.639 70.4702 773.56 71.4462 774.35 72.4946C775.183 73.4664 775.913 74.4971 776.53 75.573C777.211 76.7279 777.71 77.9466 778.013 79.1953C778.407 80.8748 778.499 82.5793 778.285 84.2482C777.885 86.7857 776.98 89.2185 775.608 91.4437C775.225 92.0976 774.819 92.7234 774.36 93.3384C775.448 93.691 776.56 93.9773 777.686 94.1951C779.467 94.2877 781.244 94.2503 782.997 94.0832C786.701 93.4647 790.331 92.6181 793.86 91.55C794.423 93.7615 795.013 95.9784 795.635 98.1779C794 98.6513 792.371 99.1019 790.687 99.5418C788.514 100.076 786.284 100.464 784.018 100.701C782.995 100.779 782.004 100.839 780.99 100.871C778.747 100.97 776.474 100.737 774.273 100.182C772.54 99.7364 770.848 99.1598 769.218 98.459C767.532 99.7471 765.904 101.023 764.004 102.127C761.857 99.9981 759.732 97.8974 757.554 95.7858L757.497 95.5149ZM763.752 74.9631C762.778 75.0461 761.816 75.1835 760.871 75.3746C760.269 75.8327 759.718 76.3373 759.225 76.8828C758.566 77.6696 757.995 78.5095 757.517 79.3926C757.472 79.6192 757.431 79.8232 757.573 80.0877C757.815 81.0014 758.139 81.9022 758.543 82.7816C758.825 83.1778 759.131 83.562 759.46 83.9323C760.74 85.2646 762.135 86.5147 763.634 87.6707C764.265 88.1512 764.932 88.5917 765.599 89.0322C766.611 87.7135 767.465 86.3061 768.15 84.8293C768.489 83.9531 768.736 83.0482 768.889 82.125C768.924 81.3741 768.888 80.6181 768.784 79.8641C768.576 79.2315 768.328 78.607 768.04 77.9936C767.408 76.8986 766.685 75.8394 765.878 74.8244C765.191 74.7885 764.506 74.8006 763.828 74.8606L763.752 74.9631ZM757.733 80.827C757.737 80.7495 757.752 80.6735 757.778 80.6003C757.752 80.6735 757.737 80.7495 757.733 80.827ZM761.234 75.3768L761.593 75.2604L761.234 75.3768ZM766.482 75.4408C766.373 75.345 766.248 75.2641 766.111 75.2011L766.482 75.4408ZM766.519 75.2595L766.169 75.1893L766.519 75.2595Z" fill="#FEFEFE"/>
<path d="M802.644 88.0806L805.32 87.1564C807.574 86.3832 809.81 85.7007 812.109 84.8423L815.109 83.8416C816.159 83.4868 817.299 83.2443 818.363 82.9629C819.427 82.6815 820.065 82.4324 820.94 82.2546L824.67 81.5185C826.362 81.1747 828.072 80.8816 829.777 80.6112C830.169 81.4444 830.535 82.2723 830.882 83.1908C831.524 84.5929 832.197 85.9777 832.843 87.3571C831.753 87.4917 830.685 87.6543 829.612 87.8397L823.993 88.9271C822.772 89.1534 821.61 89.5092 820.429 89.8143C819.248 90.1194 817.807 90.4665 816.546 90.8968C813.704 91.8112 810.888 92.731 808.037 93.6907L804.395 94.9632C803.815 92.701 803.207 90.4334 802.599 88.1658L802.644 88.0806Z" fill="#FEFEFE"/>
<path d="M839.499 80.1358L839.169 79.4094L843.629 78.9379C847.999 78.4955 852.414 78.1093 856.838 77.8191C861.262 77.5289 865.363 77.1739 869.445 77.1923L873.899 77.1676C875.864 77.1379 877.833 77.2269 879.797 77.3386C879.629 78.1771 879.465 78.9929 879.301 79.8088C878.978 81.4178 878.811 83.0819 878.596 84.7125C872.606 84.4142 866.626 84.4493 860.693 84.8177C854.524 85.1582 848.418 85.6055 842.289 86.1661C841.29 84.1736 840.296 82.1585 839.391 80.1142L839.499 80.1358Z" fill="#FEFEFE"/>
<path d="M931.915 100.54C929.389 99.1834 926.499 97.9663 923.753 96.731C921.007 95.4956 918.35 94.3725 915.613 93.2332L916.312 93.3737C914.282 92.6123 912.239 91.7775 910.16 91.124C908.081 90.4705 905.343 89.4726 902.891 88.8622L898.207 87.6619C897.319 87.4836 896.405 87.2999 895.517 87.1216C893.097 86.6353 890.703 86.1544 888.309 85.6735C888.623 84.1098 888.744 82.531 888.923 81.0816C889.101 80.1978 889.278 79.314 889.456 78.4301C890.801 78.7003 892.146 78.9705 893.464 79.2352C895.508 79.6459 897.525 80.0511 899.57 80.4618C901.614 80.8724 903.846 81.3209 905.876 82.0823C908.502 82.9399 911.411 83.7836 914.117 84.7988C916.823 85.8139 919.073 86.5959 921.465 87.6423L925.09 89.1013C926.398 89.6941 927.634 90.3668 928.937 90.9823C931.28 92.1366 933.519 93.388 935.745 94.7074C936.663 95.1899 937.361 95.935 937.703 96.7984C937.915 97.3757 937.953 97.9803 937.811 98.5533C937.669 99.1264 937.353 99.6485 936.894 100.069C936.435 100.489 935.849 100.794 935.191 100.952C934.534 101.111 933.828 101.119 933.142 100.975C932.731 100.895 932.333 100.759 931.964 100.573L931.915 100.54Z" fill="#FEFEFE"/>
</g>
<g clip-path="url(#clip3)">
<path d="M531.016 119.97C531.824 120.251 532.501 120.785 532.905 121.457C533.309 122.13 533.407 122.888 533.179 123.573C532.885 124.595 532.598 125.594 532.12 126.563C531.602 127.696 530.992 128.791 530.295 129.839C528.8 132.148 527.152 134.372 525.357 136.501L519.77 133.094L520.069 132.747C522.158 130.336 524.02 127.775 525.637 125.087C526.181 123.927 526.646 122.736 527.032 121.519C527.271 120.863 527.8 120.332 528.51 120.036C529.221 119.74 530.06 119.7 530.858 119.924L531.016 119.97Z" fill="#FEFEFE"/>
<path d="M519.79 142.671C517.988 144.507 516.068 146.251 514.037 147.897C508.338 152.378 501.611 155.807 494.209 158.004C493.521 156.123 492.801 154.257 492.075 152.413L491.839 151.841C495.954 150.579 499.891 148.98 503.6 147.065L503.639 146.932C507.483 144.713 510.989 142.106 514.091 139.159L519.803 142.627L519.79 142.671Z" fill="#FEFEFE"/>
<path d="M483.211 154.654C483.931 156.52 484.657 158.364 485.318 160.237L483.113 160.662C477.237 161.609 471.197 161.972 465.105 161.745C462.017 161.651 458.921 161.373 455.839 160.912C456.931 158.882 457.859 156.778 458.617 154.615C459.335 154.701 460.019 154.802 460.717 154.858C463.908 155.152 467.098 155.265 470.268 155.195C474.554 155.117 478.791 154.724 482.935 154.022L483.211 154.654Z" fill="#FEFEFE"/>
<path d="M448.355 118.482C448.933 118.838 449.478 119.236 449.983 119.671L450.997 120.611C452.049 121.802 452.81 123.153 453.228 124.571C454.19 128.156 454.177 131.81 453.191 135.238C452.873 136.348 452.791 137.527 452.459 138.683C452.127 139.804 451.638 140.874 451.001 141.871C450.315 143.059 449.514 144.188 448.605 145.248C446.958 147.253 445.138 149.141 443.158 150.898C445.099 151.685 447.1 152.332 449.139 152.832L449.107 152.943C448.188 154.992 447.139 156.986 445.964 158.919C442.726 158.16 439.598 156.978 436.694 155.416L436.047 155.783C433.619 157.03 431.075 158.116 428.434 159.032C425.211 160.313 421.631 160.929 417.956 160.833C416.439 160.822 414.915 160.714 413.396 160.51C411.934 160.331 410.498 160.063 409.069 159.773C409.745 157.418 410.151 155.009 410.636 152.624L412.125 152.907C414.162 153.269 416.219 153.44 418.258 153.417C419.744 153.362 421.209 153.187 422.633 152.893C425.256 152.153 427.786 151.222 430.197 150.111C428.594 148.042 427.399 145.778 426.665 143.422C426.345 142.313 426.113 141.194 425.971 140.072C425.656 138.508 425.506 136.935 425.522 135.374C425.715 132.764 426.438 130.245 427.659 127.931C427.812 127.398 428.156 126.895 428.461 126.43C430.728 128.475 432.982 130.566 435.019 132.617C434.677 133.56 434.4 134.525 434.19 135.506C434.079 136.585 434.08 137.68 434.193 138.777C434.311 139.557 434.424 140.358 434.595 141.153C434.787 142.15 435.086 143.138 435.489 144.103C435.848 144.811 436.249 145.504 436.691 146.18C437.645 145.458 438.551 144.69 439.406 143.881C441.372 142.004 443.078 139.93 444.494 137.694C445.353 135.695 445.954 133.602 446.286 131.451C446.468 130.082 446.533 128.694 446.48 127.298C446.351 126.652 446.163 126.011 445.917 125.381C445.807 125.154 445.68 124.933 445.536 124.719L445.224 124.413L444.57 124.008L444.333 123.94C444.031 123.967 443.732 124.01 443.439 124.069C443.294 124.102 443.155 124.151 443.026 124.215C442.143 124.769 441.303 125.371 440.511 126.017C438.567 124.137 436.559 122.285 434.576 120.442C434.719 120.344 434.854 120.238 434.981 120.125C435.602 119.654 436.236 119.235 436.896 118.823C438.227 118.004 439.757 117.438 441.399 117.158C442.514 116.994 443.67 117 444.818 117.178L446.058 117.534C446.887 117.771 447.685 118.105 448.427 118.527L448.355 118.482Z" fill="#FEFEFE"/>
<path d="M384.974 130.658C385.77 132.161 386.5 133.693 387.263 135.211C388.026 136.729 388.661 137.897 389.429 139.2C390.015 140.227 390.683 141.222 391.428 142.179C393.069 144.066 394.906 145.825 396.913 147.433C398.08 148.295 399.331 149.065 400.649 149.732L401.334 149.929C400.836 152.359 400.306 154.804 399.729 157.211L399.28 157.083C397.343 156.348 395.49 155.428 393.759 154.343C392.094 153.216 390.542 151.965 389.123 150.607C387.842 149.541 386.653 148.396 385.568 147.181C384.36 145.768 383.236 144.305 382.202 142.8C381.25 141.366 380.406 139.887 379.677 138.372C378.968 137.062 378.351 135.73 377.643 134.421L377.535 134.198L379.961 131.912C381.174 130.673 382.446 129.523 383.83 128.381C384.27 129.133 384.678 129.899 385.086 130.666L384.974 130.658Z" fill="#FEFEFE"/>
<path d="M355.96 105.157C358.364 106.139 360.689 107.281 362.914 108.572C365.435 110.036 367.831 111.665 370.079 113.443C373.101 115.644 375.848 118.12 378.265 120.82C376.406 122.522 374.442 124.195 372.755 125.995L372.39 126.371C370.466 124.13 368.301 122.042 365.93 120.14L362.601 117.717C360.2 115.984 357.632 114.441 354.932 113.11C353.888 112.663 352.82 112.268 351.732 111.927L351.894 110.17C352.009 108.279 352.242 106.374 352.219 104.467C352.276 104.267 352.333 104.068 352.2 103.837L352.516 103.928C353.677 104.261 354.824 104.638 355.959 105.06L355.96 105.157Z" fill="#FEFEFE"/>
<path d="M342.769 105.169C342.645 106.793 342.515 108.439 342.359 110.078C341.378 110.013 340.418 109.977 339.53 109.987C335.66 110.123 331.861 110.646 328.208 111.546C324.709 112.473 321.338 113.67 318.133 115.122C317.03 113.892 315.993 112.632 314.871 111.372L312.291 108.227C314.007 107.421 315.769 106.652 317.565 105.965C322.894 103.927 328.611 102.604 334.535 102.036C336.936 101.817 339.373 101.776 341.82 101.915L342.767 101.994C342.783 103.033 342.772 104.064 342.788 105.103L342.769 105.169Z" fill="#FEFEFE"/>
<path d="M310.198 119.097L307.868 120.352L308.771 119.793L307.05 120.814L307.931 121.524C309.8 123.121 311.5 124.857 313.007 126.709C313.81 127.636 314.482 128.637 315.007 129.688C315.563 130.96 315.982 132.264 316.258 133.583C316.568 134.803 316.572 136.044 316.27 137.217C315.952 138.204 315.474 139.135 314.848 139.984C313.75 141.643 312.361 143.132 310.725 144.403C308.634 145.671 306.098 146.34 303.436 146.327C302.074 146.433 300.686 146.39 299.305 146.199C297.334 145.923 295.471 145.073 294.03 143.794C293.071 142.828 292.232 141.781 291.53 140.672C290.778 139.635 290.134 138.549 289.607 137.426C289.022 136.22 288.624 134.965 288.424 133.695C288.167 131.989 288.214 130.283 288.563 128.637C289.167 126.141 290.267 123.789 291.816 121.683C292.251 121.062 292.706 120.472 293.213 119.896C292.158 119.456 291.073 119.08 289.968 118.772C288.201 118.535 286.427 118.428 284.665 118.452C280.923 118.767 277.236 119.316 273.633 120.094C273.251 117.844 272.843 115.587 272.402 113.344C274.07 113.005 275.731 112.688 277.444 112.386C279.654 112.03 281.908 111.825 284.185 111.773C285.211 111.779 286.204 111.799 287.217 111.85C289.461 111.933 291.707 112.35 293.857 113.082C295.547 113.667 297.187 114.379 298.755 115.21C300.54 114.063 302.266 112.923 304.25 111.978C306.216 114.274 308.163 116.541 310.163 118.822L310.198 119.097ZM302.293 139.072C303.271 139.069 304.241 139.01 305.198 138.896C305.836 138.489 306.426 138.031 306.962 137.527C307.682 136.796 308.32 136.006 308.867 135.164C308.931 134.942 308.989 134.742 308.868 134.467C308.702 133.537 308.452 132.612 308.12 131.703C307.872 131.285 307.598 130.878 307.3 130.482C306.133 129.05 304.843 127.69 303.444 126.416C302.854 125.886 302.225 125.393 301.596 124.9C300.48 126.132 299.514 127.465 298.711 128.881C298.302 129.727 297.982 130.609 297.755 131.517C297.66 132.262 297.633 133.019 297.676 133.779C297.832 134.426 298.029 135.069 298.266 135.704C298.807 136.846 299.441 137.961 300.163 139.038C300.844 139.13 301.529 139.173 302.209 139.168L302.293 139.072ZM308.769 133.717C308.758 133.794 308.737 133.868 308.705 133.939C308.737 133.868 308.758 133.794 308.769 133.717ZM304.836 138.865L304.469 138.952L304.836 138.865ZM299.611 138.374C299.712 138.479 299.83 138.57 299.962 138.644L299.611 138.374ZM299.56 138.552L299.903 138.651L299.56 138.552Z" fill="#FEFEFE"/>
<path d="M264.596 122.838L261.853 123.542C259.544 124.129 257.26 124.628 254.899 125.297L251.828 126.05C250.752 126.318 249.596 126.468 248.513 126.662C247.429 126.856 246.774 127.052 245.887 127.158L242.11 127.589C240.395 127.794 238.667 127.947 236.945 128.078C236.622 127.216 236.325 126.361 236.054 125.417C235.528 123.968 234.97 122.533 234.437 121.105C235.535 121.06 236.613 120.984 237.697 120.887L243.386 120.26C244.621 120.133 245.809 119.873 247.011 119.665C248.212 119.457 249.676 119.228 250.969 118.902C253.876 118.221 256.757 117.533 259.676 116.808L263.409 115.836C263.805 118.138 264.226 120.447 264.648 122.757L264.596 122.838Z" fill="#FEFEFE"/>
<path d="M227.217 127.762L227.487 128.513L223.003 128.62C218.611 128.706 214.18 128.732 209.747 128.662C205.314 128.592 201.198 128.612 197.131 128.262L192.69 127.925C190.729 127.795 188.774 127.546 186.825 127.275C187.061 126.453 187.291 125.654 187.52 124.854C187.973 123.276 188.274 121.631 188.622 120.024C194.567 120.808 200.531 121.258 206.473 121.373C212.649 121.535 218.772 121.586 224.926 121.525C225.76 123.592 226.587 125.681 227.323 127.792L227.217 127.762Z" fill="#FEFEFE"/>
<path d="M136.765 99.9163C139.172 101.473 141.954 102.921 144.59 104.375C147.227 105.83 149.783 107.165 152.419 108.523L151.734 108.326C153.695 109.25 155.663 110.248 157.683 111.068C159.702 111.889 162.35 113.106 164.744 113.913L169.315 115.49C170.185 115.74 171.081 115.998 171.952 116.247C174.325 116.929 176.672 117.603 179.019 118.276C178.579 119.809 178.329 121.373 178.033 122.803C177.784 123.67 177.535 124.536 177.287 125.403C175.968 125.024 174.65 124.646 173.358 124.275C171.354 123.699 169.376 123.131 167.372 122.556C165.368 121.98 163.179 121.352 161.218 120.428C158.67 119.36 155.839 118.283 153.225 117.051C150.61 115.819 148.431 114.857 146.132 113.62L142.638 111.871C141.382 111.174 140.205 110.403 138.956 109.684C136.715 108.343 134.585 106.914 132.474 105.418C131.598 104.862 130.963 104.063 130.692 103.175C130.527 102.582 130.539 101.976 130.727 101.417C130.915 100.857 131.272 100.362 131.763 99.9807C132.255 99.5991 132.865 99.3434 133.533 99.2386C134.201 99.1338 134.905 99.1835 135.577 99.3827C135.98 99.4957 136.366 99.6633 136.719 99.8789L136.765 99.9163Z" fill="#FEFEFE"/>
</g>
<defs>
<clipPath id="clip0">
<rect width="115" height="101" fill="white" transform="matrix(-0.962974 0.269594 0.269594 0.962974 110.742 0)"/>
</clipPath>
<clipPath id="clip1">
<rect width="389" height="103" fill="white" transform="matrix(-0.999349 -0.0360688 -0.0360688 0.999349 1337.97 25.0308)"/>
</clipPath>
<clipPath id="clip2">
<rect width="412.44" height="103" fill="white" transform="matrix(0.980414 0.196948 0.196948 -0.980414 534.324 111.983)"/>
</clipPath>
<clipPath id="clip3">
<rect width="412.44" height="103" fill="white" transform="matrix(-0.961168 -0.275963 -0.275963 0.961168 533.971 120.818)"/>
</clipPath>
</defs>
</svg>
