<svg width="512" height="336" viewBox="0 0 512 336" fill="none" xmlns="http://www.w3.org/2000/svg">
<path d="M3.12537 175.423L163.125 332.923C167.292 337.025 174.042 337.025 178.208 332.923C182.375 328.822 182.375 322.177 178.208 318.076L36.4164 178.5L501.333 178.5C507.229 178.5 512 173.803 512 167.999C512 162.195 507.229 157.499 501.333 157.499L36.4164 157.499L178.208 17.9235C182.375 13.8216 182.375 7.17708 178.208 3.07617C176.125 1.02572 173.395 -1.7484e-06 170.666 -1.7484e-06C167.937 -1.7484e-06 165.208 1.02572 163.124 3.07617L3.12436 160.576C-1.04164 164.677 -1.04163 171.322 3.12537 175.423Z" fill="#515E65"/>
</svg>
