<svg width="512" height="336" viewBox="0 0 512 336" fill="none" xmlns="http://www.w3.org/2000/svg">
<path d="M508.875 160.576L348.875 3.07642C344.708 -1.02547 337.958 -1.02547 333.792 3.07642C329.625 7.17831 329.625 13.8228 333.792 17.9237L475.584 157.5H10.667C4.771 157.5 0 162.197 0 168.001C0 173.804 4.771 178.501 10.667 178.501H475.584L333.792 318.076C329.625 322.178 329.625 328.823 333.792 332.924C335.875 334.974 338.605 336 341.334 336C344.063 336 346.792 334.974 348.876 332.924L508.876 175.424C513.042 171.323 513.042 164.678 508.875 160.576Z" fill="#515E65"/>
</svg>
