<svg width="59" height="68" viewBox="0 0 59 68" fill="none" xmlns="http://www.w3.org/2000/svg">
<path d="M53.1001 34V24.9333C53.1001 21.1778 50.4585 18.1333 47.2001 18.1333H32.8036C32.0626 18.1333 31.4658 18.8322 31.4667 19.6861C31.4679 20.7254 31.6115 21.7264 31.874 22.6667H4.01122C1.80725 22.6667 -0.0399574 24.7455 0.000720317 27.2853C0.0401305 29.7484 1.78685 31.7334 3.93333 31.7334H7.86674V58.9334H43.2668H47.2001C50.4589 58.9334 53.1001 55.8892 53.1001 52.1334H57.2715C58.2261 52.1334 59.0001 51.2415 59.0001 50.1412V35.9922C59.0001 34.892 58.2261 34 57.2715 34H53.1001Z" fill="#FFDCC8"/>
<path d="M38.0394 0H13.094C10.2116 0 7.8667 2.7026 7.8667 6.02451V61.9754C7.8667 65.2973 10.2117 67.9999 13.094 67.9999H38.0394C40.9217 67.9999 43.2667 65.2973 43.2667 61.9754V6.02451C43.2667 2.7026 40.9217 0 38.0394 0V0Z" fill="#00366D"/>
<path d="M43.2667 61.9755V6.02451C43.2667 2.7026 40.9217 0 38.0395 0H25.5667V68H38.0395C40.9217 68 43.2667 65.2974 43.2667 61.9755Z" fill="#01223C"/>
<path d="M37.8353 3.98438H35.8609V6.25985C35.8609 9.71709 33.4293 12.5197 30.4296 12.5197H20.7038C17.7041 12.5197 15.2725 9.71709 15.2725 6.25985V3.98438H13.2982C12.2095 3.98438 11.3237 5.00517 11.3237 6.25985V61.74C11.3237 62.9947 12.2095 64.0155 13.2982 64.0155H37.8353C38.9239 64.0155 39.8097 62.9947 39.8097 61.74V6.25985C39.8097 5.00517 38.9239 3.98438 37.8353 3.98438Z" fill="#5FF9FE"/>
<path d="M39.8097 61.7402V6.25985C39.8097 5.00517 38.9239 3.98438 37.8353 3.98438H35.8609V6.25985C35.8609 9.71709 33.4293 12.5197 30.4296 12.5197H25.5667V64.0156H37.8353C38.9239 64.0156 39.8097 62.9948 39.8097 61.7402Z" fill="#00DDE7"/>
<path d="M7.8667 58.9333C10.039 58.9333 11.8 56.9037 11.8 54.4C11.8 51.8963 10.039 49.8667 7.8667 49.8667C5.69441 49.8667 3.93341 51.8963 3.93341 54.4C3.93341 56.9037 5.69441 58.9333 7.8667 58.9333Z" fill="#FFC5BB"/>
<path d="M12.7833 40.8C14.9545 40.8 16.7167 38.769 16.7167 36.2667C16.7167 33.7644 14.9545 31.7334 12.7833 31.7334H4.91669C2.74545 31.7334 0.983398 33.7644 0.983398 36.2667C0.983398 38.769 2.74545 40.8 4.91669 40.8H6.8834C4.71215 40.8 2.9501 42.831 2.9501 45.3333C2.9501 47.8356 4.71227 49.8666 6.8834 49.8666H12.7834C14.9546 49.8666 16.7168 47.8356 16.7168 45.3333C16.7168 42.831 14.9545 40.8 12.7833 40.8Z" fill="#FFC5BB"/>
<path d="M29.2695 59.4645H21.8638C20.9092 59.4645 20.1353 58.5726 20.1353 57.4723C20.1353 56.3721 20.9092 55.4802 21.8638 55.4802H29.2695C30.2241 55.4802 30.9981 56.3721 30.9981 57.4723C30.9981 58.5726 30.2241 59.4645 29.2695 59.4645Z" fill="#00DDE7"/>
<path d="M30.9981 57.4723C30.9981 56.3721 30.2241 55.4802 29.2695 55.4802H25.5667V59.4645H29.2695C30.2241 59.4645 30.9981 58.5727 30.9981 57.4723Z" fill="#00BDCD"/>
<path d="M53.1001 31.0781V24.9333C53.1001 21.1778 50.4585 18.1333 47.2001 18.1333H32.8036C32.0655 18.1333 31.4667 18.8234 31.4667 19.6742C31.4667 25.0738 35.2782 29.4667 39.9632 29.4667H43.2666V58.9334H47.2001C50.4589 58.9334 53.1001 55.8892 53.1001 52.1334H57.2715C58.2261 52.1334 59.0001 51.2415 59.0001 50.1412V33.0703C59.0001 31.9701 58.2261 31.0781 57.2715 31.0781H53.1001Z" fill="#FFC5BB"/>
<path d="M12.7833 40.8H6.88331C4.71206 40.8 2.95001 42.831 2.95001 45.3333C2.95001 47.8356 4.71218 49.8666 6.88331 49.8666H12.7833C14.9545 49.8666 16.7167 47.8356 16.7167 45.3333C16.7167 42.831 14.9545 40.8 12.7833 40.8Z" fill="#FFADAD"/>
<path d="M43.2667 40.8V58.9333H47.2C50.4589 58.9333 53.1 55.8891 53.1 52.1333H57.2715C58.2261 52.1333 59 51.2413 59 50.1411V40.8H43.2667Z" fill="#FFADAD"/>
</svg>
