<svg width="300" height="300" viewBox="0 0 300 300" fill="none" xmlns="http://www.w3.org/2000/svg">
<rect width="300" height="300" fill="#FDA14D"/>
<g clip-path="url(#clip0)">
<path d="M203.976 192.907L195.963 149.624C195.883 149.192 195.61 148.818 195.218 148.604L175.049 137.606C174.787 137.463 174.493 137.406 174.205 137.428L177.874 183.836L177.752 183.89L201.89 194.507C202.086 194.593 202.295 194.635 202.503 194.635C202.832 194.635 203.158 194.529 203.425 194.324C203.863 193.989 204.075 193.443 203.976 192.907Z" fill="#44C868"/>
<path d="M153 148.12L132.372 137.587C132.125 137.46 131.851 137.409 131.581 137.427C131.652 137.422 131.724 137.423 131.795 137.428L128.126 183.836L152.387 194.507C152.583 194.593 152.792 194.636 153 194.636V148.12Z" fill="#44C868"/>
<path d="M131.795 137.428C131.507 137.406 131.214 137.463 130.952 137.606L110.782 148.604C110.391 148.818 110.117 149.192 110.037 149.624L102.024 192.907C101.925 193.443 102.137 193.988 102.575 194.324C102.843 194.529 103.169 194.636 103.497 194.636C103.705 194.636 103.914 194.593 104.11 194.507L128.117 183.948L131.795 137.428Z" fill="#4CE166"/>
<path d="M174.205 137.427C174.006 137.443 173.81 137.494 173.628 137.587L153 148.12V194.636C153 194.636 153 194.636 153 194.636C153.209 194.636 153.418 194.593 153.613 194.507L177.874 183.836L174.205 137.427Z" fill="#4CE166"/>
<path d="M107.609 162.741L105.981 171.534L130.085 159.052L130.645 151.974L130.738 150.8L107.609 162.741Z" fill="#FFDB56"/>
<path d="M130.302 156.308L130.085 159.052L105.981 171.534L102.024 192.907C101.925 193.443 102.137 193.988 102.575 194.324C102.843 194.53 103.169 194.636 103.497 194.636C103.705 194.636 103.914 194.593 104.11 194.507L128.117 183.948L130.302 156.308Z" fill="#A8EEFC"/>
<path d="M153.006 153.922L130.738 150.8L130.085 159.052L153 193.169V180.763L139.326 159.654L153.006 161.258V153.922Z" fill="#FFBB24"/>
<path d="M193.63 147.739L183.941 142.455L174.769 144.556L174.883 146.009L175.336 151.738L193.63 147.739Z" fill="#FFBB24"/>
<path d="M176.15 162.027L175.281 151.04L174.769 144.556L153.006 153.922V161.258L167.222 155.198L176.15 162.027Z" fill="#FFDB56"/>
<path d="M203.976 192.907L201.963 182.035L175.336 151.738L176.15 162.027L203.457 194.297C203.872 193.959 204.073 193.43 203.976 192.907Z" fill="#FFBB24"/>
<path d="M153.096 105.364C141.549 105.364 132.154 114.567 132.154 125.879C132.154 132.876 135.543 140.389 142.226 148.207C147.134 153.95 151.976 157.644 152.18 157.798C152.45 158.003 152.773 158.105 153.096 158.105C153.419 158.105 153.743 158.003 154.012 157.798C154.216 157.644 159.058 153.95 163.967 148.207C170.65 140.389 174.038 132.876 174.038 125.879C174.038 114.567 164.643 105.364 153.096 105.364ZM160.852 125.879C160.852 130.074 157.379 133.476 153.096 133.476C148.813 133.476 145.34 130.074 145.34 125.879C145.34 121.683 148.813 118.281 153.096 118.281C157.379 118.281 160.852 121.683 160.852 125.879Z" fill="#FF4A4A"/>
<path d="M153.096 105.364C152.181 105.364 151.279 105.422 150.395 105.535C160.671 106.837 168.636 115.463 168.636 125.879C168.636 132.876 165.247 140.389 158.564 148.207C155.407 151.9 152.281 154.744 150.395 156.346C151.442 157.235 152.107 157.743 152.18 157.798C152.45 158.003 152.773 158.105 153.096 158.105C153.419 158.105 153.743 158.003 154.012 157.798C154.216 157.644 159.058 153.95 163.967 148.207C170.65 140.389 174.038 132.876 174.038 125.879C174.038 114.567 164.643 105.364 153.096 105.364Z" fill="#E7343F"/>
<path d="M153.613 194.507L162.635 190.539L153 180.763V194.636C153 194.636 153 194.636 153 194.636C153.208 194.636 153.417 194.593 153.613 194.507Z" fill="#FFDB56"/>
<path d="M195.962 149.624C195.883 149.192 195.609 148.818 195.218 148.604L193.63 147.738L175.336 151.738L201.963 182.035L195.962 149.624Z" fill="#1EA4E9"/>
<path d="M153 194.635C153 194.635 153 194.635 153 194.635V193.169L130.085 159.052L128.126 183.836L152.387 194.507C152.583 194.593 152.791 194.635 153 194.635Z" fill="#1EA4E9"/>
</g>
<defs>
<clipPath id="clip0">
<rect width="102" height="100" fill="white" transform="translate(102 100)"/>
</clipPath>
</defs>
</svg>
