<svg width="300" height="300" viewBox="0 0 300 300" fill="none" xmlns="http://www.w3.org/2000/svg">
<rect width="300" height="300" fill="#75DBA3"/>
<path d="M123.77 138.197V131.902H133.607V138.197" fill="#BC8F6F"/>
<path d="M123.77 138.197V131.902H130.328V138.197" fill="#CB9E78"/>
<path d="M176.23 125.607H199.18V131.902H176.23V125.607Z" fill="#BC8F6F"/>
<path d="M176.23 125.607H190.984V131.902H176.23V125.607Z" fill="#CB9E78"/>
<path d="M195.902 131.902H179.508V190.131C179.508 194.477 183.178 198 187.705 198C192.232 198 195.902 194.477 195.902 190.131V131.902Z" fill="#BAB8B9"/>
<path d="M185.246 197.6C188.562 196.593 190.984 193.65 190.984 190.131V131.902H179.508V190.131C179.508 193.648 181.93 196.591 185.246 197.6Z" fill="#D9D7D8"/>
<path d="M187.705 198C192.232 198 195.902 194.477 195.902 190.131V153.934H179.508V190.131C179.508 194.477 183.178 198 187.705 198Z" fill="#D46B69"/>
<path d="M185.246 197.6C188.562 196.593 190.984 193.65 190.984 190.131V153.934H179.508V190.131C179.508 193.648 181.93 196.591 185.246 197.6Z" fill="#ED7775"/>
<path d="M150 198C153.621 198 156.557 195.181 156.557 191.705V190.163C156.557 189.11 156.282 188.073 155.758 187.149L136.885 153.934V138.197H120.506V153.934L101.636 187.149C101.112 188.074 100.836 189.11 100.836 190.163V191.705C100.836 195.181 103.772 198 107.393 198H150Z" fill="#BAB8B9"/>
<path d="M151.639 191.705V190.163C151.639 189.11 151.364 188.073 150.84 187.149L131.967 153.934V138.197H120.506V153.934L101.636 187.149C101.112 188.074 100.836 189.11 100.836 190.163V191.705C100.836 195.181 103.772 198 107.393 198H145.082C148.703 198 151.639 195.181 151.639 191.705Z" fill="#D9D7D8"/>
<path d="M156.557 191.705V190.163C156.557 189.11 156.282 188.072 155.758 187.149L144.039 166.525H141.522C140.652 166.525 139.818 166.857 139.203 167.447L137.846 168.75C137.231 169.34 136.397 169.672 135.528 169.672H134.966C134.096 169.672 133.262 169.34 132.648 168.75L131.29 167.447C130.674 166.857 129.84 166.525 128.97 166.525H128.408C127.539 166.525 126.705 166.857 126.09 167.447L124.733 168.75C124.116 169.34 123.282 169.672 122.413 169.672H121.851C120.982 169.672 120.148 169.34 119.533 168.75L118.175 167.447C117.559 166.857 116.725 166.525 115.856 166.525H113.354L101.636 187.149C101.112 188.074 100.836 189.11 100.836 190.163V191.705C100.836 195.181 103.772 198 107.393 198H150C153.621 198 156.557 195.181 156.557 191.705Z" fill="#599072"/>
<path d="M153.279 157.082V170.495C147.552 172.442 143.443 177.672 143.443 183.836C143.443 191.66 150.047 198 158.197 198C166.346 198 172.951 191.66 172.951 183.836C172.951 177.672 168.841 172.442 163.115 170.495V157.082" fill="#BAB8B9"/>
<path d="M143.443 183.836C143.443 191.125 149.182 197.123 156.557 197.907C163.933 197.123 169.672 191.125 169.672 183.836C169.672 177.672 165.563 172.442 159.836 170.495V157.082H153.279V170.495C147.552 172.442 143.443 177.672 143.443 183.836Z" fill="#D9D7D8"/>
<path d="M172.951 183.836C172.951 183.303 172.91 182.78 172.849 182.262H171.03C170.16 182.262 169.326 182.594 168.712 183.184L167.354 184.488C166.739 185.078 165.905 185.41 165.036 185.41H164.474C163.605 185.41 162.771 185.078 162.156 184.488L160.798 183.184C160.182 182.594 159.348 182.262 158.478 182.262H157.917C157.047 182.262 156.213 182.594 155.598 183.184L154.241 184.488C153.624 185.078 152.79 185.41 151.921 185.41H151.359C150.49 185.41 149.656 185.078 149.041 184.488L147.683 183.184C147.067 182.594 146.233 182.262 145.364 182.262H143.544C143.483 182.78 143.443 183.303 143.443 183.836C143.443 191.66 150.047 198 158.197 198C166.346 198 172.951 191.66 172.951 183.836Z" fill="#85B6CF"/>
<path d="M156.557 197.907C163.933 197.123 169.672 191.125 169.672 183.836C169.672 183.416 169.633 183.005 169.592 182.596C169.27 182.747 168.969 182.938 168.712 183.184L167.354 184.488C166.739 185.078 165.905 185.41 165.036 185.41H164.474C164 185.41 163.539 185.303 163.116 185.117C162.692 185.303 162.231 185.41 161.757 185.41H161.195C160.326 185.41 159.492 185.078 158.877 184.488L157.52 183.184C157.241 182.917 156.911 182.71 156.559 182.555C156.207 182.71 155.879 182.917 155.598 183.184L154.241 184.488C153.624 185.078 152.79 185.41 151.921 185.41H151.359C150.885 185.41 150.424 185.303 150.002 185.117C149.577 185.303 149.116 185.41 148.642 185.41H148.08C147.211 185.41 146.377 185.078 145.762 184.488L144.405 183.184C144.148 182.938 143.846 182.747 143.524 182.596C143.482 183.005 143.443 183.416 143.443 183.836C143.443 191.125 149.182 197.123 156.557 197.907Z" fill="#94CCE7"/>
<path d="M127.049 185.41C127.049 187.148 125.581 188.557 123.77 188.557C121.96 188.557 120.492 187.148 120.492 185.41C120.492 183.672 121.96 182.262 123.77 182.262C125.581 182.262 127.049 183.672 127.049 185.41Z" fill="#70B48F"/>
<path d="M138.525 179.115C138.525 180.853 137.057 182.262 135.246 182.262C133.435 182.262 131.967 180.853 131.967 179.115C131.967 177.376 133.435 175.967 135.246 175.967C137.057 175.967 138.525 177.376 138.525 179.115Z" fill="#70B48F"/>
<path d="M113.934 188.557C113.934 190.296 112.466 191.705 110.656 191.705C108.845 191.705 107.377 190.296 107.377 188.557C107.377 186.819 108.845 185.41 110.656 185.41C112.466 185.41 113.934 186.819 113.934 188.557Z" fill="#70B48F"/>
<path d="M113.934 109.869C113.934 113.345 110.998 116.164 107.377 116.164C103.756 116.164 100.82 113.345 100.82 109.869C100.82 106.392 103.756 103.574 107.377 103.574C110.998 103.574 113.934 106.392 113.934 109.869Z" fill="#599072"/>
<path d="M117.213 125.607C117.213 127.345 115.745 128.754 113.934 128.754C112.124 128.754 110.656 127.345 110.656 125.607C110.656 123.868 112.124 122.459 113.934 122.459C115.745 122.459 117.213 123.868 117.213 125.607Z" fill="#85B6CF"/>
<path d="M110.656 139.771C110.656 142.378 108.454 144.492 105.738 144.492C103.022 144.492 100.82 142.378 100.82 139.771C100.82 137.163 103.022 135.049 105.738 135.049C108.454 135.049 110.656 137.163 110.656 139.771Z" fill="#CB9E78"/>
<path d="M148.361 155.508H168.033V158.656H148.361V155.508Z" fill="black"/>
<path d="M148.361 155.508H168.033V158.656H148.361V155.508Z" fill="#BC8F6F"/>
<path d="M148.361 155.508H163.115V158.656H148.361V155.508Z" fill="#CB9E78"/>
<path d="M153.279 161.803H163.115V164.951H153.279V161.803Z" fill="#BC8F6F"/>
<path d="M153.279 161.803H159.836V164.951H153.279V161.803Z" fill="#CB9E78"/>
<path d="M115.574 142.918H141.803V146.066H115.574V142.918Z" fill="#BC8F6F"/>
<path d="M115.574 142.918H131.967V146.066H115.574V142.918Z" fill="#CB9E78"/>
<path d="M136.885 190.131H140.164V193.279H136.885V190.131Z" fill="#70B48F"/>
<path d="M133.607 186.984H136.885V190.131H133.607V186.984Z" fill="#70B48F"/>
<path d="M130.328 190.131H133.607V193.279H130.328V190.131Z" fill="#70B48F"/>
<path d="M117.213 175.967H120.492V179.115H117.213V175.967Z" fill="#70B48F"/>
<path d="M184.426 188.557H187.705V191.705H184.426V188.557Z" fill="#D46B69"/>
<path d="M187.705 182.262H190.984V185.41H187.705V182.262Z" fill="#D46B69"/>
<path d="M184.426 175.967H187.705V179.115H184.426V175.967Z" fill="#D46B69"/>
<path d="M187.705 169.672H190.984V172.82H187.705V169.672Z" fill="#D46B69"/>
<path d="M184.426 163.377H187.705V166.525H184.426V163.377Z" fill="#D46B69"/>
<path d="M135.246 127.18H131.967V106.721C131.967 104.119 134.174 102 136.885 102H192.623C195.334 102 197.541 104.119 197.541 106.721V120.885H194.262V106.721C194.262 105.855 193.527 105.148 192.623 105.148H136.885C135.981 105.148 135.246 105.855 135.246 106.721V127.18Z" fill="#ED7775"/>
<path d="M164.754 152.361H161.475V119.312C161.475 118.445 160.741 117.738 159.836 117.738H127.049C126.145 117.738 125.41 118.445 125.41 119.312V127.18H122.131V119.312C122.131 116.709 124.338 114.59 127.049 114.59H159.836C162.547 114.59 164.754 116.709 164.754 119.312V152.361Z" fill="#599072"/>
<path d="M154.918 152.361H151.639V113.016C151.639 110.414 153.846 108.295 156.557 108.295H176.23C178.941 108.295 181.148 110.414 181.148 113.016V120.885H177.869V113.016C177.869 112.15 177.134 111.443 176.23 111.443H156.557C155.653 111.443 154.918 112.15 154.918 113.016V152.361Z" fill="#94CCE7"/>
</svg>
