<svg width="102" height="100" viewBox="0 0 102 100" fill="none" xmlns="http://www.w3.org/2000/svg">
<g clip-path="url(#clip0)">
<path d="M101.976 92.9074L93.9627 49.624C93.8828 49.1919 93.6095 48.8177 93.2178 48.6042L73.0485 37.6062C72.7867 37.4632 72.4933 37.4064 72.205 37.4282L75.8744 83.8361L75.7515 83.89L99.8897 94.5067C100.086 94.5928 100.295 94.6354 100.503 94.6354C100.832 94.6354 101.158 94.5293 101.425 94.3237C101.863 93.9885 102.075 93.4432 101.976 92.9074Z" fill="#44C868"/>
<path d="M51.0001 48.1202L30.372 37.5868C30.1247 37.4604 29.8506 37.4088 29.5807 37.4266C29.6522 37.4223 29.7241 37.4227 29.7954 37.4282L26.126 83.8361L50.3871 94.5068C50.5829 94.5928 50.7919 94.6355 51.0001 94.6355V48.1202Z" fill="#44C868"/>
<path d="M29.7952 37.4284C29.507 37.4065 29.2135 37.4633 28.9517 37.6061L8.78218 48.6042C8.39052 48.8176 8.11719 49.1917 8.0373 49.6239L0.0241116 92.9074C-0.0750995 93.4429 0.13687 93.9882 0.574554 94.3238C0.842902 94.5295 1.16863 94.6355 1.49734 94.6355C1.70512 94.6355 1.9141 94.5931 2.11033 94.5068L26.117 83.948L29.7952 37.4284Z" fill="#4CE166"/>
<path d="M72.2048 37.4275C72.0064 37.4425 71.8102 37.4943 71.6283 37.5873L51.0001 48.1205V94.6358C51.0001 94.6358 51.0001 94.6358 51.0003 94.6358C51.2085 94.6358 51.4177 94.5932 51.6133 94.5071L75.8744 83.8364L72.2048 37.4275Z" fill="#4CE166"/>
<path d="M5.60881 62.7409L3.98099 71.5337L28.0853 59.0521L28.6449 51.9741L28.7378 50.8003L5.60881 62.7409Z" fill="#FFDB56"/>
<path d="M28.3023 56.3076L28.0853 59.0522L3.981 71.5338L0.0241116 92.9075C-0.0750995 93.443 0.13687 93.9884 0.574554 94.3239C0.842902 94.5296 1.16863 94.6356 1.49734 94.6356C1.70512 94.6356 1.9141 94.5932 2.11033 94.5069L26.117 83.9481L28.3023 56.3076Z" fill="#A8EEFC"/>
<path d="M51.0061 53.9221L28.7378 50.8004L28.0853 59.0522L51.0001 93.1692V80.7634L37.3263 59.6543L51.0061 61.2584V53.9221Z" fill="#FFBB24"/>
<path d="M91.6301 47.7386L81.9411 42.4552L72.7686 44.5564L72.8834 46.0087L73.3364 51.738L91.6301 47.7386Z" fill="#FFBB24"/>
<path d="M74.1497 62.0266L73.2811 51.0405L72.7685 44.5563L51.006 53.9219V61.2582L65.2215 55.1977L74.1497 62.0266Z" fill="#FFDB56"/>
<path d="M101.976 92.9075L99.9634 82.0352L73.3363 51.738L74.1499 62.0267L101.457 94.2965C101.872 93.9592 102.073 93.4295 101.976 92.9075Z" fill="#FFBB24"/>
<path d="M51.0959 5.36426C39.5486 5.36426 30.154 14.567 30.154 25.8788C30.154 32.876 33.5425 40.3885 40.2257 48.2073C45.1343 53.9501 49.9761 57.6437 50.1799 57.7981C50.4497 58.0026 50.7728 58.1048 51.0961 58.1048C51.4193 58.1048 51.7426 58.0026 52.0123 57.7981C52.2159 57.6437 57.058 53.9501 61.9665 48.2073C68.6497 40.3885 72.0382 32.8762 72.0382 25.8788C72.0379 14.567 62.6433 5.36426 51.0959 5.36426ZM58.8515 25.8786C58.8515 30.0743 55.3791 33.4758 51.0959 33.4758C46.8127 33.4758 43.3403 30.0745 43.3403 25.8786C43.3403 21.6826 46.8127 18.2813 51.0959 18.2813C55.3791 18.2813 58.8515 21.6828 58.8515 25.8786Z" fill="#FF4A4A"/>
<path d="M51.0959 5.36426C50.1807 5.36426 49.2792 5.42246 48.3947 5.53457C58.671 6.83672 66.6356 15.4635 66.6356 25.8788C66.6356 32.876 63.2471 40.3885 56.5639 48.2073C53.4073 51.9003 50.2805 54.7438 48.3949 56.3458C49.4416 57.2349 50.1074 57.7431 50.1799 57.7981C50.4497 58.0026 50.7728 58.1048 51.0961 58.1048C51.4193 58.1048 51.7426 58.0026 52.0123 57.7981C52.2159 57.6437 57.058 53.9501 61.9665 48.2073C68.6497 40.3885 72.0382 32.8762 72.0382 25.8788C72.0378 14.567 62.6433 5.36426 51.0959 5.36426Z" fill="#E7343F"/>
<path d="M51.6133 94.5069L60.6349 90.5389L51.0001 80.7633V94.6356C51.0001 94.6356 51.0001 94.6356 51.0003 94.6356C51.2085 94.6356 51.4175 94.5932 51.6133 94.5069Z" fill="#FFDB56"/>
<path d="M93.9625 49.6238C93.8826 49.1918 93.6093 48.8176 93.2176 48.6041L91.6298 47.7383L73.3361 51.7377L99.963 82.0348L93.9625 49.6238Z" fill="#1EA4E9"/>
<path d="M50.9999 94.6355C51.0001 94.6355 51.0001 94.6355 50.9999 94.6355V93.1691L28.0853 59.052L26.1256 83.8362L50.3867 94.507C50.5825 94.5931 50.7915 94.6355 50.9999 94.6355Z" fill="#1EA4E9"/>
</g>
<defs>
<clipPath id="clip0">
<rect width="102" height="100" fill="white"/>
</clipPath>
</defs>
</svg>
