<svg xmlns="http://www.w3.org/2000/svg" viewBox="0 0 2896.79 877.14"><defs><style>.cls-1{fill:#0a0e60;}</style></defs><g id="Layer_2" data-name="Layer 2"><g id="Draw_Layer" data-name="Draw Layer"><path class="cls-1" d="M2896.79,0H0V503.16l2.35.38c2.91.42,5.86.7,8.39.92s5.14.29,7.65.36h.21l1.26,0c.7,0,1.4,0,2.1.08a1.38,1.38,0,0,0,1,.38,1.5,1.5,0,0,0,.88-.27.55.55,0,0,0-.17-.05c.57.07,1.17.12,1.81.18l2.13.19c.38.24.78.48,1.18.71a48.41,48.41,0,0,0,5.12,2.6c1.83.8,3.75,1.46,5.37,2,3.16,1.06,6.43,1.82,9.6,2.55l.26.06,1.79.41c1.56.36,3.18.68,4.61,1l.18,0c.84.16,1.68.34,2.52.52l.82.17,4.38.93a70,70,0,0,1,8.45,2.34c1.88.68,3.81,1.49,5.73,2.4a42.37,42.37,0,0,1,5.54,3.19,50.8,50.8,0,0,1,4.61,3.67,52.08,52.08,0,0,1,4.76,4.94l0-.15c1.85,2.38,3.53,4.68,5,6.83a71.57,71.57,0,0,1,4.49,7.87,80.58,80.58,0,0,1,3.12,7.54,58.58,58.58,0,0,1,2.06,7.72,78,78,0,0,1,1,16.83c-.09,2.5-.2,5-.33,7.49l-.11,1.18,0,.22,0,.17,0,.19c-.1,1-.2,2-.37,3.06l-.26,1.75c-.19,1.34-.39,2.67-.62,4l-.6,3.47-.59,3.47c-.2,1.14-.36,2.29-.53,3.45l0,.31-.06.45-.07.43c0,.37-.1.73-.16,1.1l-.18,1.24-.18,1.24c-.13.88-.22,1.77-.31,2.65l-.08.8c-.14,1.37-.26,2.9-.39,4.66-.18,2.78-.24,5.58-.18,8.3a75.52,75.52,0,0,0,.87,9c.43,2.85,1.07,5.69,1.52,7.59.71,3,1.48,5.76,2.35,8.4a66.89,66.89,0,0,0,3,7.47,60.74,60.74,0,0,0,4.1,7.38,46.13,46.13,0,0,0,9.58,10.44c1.91,1.56,3.92,2.94,5.67,4.11a72.6,72.6,0,0,0,6.87,4.07c1.82,1,3.79,1.9,5.37,2.66l.12.05.15.08.14.06,1,.48c1.55.74,3.09,1.41,4.67,2.09l.84.37.4.17c2.89,1.25,5.49,2.37,8.07,3.41l2.8,1.13,2.81,1.14a68.7,68.7,0,0,1,13,6.63c1.13.8,2.24,1.59,3.29,2.47l2,1.72a49.73,49.73,0,0,1,5.06,4.71,39.79,39.79,0,0,1,4.48,6.65l.94,1.77.93,1.77c1.07,2.38,2.39,5.32,3.49,8.17l.08.2a76.92,76.92,0,0,1,3.2,9.62c.2,1.25.31,2.49.41,3.65l.05.52c.07.78.12,1.4.14,2l0,1.38v.14c0,1.28.08,2.77.05,4.24l0,1.15c0,1.57-.06,3.09-.13,4.62q-.13,3-.28,5.89c-.13,2.61-.23,5.22-.34,7.82v.13l-.14,3.38-.07,1.8v.14c-.07,1.36-.13,2.7-.17,4l-.16,6.74v.25c0,1,0,2,0,3V795c0,2.41.05,4.75.12,7a76.16,76.16,0,0,0,1.61,13.58,55.51,55.51,0,0,0,4.8,13.11,57.81,57.81,0,0,0,7.42,11.2,64,64,0,0,0,4.72,5,48.42,48.42,0,0,0,5.5,4.46c1.9,1.35,3.66,2.48,5.36,3.45,2,1.17,4.16,2.27,6.28,3.26a19.43,19.43,0,0,0,6.27,1.8,11.22,11.22,0,0,0,1.15.06,3.06,3.06,0,0,0,.8.71,2.13,2.13,0,0,0,1.07.3,1.48,1.48,0,0,0,.51-.09c2.29-.85,4.52-1.67,6.73-2.53,2.44-.95,4.32-1.67,6.31-2.35s4-1.32,5.83-1.84l.4-.11c.95-.27,1.85-.54,2.76-.77s1.93-.46,3.16-.69l.69-.1a15.92,15.92,0,0,1,1.8-.11c.26,0,.53,0,.79,0a7.84,7.84,0,0,1,1.27.36,8,8,0,0,1,1.06.63,7,7,0,0,1,.72.69,18.23,18.23,0,0,1,1,1.58l.3.52a9.55,9.55,0,0,0,2.69,3.06,11.24,11.24,0,0,0,3.45,1.55q.67.21,1.38.36a.87.87,0,0,0,.16.51,1.39,1.39,0,0,0,.84.58l.26,0a1.56,1.56,0,0,0,.74-.22q3-1.51,6-3l.09,0c.72-.34,1.49-.67,2.28-1,1.06-.44,2.19-.8,3.27-1.14l.31-.09.49-.16c2.33-.72,4.75-1.27,7-1.75a135.73,135.73,0,0,1,14.51-2c2.34-.2,4.77-.3,7.21-.3,2.07,0,4.15.07,6.18.19,2.33.2,4.51.46,6.66.81a54.51,54.51,0,0,1,8.31,2.08c1.25.47,2.44.94,3.53,1.4,1.3.56,2.52,1.21,3.82,1.9,1.58.87,3.08,1.83,4.36,2.66l1.32.86.13.09.2.13.1.06c2.33,1.51,5,3.21,7.62,4.69a62.78,62.78,0,0,0,7.12,3.36,53.14,53.14,0,0,0,7.75,2.35,44.48,44.48,0,0,0,8.91.9h.38c1.2,0,2.5-.11,3.54-.2h.13l.23,0,.28,0a58.7,58.7,0,0,0,6-.93A64,64,0,0,0,411.7,869a58.62,58.62,0,0,0,8.37-3.59,73.38,73.38,0,0,0,9.92-6.34l.84-.59c.58-.42,1.16-.83,1.76-1.23l1.73-1.19.29-.2c.26-.18.52-.36.79-.53l2.49-1.48.91-.54c.21-.12.44-.24.67-.35l.12-.06.13-.06.31-.16.84-.43.81-.41,1.05-.47.8-.37c.4-.19.78-.35,1.16-.5a11.75,11.75,0,0,1,1.8-.55,13.7,13.7,0,0,1,2.11-.21c.33,0,.66,0,1,0,.76,0,1.57.06,2.18.1a70.7,70.7,0,0,1,8.89,1.17l-.09-.14a23.55,23.55,0,0,1,2.14,1.07c.48.28,1,.57,1.42.88l.62.44.17.12.16.11c1,.7,2,1.4,2.94,2.13,1.84,1.39,3.7,2.77,5.56,4.14,1.23.92,2.39,1.74,3.55,2.55l1.44,1c1.37,1,2.87,2,4.6,3.09a59.77,59.77,0,0,0,7.76,4.19c2.32,1,4.66,1.87,6.68,2.57,2.61.89,5.25,1.69,7.85,2.36a60.2,60.2,0,0,0,8.17,1.42,35.94,35.94,0,0,0,4,.2c1.36,0,2.82-.06,4.58-.19A98.34,98.34,0,0,0,534.26,875l7.49-1.6c.41-.09.83-.21,1.25-.33l.52-.15.93-.25,3.14-.85.42-.11,1.89-.52.38-.12.28-.09,1.14-.38,1.15-.39.8-.26,3.12-1c1.28-.43,2.5-.88,3.84-1.39,2.55-.95,5-2,7.15-3,1.32-.65,2.62-1.31,3.92-2,.93-.48,1.92-1,2.88-1.58l6.44-3.87c.43-.26.86-.54,1.29-.82l2.06-1.34,2-1.31.48-.3c.38-.24.76-.48,1.13-.74l1.47-1,1-.72,1.71-1.23,1.66-1.18c.48-.34,1-.72,1.5-1.12l3-2.5,3.31-2.73c.49-.4,1-.83,1.43-1.26l1.74-1.59,1.75-1.59,1.62-1.48,2.37-2.17,3.76-3.45.36-.34,1.24-1.12.41-.34,11.19-9.7,2.22-1.93.66-.58,1.51-1.32,2.59-2.29.83-.72.56-.5q2-1.78,4.08-3.56c2-1.64,4.17-3.31,6.52-5a53.37,53.37,0,0,1,6.93-4c.76-.36,1.53-.7,2.3-1,1.33-.58,2.71-1.07,4-1.52l.16,0a69.52,69.52,0,0,1,8.37-2.28l-.22-.06,1.49-.18.26,0,2.15-.35c1.47-.23,3-.36,4.23-.47s2.73-.18,4.35-.18,3.19,0,5.08.18c2.8.22,5.61.56,8.33,1a57.07,57.07,0,0,1,9.23,2.34c1.22.44,2.3.85,3.3,1.26s2,.85,3.23,1.44l.49.22c.65.3,1.3.63,2,1l.23.12.71.36.74.35.21.11c.47.23.92.45,1.36.69l1.89,1,1.82,1c3.44,1.85,6.94,4,9.75,5.8l.16.09.73.45c1,.64,2,1.3,3,2l.14.1,1.69,1.09c1.1.7,2.21,1.38,3.33,2l.21.13,1.67,1c.52.32,1.06.63,1.6.94l.81.46,2.07,1.2.88.51c.44.27.91.51,1.37.76l.09,0,.45.24,1.85,1,1.76,1c2.47,1.34,5,2.43,6.89,3.23a67.81,67.81,0,0,0,24.32,5.06l1.53,0c2.4,0,4.76-.18,7.16-.38,1.24-.11,2.55-.29,3.61-.43l.3,0,.17,0c1.15-.16,2-.29,2.88-.45l1.72-.34,1.71-.33.5-.1.23,0,.39-.07.19,0c.73-.13,1.38-.26,2-.4,1.42-.32,2.84-.65,4.25-1,1.15-.29,2.33-.66,3.37-1l.12,0,.2-.06.32-.1a45,45,0,0,0,6.68-2.83,35.64,35.64,0,0,0,6.75-4.6,46.92,46.92,0,0,0,6-6.13c.62-.74,1.21-1.53,1.78-2.29l.13-.18.45-.59.51-.67c.37-.49.75-1,1.1-1.49l.9-1.28,2.84-4c1.58-2.23,2.95-4.12,4.18-5.78l1.25-1.68,1.25-1.68c.33-.45.69-.88,1-1.31l.07-.08.08-.1.58-.69,1.05-1.27,1.88-2.3c.34-.4.69-.77,1-1.15l.14-.15.41-.43,3-3.23c1.32-1.42,2.77-2.82,4.43-4.29a60.8,60.8,0,0,1,7.74-5.48l3-1.77,1.79-1.06c.79-.46,1.58-.91,2.37-1.34l1-.6.74-.42,1.34-.75c1-.56,2-1.07,2.91-1.53l.21-.11.48-.25c2.12-1,4.3-1.93,6.69-2.81a53.79,53.79,0,0,1,7.62-2.12c1.34-.26,2.39-.45,3.45-.58l2.08-.26.26,0c.75-.09,1.49-.17,2.24-.23a19.58,19.58,0,0,1,2-.09c.71,0,1.43,0,2.15.08a17,17,0,0,1,2.1.35,22.54,22.54,0,0,1,3,.91c1,.37,1.86.73,2.75,1.11l.71.31a18.35,18.35,0,0,1,2.38,1.27l.39.34.2.17a18.76,18.76,0,0,1,1.43,1.54c2.2,2.85,4.21,5.91,6.15,8.87l1.05,1.62.41.62.07.1c1.8,2.73,3.84,5.83,5.92,8.75.4.57.83,1.12,1.27,1.66l.62.79c.44.56.91,1.1,1.34,1.58l.15.17,1.18,1.32,1.12,1.25c.15.17.32.34.49.5l.21.2,2,2c1.08,1.06,2.11,2,3.25,3.1a67.8,67.8,0,0,0,6.93,5.47,66.15,66.15,0,0,0,5.64,3.56,54.38,54.38,0,0,0,8.51,3.79,73.18,73.18,0,0,0,7.14,2.14c1.7.42,3.36.77,4.93,1l1.13.18.12,0,.72.12.12,0,4.54.72.62.09.63.09.67.1c1.3.19,2.59.38,3.87.55l3,.39.28,0,.26,0c.78.1,1.56.18,2.35.25l1.11.11.33,0h.14c.67.07,1.33.14,2,.19l3.58.24.32,0c.59,0,1.18.08,1.77.09l2.35,0,2.35,0h.17c.48,0,1,0,1.45-.05l.38,0,3.68-.18h.17c.41,0,.82-.06,1.22-.1l.2,0,.22,0,.45,0,3.53-.33.32,0c.51,0,1-.14,1.54-.22l.24,0,.5-.08,1.5-.23,1.5-.22c.62-.09,1.24-.23,1.84-.37l.87-.18,1.44-.3,1.45-.3.18-.05c2.25,0,4.45-.14,6.49-.25l1.56-.06c.6,0,1.2,0,1.81-.06,1.63-.11,3.25-.28,5.34-.52a49.88,49.88,0,0,0,7.25-1.56c2.27-.61,4.57-1.35,7-2.26a146.24,146.24,0,0,0,15-6.51c1.21-.62,2.41-1.26,3.61-1.9,1-.52,1.89-1,2.83-1.5l.55-.28a54.29,54.29,0,0,0,5.83-3.35c3-2,5.39-3.75,7.74-5.72,2.05-1.7,4.11-3.51,6.13-5.37,4-3.65,8-7.17,12-10.45l2.73-2.19.85-.68c2.66-2.14,5.68-4.56,8.53-7,2.37-2,4.3-3.88,6.09-5.75a86.18,86.18,0,0,0,5.55-6.62l.75-1c2.19-2.8,4.24-5.8,6.31-8.88l.47-.42c.56-.5,1.13-1,1.74-1.47l2.33-1.79,6.26-4.78.3-.19.27-.18c4.45-2.88,9-5.71,13.47-8.44l4.61-2.84,13.33-8.25.75-.18,2.8-.56.35-.07.81-.17.11,0c.71-.16,1.36-.29,2-.37l1.62-.21.2,0c1.7-.22,3.39-.44,5.06-.56,2.5-.18,5.16-.36,7.81-.43.59,0,1.18,0,1.78,0,1.44,0,2.89.05,4.31.09h.84l1.08.09.61,0c1.69.12,3.58.26,5.41.54l2,.31c1.74.26,4.14.61,6.35,1.1l2.68.59,2.84.63c.92.2,1.84.47,2.71.72l1.25.35c2.26.63,4.49,1.33,6.56,2,3,1.12,5.66,2.19,8.19,3.28s5.29,2.35,7.66,3.44l1.78.83.32.16c1.5.71,3,1.44,4.58,2.07,2.58,1,5.64,2.26,8.82,3.27,2.12.66,4.41,1.3,7.44,2.08a78.71,78.71,0,0,0,12,1.78l.2,0,.81.07.14,0c1.49.14,3.18.3,4.82.39l4.89.24c.92.05,1.85.05,2.78.06h.66l1.41,0h.14l1.87,0,1.44,0,1.39,0h.41l.61,0h.23c1.73,0,3.69-.09,5.57-.24l.34,0,5.36-.44c1-.08,2-.24,2.92-.39l.21,0,1.06-.17,4.53-.69c.87-.13,1.76-.34,2.62-.55l1.28-.3,3.31-.72,1.37-.3c1.77-.38,3.5-.85,5.17-1.31l3-.84,1.79-.5.36-.1c.78-.21,1.56-.5,2.25-.75l.3-.11.78-.28c3.58-1.25,6.46-2.3,9.06-3.3,2.43-.93,5-1.95,7.64-3.08l5.19-2.27c.87-.38,1.7-.82,2.61-1.31l.89-.47,1.56-.79.6-.31.16-.08c1.42-.72,3.2-1.61,4.8-2.59l2-1.21.1-.06.18-.11c1.5-.9,3-1.83,4.54-2.82l.3-.2c2-1.33,4.33-2.85,6.46-4.44,1.86-1.39,3.61-2.81,5.7-4.52.59-.48,1.17-1,1.74-1.5l.48-.41.48-.42a61,61,0,0,0,6.7-6.9c1.55-1.83,3.12-3.77,4.5-5.49l.17-.21,1.81-2.24c1.19-1.47,2.48-2.9,3.63-4.16l1.53-1.7,1.24-1.41,1.24-1.4c2-2.27,4.26-4.38,6.45-6.42l.15-.14c2.33-2.1,4.62-4,7-5.92a101.09,101.09,0,0,1,9.72-6.59c.83-.51,1.7-1,2.45-1.4l.22-.13,1.24-.68c1.32-.75,2.64-1.5,4-2.22,1.56-.78,3.07-1.47,4.61-2.1a42,42,0,0,1,6.13-1.92,65.21,65.21,0,0,1,11.89-1q1.67,0,3.33.06c6.19.44,12.19,1.37,17.75,2.32a132.53,132.53,0,0,1,17.35,4.19,150.57,150.57,0,0,1,20.08,9.14c2,1.07,4,2.21,6.17,3.48l1,.57,2,1.14a174.15,174.15,0,0,0,17.09,8.64c3.75,1.61,7.7,2.9,11.18,4l.14,0a85.6,85.6,0,0,0,14.12,3c3.62.52,7.34.71,10.94.89l.82,0c1.5.08,3,.11,4.51.11,2.21,0,4.44-.08,6.64-.23a90,90,0,0,0,20.25-4.17l.39-.12,3.94-1.22c.87-.27,1.74-.63,2.58-1l.14-.06.15-.07.12,0,1.09-.44,1-.38c.72-.27,1.51-.56,2.25-.91l5.73-2.7c5.9-2.79,11.69-5.89,16.08-8.27,5.05-2.75,10.41-5.69,15.46-8.76l2.26-1.35.23-.14.22-.14c1.51-.91,3-1.82,4.52-2.76l2.54-1.63c1.89-1.22,3.61-2.32,5.37-3.37l6.43-3.83,2.28-1.36c2-1.16,4-2.26,5.89-3.23l.1-.06.6-.31,2.32-1.24.11-.08,1.08-.52c7.74-3.89,15.76-7.91,23.86-11.61l.53-.24c8.81-4,17.91-8.17,27.11-12,4.36-1.81,9-3.72,13.73-5.54l.16-.06,7.81-3c1.59-.61,3.23-1.16,4.67-1.64l.17,0c.83-.28,1.6-.53,2.37-.8l1-.37.61-.21c1.25-.45,2.55-.92,3.85-1.29l8.72-2.55c3.36-1,6.85-1.83,9.92-2.57l.17,0,2.21-.53,2.25-.43.34-.07,1.48-.29.64-.12.49-.1.54-.1.51-.11.19,0c1.16-.23,2.35-.47,3.54-.64l.91-.12L1851,590l.12,0c3.06-.44,6.53-.94,9.91-1.22l.49,0,3.33-.27,3-.25c1.47-.12,3-.13,4.3-.14h.57l1.6,0,2.47,0c1,0,1.88,0,2.7.06l3.09.16,1.51.07.31,0,2.18.23c2.33.23,4.67.48,7,.75l1.12.14h.11c1.17.14,2.35.28,3.52.45l3,.42a39.71,39.71,0,0,1,5.17,1.1,173.11,173.11,0,0,1,16.12,7.14l.75.36c2.79,1.36,5.7,2.61,8.2,3.68,2.9,1.24,5.89,2.5,8.87,3.57,1.46.53,3,1,5,1.57a33,33,0,0,0,4.26.82l.95.14c1,.15,2.05.26,3,.35l.2,0,1.55.16c1,.11,2,.17,2.86.21h.11l.43,0,1.79.11.27,0c1.31.08,2.54.16,3.77.17h.91l3.45,0c1.56,0,2.91,0,4.24-.07l4.17-.16h.41a88.41,88.41,0,0,0,13.79-1.9,194.21,194.21,0,0,0,20.18-5.19,118.68,118.68,0,0,0,14.86-6.29l.54-.26c2.84-1.36,5.62-2.92,8.3-4.42,1-.57,1.91-1.1,2.81-1.64l.61-.36a50.07,50.07,0,0,0,9.44-7.37l1.32-1.28c1.48-1.43,3-2.85,4.33-4.35l6.76-7.35c2.18-2.38,4.46-4.73,6.66-7l.36-.37.14-.14.77-.8c1.64-1.7,3.4-3.34,5.1-4.93l.09-.09.13-.12,1.89-1.77.46-.41.25-.22c3.94-3.56,8-7.23,12.22-10.73,2.43-2,5-3.84,7.17-5.34.78-.54,1.62-1,2.36-1.44l1-.58c1-.6,2-1.18,3-1.75l1.22-.71q8-4.61,16-9.24c1.86-1.07,3.71-2.12,5.58-3.17l.34-.19,2.27-1.29c1.69-.95,3.44-1.85,5.14-2.72l.67-.34.66-.34c3.78-1.87,7.61-3.79,11.34-5.67l1.33-.3.16,0,13.57-3.11,21.5-4.92.82-.19.82-.19c3.35-.45,6.38-.86,9.42-1.34,3.19.35,6.39.79,9.52,1.32,3.36.71,7,1.67,11.49,3,3.86,1.15,7.75,2.18,11.55,3l3.63.84,1.77.41,7.33,1.68c4,.89,8,1.59,12,2.27l.26,0,1.79.3c3.48.6,7,1,10.43,1.47l2.32.29c3.51.45,7.32.88,11.67,1.31,4.06.4,8.39.81,12.68,1,4.6.18,9.12.32,13.41.42,1.24,0,2.49,0,3.73,0a189.11,189.11,0,0,0,23.1-1.49c4.3-.53,8.51-1.12,12.53-1.75,4.32-.67,8.63-1.6,12.32-2.42,3.51-.79,7.18-1.83,11.56-3.27a122.09,122.09,0,0,0,12.57-5.18c6.14-2.85,12.14-6.24,17.94-9.53l3.48-2c2.63-1.48,5.28-3.07,7.87-4.75,1.22-.79,2.42-1.61,3.62-2.43,1.57-1.08,3.19-2.18,4.82-3.19,5.1-3.15,10.76-6.57,17.79-10.75,6-3.57,12.32-6.93,18.78-10,2.66-1.26,5.48-2.52,8.88-4,3.56-1.52,7-2.88,10-4l.47-.18c1.43-.5,2.82-1,4.21-1.41l.42-.12.11,0c3.07-.9,6.24-1.83,9.4-2.61a91,91,0,0,1,13.8-2.26l6.17-.56c2.57,0,5.14-.1,7.71-.17l.94,0h.36l2.34,0c.62,0,1.24,0,1.86,0l2.92.12h.13c4,.17,8.07.34,12.09.68,5.18.44,10.52.93,15.87,1.46,1.63.16,3.26.36,4.89.56l2.07.25c1.63.19,3.29.5,4.77.77l1,.18,5.35,1.12c1.31.27,2.64.63,3.92,1l.11,0,2,.53c1.33.35,2.67.8,4,1.23l.59.19q.74.25,1.47.48c1.17.37,2.34.8,3.48,1.21l.32.12,1.86.68c3.83,1.36,7.68,3,11.07,4.43l1.61.69c2.86,1.2,5.74,2.49,8.53,3.73l.38.17,1.84.82c4.44,2,8.19,3.62,11.8,5.18,3.21,1.38,6.53,2.63,9.75,3.83l.11,0,2,.75c2.77,1,5.63,2,8.39,2.93l.8.27,3,1c3.35,1.16,6.71,2.28,10.07,3.4l1.77.59c4,1.33,8,2.55,11.95,3.74l.33.1.14,0a15.28,15.28,0,0,0,1.52.36l.21.05.57.13,4.34,1,.1,0c2.39.56,4.54,1,6.56,1.36l2.16.38c3.35.59,7.13,1.26,10.8,1.73l1.56.2c3.36.44,7.54,1,11.52,1.35l2.09.2c3.33.32,7.11.68,10.78.83l2.35.1c3.3.15,6.7.3,10.09.3h.78l2.21,0c3.27,0,7.34,0,11.21-.16,5.52-.18,10.11-.36,14.44-.57,1.82-.09,3.63-.21,5.44-.33l.51,0a113.27,113.27,0,0,0,12.33-1.27,50.64,50.64,0,0,0,8.68-2.62c1.44-.53,2.82-1,4.18-1.59l1.75-.69c1.4-.55,3-1.19,4.59-1.86l1.48-.62.28-.11c1.32-.54,2.61-1.06,3.83-1.68l6.36-3.22.39-.2c1.16-.59,2.32-1.25,3.44-1.89l.11-.06,1.75-1,.32-.18.21-.11c1.35-.76,2.74-1.53,4.07-2.36,8.52-5.27,17.58-11,26.09-17.1a78.84,78.84,0,0,0,8.31-7.24l.14-.13,1.29-1.23c1.06-1,2.26-2.13,3.39-3.28l2.24-2.28q3.35-3.42,6.7-6.85l.08-.09c3.9-4,7.93-8.14,11.6-12.54,1.49-1.79,2.9-3.58,4.34-5.4,3.11-2,6.35-4.15,9.65-6.34ZM261.91,794.56a1.72,1.72,0,1,1,0-3.44,1.72,1.72,0,0,1,0,3.44Z"/></g></g></svg>