<svg xmlns="http://www.w3.org/2000/svg" viewBox="0 0 1170.56 557.22"><defs><style>.cls-1{fill:#0a0e60;}.cls-2{fill:#404040;}</style></defs><g id="Layer_2" data-name="Layer 2"><g id="Draw_Layer" data-name="Draw Layer"><path class="cls-1" d="M1155.48,201.26l0-1.6,0-3.18,0-3.32v-.85c0-.66,0-1.33,0-2l0-.43v-.11q-.33-5.55-.63-11.09c0-.75-.14-1.5-.23-2.23,0-.37-.09-.73-.13-1.1l-.06-.59-.63-5.81c-.25-2.36-.61-4.73-1-7-.13-.85-.25-1.68-.37-2.5l-.6-4.17c-.12-.75-.26-1.51-.4-2.26l0-.21c-.09-.44-.17-.89-.25-1.33-.16-.89-.32-1.79-.47-2.68l-.07-.4c-.36-2.1-.74-4.26-1.18-6.37-.22-1-.43-2.05-.64-3.06-.44-2.13-.88-4.24-1.35-6.36l-1-4.56-1.24-5.59c-.37-1.64-.81-3.31-1.24-4.92l-.07-.26-.37-1.37c-.55-2.09-1.2-4.19-1.84-6.21l-.09-.28c-.73-2.33-1.54-4.55-2.24-6.41-.45-1.22-1-2.44-1.52-3.61l-.36-.82a69.71,69.71,0,0,0-5.8-10.36c-.73-1.1-1.58-2.27-2.54-3.47-.81-1.06-1.64-2.08-2.48-3s-1.8-2-2.75-3c-1.39-1.48-2.91-2.84-4.39-4.16-1-.92-2.16-1.85-3.46-2.85-1.62-1.24-3.23-2.41-4.8-3.49-1.78-1.22-3.66-2.29-5.48-3.33l-.16-.09c-1.77-1-3.67-2-5.35-2.77l-.51-.26c-1.26-.62-2.63-1.23-4.19-1.88-4-1.65-7-2.85-9.88-3.9l-4.74-1.73c-3.78-1.38-8.48-3.1-13-4.67L1056,45.35l-.59-.21c-.57-.2-1-.38-1.53-.53l-2.18-.68-2.27-.7-6.1-1.9-6.18-1.91-.59-.2c-.48-.15-1-.31-1.44-.43l-3.95-1-6.54-1.69-6.46-1.67-1.21-.31-3.63-.94-.12,0c-.52-.14-1-.27-1.55-.37l-15.36-3.07L987.7,28l-1.06-.21c-1.07-.22-2.21-.45-3.32-.63l-11-1.66-12.19-1.84-9-1.36-1.06-.13-.19,0-.43-.05-2-.21-1.92-.22-6.9-.76-6.94-.77-6.5-.71-6.48-.72-2-.23-2.05-.23-.18,0-.51,0c-.38-.05-.77-.1-1.16-.13l-.73-.05-.73-.06-19.14-1.49-20.6-1.59c-1-.07-1.94-.11-2.92-.15l-1.4-.07L854.64,14l-12.83-.63-13.46-.66-1.13-.06h-.1c-.82-.06-1.66-.11-2.5-.11l-3.45,0-3.45,0-15-.09-15-.09-15-.09h-.2c-.87,0-1.73,0-2.6.07l-1.54,0-11.87.31-14,.37-14,.36h-.39l-3.64.08c-2.77.06-5.47.13-8.16.23l-10.37.41-10.36.41-27.63,1.08-2.54.1-7.55.3-45.84,2-3.64.16q-12.65.57-25.93,1.28l-3.37.17-6.77.34L550.9,21.09c-2.73.13-5.42.31-8.11.48l-3.84.24-28.21,1.73-5.59.35-5.23.32-1.37.08-3,.19-25.95,1.91L450,27.83q-15.09,1.09-30.18,2.27l-5.28.41L394.35,32c-3.68.29-7.48.53-11.05.76l-2.68.17-2.85.19L365.23,34l-12.51.84c-3.13.21-6.31.37-9.39.52h-.23l-3.54.18-12.46.64-14.33.74-1.32.08c-.93.05-1.85.1-2.78.13l-4.1.1-4.1.11-27,.69c-4.84.13-9.7.18-13.39.22L236,38.53c-1.14,0-2.28,0-3.42.07l-1.52,0L216.58,39l-4.75.11-4.58.09-.93.05h-.22l-5,.3L176.9,40.9l-3.69.25-1.11.08-.85.06-13.56.94-2.64.19c-3.89.27-8.74.6-13.35.85l-23.54,1.26c-4.6.25-9.21.53-13.8.8l-6.93.42c-4.59.27-9.26.6-13.78.93l-.82.06L79,47l-4.25.3-4.24.3c-.56,0-1.12.11-1.68.18l-.88.09-.81.09L65,48.21l-4.12.43-11.3,1.21c-1.65.17-3.37.42-4.89.64l-2,.29L30.81,52.41l-1.07.14c-6.19.86-12.5,1.93-19.29,3.29q-5.1,1-10.45,2.44c0,43.68.3,87.35.09,131,1.37.54,2.73,1,4,1.47,3.17,1.06,6.48,1.83,9.68,2.56l.18,0,1.79.41c1.56.36,3.2.69,4.64,1l2.66.55.83.17,4.37.93a72.47,72.47,0,0,1,8.45,2.34c1.91.69,3.84,1.5,5.74,2.4a43,43,0,0,1,5.54,3.2A50.48,50.48,0,0,1,52.61,208,52.15,52.15,0,0,1,57.37,213l-.06-.11c1.76,2.18,3.45,4.46,5,6.8a71.33,71.33,0,0,1,4.49,7.87,81.33,81.33,0,0,1,3.12,7.54A57.23,57.23,0,0,1,72,242.79a76.81,76.81,0,0,1,1,16.83q-.13,3.75-.33,7.49l-.11,1.19,0,.21c-.11,1.13-.22,2.3-.4,3.43l-.26,1.75c-.2,1.33-.4,2.67-.63,4l-.59,3.47-.6,3.47c-.19,1.14-.36,2.29-.52,3.44l0,.32-.06.45c-.07.51-.14,1-.22,1.52L69,291.6l-.19,1.25c-.13.88-.22,1.76-.3,2.65l-.09.8c-.14,1.39-.26,2.91-.38,4.66-.19,2.8-.25,5.59-.18,8.29a73,73,0,0,0,.87,9c.41,2.79,1,5.52,1.51,7.58.71,3,1.48,5.77,2.35,8.41a68.34,68.34,0,0,0,3,7.46,58.71,58.71,0,0,0,4.1,7.37,46.38,46.38,0,0,0,9.57,10.45c1.92,1.55,3.93,2.93,5.67,4.1a74.84,74.84,0,0,0,6.87,4.07c1.85,1,3.77,1.89,5.63,2.78l.14.06,1,.48c1.61.77,3.25,1.49,4.66,2.1l.85.36.39.17c2.64,1.14,5.36,2.32,8.07,3.41l2.81,1.14,2.8,1.14a67.93,67.93,0,0,1,13,6.63c1.13.8,2.24,1.58,3.29,2.48l2,1.72a49,49,0,0,1,5.06,4.71,40.41,40.41,0,0,1,4.48,6.65l.93,1.77.94,1.77c1.14,2.54,2.41,5.36,3.49,8.17l.08.21a75.33,75.33,0,0,1,3.2,9.62c.2,1.21.31,2.42.41,3.66l.05.51c.07.72.13,1.37.14,2l0,1.38v.14c0,1.39.08,2.83,0,4.25l0,1.15c0,1.53-.06,3.07-.14,4.61l-.27,5.9q-.19,4-.34,7.95l-.14,3.38-.08,1.79c-.07,1.4-.13,2.8-.17,4.19l-.17,6.74V471c0,1,0,2,0,3v1.1c0,2.35,0,4.69.12,7a74.36,74.36,0,0,0,1.61,13.57,55.42,55.42,0,0,0,4.79,13.11A58.15,58.15,0,0,0,178,519.94a66.44,66.44,0,0,0,4.72,5,50,50,0,0,0,5.5,4.45c1.88,1.33,3.63,2.46,5.36,3.45,2,1.14,4.1,2.24,6.28,3.25a19.39,19.39,0,0,0,6.25,1.8,11.27,11.27,0,0,0,1.16.06,3.25,3.25,0,0,0,.8.72,2.19,2.19,0,0,0,1.06.29,1.59,1.59,0,0,0,.5-.08c2.25-.84,4.5-1.67,6.73-2.54s4.27-1.64,6.32-2.34,3.95-1.3,5.82-1.84l.41-.12c.91-.27,1.83-.53,2.76-.77s2.15-.49,3.16-.69l.7-.1a15.89,15.89,0,0,1,1.79-.11c.27,0,.53,0,.8,0a8.59,8.59,0,0,1,1.27.36,7.38,7.38,0,0,1,1.07.64,5.38,5.38,0,0,1,.72.7,17.26,17.26,0,0,1,1,1.58l.3.52a9.61,9.61,0,0,0,2.68,3,11.26,11.26,0,0,0,3.44,1.54c.46.14.91.26,1.38.36a1.08,1.08,0,0,0,.18.52,1.31,1.31,0,0,0,.82.57,1.1,1.1,0,0,0,.25,0,1.63,1.63,0,0,0,.73-.21q3-1.51,6-3l.09-.05q1.11-.52,2.28-1c1.12-.46,2.32-.83,3.47-1.19l.11,0,.5-.15c2.4-.75,4.88-1.3,7-1.76a135.73,135.73,0,0,1,14.51-2c2.33-.2,4.75-.3,7.22-.3,2,0,4.12.07,6.18.2,2.32.19,4.5.45,6.66.8a54,54,0,0,1,8.31,2.09c1.19.43,2.38.91,3.54,1.4s2.49,1.18,3.81,1.9c1.49.81,2.92,1.72,4.37,2.66l1.32.85.13.09c2.56,1.66,5.21,3.37,7.92,4.88a60.25,60.25,0,0,0,7.11,3.36,52.3,52.3,0,0,0,7.75,2.35,44.12,44.12,0,0,0,8.91.9h.37c1.35,0,2.76-.13,3.9-.23l.28,0a57.68,57.68,0,0,0,6-.93,62,62,0,0,0,6.83-1.81,57.69,57.69,0,0,0,8.37-3.58,77.11,77.11,0,0,0,10-6.36l.8-.58,1.76-1.23,1.73-1.18.3-.2c.26-.19.52-.37.79-.53l2.49-1.48.9-.54c.26-.15.54-.28.81-.42l.12-.06c.1,0,.21-.09.31-.15l.84-.43.81-.41,1.05-.48.8-.36a11.27,11.27,0,0,1,1.16-.5,9.74,9.74,0,0,1,1.81-.55,13,13,0,0,1,2.11-.22c.33,0,.66,0,1,0,.75,0,1.54.06,2.17.1a73,73,0,0,1,8.9,1.17l-.12-.08a13.18,13.18,0,0,1,2.18,1c.48.28,1,.57,1.42.88l.62.44c1.1.77,2.2,1.55,3.27,2.36l5.56,4.15c1.24.92,2.41,1.74,3.58,2.57l1.41,1c1.34,1,2.84,2,4.6,3.1a60,60,0,0,0,7.76,4.18c2.26,1,4.63,1.87,6.67,2.57,2.6.89,5.24,1.68,7.85,2.36a59.93,59.93,0,0,0,8.17,1.42,34.88,34.88,0,0,0,3.95.2c1.39,0,2.84-.06,4.58-.19a98.4,98.4,0,0,0,12.09-1.93l7.49-1.6c.41-.09.83-.21,1.24-.33l.52-.14.94-.25,3.14-.86.41-.11,1.89-.52.4-.12.26-.09,1.14-.38,1.15-.38.8-.27,3.12-1c1.33-.44,2.63-.93,3.84-1.38,2.53-.95,4.93-2,7.15-3,1.32-.65,2.62-1.31,3.92-2,.94-.49,1.93-1,2.88-1.58l6.43-3.87c.45-.27.89-.56,1.34-.85l2-1.31,2-1.31.48-.3c.38-.24.76-.48,1.13-.74l1.46-1,1-.71,1.72-1.23,1.66-1.18c.48-.34,1-.71,1.49-1.12l3-2.5,3.3-2.73c.49-.4,1-.83,1.43-1.26l1.74-1.59,1.75-1.59L573,516.2l2.37-2.17,3.76-3.44.37-.34c.41-.38.82-.76,1.24-1.13l11.59-10c1-.83,1.93-1.67,2.88-2.51l1.52-1.32,2.59-2.29.82-.72c1.54-1.36,3.08-2.71,4.64-4.06,2-1.66,4.19-3.32,6.53-4.95a51.28,51.28,0,0,1,6.93-4c.76-.36,1.53-.71,2.3-1,1.31-.58,2.68-1.06,4-1.52l.16-.06a71.66,71.66,0,0,1,8.37-2.28h-.21l3.9-.64c1.42-.22,2.87-.35,4.23-.47s2.78-.18,4.35-.18,3.18.06,5.08.18c2.79.22,5.59.56,8.34,1a59.24,59.24,0,0,1,9.23,2.34q1.66.6,3.3,1.26c1.1.45,2.18.95,3.24,1.44l.48.22c.66.31,1.31.64,2,1l.24.12.71.35.73.36c.54.27,1.06.52,1.58.8l1.88,1,1.83,1c3.45,1.86,6.88,4,9.9,5.89l.73.45c1,.64,2,1.3,3,2l.15.1,1.69,1.08c1.11.72,2.24,1.41,3.37,2.09l.16.1,1.68,1c.52.32,1.05.63,1.59.94l.82.46,2.07,1.2.87.51c.45.26.91.51,1.37.75l.1,0,.45.24,1.85,1,1.75,1c2.46,1.33,5,2.42,6.9,3.23a69.92,69.92,0,0,0,7.15,2.48,68.45,68.45,0,0,0,17.15,2.58l1.53,0c2.46,0,4.89-.19,7.16-.38,1.42-.13,2.89-.33,4.08-.49s2-.28,2.88-.45l1.72-.34,1.71-.33.73-.14.39-.07c.74-.14,1.47-.27,2.21-.44,1.42-.32,2.84-.65,4.25-1,1.17-.3,2.35-.66,3.48-1l.2-.06.32-.1a45.88,45.88,0,0,0,6.68-2.82,36.2,36.2,0,0,0,6.74-4.6,45.69,45.69,0,0,0,6-6.13c.67-.8,1.3-1.65,1.91-2.46l.45-.6.5-.67c.38-.49.75-1,1.1-1.49l.91-1.28c.94-1.34,1.88-2.69,2.83-4,1.25-1.75,2.7-3.78,4.19-5.78l1.25-1.69,1.25-1.68c.35-.48.73-.93,1.12-1.39l.08-.1L813,471l1-1.27,1.88-2.29c.34-.4.69-.78,1-1.15l.14-.15.41-.43,3-3.24c1.34-1.43,2.79-2.84,4.43-4.29a60.89,60.89,0,0,1,7.75-5.48l3-1.77,1.79-1.06,2.37-1.35,1.05-.59.74-.42,1.34-.76c1-.57,2.09-1.11,3.12-1.64l.48-.24c2.16-1,4.34-2,6.69-2.82a56,56,0,0,1,7.63-2.12c1.23-.24,2.33-.44,3.45-.58l2.08-.26.26,0c.75-.09,1.49-.17,2.24-.23s1.27-.09,2-.09,1.43,0,2.15.08a16.58,16.58,0,0,1,2.11.35,23.41,23.41,0,0,1,3.12.94c.89.34,1.78.71,2.67,1.09l.72.3a18.94,18.94,0,0,1,2.38,1.28l.39.34.2.18a17.16,17.16,0,0,1,1.43,1.53c2.22,2.87,4.23,5.95,6.18,8.93l1,1.56.41.63c1.94,2.94,3.92,5.95,6,8.84.41.58.85,1.13,1.28,1.68l.61.77c.49.62,1,1.2,1.5,1.76l1.17,1.31,1.12,1.26.5.49.2.2,2,2c1,1,2,2,3.26,3.1a69,69,0,0,0,6.92,5.47c1.76,1.24,3.66,2.44,5.63,3.56a54.94,54.94,0,0,0,8.51,3.78c2.08.75,4.35,1.43,7.15,2.14,1.66.42,3.32.76,4.92,1l1.12.17c1.84.31,3.67.61,5.51.88l.62.09.62.09c1.52.23,3,.45,4.55.65l3,.39.27,0,.27,0c.77.1,1.56.18,2.35.25l1.1.11.34,0c.71.08,1.41.16,2.13.2l3.58.24.31,0c.59,0,1.18.08,1.77.09l2.35,0,2.35,0h.17c.48,0,1,0,1.45-.05l.38,0,3.68-.18h.17c.56,0,1.11-.08,1.67-.14l.42,0,3.53-.33.32,0c.51-.05,1-.14,1.54-.22l.24,0,.5-.08,1.5-.23,1.5-.22c.63-.1,1.26-.24,1.88-.37.27-.07.55-.13.83-.18l1.44-.3,1.45-.3c.21-.05.44-.12.65-.19l.29-.09,2-.57.69-.19c.57-.16,1.13-.32,1.69-.5,2-.68,4-1.36,6-2.07,1.53-.55,3.11-1.17,5.14-2,.94-.4,1.88-.8,2.82-1.22.61-.27,1.21-.57,1.81-.88l.21-.1.77-.4c.69-.35,1.38-.72,2.15-1.16a.26.26,0,0,0,.1.07,2,2,0,0,0,1,.28,1.91,1.91,0,0,0,.54-.08,2.18,2.18,0,0,0,1.21-.92c.33-.46.62-.95.91-1.43l.23-.38a37.23,37.23,0,0,0,3.27-2.67,2,2,0,0,0,.47-.91,2,2,0,0,0,0-.24c.59-.39,1.13-.74,1.65-1a28.87,28.87,0,0,1,2.78-1.37c1.47-.62,2.71-1.17,3.95-1.82a35.35,35.35,0,0,0,4.3-2.8c1.54-1.12,3-2.37,4.36-3.48.87-.73,1.74-1.46,2.63-2.17l.14-.11a48.39,48.39,0,0,1,9.33-5.49c2.11-1,4.27-1.88,6.37-2.78l1.15-.5.34-.14.16-.07c1.06-.45,2.16-.92,3.21-1.47s2.13-1.15,3.44-2c1.06-.66,2.09-1.36,3.31-2.22.35-.24.69-.52,1-.79l.52-.41c.36-.27.7-.56,1-.84l.3-.25c2.56-2.12,5-4.37,7.42-6.71a59.25,59.25,0,0,0,5.62-6.58c.29-.38.56-.77.82-1.16l.42-.61.66-.94,1.09-1.57c.2-.28.37-.56.55-.86l.13-.23,1.71-2.82,1-1.69.21-.39.19-.36.62-1.17.3-.57.59-1.11c.47-.86.93-1.73,1.36-2.61l2.58-5.28c.39-.81.74-1.63,1.09-2.47l.17-.39,1.24-3,.22-.51c.19-.44.38-.87.53-1.31l.52-1.47c.77-2.17,1.73-4.88,2.56-7.47l1.71-5.34c.31-1,.59-2,.86-2.94l.44-1.57c.8-2.78,1.61-5.7,2.4-8.67q1.29-4.81,2.61-9.64c.39-1.43.78-2.86,1.18-4.3l.58-2.1c1.08-3.92,2.16-7.84,3.21-11.77.9-3.36,1.76-6.73,2.63-10.1l.1-.37.36-1.41,1.68-6.48q2.55-9.66,5.15-19.29c.21-.75.39-1.5.58-2.25l.11-.43.35-1.4.79-3.13.79-3.16c.58-2.28,1.12-4.56,1.66-6.85l.67-2.82.55-2.35.55-2.35c1-4.08,2-8.7,3.17-13.12l.3-1.16c.69-2.7,1.37-5.39,2-8.09l.29-1.17.07-.29c.22-.85.43-1.7.6-2.56l1.13-5.54,0-.21c.08-.38.14-.76.2-1.14l.11-.65.56-3.34q.27-1.58.51-3.15l.3-2,.16-1c.32-2.16.67-4.45,1-6.7l.73-5.62.74-5.66c.09-.66.15-1.33.21-2l.06-.52.35-3.66.37-3.66,0-.35c.08-.75.15-1.48.19-2.21l.15-3,.15-3,.13-2.61.13-2.61c0-.21,0-.43,0-.64Z"/><path class="cls-1" d="M214.23,415.13c-.39.78-.75,1.57-1.06,2.37-.17.43-.34.85-.5,1.27s-.35.81-.52,1.21L211,422.27c-.4.79-.74,1.59-1.08,2.41s-.64,1.48-.95,2.23-.67,1.64-1.05,2.44v0c-.21.46-.43.92-.67,1.36-.12.23-.24.45-.38.67l-.48.75c-.27.41-.54.81-.8,1.23l-1,1.56-.78,1.3c-.3.47-.62.94-.93,1.4s-.57.83-.85,1.24c-.15.24-.31.47-.47.71l-.42.63c-.4.55-.78,1.11-1.2,1.64l-.77,1c-.24.3-.46.61-.69.91s-.33.41-.48.63l-.85,1.19c-.37.53-.78,1-1.17,1.54-.72.83-1.44,1.65-2.17,2.47l-1,1.07c-.35.38-.69.76-1.05,1.12s-.75.78-1.16,1.14-.81.74-1.23,1.09l-2.76,2.34c-.47.39-1,.77-1.44,1.14s-1,.74-1.45,1.11c-.9.68-1.81,1.35-2.72,2l-.94.66c-.12.09-.25.16-.38.24l-.51.32-.89.53-1.07.62a.43.43,0,0,0,.4.76,15.49,15.49,0,0,0,1.41-.71c.22-.12.44-.23.65-.36l.81-.49.62-.43.58-.41,1.28-.95c.91-.68,1.82-1.35,2.72-2,.48-.36.94-.74,1.41-1.12s.84-.71,1.26-1.06c.78-.67,1.57-1.32,2.34-2l.71-.62c.15-.13.29-.29.43-.43.38-.37.75-.73,1.1-1.12.81-.89,1.61-1.78,2.41-2.68.36-.4.7-.81,1.06-1.22l.37-.44.61-.78.44-.58c.17-.22.32-.45.48-.67.3-.42.6-.85.92-1.26s.65-.86,1-1.28.68-.85,1-1.29.64-.89.94-1.34l.93-1.38c.61-.89,1.24-1.78,1.79-2.72s1.1-1.85,1.69-2.76c.29-.46.6-.91.88-1.37.14-.22.28-.45.41-.68l.42-.81c.24-.47.45-1,.66-1.44s.4-1,.6-1.42c.41-1,.83-2,1.23-3,.29-.73.61-1.44.93-2.15l-.05.1,1.17-2.44,0,0c.31-.65.56-1.32.81-2,.14-.38.29-.76.44-1.15s.28-.66.43-1l.33-.66a.45.45,0,0,0,0-.3.38.38,0,0,0-.16-.23.37.37,0,0,0-.21-.06.36.36,0,0,0-.32.17ZM208,429.23l0,.06a.14.14,0,0,0,0-.06ZM196.09,447l0,0,0,0Z"/><path class="cls-2" d="M225,473a1.75,1.75,0,1,0,1.75-1.75A1.77,1.77,0,0,0,225,473Z"/><path class="cls-1" d="M.24,0C-.35,62.78.38,125.57.1,188.35H1170.56V0Z"/><rect class="cls-1" x="1079.85" y="149.64" width="5.56" height="5.56"/><rect class="cls-1" x="1082.63" y="133.77" width="87.93" height="321.52"/><path class="cls-1" d="M1021.78,485c7.24-1.73,14.49-3.5,21.39-6.35,6.66-2.75,12.4-6.61,18.27-10.72a120.29,120.29,0,0,1,39.71-18.26c7.48-1.89,4.31-13.47-3.19-11.57a128,128,0,0,0-39.75,17.53c-5.93,4-11.52,8.47-18.09,11.37-6.86,3-14.28,4.7-21.53,6.43-7.51,1.79-4.33,13.36,3.19,11.57Z"/><path class="cls-1" d="M992.79,493.28c12.75-.69,24.77-2.9,36.55-7.85,11.05-4.65,21.38-10.72,32.11-16a127.51,127.51,0,0,1,34.93-11.09c12.82-2.23,25.77-3.59,38.36-7,7.45-2,4.29-13.59-3.19-11.57-12.29,3.32-24.94,4.7-37.46,6.84a135.82,135.82,0,0,0-34.16,10.3c-10.41,4.78-20.27,10.66-30.65,15.52a96.34,96.34,0,0,1-36.49,8.86c-7.68.42-7.73,12.42,0,12Z"/></g></g></svg>