<svg xmlns="http://www.w3.org/2000/svg" viewBox="0 0 234.24 435.8"><defs><style>.cls-1{fill:#ede4d6;}.cls-2{fill:#fefefe;}.cls-3{fill:#f2836b;}.cls-4{fill:#404040;}.cls-5{fill:#c0b6fd;}.cls-6{fill:#dd7761;}.cls-7{fill:#40627c;}.cls-8{fill:#2c4457;}.cls-9{fill:#ffd393;}.cls-10{fill:#f6cc8e;}.cls-11{fill:#efc68a;}.cls-12{fill:#ecc488;}.cls-13{fill:#0a0e60;}.cls-14{fill:#e39279;opacity:0.42;}</style></defs><g id="Layer_2" data-name="Layer 2"><g id="Draw_Layer" data-name="Draw Layer"><path class="cls-1" d="M73.15,390c-.4,0-.79.07-1.18.12a25,25,0,0,0-4.82,1.12,36.62,36.62,0,0,0-5.56,2.22A23.92,23.92,0,0,0,52,401.92a23.44,23.44,0,0,0-2.68,6,20.34,20.34,0,0,0-.87,6.29,21.21,21.21,0,0,0,.42,3.85,21.49,21.49,0,0,0,1.26,3.67,20.63,20.63,0,0,0,2,3.18,17.65,17.65,0,0,0,3.2,3.26,19.4,19.4,0,0,0,3.73,2.49,35.33,35.33,0,0,0,6,2.59,59.45,59.45,0,0,0,12.7,2.32c6.19.52,12.43-.06,18.6-.65,2.79-.26,5.57-.59,8.36-.92a50.32,50.32,0,0,0,9-1.87,41.14,41.14,0,0,0,6.39-2.46,29.39,29.39,0,0,0,5.89-4.06,19.2,19.2,0,0,0,2.81-3.16,13.47,13.47,0,0,0,2.18-5.91,12.77,12.77,0,0,0,0-4.45,32.6,32.6,0,0,0-1.28-4.11,19.62,19.62,0,0,0-2.21-3.73,23.36,23.36,0,0,0-1.45-2,36.35,36.35,0,0,0-5.53-5.28c-3.31-2.7-7.34-4.56-11.21-6.29a58.42,58.42,0,0,0-13.16-3.83,34.49,34.49,0,0,0-6.57-.62A38.85,38.85,0,0,0,73.15,390Z"/></g><g id="Draw_Layer-2" data-name="Draw Layer"><path class="cls-2" d="M75.27,388.5l0,0c.22.37.44.72.67,1.07l.38.57V390a15.24,15.24,0,0,0,1.48,2.31,5.06,5.06,0,0,0-1.41-.2h-.64a23.83,23.83,0,0,0-4.14.39,35.82,35.82,0,0,0-4.64,1.17,18.9,18.9,0,0,0-2,.77,12.56,12.56,0,0,0-2,1.09,1.63,1.63,0,0,0-.34.3,2,2,0,0,0-.35.45,2.32,2.32,0,0,0-.36,1.05,2.75,2.75,0,0,0,1.06,2.28,4.81,4.81,0,0,0,1.8.92,9.75,9.75,0,0,0,2.48.41h.67a21.62,21.62,0,0,0,4.23-.49,29.88,29.88,0,0,0,3-.8c.93-.27,1.82-.54,2.71-.82l1.09-.36.44-.16.52-.18c.49-.17.92-.31,1.33-.48a23.85,23.85,0,0,0,4.44-2.18l.23-.15a2.6,2.6,0,0,0,.19.71,19.75,19.75,0,0,0,1.54,3.16,25.32,25.32,0,0,0,4.2,5.43,29.08,29.08,0,0,0,2.6,2.19,21.63,21.63,0,0,0,3,2,24.77,24.77,0,0,0,3.17,1.48,13.35,13.35,0,0,0,3.54,1,5.67,5.67,0,0,0,3.17-.54,4.29,4.29,0,0,0,1.32-1.12,4.13,4.13,0,0,0,.68-1.86,5.47,5.47,0,0,0-.07-1.62,10.73,10.73,0,0,0-.44-1.67,25.83,25.83,0,0,0-1.3-3.22,38.77,38.77,0,0,0-2.84-5c-.14-.23-.3-.45-.47-.68l-.17-.23a1.61,1.61,0,0,0-1.21-.59,11.52,11.52,0,0,0,.66-1.15l.1-.19c-.7.05-1.31.07-2.06.07h-.63c-.55,0-1.11,0-1.66-.09a3.13,3.13,0,0,0-.23.44h0a1.17,1.17,0,0,0-.53.14c-.2.09-.39.18-.6.26h-.09l-.46.07a4.57,4.57,0,0,1-1-.14c-.58-.15-1.14-.33-1.86-.58a22,22,0,0,1-2.31-.95,10.64,10.64,0,0,1-1.71-1.24c-.12-.11-.24-.24-.35-.36l-.08-.09a25.55,25.55,0,0,1-3.09-1.8l0,.12c0,.17,0,.23,0,.3h0a.33.33,0,0,0-.14.07,1.62,1.62,0,0,0-.51.79l-.34.17a11.4,11.4,0,0,1-1.82.24H82.43a11.17,11.17,0,0,1-1.81-.2.75.75,0,0,0-.13-.21q-.49-.78-1-1.68h-.7c-.91,0-1.7,0-2.43-.1l-1.07-.12Z"/><polygon class="cls-2" points="125.54 363.74 125.54 363.74 125.54 363.74 125.54 363.74 125.54 363.74 125.54 363.74"/><path class="cls-3" d="M86.72,391.35l-.27.14h0l0,0h0a10.25,10.25,0,0,1-1.32.56l-.68.2-.48.14a5.71,5.71,0,0,1-.89.15l-.44,0-.78,0-.49-.06-.35-.05h-.37l-.29,0q-.3-.1-.6-.24l-.5-.19a5.1,5.1,0,0,1-.5-.19l-.2-.11-.26-.11a.5.5,0,0,0-.58.15.49.49,0,0,0,.09.69,1.38,1.38,0,0,0,.38.2c.1,0,.19.11.28.15s.23.08.34.12l.32.12c.13,0,.25.1.38.15a3.34,3.34,0,0,0,.44.17,1.87,1.87,0,0,0,.51.11h.42c.19,0,.37.06.56.08a6.76,6.76,0,0,0,.9,0,7.46,7.46,0,0,0,1-.1c.22,0,.44-.11.65-.17a3.12,3.12,0,0,0,.43-.15l.38-.16a7.49,7.49,0,0,0,1.08-.47c.31-.19.63-.35.94-.54l.08,0a.31.31,0,0,0,.17-.39.33.33,0,0,0-.29-.2.19.19,0,0,0-.1,0Zm.17.58,0,0,0,0Zm0,0,0,0,0,0Zm-2.83.44h0Zm-.07,0,0,0,0,0Zm-3.31.08h0Zm1.22.12h0Zm4.58-1.1Z"/><path class="cls-3" d="M105.88,386.6a.68.68,0,0,0-.22.31l0,.1a.31.31,0,0,0-.18.16c-.2.47-.4.94-.62,1.41s-.42.89-.65,1.32l-.63,1.27-.34.68a2.3,2.3,0,0,0-.2.49.3.3,0,0,0,.11.29l0,0c-.06.15-.13.3-.2.45a7.16,7.16,0,0,1-.4.78.81.81,0,0,0-.11.64.42.42,0,0,0,.55.24l.1-.05h0l0,0a.53.53,0,0,0,.14-.12c.14-.2.25-.43.37-.64s.29-.61.43-.92l.42-.95c.15-.33.31-.67.45-1s.3-.65.43-1,.27-.7.4-1.05c.07-.19.12-.39.19-.57s.15-.37.22-.56.08-.22.11-.33a2.44,2.44,0,0,0,.1-.24l.06-.13a.48.48,0,0,0,.07-.2.34.34,0,0,0,0-.2.38.38,0,0,0-.13-.18.36.36,0,0,0-.24-.09.49.49,0,0,0-.25.08ZM103.23,392v0h0l0,0Z"/><path class="cls-3" d="M102.68,394.09l-.06.17a1,1,0,0,1-.1.26,4.54,4.54,0,0,1-.39.48l.07-.07-.4.42a5.07,5.07,0,0,1-.44.37,3.48,3.48,0,0,1-.48.3l.1-.06c-.21.11-.43.22-.65.31a4.17,4.17,0,0,1-1.68.49.49.49,0,0,0-.41.4.52.52,0,0,0,.09.34.44.44,0,0,0,.31.18,2.77,2.77,0,0,0,.5,0l.43-.08a1.89,1.89,0,0,0,.34-.09l.35-.15.37-.17a1.75,1.75,0,0,0,.28-.13l.51-.29a3.53,3.53,0,0,0,.32-.21,1.07,1.07,0,0,0,.25-.22c.18-.17.34-.37.51-.55a3.81,3.81,0,0,0,.29-.41c.08-.13.17-.25.26-.38a2,2,0,0,0,.19-.42,1.72,1.72,0,0,0,.07-.21.34.34,0,0,0,0-.26.34.34,0,0,0-.31-.22.32.32,0,0,0-.32.21Z"/></g><g id="Draw_Layer-3" data-name="Draw Layer"><path class="cls-4" d="M109.38,34.17l-.2.13.56.24,1.12.48,3,1.29,4.1-1.83-.68-.29-1.94-.8-1.85-.77-4.07,1.55Z"/><path class="cls-4" d="M93.28,323.77a.24.24,0,0,0-.08.15.24.24,0,0,0,.07.18.15.15,0,0,0,.14.07.25.25,0,0,0,.16-.05.24.24,0,0,0,.09-.15.26.26,0,0,0-.07-.19.18.18,0,0,0-.14-.06.25.25,0,0,0-.17,0Z"/><path class="cls-5" d="M93.28,323.77a.24.24,0,0,0-.08.15.24.24,0,0,0,.07.18.15.15,0,0,0,.14.07.25.25,0,0,0,.16-.05.24.24,0,0,0,.09-.15.26.26,0,0,0-.07-.19.18.18,0,0,0-.14-.06.25.25,0,0,0-.17,0Z"/><path class="cls-3" d="M143.69,254.82l-1.19.24-1.43.29c.13,1.36.29,2.7.48,4.11a7.11,7.11,0,0,0-1.62.64l-1.37.67-.42.21-.23.11c-1,.5-2,1-3,1.46s-2.19,1-3.29,1.4l-.55.2-1.18.41-1,.31-1,.3-1.19.3-1,.24-.63.11-.29,0L124,266l-.85.15c-.58.11-1.17.17-1.75.23l-.68.07c-.73.09-1.44.16-2.17.21l-.7.06c-.56.05-1.12.1-1.68.12l-1.58.07L113,267c-1.47.07-3,.09-4.47.1-5.72.07-12.14.1-20.81.11-3.38-.11-6.75-.21-10.12-.35l-1.29-.06-.33,0-.64,0-.45,0-.44,0c-.5,0-1,0-1.51-.09l-.91-.07c-2.07-.18-4.41-.38-6.72-.79-1-.18-2.11-.42-3.17-.71s-2.13-.7-3.11-1c.22-.47.41-1,.59-1.46h-.51l-1,0h-.34l-1.18,0-1.17,0L54.84,264a47,47,0,0,1-2.28,4.15,59.2,59.2,0,0,1-3.91,5.52c-.39.5-.78,1-1.18,1.48l-.22.28-.22.26-.41.5c-.79,1-2,2.44-3.24,3.87a1.79,1.79,0,0,0-.39,1.54l-.7-.3-.41-.14c-.18,1.27-.33,2.52-.47,3.78.38.13.73.24,1.1.34l.13,0,.07-.08.49-.54.3-.3.36-.36.22-.21.06,0c.19-.26.38-.52.58-.77s.58-.71.88-1.06l.75-.89a.3.3,0,0,1,.17-.1.28.28,0,0,1,.18,0,.26.26,0,0,1,.06.35l-.13.16.29-.28.24-.19.13-.1a.92.92,0,0,1,.25-.17.49.49,0,0,1,.14,0h0a.17.17,0,0,1,.12.05l0,0c.61-.69,1.21-1.41,1.81-2.14l.34-.42.14-.17L50,279.33,50,280.6l0,.53c0,.48-.06,1-.06,1.44v1.1l0,2c0,1.16,0,2.34.07,3.38,0,.53,0,1,.05,1.44,0,1.23.12,2.53.21,3.75l.07,1.13c.18,2.67.43,5.29.73,8.19l0,.53c.3,2.9.64,6,1.06,9.65.14,1.15.31,2.3.48,3.45l.13.93.11.77c.16,1.13.33,2.26.5,3.39l.08.55c.43,2.86.91,5.76,1.36,8.54l.2,1.17,0,.33c.18,1.08.38,2.06.58,3l.23,1.14.15.77c.19,1,.41,2.07.69,3.14l.27,1.09L58,346.5c.05.22.12.45.19.67l0,.11,0,.11.16.54,1,3.26.17.63c.16.56.3,1.05.47,1.53s.45,1.26.67,1.9l.32.89.15.45c.37,1,.7,2,1.07,2.92,1.5,3.86,2.71,6.9,3.8,9.55.49,1.22,1,2.43,1.51,3.64l.58,1.38c.44,1,.88,2.05,1.34,3.07.73,1.64,1.45,3.26,2.18,4.86.16.36.35.72.53,1.07l.09.17.13.25.08.14.14.27.17.34.17.33c.21.42.42.85.66,1.25l.49.84.85,1.44c.29.5.61,1,.93,1.48l.37.58,0-.18a16,16,0,0,0,1.33,2.06l.52.38c1.1.26,2.2.54,3.28.89h.09l.42.05,1.43-.25.57-.15.25-.06.25-.13.58-.33.1-.08h0l.25-.23a2.4,2.4,0,0,1,.24-.22.39.39,0,0,1,.22-.09l.11,0a.27.27,0,0,1,.13.15l0,0a.54.54,0,0,1,.22,0,.35.35,0,0,1,.14.06l0,0h0a.27.27,0,0,1,.16.1c.26.31.52.62.77.94l.1.14.32.3.17.17,0-.06a1.3,1.3,0,0,0,.1.15l.18.19.14.16.17.15a13.36,13.36,0,0,0,4.13,2.44l.41.16a21.63,21.63,0,0,0,2,.74,7.68,7.68,0,0,0,2.28.37h.22a6.56,6.56,0,0,0,2.32-.59,1.67,1.67,0,0,0,.64-.48h0a1.54,1.54,0,0,0,.5-.08.07.07,0,0,0,0,.05c.34-.41.7-.81,1-1.22l.75-.91h-.15c.69-1.19,1.32-2.43,1.91-3.6s1.17-2.27,1.77-3.4l.17-.31.68-1.17.15-.26.14-.24c.46-.79.92-1.58,1.36-2.38l.82-1.47.8-1.43c.32-.57.61-1.15.89-1.74l.18-.38c.42-.84.83-1.68,1.24-2.52.26-.51.47-1,.66-1.51l.06-.14c.1-.25.2-.5.31-.74.71-1.66,1.44-3.3,2.18-4.94.5-1.09,1-2.16,1.54-3.23l.51-1c.26-.53.51-1.07.76-1.6l.48-1c.29-.62.54-1.24.8-1.88l.14-.36.51-1.26.14-.34c.1-.23.16-.38.21-.53l.45-1.33.45-1.35c.47-1.41.93-2.83,1.38-4.24l.07-.21.19-.62c.37-1.15.73-2.31,1.08-3.47l.17-.55.28-.94c.33-1.07.62-2.17.9-3.24l0-.16c.13-.52.26-1,.4-1.52.31-1.14.66-2.27,1-3.39.16-.54.33-1.08.48-1.62.34-1.12.71-2.23,1.09-3.35l.14-.43.36-1.08c.33-1,.63-2,.88-2.94l.11-.39.45-1.6c.29-1,.54-1.92.78-2.86l.08-.28.09-.37.42-1.57c.3-1.14.61-2.28.93-3.41l.4-1.5c.35-1.27.68-2.55,1-3.84l.28-1.12q.6-2.43,1.15-4.88l.37-1.59.52-2.11.75-3.05c.28-1.16.54-2.32.79-3.48l.42-1.89c.09-.45.17-.91.25-1.35l.13-.76.26-1.48.27-1.52c.17-1,.33-2,.49-3l.09-.5.22-1.39c.27-1.63.48-3.36.65-4.75l0-.26,0-.17c.17-1.4.37-3,.62-4.55l0-.28.46-2.89c.08-.51.18-1,.28-1.51l.18-.94c.22-1.15.42-2.31.61-3.47l.24-1.35,0-.24.05-.27a1,1,0,0,0-.15-.72,1.63,1.63,0,0,0-.08-1,1.48,1.48,0,0,0,.29-1q-.18-2.25-.39-4.5v-.14l0,0ZM92.84,270.16l.68,0v.07l-.68-.1Zm.42,53.94a.25.25,0,0,1-.06-.18.22.22,0,0,1,.08-.15.24.24,0,0,1,.17-.06.21.21,0,0,1,.14.07.26.26,0,0,1,.07.18.22.22,0,0,1-.09.16.21.21,0,0,1-.16.05.18.18,0,0,1-.15-.07Z"/><path class="cls-3" d="M73.32,383.76a.47.47,0,0,0-.19.63c.11.21.23.42.33.64a.61.61,0,0,0-.06.46.88.88,0,0,0,0,.15h0c.15.34.34.68.5,1s.31.59.47.89.32.58.48.87.31.59.48.87.39.64.61.95.47.66.72,1l.59.76a2.08,2.08,0,0,0,.83.73.68.68,0,0,0,.78-.28.72.72,0,0,0,.09-.52,2,2,0,0,0-.34-.67c-.16-.25-.33-.49-.5-.73l-.81-1.07-.1-.14a10.06,10.06,0,0,1-.66-1.15c-.2-.43-.42-.84-.65-1.25a.51.51,0,0,0-.39-.26l-.32-.54a10.14,10.14,0,0,0-.78-1.19v0c-.16-.32-.33-.64-.5-.95a.46.46,0,0,0-.41-.24.54.54,0,0,0-.21.05Z"/></g><g id="Draw_Layer-4" data-name="Draw Layer"><path class="cls-6" d="M91.78,293.63c-.39,2.24-.88,4.47-1.24,6.72s-.68,4.56-1,6.85a2.13,2.13,0,0,1,0-.25c-.26,1.75-.53,3.49-.78,5.23s-.5,3.48-.62,5.23-.21,3.68-.32,5.51-.25,3.72-.36,5.57c-.21,3.5-.58,7-.89,10.48-.15,1.67-.38,3.33-.55,5s-.34,3.62-.42,5.43-.14,3.64-.17,5.45,0,3.57-.08,5.35-.15,3.25-.2,4.88c-.07,1.83-.11,3.67-.17,5.5-.06,1.55-.12,3.09-.07,4.63s.12,3.31.18,5,.1,3.39.17,5.09c0,.81.11,1.62.18,2.43s.16,1.76.31,2.62c0,0,0,0,0,0a42.71,42.71,0,0,1,.31-4.52c.13-1.38.32-2.75.49-4.13.33-2.87.58-5.76.9-8.64l.24-1.78v0a1,1,0,0,1,0,.17l0-.14,0,.18v.05c.49-3.68.9-7.37,1.17-11.07.12-1.63.15-3.25.22-4.88s.15-3.52.26-5.28.25-3.68.42-5.52c.16-1.68.38-3.37.5-5.06.27-3.61.48-7.21.58-10.83q.07-2.55.12-5.1c0-1.84,0-3.69,0-5.53q0-1.36,0-2.73c0-.91.06-1.82.1-2.73.08-1.79.21-3.56.28-5.34.1-2.18.11-4.36.18-6.53.09-2.44.25-4.87.27-7.31h0Zm-4.29,79.59,0,.13,0-.13Zm.26-1.91v0l0-.1,0,.13Z"/><path class="cls-6" d="M143.85,258.32c-.21,1.12-.49,2.23-.73,3.34s-.43,2.17-.62,3.25-.43,2.35-.69,3.52-.54,2.14-.78,3.21c-.14.59-.26,1.18-.39,1.77s-.26,1.08-.33,1.63c-.14,1.19-.23,2.39-.31,3.58s-.2,2.16-.29,3.24-.24,2.26-.34,3.39-.19,2.22-.35,3.33-.31,2.2-.51,3.29-.42,2.15-.65,3.22-.39,2-.59,3-.43,2.09-.63,3.14-.37,2.21-.5,3.33c0,0,0,0,0,0,.09-.57.19-1.15.32-1.72s.32-1.29.5-1.93c.29-1.1.61-2.2.93-3.29s.62-2.14,1-3.21.67-2.14,1-3.23.62-2.22.85-3.34.4-2.25.6-3.37.39-2.21.57-3.32.39-2.17.52-3.27.22-2.18.39-3.26.29-2.22.47-3.33.38-2.43.47-3.65.12-2.37.14-3.56l0-2.82c0-1,.05-2,0-3h0Z"/><path class="cls-6" d="M55.22,332.85a8.6,8.6,0,0,0,.11,1.61c.09.56.17,1.11.25,1.67s.19,1.14.29,1.71.17,1.23.24,1.84c.12,1.16.35,2.32.56,3.47s.45,2.27.68,3.4.46,2.32.71,3.48.49,2.27.81,3.38.62,2.27,1,3.41c.07.26.16.53.23.79l.13.43.15.49,0,.07h0v.07l.09.28v0l0,.07v0h0c.2.66.38,1.32.58,2s.4,1.17.6,1.75.33,1,.52,1.55.45,1.09.68,1.63.43,1,.64,1.51.46,1,.71,1.48.43.94.65,1.4.44.86.64,1.3c.34.72.77,1.4,1.13,2.11.18.38.37.77.58,1.14s.45.76.69,1.13c.4.69.74,1.42,1.12,2.13.31.56.63,1.11,1,1.65h0v0l.06.1,0,0,.11.16a21.8,21.8,0,0,1,1.09,2,5.75,5.75,0,0,0,.5.78l.47.7.06.11a16.82,16.82,0,0,0,1.07,1.95c.2.27.44.53.66.79a13.16,13.16,0,0,1,.89,1.19s0,0,0,0l-.09-.14h0c-.18-.3-.34-.6-.52-.89s-.29-.42-.43-.62-.21-.32-.31-.48a9.75,9.75,0,0,1-.65-1.65c-.21-.61-.57-1.15-.83-1.74-.13-.28-.21-.58-.32-.86-.18-.46-.36-.91-.56-1.35-.33-.75-.73-1.46-1-2.22s-.47-1.39-.74-2.08-.6-1.31-.82-2l-.36-1.09c-.12-.34-.27-.67-.4-1s-.21-.63-.32-.95-.21-.6-.31-.91c-.15-.54-.31-1.09-.47-1.63s-.39-1.11-.59-1.67-.35-1.07-.54-1.6S65.2,363.52,65,363s-.25-.89-.37-1.33c-.19-.71-.42-1.41-.64-2.11l-.63-2a1.52,1.52,0,0,0-.06-.2c-.12-.39-.25-.78-.38-1.17-.19-.54-.38-1.08-.56-1.62s-.36-1.14-.56-1.7-.4-1-.58-1.51-.42-1.2-.63-1.8c-.27-.76-.56-1.52-.83-2.29s-.55-1.64-.88-2.44-.62-1.63-.91-2.46-.58-1.58-.85-2.38c-.17-.6-.32-1.22-.51-1.82s-.4-1.16-.58-1.74-.33-1.34-.54-2h0a8.48,8.48,0,0,1-.28-1.57,0,0,0,0,0,0,0s0,0,0,0ZM57.16,340v0Zm13,40,0,.06,0-.06Zm3.41,5.4h0ZM70,379.84l0-.07h0a.35.35,0,0,1,0,.08ZM60.48,359h0v-.06l0,.07Z"/><path class="cls-3" d="M92.84,321.54h0a.9.9,0,0,0-.32.45,2.64,2.64,0,0,0-.11.56c0,.26,0,.52,0,.79s0,.7,0,1.06,0,.5,0,.76v.08c0,.15,0,.29,0,.44a4.72,4.72,0,0,0,0,.84,1.16,1.16,0,0,0,.9.94,1.07,1.07,0,0,0,.63.12,1.09,1.09,0,0,0,.64-.36.47.47,0,0,0,.75-.19,3.16,3.16,0,0,0,.14-.68c0-.17,0-.33,0-.5v0c.28-1.05.57-2.09.84-3.14l0,.38c0,.42,0,.83,0,1.25s0,.8,0,1.2a5.26,5.26,0,0,0,.18,1.9.07.07,0,0,0,.13,0,3.51,3.51,0,0,0,.14-.85c0-.34.06-.68.08-1,0-.78.06-1.56.07-2.35,0,0,0,0,0,0,0,.72-.06,1.43-.13,2.15a15.16,15.16,0,0,1-.21,1.78,4.48,4.48,0,0,1-.06-.63c0-.82,0-1.65.06-2.47l.06-1,.06-.72a5.38,5.38,0,0,0,0-.9.16.16,0,0,0-.3,0c-.28.81-.53,1.63-.78,2.45a2.29,2.29,0,0,1,0-.25,4.5,4.5,0,0,0,0-1.27.74.74,0,0,0-.43-.54.78.78,0,0,0-.22,0,1,1,0,0,0-.69-.61.83.83,0,0,0-.58-.35h-.11a.86.86,0,0,0-.85.75Zm-.42,1.56v0Zm0,1.06v.12a.49.49,0,0,1,0-.12Zm0,1.55v0Zm3.14.17,0,.05,0-.05Zm-3.15-.63v0Z"/><path class="cls-6" d="M111.39,378.56c-.19.34-.33.72-.52,1.07l0,0c-.27.45-.54.89-.79,1.34-.13.22-.28.42-.41.63s-.39.61-.61.9a9,9,0,0,0-.86,1.19,4.52,4.52,0,0,0-.23.5,9,9,0,0,1-.41.82l-.25.41h0l0,.08,0,.05v0c-.18.3-.35.59-.51.89s-.48.81-.69,1.24c-.32.66-.64,1.35-.9,2-.38,1-.7,2-1.16,3-.21.44-.41.87-.59,1.32s-.35.79-.55,1.18c0,0,0,0,0,0a7.17,7.17,0,0,0,.52-.71c.2-.31.38-.64.59-.95s.47-.62.67-.95.42-.73.63-1.09c.38-.66.69-1.35,1.07-2,.24-.43.42-.89.66-1.33.16-.25.35-.48.5-.74.27-.48.48-1,.74-1.45a9,9,0,0,0,.6-1.2,5.75,5.75,0,0,1,.39-.88,14.38,14.38,0,0,0,.89-1.75c.13-.32.31-.61.42-.93s.21-.55.31-.83.15-.39.22-.59.18-.7.27-1.05h0l0-.13,0,0Zm-2.14,5.29a.41.41,0,0,1,0,.09l0-.09Zm-2,1.63,0,0,0-.07-.06.1Z"/><path class="cls-6" d="M76.13,389.87v0a0,0,0,0,0,0,0v0h0s0,0,0,0Z"/><path class="cls-3" d="M72.21,379.28a.75.75,0,0,0-.44.32.7.7,0,0,0-.09.56c.21.62.48,1.21.72,1.82.13.33.26.66.4,1s.25.59.38.88c.22.51.48,1,.75,1.51a3.62,3.62,0,0,0,.2.33l.26.39a3.21,3.21,0,0,0,.76.8.59.59,0,0,0,.71-.07.6.6,0,0,0,.14-.68,10.82,10.82,0,0,0-.71-1.4c-.27-.49-.54-1-.77-1.51-.14-.31-.27-.62-.42-.93s-.23-.58-.35-.87l-.46-1.11v0a1.43,1.43,0,0,0-.32-.72.47.47,0,0,0-.19-.18.69.69,0,0,0-.39-.12l-.17,0Zm1,.65v0s0,0,0,0Z"/><path class="cls-3" d="M69.53,373.79a4.4,4.4,0,0,0,0,.51l0,.38c0,.25.07.5.11.75.07.45.17.88.27,1.32s.27,1.09.41,1.63c0,.19.11.38.17.57s.18.61.29.91.31.86.5,1.26.45.94.69,1.4c.12.23.24.46.37.69l.06.15c.38.94.83,1.85,1.28,2.76a13.84,13.84,0,0,0,.79,1.34q.25.39.54.75a3,3,0,0,0,.23.27,1.1,1.1,0,0,0,.81.43.84.84,0,0,0,.77-1.23c-.22-.39-.47-.77-.7-1.15a7,7,0,0,0-.68-1.26l-.15-.27a3.82,3.82,0,0,1-.21-.46l-.06-.13a.77.77,0,0,0,0-.15h0a1.68,1.68,0,0,0-.24-.89c-.09-.2-.2-.41-.31-.61s-.31-.57-.48-.85c-.32-.87-.64-1.74-.93-2.62a.89.89,0,0,0-.37-.52l-.08-.05c-.17-.49-.31-1-.47-1.49-.08-.28-.15-.56-.22-.84a8.55,8.55,0,0,1-.17-.88c0-.05,0-.11,0-.16l0-.09c0-.18-.06-.36-.08-.54l-.09-.71c0-.08,0-.17,0-.26a1.22,1.22,0,0,0-.46-.64.63.63,0,0,0-.3-.13.81.81,0,0,0-.34-.08h0a1,1,0,0,0-1,.9Z"/><path class="cls-3" d="M87.21,391.58a6.74,6.74,0,0,0,1,1.47,8.48,8.48,0,0,0,1.46,1.35,6.45,6.45,0,0,0,2.72,1.09s0,0,0,0l-1-.39c-.29-.15-.57-.31-.85-.49a9.55,9.55,0,0,1-.94-.74h0c-.46-.38-.9-.77-1.34-1.17a9,9,0,0,1-1.1-1.12h0s0,0,0,0Z"/><path class="cls-6" d="M86.3,391.59a6.79,6.79,0,0,0,.67,1.09c.26.34.57.65.84,1,0,0,0,0,0,0a4.51,4.51,0,0,0,.66.72c.11.09.21.2.31.3s.23.2.35.3a5.53,5.53,0,0,0,1.29.74h0a3.41,3.41,0,0,1,.33.17c.11.06.21.08.31.13h0l.1,0h0a1.55,1.55,0,0,0,.36.13s0,0,0,0l-.09,0h0a3.07,3.07,0,0,1-.39-.23l-.26-.16h0l-.18-.14h0l0,0h0l-.29-.23h0L90,395.1l0,0-.14-.11c-.17-.13-.32-.28-.49-.42l.05,0c-.16-.13-.31-.29-.46-.42l-.23-.21-.27-.2c-.21-.18-.41-.38-.61-.57a6.76,6.76,0,0,0-.62-.58s0,0,0,0a5.44,5.44,0,0,1-.41-.42,4.47,4.47,0,0,1-.35-.41h0c-.06-.09-.11-.18-.17-.26h0s0,0,0,0Zm.19.24h0Zm3.81,3.54,0,0,0,0Zm.26.2h0ZM91,396h0Zm-.64-.3h0Zm.24-.09ZM90,395.1h0Z"/><path class="cls-6" d="M77.77,392.52c.22.1.43.22.63.33s.46.21.7.32h0a8.38,8.38,0,0,0,1,.37,8.18,8.18,0,0,0,1.1.2h0a3.07,3.07,0,0,0,.8,0h0a7.19,7.19,0,0,0,.81-.13,2.62,2.62,0,0,0,.4-.11c.15,0,.31-.07.46-.12s0,0,0,0l-.12,0h-.39l-.16,0h0a3.59,3.59,0,0,1-.73,0c-.22,0-.45,0-.67-.06h0l-.65-.09h0l-.78-.14h.06c-.42-.07-.82-.17-1.23-.26s-.78-.27-1.18-.36h0s0,0,0,0ZM82,393.75h0Zm-.4-.41Z"/><path class="cls-3" d="M109.86,378.91a3.07,3.07,0,0,0-.31.72c-.1.27-.19.54-.3.81s-.1.26-.15.39a.34.34,0,0,0-.14,0,.4.4,0,0,0-.25.21c0,.08-.07.17-.11.24l.05-.09c-.06.12-.11.25-.16.37a.36.36,0,0,1,0-.09c-.07.14-.13.28-.19.43l-.18.48c-.11.29-.22.57-.34.84v0c-.13.33-.27.65-.41,1,0,.07-.07.15-.11.22a.37.37,0,0,0-.07-.14l0,0,.36-.73a.26.26,0,0,0-.09-.35.26.26,0,0,0-.34.09l-.47.94c-.17.33-.34.66-.52,1l-1.11,2-.54,1c-.17.33-.32.66-.48,1-.24.49-.46,1-.66,1.48-.13.26-.24.53-.35.81a.25.25,0,0,0,.12.28.26.26,0,0,0,.34-.09c.07-.14.12-.28.18-.43l.09-.2c.09-.21.19-.42.3-.62l.11-.21-.06.18-.15.45c-.09.28-.19.56-.28.84l-.05.15c0,.08-.1.17-.16.25a3.3,3.3,0,0,0-.23.41.69.69,0,0,0-.09.44.31.31,0,0,0,.3.22.31.31,0,0,0,.23-.1,1.67,1.67,0,0,0,.16-.24,1.64,1.64,0,0,1,.14-.22.27.27,0,0,0,.1-.11l0-.1h0c.13-.19.25-.39.37-.59s.27-.42.4-.64.23-.42.34-.63.23-.46.34-.69.22-.43.32-.64.21-.44.31-.65l.28-.63c.11-.25.23-.48.35-.72s.13-.27.19-.41l.49-.8c.12-.19.25-.39.36-.59s.25-.47.37-.7c.23-.44.46-.88.68-1.33.1-.19.2-.38.31-.57l.32-.69c.11-.23.2-.47.29-.71h0L110,381c.09-.21.17-.43.25-.65s.13-.42.2-.63.09-.36.14-.55a.38.38,0,0,0-.18-.43.41.41,0,0,0-.18,0,.42.42,0,0,0-.34.19ZM108,383.05Z"/><path class="cls-3" d="M110.07,379.17l-.24.68,0,0a.28.28,0,0,0-.15.17l-.15.44-.15.37h0c-.07.16-.13.31-.21.46s-.18.35-.27.53-.15.27-.22.4a1.18,1.18,0,0,0-.11.19.25.25,0,0,0,0,.19.27.27,0,0,0,.11.15h0a.23.23,0,0,0,.2,0,.22.22,0,0,0,.14-.11,2.2,2.2,0,0,0,.21-.32l.18-.32.44-.88c.28-.61.52-1.24.75-1.87a.26.26,0,0,0-.18-.31h-.06a.27.27,0,0,0-.25.18Z"/><path class="cls-6" d="M110.15,381.05c-.07,0-.1.07-.14.14s-.17.34-.25.52-.09.25-.14.37-.05.13-.08.19a.47.47,0,0,1-.05.1l-.09.21c-.11.22-.21.46-.32.68s-.23.38-.35.57a5.7,5.7,0,0,0-.3.54h0l0,.08,0-.06a4.23,4.23,0,0,0-.22.42l-.17.36c-.11.19-.22.38-.32.58l-.29.6c0,.09-.09.19-.14.29s0,.12-.07.19l-.17.34c-.12.23-.22.46-.33.68l-.1.18-.12.22.05-.09c-.16.3-.31.6-.46.9-.07.13-.13.26-.19.4s-.12.28-.19.42l-.19.3a3.37,3.37,0,0,0-.19.32l-.43.74h0l0,.05h0c-.05.09-.12.17-.17.27s-.16.26-.23.4,0,.13,0,.19a.25.25,0,0,0,.14.13.21.21,0,0,0,.19,0c.07,0,.1-.07.13-.14l0-.05,0,.07c.06-.13.14-.24.21-.36a1.63,1.63,0,0,0,.11-.17l.09-.17v0l0,0v0c.15-.27.31-.54.47-.8s.15-.26.23-.38.19-.29.28-.43l.27-.42c.09-.16.19-.32.29-.48s.16-.28.25-.42.2-.34.29-.51l0,.07.17-.34c.12-.22.25-.45.35-.68s.13-.29.2-.44l.21-.41c.07-.14.12-.28.19-.42l.21-.37c.07-.16.12-.32.19-.47s.15-.32.22-.47.16-.35.24-.52l.12-.25c0-.07.07-.13.1-.21l.09-.22.31-.81c0-.07.07-.14.1-.22l.07-.21a5.44,5.44,0,0,1,.3-.65.25.25,0,0,0,0-.19.25.25,0,0,0-.14-.13l-.09,0a.19.19,0,0,0-.1,0Zm-1.62,4.71a.59.59,0,0,1,0,.08.59.59,0,0,0,0-.08Zm-1,2v0Zm-2.2,3.67h0l0,0Zm-.48-.15,0,0h0l0,0Zm3.55-6.89v0h0v0Z"/><path class="cls-6" d="M143.66,259.27v.06l-.07,0a.27.27,0,0,0-.11.1.67.67,0,0,0,0,.19c0,.12,0,.24,0,.36s0,.54,0,.81,0,.58,0,.86,0,.56-.08.84-.1.76-.16,1.13l-.09.66a5.67,5.67,0,0,0-.05.58,1.21,1.21,0,0,0,0,.19.36.36,0,0,0,.06.2.25.25,0,0,0,.22.13.28.28,0,0,0,.12,0,.19.19,0,0,0,.1,0h0c0,.24,0,.48,0,.72s-.06.68-.1,1-.11.77-.18,1.16-.14.84-.22,1.26-.14.83-.21,1.25-.18,1.05-.26,1.58a.26.26,0,0,0,0,.19.22.22,0,0,0,.14.11.27.27,0,0,0,.2,0,.24.24,0,0,0,.11-.15c.19-1.18.39-2.36.6-3.53.09-.52.18-1,.25-1.54s.12-1,.15-1.52.07-1.06.1-1.59l.06-.72,0-.59.06-.64q.06-.61.09-1.23c0-.22,0-.44,0-.66s0-.23,0-.34a3.54,3.54,0,0,0,0-.46v-.1a.33.33,0,0,0,0-.15.28.28,0,0,0-.12-.16v0a.25.25,0,0,0-.25-.25.26.26,0,0,0-.26.25Zm-.59,5.56h0v0a.08.08,0,0,0,0,0Z"/><path class="cls-6" d="M143.06,259.79c0,.19-.09.37-.12.56s-.05.32-.08.49,0,.32-.05.48,0,.37,0,.55l-.06,1.07c0,.33-.06.65-.1,1h0c-.09.51-.18,1-.26,1.51,0,.24-.09.48-.13.72s-.11.53-.16.8c-.08.52-.15,1-.21,1.55s-.11,1-.17,1.5l-.21,1.71c-.07.53-.13,1.06-.19,1.6l-.06.62c0,.29-.06.58-.07.86l0,.47c0,.1,0,.21,0,.31,0,.31,0,.63,0,.94V277a.25.25,0,0,0,.25.25.25.25,0,0,0,.25-.25c0-.28,0-.56,0-.85s0-.41,0-.62,0-.43,0-.65,0-.35.05-.52c0-.42.07-.84.12-1.26s.11-.89.17-1.33c.1-.8.19-1.6.28-2.4,0-.37.07-.75.11-1.12s.09-.85.15-1.27v0c.07-.51.17-1,.26-1.54,0-.21.07-.43.11-.65s.11-.57.15-.85l.09-.78c0-.24,0-.49.05-.73s0-.5,0-.76.05-.53.08-.8a.64.64,0,0,0,0,.07c0-.17,0-.33.08-.49l.12-.55a.26.26,0,0,0-.17-.31h-.07a.25.25,0,0,0-.24.18Zm-.49,7.26v0Z"/><path class="cls-6" d="M142.41,260.11c0,.72,0,1.44-.13,2.16s-.15,1.43-.23,2.15v0c-.14,1-.29,2-.41,3s-.24,2.09-.33,3.14c0,.49-.06,1-.09,1.47s-.06,1.08-.09,1.62-.08,1.05-.11,1.58-.08,1.06-.09,1.58,0,.84,0,1.25a.35.35,0,0,0,.34.35.35.35,0,0,0,.35-.35c.06-1.07.12-2.14.21-3.21,0-.54.08-1.07.1-1.61l.09-1.7c0-.49,0-1,.08-1.46l.12-1.61c.08-1,.15-2,.26-3,.05-.47.11-.93.15-1.39s.07-.88.11-1.33.08-.86.11-1.3.05-.89.06-1.34a.24.24,0,0,0-.25-.25.25.25,0,0,0-.25.25Zm-.36,4.28v0Z"/><path class="cls-6" d="M141.39,261.83c.05.55.06,1.1.07,1.66s0,1.05,0,1.57c0,1.06-.11,2.12-.19,3.18l-.12,1.44c0,.55-.07,1.1-.1,1.65l-.05.77,0,.84c0,.53,0,1.07,0,1.61s0,.95-.06,1.42-.06.93-.07,1.39c0,.24,0,.49,0,.73v.84c0,.51,0,1,0,1.54a.25.25,0,0,0,.5,0c0-.57.05-1.13.07-1.69s0-1.16.05-1.74c0-.27,0-.54,0-.82s0-.48,0-.73c0-.52,0-1,.06-1.56,0-.27,0-.55,0-.82s0-.55,0-.82c0-.52.05-1,.07-1.56s.06-1.11.1-1.67.05-1,.09-1.55.05-.93.08-1.39,0-1,.06-1.5,0-.87,0-1.31,0-1-.07-1.48a.25.25,0,0,0-.25-.25.25.25,0,0,0-.25.25Z"/><path class="cls-6" d="M142.35,261.45a.23.23,0,0,0-.18,0,.22.22,0,0,0-.12.15v.07h0l0,.21a.24.24,0,0,0-.13.22l-.06,1.12c0,.23,0,.46,0,.69-.05.57-.09,1.13-.15,1.69s-.13,1.17-.19,1.75l-.09.89c0,.17,0,.33,0,.5a.61.61,0,0,0,0,.14l0,.29a1,1,0,0,0,0,.29.28.28,0,0,0,.19.25h0c0,.44-.05.89-.08,1.34a.27.27,0,0,0,.27.26.27.27,0,0,0,.26-.26c.05-.77.09-1.55.15-2.32l.06-.9a.28.28,0,0,0,0-.13c0-.15,0-.3,0-.45l.12-.93c.06-.43.11-.86.16-1.3s.09-.76.13-1.14l.09-.72c0-.2,0-.4.05-.6s0-.26,0-.39a5.23,5.23,0,0,0,0-.56.27.27,0,0,0-.19-.25h-.06a.34.34,0,0,0-.17.05Z"/><path class="cls-6" d="M141.35,261.52a4.17,4.17,0,0,0-.08.49l-.09,0a.27.27,0,0,0-.25.19,1,1,0,0,0-.05.24l0,.39,0,.43c0,.27,0,.55,0,.82l0,.76v.91c0,.49,0,1,0,1.45,0,.21,0,.43,0,.65V268c0,.2,0,.39-.05.59s0,.67-.07,1,0,.44,0,.66c0,.63-.05,1.25-.07,1.88,0,.17,0,.33,0,.5h0c0,.17,0,.34,0,.5,0,.54,0,1.07,0,1.6v1.43l0,1.06c0,.16,0,.33,0,.5s0,.16,0,.24a.83.83,0,0,0,0,.31.24.24,0,0,0,.06.11l0,0a.23.23,0,0,0,.19.09.24.24,0,0,0,.24-.18,6.66,6.66,0,0,0,.12-.76c0-.13,0-.27,0-.4s0-.31,0-.46l0-.36a2.72,2.72,0,0,0,0-.28c0-.14,0-.29,0-.43a.24.24,0,0,0,.07-.16c0-.28,0-.56,0-.83l0-.17.09-1.58c0-.56,0-1.13.07-1.69,0-.3,0-.6,0-.9s0-.54,0-.8l0-1.72v-.66c0-.33,0-.65.05-1l.09-1.59a2.09,2.09,0,0,0,0-.25c0-.14,0-.28.05-.41s0-.43.07-.64,0-.22,0-.33,0-.14,0-.21,0-.13,0-.19,0-.27,0-.4a.25.25,0,0,0-.08-.17.2.2,0,0,0-.16-.07,1.06,1.06,0,0,1,0-.19.25.25,0,0,0-.18-.31h-.06a.24.24,0,0,0-.24.18Zm.58,1.09v0Z"/><path class="cls-6" d="M142,263.7c-.08.4-.15.81-.22,1.21a.28.28,0,0,0-.18,0l-.09.08a.19.19,0,0,0-.07.11.79.79,0,0,0-.08.29l0,.2v0a9,9,0,0,0-.09,1c0,.25,0,.5,0,.76l0,1c0,.47,0,.94,0,1.42l-.05.55a.27.27,0,0,0-.1.15,6.68,6.68,0,0,0-.15,1.19l-.06.75c0,.62-.09,1.24-.14,1.87,0,.23,0,.47-.05.71s0,.56-.06.84,0,.54,0,.81l0,.53c0,.19,0,.37,0,.56a.25.25,0,0,0,.13.22.26.26,0,0,0,.37.15.52.52,0,0,0,.11-.1.84.84,0,0,0,.08-.34c0-.09,0-.17,0-.26v-.24c0-.3,0-.61,0-.91v-.2l.07,0a.27.27,0,0,0,.11-.15.15.15,0,0,0,0-.09,1.84,1.84,0,0,0,0-.33c0-.1,0-.21,0-.31l0-.5.06-1.29c0-.33,0-.66,0-1l.15-1.13h0l.15-1c0-.15.06-.3.08-.45s.08-.41.13-.61a.26.26,0,0,0-.18-.31.2.2,0,0,0-.17,0c0-.15,0-.3,0-.44l.09-.66.15-1.13v0l.09-.58.09-.64c.1-.57.21-1.14.31-1.7a.25.25,0,0,0-.17-.31h-.07a.24.24,0,0,0-.24.19Zm0,3.1v0Zm-.65-1.2v0Z"/><path class="cls-3" d="M51.48,272.28A8.35,8.35,0,0,0,51,274c-.12.52-.25,1-.34,1.56l-.3,1.82c-.08.48-.11,1-.15,1.45s-.11,1-.14,1.47c0,.66-.08,1.32-.11,2,0,.44-.07.87-.07,1.31,0,.64,0,1.28,0,1.92,0,2.15,0,4.29.12,6.44,0,.59,0,1.19.08,1.79s.09,1.11.14,1.66c.09,1.15.2,2.29.32,3.44.06.56.12,1.12.22,1.67a1.05,1.05,0,1,0,2.06-.42c-.1-.68-.2-1.36-.31-2-.06-.46-.1-.92-.15-1.38-.13-1.24-.26-2.49-.41-3.73,0-.57-.07-1.13-.11-1.7s0-1-.07-1.47l-.12-3.4c0-1-.05-2.09-.07-3.14,0-.51,0-1,0-1.52,0-.67,0-1.34.05-2s.06-1.47.11-2.2c.06-1,.13-1.94.25-2.91,0,0,0,0,0,0a44.91,44.91,0,0,0-1.16,6.31l0-.57c0-.49,0-1,0-1.47s0-1,0-1.47.11-1.21.16-1.83c0-.28.08-.57.12-.85s.07-.51.11-.77c.07-.43.14-.85.22-1.28h0a3.34,3.34,0,0,1,.1-.4s0,0,0,0Z"/><path class="cls-6" d="M50.61,276.14a9.81,9.81,0,0,0-.33,1.5c-.08.51-.14,1-.2,1.53-.12,1-.27,2-.35,3,0,.51,0,1,0,1.53s-.08,1-.11,1.53c-.07,1-.17,2.08-.21,3.11a55.3,55.3,0,0,0,0,6,20.61,20.61,0,0,0,.42,2.91c.19.9.38,1.8.55,2.71.1.55.22,1.08.34,1.62s.24,1,.3,1.46h0a17.11,17.11,0,0,0,.23,1.89s0,0,0,0a12.72,12.72,0,0,1,0-1.38c0-.21,0-.41,0-.61s0-.41-.06-.62h0c-.05-.53-.13-1.06-.18-1.6a.15.15,0,0,1,0,.07c0-.51-.07-1-.11-1.53s0-.84-.07-1.26l-.09-1.44c0-.48-.07-1-.1-1.42-.05-1,0-2-.05-3,0-.49,0-1,0-1.48s0-1,0-1.54,0-.93,0-1.39,0-1.11,0-1.66c0-1,.09-2,.05-3s-.05-2,0-3,0-2,0-3.05a8.08,8.08,0,0,1,.11-.86h0Zm.56,26.24h0Zm-.16.69v0Z"/><path class="cls-6" d="M51.16,272.36a32,32,0,0,0-1,3.47c-.14.54-.25,1.08-.38,1.62s-.25,1-.35,1.55c0,.18-.07.36-.11.54a2.29,2.29,0,0,1,0,.25l-.06.79c0,.27-.06.54-.08.81s0,.58-.07.87,0,.48-.07.72-.05.48-.07.72c-.05.55-.09,1.1-.12,1.66v.39c0,.21,0,.43,0,.64,0,.51,0,1,0,1.52,0,.23,0,.47,0,.7,0,.4.06.8.12,1.2s.15.86.21,1.3.13,1,.22,1.5.2.86.27,1.29.15.8.24,1.19.22.69.33,1c0,0,0,0,0,0-.07-.35-.15-.71-.19-1.07h0c0-.4,0-.8,0-1.2s0-.87,0-1.31,0-1,.07-1.54,0-.89.07-1.33c.18-2,.53-4.08.56-6.14,0-1.66,0-3.32,0-5,0-.22,0-.43,0-.64s0-.5,0-.74c0-.47,0-.92.05-1.38.07-1,.17-2,.31-2.94h0c0-.16.06-.33.08-.49s0,0,0,0Z"/><polygon class="cls-6" points="50.11 295.07 50.11 295.06 50.11 295.07 50.11 295.07 50.11 295.07"/><path class="cls-6" d="M49.64,278.44a.14.14,0,0,0,0,.06.74.74,0,0,1,0,.14c0,.19,0,.39-.08.58s-.08.43-.11.65-.07.45-.1.68L49.11,282c0,.24-.07.47-.1.71s-.06.46-.08.69,0,.28,0,.41,0,.51,0,.77l-.06.65c0,.24,0,.48,0,.73s0,.5,0,.76,0,.51.05.77c0,.45,0,.9.08,1.35s.06.73.1,1.11c0,0,0-.07,0-.1,0,.23,0,.46.07.69s.09.66.13,1v0c0,.24,0,.49.08.73s.07.45.11.68c.06.43.11.85.16,1.28v-.06a1.94,1.94,0,0,0,0,.24v0a8.52,8.52,0,0,0,.2,1.23.29.29,0,0,0,.34.21.3.3,0,0,0,.18-.13.31.31,0,0,0,0-.21c0-.12,0-.23,0-.34v0c0-.18,0-.35-.05-.53s0-.42,0-.62L50,293a.28.28,0,0,1,0,.09l-.12-1v.09c0-.24,0-.49-.07-.73s0-.41-.07-.61c0-.36-.06-.72-.11-1.08l0,.1c0-.28-.05-.56-.07-.84l-.09-1.23c0-.44-.09-.87-.08-1.31s0-.93,0-1.39c0-.11,0-.22,0-.34,0,0,0,.07,0,.1l.09.55a3,3,0,0,0,.09.43.25.25,0,0,0,.23.19.26.26,0,0,0,.25-.18.8.8,0,0,0,0-.34,1.42,1.42,0,0,0,0-.2v0h0v-.06h0a7.34,7.34,0,0,1-.05-.81c0-.16,0-.32,0-.48v-.53c0-.38,0-.76,0-1.14,0-.16,0-.32,0-.48s0-.35,0-.53,0-.2,0-.3h0v0a.25.25,0,0,0,0-.19.23.23,0,0,0-.15-.12h0l0-.25c0-.25.07-.5.11-.75s.07-.6.11-.9c0,0,0-.07,0-.1a.25.25,0,0,0-.18-.24h-.07a.25.25,0,0,0-.24.18Zm.57,16.67v0Zm-.15-10v0a.06.06,0,0,0,0,0Zm0-4.22a.43.43,0,0,0,0-.05v.05Z"/><path class="cls-6" d="M52.54,274.2l-.07.06a.31.31,0,0,0-.07.09.24.24,0,0,0-.06.11c-.1.16-.2.32-.29.48a.28.28,0,0,0-.31.13,3.61,3.61,0,0,0-.16.42.19.19,0,0,0-.08-.07l-.11,0,0,0a.25.25,0,0,0-.29.11,3.93,3.93,0,0,0-.19.58l-.18.69h0l0,0-.06.19c-.09.39-.21.78-.28,1.19,0,.24-.1.49-.14.74a6.17,6.17,0,0,0-.09.62,5.42,5.42,0,0,0-.06.58c0,.09,0,.18,0,.27s0,.21,0,.31,0,.47-.08.71,0,.37,0,.55l0,.31a.33.33,0,0,0,.1.23,2.11,2.11,0,0,0,0,.25c0,.46-.08.91-.11,1.37,0,.1,0,.2,0,.3v.11l0,.42v.26a4.86,4.86,0,0,0,0,.54h0v.18l0,.37a.69.69,0,0,0,0,.32c0,.3,0,.61,0,.91s0,.4,0,.59,0,.33,0,.5l0,.32a8.63,8.63,0,0,0,0,.88,7.3,7.3,0,0,0,.07.94,9.06,9.06,0,0,0,.19,1,.32.32,0,0,0,.39.23.3.3,0,0,0,.19-.14.36.36,0,0,0,0-.25c0-.31-.08-.62-.11-.93v.09c0-.25,0-.51,0-.76s0-.5,0-.75.05-.47.06-.71l0-.44c0-.17,0-.35,0-.52s0-.64,0-1c0-.16,0-.32,0-.48s0-.44.05-.66,0-.44.07-.66,0-.5,0-.76,0-.49,0-.73,0-.52.06-.78c0-.5.12-1,.2-1.5s.18-1.15.29-1.73c.06-.29.14-.58.22-.86s.14-.52.23-.77.2-.6.31-.9.2-.57.3-.86.19-.55.28-.83.1-.28.14-.43a1.24,1.24,0,0,0,0-.27.31.31,0,0,0-.09-.2.23.23,0,0,0-.18-.08.21.21,0,0,0-.12,0Zm0,1Z"/><path class="cls-6" d="M52.52,273.75c-.28.53-.57,1.06-.8,1.62s-.41,1.05-.6,1.58-.37,1.15-.54,1.73-.26,1.09-.36,1.65c-.22,1.07-.29,2.18-.45,3.27s-.4,2.23-.5,3.36-.17,2.49-.23,3.74-.13,2.2-.11,3.3.07,2.32.14,3.48.18,2.23.26,3.34.17,2.3.33,3.44.39,2.26.66,3.37.5,2.15.76,3.22.52,2.14.79,3.21.61,2.39,1,3.58c0-.14,0-.28,0-.42,0-.33-.05-.66-.09-1,0-.47-.07-.94-.11-1.41s-.08-1-.11-1.45c0-.68-.09-1.35-.14-2,0-.4,0-.8,0-1.2,0-.25,0-.5,0-.75v-.15l-.12-1.12c-.11-1.08-.22-2.16-.29-3.25s-.12-2.25-.14-3.38,0-2.23-.11-3.34-.18-2.31-.27-3.47c-.1-1.38-.14-2.76-.16-4.14,0-.73,0-1.47,0-2.2s0-1.36,0-2.05c.08-1.08.16-2.17.17-3.25,0-.54,0-1.07,0-1.61s0-1.07,0-1.61a23.63,23.63,0,0,1,.4-3c.1-.49.21-1,.32-1.47s.3-1.07.45-1.59v0Z"/><path class="cls-6" d="M142.5,257.15c-.11.8-.21,1.61-.35,2.41s-.26,1.63-.37,2.44c-.24,1.61-.51,3.21-.77,4.81-.13.8-.28,1.61-.41,2.41s-.23,1.61-.36,2.42-.29,1.68-.46,2.52-.37,1.49-.54,2.23c-.36,1.63-.71,3.27-1,4.92s-.47,3.17-.7,4.76c-.12.8-.29,1.59-.42,2.39s-.29,1.75-.46,2.62c-.29,1.59-.71,3.16-1,4.75-.63,3.39-1.34,6.76-2.09,10.13-.72,3.21-1.19,6.46-1.68,9.71-.38,2.45-.74,4.9-1.26,7.32-.26,1.21-.5,2.43-.73,3.65s-.41,2.54-.67,3.79c0,0,0,0,0,0,.29-.9.54-1.81.83-2.71s.51-1.53.78-2.29c.59-1.65,1.26-3.29,1.83-4.95,1.1-3.23,2.16-6.47,3.22-9.7q.78-2.37,1.55-4.72c.53-1.63,1-3.29,1.37-5,.34-1.44.65-2.88,1-4.32l0-.2c.05-.32.09-.64.16-1s.13-.68.21-1a.44.44,0,0,0,0-.1c.07-.44.13-.87.2-1.3,0-.22.07-.43.11-.65s.11-.63.17-.94c0-.12.05-.24.08-.36s0-.2,0-.3.05-.43.08-.64c0-.37.09-.73.14-1.09s.08-.67.13-1l.15-1.29c0-.37.09-.73.14-1.09s.09-.72.15-1.08c0-.19,0-.37.09-.56s.07-.42.11-.62.05-.27.08-.4c0-.32.09-.64.14-1l.36-2.11c0-.28,0-.57.05-.85s0-.36.05-.55.07-.6.1-.91,0-.34.08-.51.09-.59.13-.88.08-.46.12-.68.05-.3.08-.45c-.05-1.26-.12-2.51-.2-3.77-.11-1.62-.36-3.24-.4-4.87s0-3.48,0-5.22c0-.7,0-1.39.07-2.09s0-1.45.07-2.18h0Z"/><path class="cls-6" d="M131.9,267.08a56.13,56.13,0,0,1-7.08.77c-2.31.15-4.61.28-6.92.29-1.88-.06-3.76-.19-5.64-.21-1,0-1.89,0-2.85.06s-1.88,0-2.82,0c-1.84,0-3.67,0-5.51.05s-3.8.19-5.7.29c-1.33.07-2.66.08-4,.11s-2.55.09-3.82.1c-2.08-.08-4.15-.32-6.22-.57-1-.11-1.95-.3-2.93-.39-1.24-.11-2.48-.18-3.73-.23,0,0,0,0,0,0,.81.18,1.61.38,2.41.59h0c1.82.57,3.58,1.32,5.38,1.95.94.34,1.87.67,2.83,1s2.12.6,3.21.82,2,.31,3,.44,2,.26,3,.34c2.07.18,4.18.07,6.26.07,1.84,0,3.69-.11,5.52-.25a49.73,49.73,0,0,0,5.54-.84c.89-.17,1.77-.37,2.66-.51s1.88-.24,2.81-.4c2-.34,3.9-.75,5.84-1.17a55.93,55.93,0,0,0,8.84-2.27s0,0,0,0ZM77.1,268h0Zm41,.18h0Z"/><path class="cls-6" d="M134.38,265.13l-1.5.53a11.16,11.16,0,0,1-1.13.32h0l-2.32.56h0c-.82.19-1.65.4-2.48.57s-1.84.33-2.78.43c-1.75.21-3.52.21-5.27.45s-3.52.43-5.27.68-3.54.62-5.31.95c-1.07.2-2.13.41-3.2.63a23,23,0,0,1-2.73.49c-2.22.21-4.43.4-6.65.47,0,0,0,0,0,0,1.87.41,3.74.83,5.63,1.12a22.73,22.73,0,0,0,2.85.28c.91,0,1.83,0,2.74,0a45.26,45.26,0,0,0,5.57-.43,46.86,46.86,0,0,0,5.65-1.06c.58-.16,1.16-.36,1.74-.55a15.59,15.59,0,0,1,1.62-.45,47.89,47.89,0,0,0,6.33-1.87c1.06-.42,2.11-.86,3.16-1.31.61-.26,1.19-.54,1.78-.84a17.47,17.47,0,0,0,1.6-1s0,0,0,0Zm-2.65.86h0Z"/><path class="cls-6" d="M53.11,265.57c1.19.42,2.38.83,3.55,1.3s2.17.91,3.28,1.31,2.17.76,3.25,1.13,2.23.67,3.33,1,2.17.75,3.26,1.12a33.54,33.54,0,0,0,3.42.86l2.19.46.4,0,.34.06.51.09.93.19,1.17.25.26.06c.53.1,1,.18,1.58.26a45.76,45.76,0,0,0,4.81.46,35.56,35.56,0,0,0,5.16-.07c1.66-.15,3.32-.34,5-.49,1.37-.12,2.75-.18,4.12-.25,2.46-.08,4.94,0,7.4-.12a55.19,55.19,0,0,0,7.46-1,65.52,65.52,0,0,0,6.72-1.85c2.33-.72,4.68-1.41,7-2.14a13.2,13.2,0,0,0,4.66-2.18s0,0,0,0c-.3.16-.59.29-.9.42a20.75,20.75,0,0,1-4.13.85c-1.35.16-2.7.3-4.05.43-2.49.23-5,.46-7.49.66l-3.2.14c-1.19,0-2.39,0-3.58.07s-2.34.09-3.52.07-2.43,0-3.64,0c-2.43,0-4.85.06-7.27,0-1.28,0-2.56,0-3.84.09a25.42,25.42,0,0,1-3.38,0c-1.17-.12-2.36-.18-3.53-.29S82,268.14,80.8,268s-2.45-.23-3.67-.37-2.33-.28-3.51-.36-2.24-.21-3.37-.39a35.37,35.37,0,0,0-3.57-.36c-2.35-.13-4.71-.24-7.06-.38-1-.06-2.08-.23-3.11-.34s-2.27-.15-3.39-.24c0,0,0,0,0,0Z"/><path class="cls-6" d="M136.05,264.7c-.92.4-1.85.79-2.79,1.16l-1.29.44h0c-1,.28-2.05.58-3.11.76l-3.27.56c-1.1.19-2.21.41-3.31.62s-2.33.4-3.5.56c-2.12.3-4.25.56-6.37.87l-3.38.49c-1.1.16-2.2.36-3.3.51q-3,.38-5.94.7c-1.05.1-2.1.18-3.14.32s-1.91.27-2.86.39c-4,.52-8.05,1.09-12.1,1.35H78.87l.18.05.72.17h0l.53.11.41.08,1,.22.75.17.63.15,1.55.11,2.54.17,1,.08,1.68.15,2.51.19c.41,0,.8.07,1.21.09l2.18.13c.42,0,.84,0,1.27.06l1.12,0,1,0,2.16-.07.69-.07,1.69-.18,3-.3,1.34-.2,3.54-.53,2.57-.39c.92-.27,1.85-.53,2.77-.81s2.08-.68,3.12-1,2.29-.77,3.43-1.19,2.08-.76,3.12-1.12,2-.67,3-1.06a27.38,27.38,0,0,0,3.24-1.53,29.46,29.46,0,0,0,3.23-2.18s0,0,0,0Zm-4.17,1.63h0Z"/><path class="cls-6" d="M143.46,264.93a.46.46,0,0,0-.3.32,1.88,1.88,0,0,0,0,.33.28.28,0,0,0-.24.2,1.85,1.85,0,0,0,0,.23v.23c0,.11,0,.23,0,.35s0,.16,0,.24l-.07,0a.47.47,0,0,0-.2.28,2.16,2.16,0,0,0,0,.57v2c0,.35-.1.69-.16,1s-.12.74-.19,1.11c.12-1.15.2-2.3.32-3.44a.25.25,0,0,0-.19-.3.24.24,0,0,0-.29.19c-.15,1.39-.25,2.78-.41,4.17l-.27,2.22c-.09.69-.16,1.38-.22,2.07a.24.24,0,0,0,.13.21l.11,0c-.05.45-.11.9-.17,1.34s-.15,1.07-.25,1.6c-.19,1.08-.35,2.16-.54,3.24,0,.29-.09.57-.15.85l-.12.8c-.07.52-.14,1-.19,1.55a.44.44,0,0,0,.05.32.43.43,0,0,0,.26.18h.05c-.06.27-.12.55-.17.83s-.09.57-.15.86-.08.59-.12.88c-.16,1-.34,2.06-.57,3.08s-.48,2.12-.71,3.2-.44,2.12-.65,3.19a.46.46,0,0,0,.33.54.47.47,0,0,0,.54-.34c.26-1.12.51-2.24.76-3.36s.48-2,.69-3c.06-.31.13-.62.19-.92s.1-.51.15-.76c.08-.49.16-1,.23-1.47,0-.26.07-.53.11-.79s.11-.61.16-.91.11-.57.17-.86l.15-.82c.2-1.07.32-2.15.47-3.23.08-.52.17-1.05.25-1.57s.16-1,.27-1.46c.22-1.12.41-2.24.6-3.37s.29-2.06.43-3.08c.09-.66.16-1.31.24-2s.14-1.41.19-2.12l.15-2,.07-.94c0-.27,0-.53,0-.8a.74.74,0,0,0,0-.21.65.65,0,0,0,0-.2.42.42,0,0,0-.25-.27.63.63,0,0,0-.22,0,.25.25,0,0,0-.12,0Z"/><path class="cls-6" d="M143.61,258.5c-.13,0-.27.13-.24.27l.15,1.07V260l0,.35c0,.19,0,.39,0,.58v.38l0,.09c0,.19,0,.39,0,.58s0,.51-.05.76v.1c0,.28-.07.55-.1.83-.05.5-.1,1-.13,1.52l0,.49c0,.38,0,.76-.07,1.14,0,.17,0,.33,0,.5v.28a1.16,1.16,0,0,0,0,.49h0c0,.28-.07.56-.1.84s-.08.71-.12,1.07c-.15,1.39-.23,2.79-.3,4.19a.33.33,0,0,0,.12.24.35.35,0,0,0,.49,0,.48.48,0,0,0,.09-.25c0-.65.07-1.29.11-1.94s.08-1,.12-1.51.1-1.1.17-1.66l.09-.83a.33.33,0,0,0,.2-.3c0-.31,0-.62,0-.93,0-.12,0-.24,0-.36s0-.28,0-.42l.06-.78c0-.12,0-.23,0-.34,0-.42.1-.83.14-1.24s.09-.79.12-1.18,0-.64,0-1c0-.16,0-.32,0-.48a2.29,2.29,0,0,0-.08-.28v-.14a3,3,0,0,0,0-.42.29.29,0,0,0-.21-.26H144a2.45,2.45,0,0,1,0-.27c0-.14,0-.27-.05-.41s-.07-.47-.11-.71a.22.22,0,0,0-.07-.17.28.28,0,0,0-.17-.07Z"/><path class="cls-6" d="M115.47,370.06a2.33,2.33,0,0,0-.2.34c-.08.13-.16.25-.25.37s-.35.46-.53.68a5.82,5.82,0,0,0-.48.63,5.42,5.42,0,0,0-.37.56c-.16.27-.29.56-.44.85l0-.08c-.36.66-.75,1.32-1.1,2a.36.36,0,0,1,0-.09c-.19.36-.39.73-.61,1.09-.3.51-.52,1.06-.77,1.6s-.47.9-.68,1.36-.44.9-.61,1.37c-.36,1-.78,2-1.14,3s-.79,1.94-1.19,2.91c-.21.48-.39,1-.61,1.45s-.42.94-.6,1.41-.38,1-.61,1.46h0l0,.09s0,0,0,0a11,11,0,0,0,.87-1.58l0,0c.24-.45.48-.9.74-1.34s.53-.95.81-1.41.56-.89.83-1.34.52-.91.76-1.39l0,.12c.29-.54.6-1.08.92-1.6.14-.23.3-.45.42-.68s.3-.59.45-.89a9.67,9.67,0,0,0,.48-.9c.13-.29.25-.58.39-.87v0A1.34,1.34,0,0,0,112,379l-.06.12c.06-.1.12-.2.17-.3l.06-.13a1,1,0,0,0,.07-.15c.08-.21.15-.42.22-.63s.24-.6.37-.9.18-.55.27-.83.11-.43.15-.65c0,0,0,.05,0,.07s0,0,0-.07v0c0-.11,0-.22.08-.34a0,0,0,0,0,0,0v-.05h0v0h0v0a5.78,5.78,0,0,1,.42-1.21c.21-.41.36-.84.56-1.26a.25.25,0,0,1,0,.07c.23-.42.41-.87.62-1.3l.33-.72c.1-.21.14-.44.25-.65h0Zm-2.2,5.44v0Z"/><path class="cls-6" d="M113.34,375.16v0Z"/><polygon class="cls-6" points="113.25 375.56 113.25 375.56 113.25 375.56 113.25 375.56 113.25 375.56"/><polygon class="cls-6" points="111.94 379.15 111.94 379.16 111.94 379.15 111.94 379.15 111.94 379.15 111.94 379.15"/><path class="cls-6" d="M115.18,370.59c-.26.44-.47.91-.7,1.36s-.46.91-.69,1.37h0l0,0h0c-.28.53-.56,1.07-.83,1.62l0-.09c-.17.3-.35.62-.51.93l0,.06,0,0,0,0-.54,1c-.16.33-.31.67-.48,1v0c-.23.44-.44.89-.66,1.34l.09-.18-.57,1.09h0v0l0,.05v0h0a2.12,2.12,0,0,0-.11.21c-.3.55-.58,1.11-.86,1.67a3.51,3.51,0,0,1-.27.4,4.53,4.53,0,0,0-.64,1.21c-.2.52-.39,1-.61,1.56a9.33,9.33,0,0,1-.81,1.32l-.22.24a5.59,5.59,0,0,0-.41.66,7.38,7.38,0,0,0-.36.81c-.12.28-.26.55-.38.84-.26.56-.44,1.15-.69,1.71s-.46,1.07-.71,1.59c0,0,0,0,0,0l0,0h0c.38-.42.73-.86,1.09-1.3s.79-1.06,1.19-1.58.62-.81.94-1.2c.12-.23.27-.45.41-.67l0,.06c.06-.1.12-.2.19-.3.27-.46.48-1,.72-1.44.11-.24.22-.47.32-.71s.21-.49.32-.73a4.67,4.67,0,0,1,.23-.51,1.46,1.46,0,0,1,.22-.33l0-.05.26-.57c.1-.21.2-.43.31-.64l.38-.67c.12-.2.23-.41.34-.62l0-.05v0l.21-.46c.06-.18.11-.35.17-.52l.21-.52.27-.61.25-.5.08-.16.22-.52s0,0,0-.06l.06-.17c.07-.19.16-.37.24-.56s.13-.39.2-.58a5.83,5.83,0,0,1,.23-.58c.08-.17.16-.33.23-.51l.06-.16c.12-.42.25-.84.4-1.25.22-.6.41-1.22.64-1.83s.32-1,.51-1.47c0,0,0,0,0,0Zm-5.1,9.94s0,.05,0,.08a.3.3,0,0,1,0-.08Z"/><polygon class="cls-6" points="114.48 371.95 114.48 371.95 114.48 371.95 114.48 371.95 114.48 371.95"/><path class="cls-6" d="M113.78,373.35h0s0,0,0,0,0,0,0,0Z"/><polygon class="cls-6" points="112.44 375.87 112.44 375.86 112.44 375.87 112.44 375.87 112.44 375.87"/><path class="cls-6" d="M111.41,377.92v0Z"/><path class="cls-6" d="M110.24,380.23h0l0-.05,0,.06Z"/><path class="cls-6" d="M112.32,376.86c-.09.19-.18.37-.25.56a5,5,0,0,0-.18.66s0,0,0,0c.17-.4.29-.81.44-1.22v0Z"/><path class="cls-6" d="M111.88,376.4a.39.39,0,0,0-.21.19c-.27.51-.51,1-.76,1.55s-.49.91-.74,1.36-.5.91-.73,1.38-.44.92-.67,1.37-.43.89-.66,1.32-.51,1-.75,1.48-.42.93-.62,1.39-.4,1-.59,1.45l-.21.61a1.68,1.68,0,0,0-.07.24l0,.1h0a.31.31,0,0,0,.06.22.27.27,0,0,0,.19.11l.08.05a.29.29,0,0,0,.27,0,.57.57,0,0,0,.15-.22l.13-.31.3-.78a.26.26,0,0,0,.18-.16c0-.13.09-.27.13-.41l.08-.23h0a.31.31,0,0,0,.18-.14c.18-.37.37-.73.56-1.1s.44-.84.68-1.26a.25.25,0,0,0-.06-.28l0-.09c.16-.29.32-.56.49-.84s.17-.3.26-.45.21-.34.3-.52a.28.28,0,0,0-.08-.32.21.21,0,0,0-.1-.06l.14-.25c.24-.47.48-.94.73-1.4.12-.22.25-.42.38-.63s.28-.46.4-.69.23-.43.33-.65.25-.54.37-.81.21-.47.31-.71a.37.37,0,0,0-.19-.48.42.42,0,0,0-.15,0,.31.31,0,0,0-.13,0Zm-2,6,0,0,0,0Zm-2.52,4.9v0Zm-.12.37v0Z"/><path class="cls-6" d="M117.62,365.32a15.43,15.43,0,0,0-.87,1.53c-.1.18-.2.36-.29.55l0,0c-.15.27-.29.55-.43.83l-1,2c-.06.13-.13.26-.2.39l-.09.15c-.19.31-.39.63-.55,1-.06.12-.13.24-.18.37a.23.23,0,0,0-.06.24c0,.16.26.17.34.06h0a.24.24,0,0,0,.06-.17h0c.09-.22.2-.43.3-.65s.15-.26.23-.38c.22-.37.44-.73.65-1.1.1-.19.18-.39.27-.58s.19-.45.29-.66c.16-.38.34-.74.48-1.12v0c.08-.21.17-.43.26-.64s.22-.45.32-.68.31-.69.48-1c0,0,0,0,0,0a.2.2,0,0,0,0-.08h0Z"/></g><g id="Draw_Layer-5" data-name="Draw Layer"><path class="cls-7" d="M227.9,122.42l-.41.66-.34.5a36.34,36.34,0,0,0-2.09,3.41.66.66,0,0,0-.08.21,2.39,2.39,0,0,0-.77-.09l-.59,0c-1,0-2,.11-3,.17l-2.56.19-2.85.2c-2.1.13-4.21.28-6.31.43l-1,.07-.51,0-.29.05c0-.05-.06-.12-.15-.16-.55-.34-1.09-.71-1.63-1.08l-.15-.1-.47-.32a30.32,30.32,0,0,1-2.51-1.89c-1,.06-2.08.1-3.13.14a20.89,20.89,0,0,0,2.31,2.07c.73.58,1.54,1.13,2.31,1.63l.34.23.13.09.14.09c.43.3.86.59,1.3.85,0,0,0,.07-.05.18a1.89,1.89,0,0,0-.35.84l0,.19c-.14.82-.24,1.55-.35,2.29l-.14,1-.13.86-.07.49c-.1.66-.18,1.24-.26,1.82l-.15,1.13,0,.24c-.08.65-.17,1.29-.24,1.93-.06.44-.11.87-.15,1.3l0,.23,0,.23c-.08.64-.15,1.26-.25,1.9l-.09.56c-.22,1.34-.44,2.68-.67,4l-.32,1.75-.32,1.79a30.48,30.48,0,0,1-2,6.86c-.38.82-.81,1.64-1.22,2.44l-.16.3-.05.1a29.63,29.63,0,0,1-2.81,4.55,15.34,15.34,0,0,1-2.43,2.34l-.61.48-.62.48-.48.33-1.31.9c-.41.27-.83.52-1.25.76l-.49.28a36.94,36.94,0,0,1-4.79,2.4,32.8,32.8,0,0,1-7.79,1.77c-1,.1-2.14.15-3.43.15s-2.34,0-3.38-.14c-2.14-.14-4-.34-5.62-.6a28.9,28.9,0,0,1-6.41-1.86,65.45,65.45,0,0,1-5.94-3.33c-1.06-.64-2-1.2-2.85-1.76a19.59,19.59,0,0,1-1.85-1.41l-.14-.12c-1-.86-2-1.75-2.94-2.65s-1.74-1.73-2.53-2.59l-.23-.24c-.8-.85-1.59-1.74-2.36-2.61l-.19-.22-.25-.29c-.64-.73-1.2-1.5-1.7-2.17l-.07-.1-.29-.39-.86-1.28c-.94-1.43-1.86-2.83-2.83-4.16a26.41,26.41,0,0,0-4.31-4.79,17.1,17.1,0,0,0-2.69-1.86,13.14,13.14,0,0,0-3-1.14,17.49,17.49,0,0,0-4.42-.51c-1.37,0-2.82.12-4,.21l-.24,0h-.14l-1,.07c-1.69.14-3.49.23-5.35.29a2.06,2.06,0,0,0-.75.18l-.36-.3c-.22-.15-.44-.32-.66-.49a10.32,10.32,0,0,1-1.62-1.73,19.25,19.25,0,0,1-1.84-3.11c-1-.09-2-.19-3-.31.18.49.37.94.54,1.33a18.61,18.61,0,0,0,2.92,4.68,11,11,0,0,0,2.23,1.87l-.22,1.07-.19,1a22.25,22.25,0,0,1-.85,3.49,12.58,12.58,0,0,1-1.07,2,12.89,12.89,0,0,1-1.86,1.92,17,17,0,0,1-2.77,1.86,9.44,9.44,0,0,1-1.73.55,7.93,7.93,0,0,1-1,.06,3.46,3.46,0,0,1-.46,0,8.34,8.34,0,0,1-1.09-.24,8.55,8.55,0,0,1-1-.51,9.3,9.3,0,0,1-1-1,20.47,20.47,0,0,1-2-3.41,17.91,17.91,0,0,1-1.22-3.74,15.25,15.25,0,0,1-.15-3.41l.1-.86a3.53,3.53,0,0,0,0-.57,1.18,1.18,0,0,0,.22-.4c.35-1,.63-1.86.85-2.62a21,21,0,0,0,.61-3c0-.27.08-.55.11-.84-.89,0-1.78,0-2.67,0l-.06.39v.11a28.17,28.17,0,0,1-.8,3.14c-.2.59-.42,1.18-.64,1.77l0,.1a.45.45,0,0,0-.31-.16,44.59,44.59,0,0,0-5.49-.64,4.7,4.7,0,0,0-.53,0H77l-.92.05h-.2c-.54,0-1.09.06-1.62.11l-1.61.15-1.59.16A35.12,35.12,0,0,0,64.71,143a26.54,26.54,0,0,0-6.9,3.08,31.44,31.44,0,0,0-5.76,4.57,39.51,39.51,0,0,0-4.72,5.68,40.85,40.85,0,0,0-3.8,6.77c-.93,2.11-1.71,4.44-2.33,6.3l-.06.19-.37,1.11c-.18.52-.33,1.05-.47,1.57l-.06.21-.1.34c-.22.78-.44,1.53-.65,2.29l-.28,1c-.13.46-.24.9-.34,1.33l-.11.51,0,.2-.77,3.34c-.09.39-.17.77-.24,1.17l0,.12,0,.14,0,.14L37.3,185,37,186.78c-.25,1.48-.47,3.16-.58,4v.12l-.14,1.07c-.17,1.3-.3,2.69-.42,3.92l0,.29-.11,1.11c-.12,1.38-.21,2.8-.28,4.13v.25l0,1,0,.39,0,.32c0,.37,0,.74,0,1.11l.08-.25,0-.17-.07.53-.07.62,0,1.27,0,.92c0,.62-.05,1.22-.05,1.82l0,1.83v.7c0,.68,0,1.37,0,2l0,1.41v.14c.07,2.35.16,5.27.13,8.09l-.05,1.83c0,.89,0,1.79-.07,2.68l-.14,1.53c-.11,1.35-.22,2.69-.35,4l-.13,1.38a63,63,0,0,1-1.81,11.55A38.83,38.83,0,0,1,29,254.71a38.31,38.31,0,0,1-5.48,6.85,47.23,47.23,0,0,1-5.91,4.5c-.93.61-1.87,1.2-3.06,1.91-.42.21-.84.42-1.28.6a2,2,0,0,0,.75,3.85h.22a1.55,1.55,0,0,0,.38.26l-.12-.05c-.44,0-.89,0-1.34.07a20,20,0,0,0-3.17.64,13.56,13.56,0,0,0-3.23,1.37l-.3.17,1.78.66,1.42.53a16.32,16.32,0,0,1,3.33-.9,12.15,12.15,0,0,1,2-.16l.84,0a3.84,3.84,0,0,1,.76.16l.09.05a1.27,1.27,0,0,0,1,.63,1.13,1.13,0,0,0,.6-.18,1.23,1.23,0,0,0,.56-.89c.27.16.56.3.85.45,1.73.88,3.55,1.69,5.15,2.42l1.05.47c1.75.79,3.53,1.64,5.24,2.47l.27.13,2.45,1.18-.16.13-.61.57-.14.14a6.11,6.11,0,0,1-.47.43c-.71.57-1.43,1.11-2.16,1.65l-.5.36c1.12.62,2.23,1.29,3.28,2l.08-.06.44-.31c.56-.38,1-.75,1.48-1.11l.17-.14a9.38,9.38,0,0,0,1.36-1.31,2.36,2.36,0,0,0,.47-.92l.13.07a34.4,34.4,0,0,0,5.22,1.85,1.06,1.06,0,0,0,.31,0,1.82,1.82,0,0,0,.56-.09l.63-.56c.17-.16.34-.3.51-.44,0,0,0,0,0,0a1.85,1.85,0,0,0,.14-1.07c0,.05.09.07.23.07h.19a2.1,2.1,0,0,0,1.26-.67s0,0,0-.06a.69.69,0,0,1,.16-.18l.12-.14.23-.21h0c.85-.94,1.71-1.94,2.57-3l.23-.33.43-.55.34-.42.12-.14L51,277c.18-.23.37-.45.56-.68l.11-.14a.2.2,0,0,1,0-.08,1,1,0,0,0,.08-.11,3.36,3.36,0,0,1,.24-.29l.06-.07.19-.25c0-.06.09-.13.14-.18a.25.25,0,0,1,.1-.08,53.59,53.59,0,0,0,3.25-4.72c.86-1.39,1.6-2.71,2.28-4.06a27,27,0,0,0,2.87,1c1,.31,2.17.62,3.73.95,1.36.26,2.93.48,4.78.68l1.63.16,1.47.15,1.35.09.22,0,.71,0c3.56.22,6.88.4,10.17.55h.31c1.21.06,2.38.11,3.56.13l2.41,0,2.41,0,0,0,0-.05h.05l.32,0c.73.07,1.48.07,2.21.08h.39l2.82,0-.09-.07h0l.91,0,1.44.08,2.68.05,4.2,0h2.8c.9,0,1.81,0,2.71,0l.94,0c.61,0,1.21,0,1.81,0l1.5-.09,1.44-.08q.81-.06,1.62-.15l.68-.07c.72-.07,1.48-.16,2.24-.28l.6-.1.11,0c.48-.08,1.05-.17,1.59-.3l.28-.06.42-.09.1,0,.13,0c.6-.13,1.24-.28,1.83-.47l.29-.08A44.56,44.56,0,0,0,134,267c1.95-.8,3.79-1.69,5.57-2.57l.08-.07.76-.63.83-.69.69-.57.13-.15.12-.16c.24-.29.47-.58.71-.86l.37-.44c.1-.1.19-.22.29-.33l.5-.58a1.29,1.29,0,0,0,0-.44c-.12-1.5-.25-3-.38-4.49l-.08-.91c-.1-1.11-.19-2.23-.28-3.34l-.1-1.37,0-.16v-.29c-.15-1.95-.33-4.38-.6-6.69l0-.16c-.34-2.86-.69-5.67-1.14-8.43l-.06-.31c-.5-3-.94-5.57-1.46-8.25l-.22-1.15-.06-.32c-.13-.68-.26-1.36-.4-2l-.48-2.25-.39-1.78c-.53-2.41-1.17-4.91-1.64-6.74l-.08-.3-.05-.17c-.13-.51-.27-1-.41-1.55l-.18-.65-.47-1.83c-.46-1.8-.92-3.58-1.39-5.37.25.21.54.41.82.61a41.76,41.76,0,0,0,5,3,44.51,44.51,0,0,0,7.88,3.09c1.34.43,2.75.76,4,1l.27.06c.75.19,1.39.32,2,.44l1.9.32,1.9.32.71.13c.56.1,1.11.2,1.67.27l3.49.42,3,.37c.67.08,1.37.12,2,.16l.93.06,3.4.23h5.48l1.79-.11,1.64-.1.5,0c.71,0,1.25-.07,1.8-.14l3.67-.51a61.7,61.7,0,0,0,7.34-1.54,51.39,51.39,0,0,0,8.12-3.07,39,39,0,0,0,7.56-4.28,20.47,20.47,0,0,0,3-2.91c1-1.16,1.95-2.38,2.84-3.63a32,32,0,0,0,3.46-6l.36-.82c.32-.74.65-1.48.93-2.23l.64-1.7.13-.34,0-.11c.08-.21.16-.42.23-.64l.14-.46.15-.47c.22-.68.43-1.35.61-2l.43-1.64.44-1.64c.42-1.6.78-3.17,1.2-5.08l.07-.34.06-.27c.69-3.21,1.54-7.19,2.09-11l0-.32.48-3.33c.1-.73.16-1.47.23-2.21l0-.32,0-.29v-.15l0-.22c.09-.91.14-1.68.17-2.5,0-.31,0-.62,0-.93V150c0-.59.06-1.25.05-1.9-.1-4.19-.25-8.32-.45-12.26-.05-.74-.09-1.48-.15-2.21l0-.72q0-.48-.09-1l0-.39c0-.32-.07-.63-.12-1s-.11-.67-.18-1a3.51,3.51,0,0,0-.27-.69h0s.11-.09.14-.13l.91-1.34.44-.68.08-.11c.7-1,1.43-2.12,2.07-3.23.25-.43.48-.89.7-1.34l-4.12.36Z"/><path class="cls-7" d="M50,280.32h0l0,0,0,0Z"/><path class="cls-7" d="M46.52,281l-.45.56c-.12.08-.25.16-.36.25a2,2,0,0,0-.27.24,5.66,5.66,0,0,0-.43.42c-.26.26-.49.54-.72.82s-.36.47-.55.7a1.34,1.34,0,0,0-.11.14.84.84,0,0,0-.1.29l-.05,0a.4.4,0,0,0-.2.33.43.43,0,0,0,.08.29l.11.09.53-.47c.21-.19.43-.37.65-.55l.34-.27.41-.41c.2-.19.39-.4.6-.58l.33-.3a.18.18,0,0,1,0-.09,1,1,0,0,1,.16-.19l.13-.13.22-.21,0,0,.13-.14.21-.27a.46.46,0,0,0-.1-.63.43.43,0,0,0-.26-.09.47.47,0,0,0-.37.19Zm-3,3.37s0,0,0,0a.06.06,0,0,0,0,0Zm0,0v0Zm.15.06h0Zm0,0h0Z"/><path class="cls-7" d="M15.71,268.09c-.42.15-.84.29-1.27.42l-1.46.43-1.5.51-.23.06a3.25,3.25,0,0,1-.62.13h-.05a.4.4,0,0,0-.21.09h0a.39.39,0,0,0-.4.06.36.36,0,0,0-.11.45.6.6,0,0,0,.48.31l.83.53,0,0a.86.86,0,0,0,.4.33l.48.28.8.42c.46.25.92.48,1.39.7s1.05.5,1.59.7l.81.29.43.14.13,0,.19,0h.14a.36.36,0,0,0,.28-.24v0a.35.35,0,0,0-.13-.41l-.21-.13v0a.39.39,0,0,0-.19-.17c-.5-.24-1-.44-1.53-.65l-1.28-.52-.16-.06-.5-.24,0,0,0,0,0,0h0c-.26-.14-.52-.27-.77-.42L12,270.52h0l.23,0c.3-.07.6-.17.9-.26l.58-.17a1.41,1.41,0,0,0,.22-.06l0,0,.29-.09.36-.1a.74.74,0,0,0,.32-.16.51.51,0,0,0,.17-.29c.35-.12.69-.24,1-.39a.47.47,0,0,0,.23-.61.44.44,0,0,0-.26-.24l-.15,0a.71.71,0,0,0-.2,0Zm-3.19,1.13-.07,0h0l.08,0Zm2,.46h0Zm-.68,1.93Z"/><path class="cls-7" d="M119.92,266.52h-2.09l-.55,0h-.51l-.14.05a.36.36,0,0,0-.11.1.31.31,0,0,0-.07.18.25.25,0,0,0,.13.22,2,2,0,0,0,.29.17l0,0a2.07,2.07,0,0,0,.33.1,4.7,4.7,0,0,0,.51.12l.54.1h.11l-.31,0-.58,0-.89.07a.24.24,0,0,0-.18.07.26.26,0,0,0-.06.24c0,.08.06.16.13.19l.17.07.2,0,.29,0h.21l-.52.05a.28.28,0,0,0-.13,0,.29.29,0,0,0-.12.15.27.27,0,0,0,.12.29l.15.07a.24.24,0,0,0-.06.11.25.25,0,0,0,.18.31l.2,0a4.19,4.19,0,0,0,.5,0H119l.8,0,.29,0h.16a.78.78,0,0,0,.22,0,.19.19,0,0,0,.11-.07.25.25,0,0,0,.08-.18s0,0,0-.06a.27.27,0,0,0,.07-.18.26.26,0,0,0-.07-.17l-.09-.06h.34a.25.25,0,0,0,0-.5l-.73,0,.41,0a4.63,4.63,0,0,0,.52-.07.26.26,0,0,0,.18-.25.26.26,0,0,0-.07-.17.3.3,0,0,0-.18-.08l-.59,0h0l-.49-.06-.52-.08-.74-.13a.11.11,0,0,0,0-.07.13.13,0,0,0,0-.06h1.14c.59,0,1.17,0,1.75,0a.24.24,0,0,0,.24-.18.24.24,0,0,0,0-.19.22.22,0,0,0-.16-.12l-.41,0-.39,0h-1Z"/><path class="cls-7" d="M119.14,268.94l-.69.05c-.32,0-.62,0-.93,0a.38.38,0,0,0-.26.13h-.08a.28.28,0,0,0-.26.21.25.25,0,0,0,.19.32l.22.05.31,0h1.69c.23,0,.46,0,.69,0a.29.29,0,0,0,.22-.13.24.24,0,0,0,0-.3v0a.34.34,0,0,0-.25-.3,1.43,1.43,0,0,0-.28-.07l-.16,0h-.35Z"/></g><g id="Draw_Layer-6" data-name="Draw Layer"><path class="cls-8" d="M66.9,180.92c-2.1,2.87-3.05,6.36-3.88,9.76-.54,2.23-1,4.47-1.35,6.72a128.25,128.25,0,0,0-1.6,12.95c-.17,2.39-.32,4.77-.4,7.16-.08,2.09-.09,4.17-.17,6.26-.15,4.35-.48,8.69-.72,13-.16,3.11-.38,6.23-.43,9.35s0,6.19-.28,9.28c-.22,2-.48,4.08-.75,6.13-.14,1.07-.27,2.14-.45,3.2s-.46,2.39-.76,3.57c0,0,0,0,0,0,.47-1,.94-1.95,1.33-3s.71-1.87,1-2.82c.65-1.93,1.33-3.88,1.85-5.86a44.36,44.36,0,0,0,1.07-6.18q.39-3.24.64-6.48c.06-.6.11-1.19.17-1.78,0,.17,0,.34,0,.5A217.92,217.92,0,0,0,63.28,216c0-3.42-.1-6.85,0-10.27s.34-7.06.63-10.59c.18-1.69.37-3.38.59-5.06a35.05,35.05,0,0,1,1.65-7.45h0v0h0c.23-.56.48-1.09.75-1.63l0,0Zm-.73,1.64v0a0,0,0,0,0,0,0Z"/><path class="cls-8" d="M133.9,201.6c.23,1.73.52,3.46.8,5.2s.49,3.34.73,5,.48,3.3.8,4.93.6,3.33.86,5c.5,3.27.85,6.55,1.26,9.83.2,1.57.41,3.14.69,4.71s.55,3.23.86,4.84.61,3.23.9,4.85.58,3.25.94,4.87a89.89,89.89,0,0,0,2.57,9.39s0,0,0,0c-.56-3.3-.8-6.65-1.08-10-.14-1.61-.23-3.22-.36-4.83s-.32-3.27-.49-4.91-.36-3.2-.59-4.8-.46-3.45-.68-5.18c-.2-1.58-.41-3.16-.69-4.73s-.67-3.3-1.06-4.94c-.46-2-1-3.87-1.57-5.8l.06.25c-.6-2.35-1.15-4.72-1.79-7.06-.29-1-.59-2.09-.93-3.12-.39-1.18-.82-2.35-1.24-3.52h0v0Z"/><path class="cls-8" d="M228,157c-.11.72-.24,1.44-.37,2.16a21.74,21.74,0,0,1-1.15,3.81c-.26.6-.55,1.2-.81,1.8a10.53,10.53,0,0,0-.45,1.3c-.29,1-.55,2-.81,2.94s-.43,1.84-.67,2.75-.54,2-.87,2.95-.61,1.79-.92,2.68-.61,1.8-.89,2.71-.54,1.72-.88,2.55c-.57,1.39-1.2,2.74-1.8,4.11s-1.11,2.45-1.68,3.67a39,39,0,0,1-2.54,4.27c-.53.77-1.07,1.52-1.63,2.27s-1,1.29-1.57,1.92a34.22,34.22,0,0,1-2.7,2.82,38.65,38.65,0,0,1-3.65,3.11,33.06,33.06,0,0,1-3.11,1.8,24.2,24.2,0,0,1-2.32,1.05h0l-.65.21s0,0,0,0a17.87,17.87,0,0,0,2.86-.72c1.07-.34,2.14-.77,3.18-1.22a23,23,0,0,0,3.57-2.12c.78-.52,1.57-1,2.3-1.64a40.53,40.53,0,0,0,8.16-8.83c.5-.76.9-1.57,1.32-2.37s.92-1.83,1.37-2.75.84-1.73,1.29-2.58a24.47,24.47,0,0,0,1.33-2.84c.32-.85.57-1.72.88-2.57s.65-1.83.92-2.76.54-1.77.71-2.66a33.6,33.6,0,0,0,.53-3.46c.1-1,.28-1.94.38-2.92s.2-2.18.34-3.26c.13-.64.27-1.29.38-1.93a19.26,19.26,0,0,0,.18-2.84c0-.48,0-1-.07-1.47-.06-.65-.1-1.3-.15-2h0Zm-.38,2.18v0Zm-22.9,45.57,0,0,0,0Z"/><path class="cls-8" d="M205.1,131.12q-.07.85-.18,1.71h0c-.16,1.17-.37,2.31-.6,3.47-.1.52-.21,1-.28,1.56s-.18,1.26-.26,1.89c-.2,1.29-.43,2.56-.59,3.85s-.26,2.53-.41,3.79c-.17,1.07-.39,2.13-.59,3.19-.11.58-.18,1.16-.27,1.74a11.46,11.46,0,0,1-.37,1.51c-.17.58-.38,1.14-.56,1.72s-.32,1-.5,1.55-.37,1.11-.58,1.65a16.33,16.33,0,0,0-.53,1.72c-.06.24-.12.48-.19.72h0c.28-.55.52-1.13.84-1.66s.63-1,.93-1.53.59-1,.86-1.52l.77-1.51a11.8,11.8,0,0,0,.7-1.69,11.37,11.37,0,0,0,.37-1.53c.23-1.16.44-2.32.6-3.49a30.39,30.39,0,0,0,.21-3.44c0-1.16.06-2.32.16-3.48s.11-2.35.17-3.52c0-.54.09-1.07.15-1.6s.13-1.21.17-1.81a21.25,21.25,0,0,0,0-3.29s0,0,0,0v0Zm-.18,1.72v0Zm-1.12,6.79v0Z"/><path class="cls-8" d="M107.05,143.87l.23.6,0,0a5.64,5.64,0,0,1,.26,1.15,7.5,7.5,0,0,1,0,1.42,21.07,21.07,0,0,1-1.2,3.81c-.06.15-.13.29-.19.44a17.18,17.18,0,0,1-1.43,2.5c-.66.93-1.3,1.85-2,2.73a15.93,15.93,0,0,1-2.41,2.08c-.5.33-1,.64-1.54.92a16.14,16.14,0,0,1-1.54.65,11.62,11.62,0,0,1-1.94.45,8.63,8.63,0,0,1-1.76,0,4.94,4.94,0,0,1-1-.31l0,0c-.32-.16-.64-.31-1-.44,0,0,0,0,0,0l.1.08h0c.37.31.72.63,1.11.91a5.35,5.35,0,0,0,1.46.6,9.33,9.33,0,0,0,1.82.29,15.72,15.72,0,0,0,3.35-.26,10.4,10.4,0,0,0,2.82-.94,11.1,11.1,0,0,0,1.69-1,8.09,8.09,0,0,0,1.91-2.09,20.51,20.51,0,0,0,1.47-2.57,13,13,0,0,0,1-2.81,16.53,16.53,0,0,0,.44-3,11.4,11.4,0,0,0-.13-2.48,5.9,5.9,0,0,0-1.52-2.75h0s0,0,0,0Zm.47,1.67v0ZM91.63,159.92Z"/></g><g id="Draw_Layer-7" data-name="Draw Layer"><path class="cls-9" d="M77.29.16c-.45,1.06-.92,2.11-1.45,3.14-.28,1.14-.58,2.26-.86,3.4a23.49,23.49,0,0,1-1.28,3.61c-.47,1.09-.94,2.17-1.47,3.24-.07.17-.15.33-.23.5-.32.69-.6,1.39-.91,2.08a19.36,19.36,0,0,1-1.21,2.24c-.42.67-.82,1.35-1.24,2a23,23,0,0,1-1.39,2c-.46.6-1,1.15-1.42,1.74l-1.46,1.93c-.94,1.23-2,2.36-3,3.51-.74.88-1.43,1.78-2.23,2.61s-1.52,1.42-2.24,2.17l-.21.24c-.58.68-1.13,1.36-1.75,2A13.81,13.81,0,0,1,53.28,38c-.62.46-1.22.94-1.83,1.42s-1.09,1-1.64,1.43-1.11,1-1.67,1.41a15,15,0,0,1-2,1.34,11.75,11.75,0,0,1-2.08.94c-.79.29-1.6.51-2.4.75l-.29.11a2.91,2.91,0,0,1-.39.12s0,0,0,0l-.58,1c-.33.58-.75,1.34-1.09,2.11l-.46,1-.13.3a4.93,4.93,0,0,0-.22.53l0,.13-.13.38c-.23.63-.44,1.27-.64,1.9l-.1.3-.06.2a16,16,0,0,0-.44,1.72l-.17.74c-.17.7-.3,1.44-.4,2.08l-.13.71c-.22,1.23-.4,2.53-.55,4a10.4,10.4,0,0,0-2.07-2.58,9.7,9.7,0,0,0-5.88-2.62h-.53a7.46,7.46,0,0,0-2.59.47,4.85,4.85,0,0,0-1.36.83,3.73,3.73,0,0,0-.45.44l-.19.21a4.36,4.36,0,0,0-.58.9,10.06,10.06,0,0,0-1,3.26A18.76,18.76,0,0,0,21,67.17,29.63,29.63,0,0,0,22,74a13.54,13.54,0,0,0,1.32,3.25,12.7,12.7,0,0,0,2.25,3,8.21,8.21,0,0,0,1.36,1.08,7.5,7.5,0,0,0,1.58.77,8,8,0,0,0,1.61.39,5.93,5.93,0,0,0,2,0,4,4,0,0,0,1.74-.88l-.14.25a5.51,5.51,0,0,0,0,1.39,24.36,24.36,0,0,0,.47,3.09l.6,2.61c.11.5.26,1,.41,1.53l.05.16c.09.29.18.59.26.89.14.47.29.94.44,1.42l.05.14.22.68A81.4,81.4,0,0,0,39.83,103l.2.46.08.17c.2.44.4.89.63,1.32l.71,1.37.72,1.37a41.78,41.78,0,0,0,3.18,5,38.15,38.15,0,0,0,4.72,5.12,36.76,36.76,0,0,0,5.78,4.27,36,36,0,0,0,6.45,3.23c1.29.48,2.59.87,3.8,1.22l.78.23.11,0,.11,0c.63.19,1.27.38,1.91.55a46.82,46.82,0,0,0,5.79,1.2,30.54,30.54,0,0,0,3.64.23c.71,0,1.52,0,2.47-.1,1.84-.15,3.59-.45,5.1-.72.08.18.17.41.26.64a15.72,15.72,0,0,1,.79,3.39,20.94,20.94,0,0,1-.15,4.89v.11a29.34,29.34,0,0,1-.8,3.14c-.16.46-.32.92-.5,1.38a1,1,0,0,1,0,.16c-.07.22-.15.45-.23.67l-.23.67a5.4,5.4,0,0,0-.18.57c-.09.26-.16.52-.24.78,0,0,0,.07,0,.11s-.07.38-.1.56l-.06.27-.06.32,0,0v.34a17.58,17.58,0,0,0,.28,3.1,20.58,20.58,0,0,0,2.1,5.85,14.13,14.13,0,0,0,1.62,2.59,8.76,8.76,0,0,0,2.45,2.13,7.53,7.53,0,0,0,3,1,10.34,10.34,0,0,0,1.11.07l.53,0a9.69,9.69,0,0,0,1.63-.29,9.89,9.89,0,0,0,2.57-1.05,16.51,16.51,0,0,0,2.33-1.54,17.4,17.4,0,0,0,2.33-2.11,11.78,11.78,0,0,0,1.78-2.65,18,18,0,0,0,1.56-5.93,1.06,1.06,0,0,1,0-.19,8.3,8.3,0,0,1-.14-.87c0-.24,0-.48,0-.73s-.06-.39-.1-.59c-.06-.4-.13-.8-.19-1.19,0-.19-.07-.38-.1-.57h-.2a2,2,0,0,0-.74.18l-.38-.29-.27-.21-.39-.28a11.33,11.33,0,0,1-1.62-1.74,19,19,0,0,1-2.21-4,17,17,0,0,1-.89-4c-.07-.77-.1-1.52-.11-2.27a17.62,17.62,0,0,1,.1-2.12l0-.13,0-.12c0-.11,0-.19,0-.27l.92,0c.5,0,1-.09,1.47-.15l.87-.08c1.32-.15,2.66-.36,4-.56l.59-.08A53.87,53.87,0,0,0,120.49,123q2.37-1,4.72-2a37.41,37.41,0,0,0,3.84-1.88,34.35,34.35,0,0,0,5.07-3.65l3.77-3.25a34.88,34.88,0,0,0,3.3-3.13,26.61,26.61,0,0,0,2-2.59c.09-.13.18-.26.26-.39l.1-.16.1-.15.1-.17.21-.34.21-.33c1.05-1.64,1.8-2.92,2.45-4.14.82-1.54,1.54-3.16,2.12-4.46l.09-.19c.56-1.25,1.16-2.59,1.66-4,.33-.9.66-1.81,1-2.72l.13,0h0a1.64,1.64,0,0,0,.41,0,7.63,7.63,0,0,0,1.43-.47,9.76,9.76,0,0,0,.93-.42,14,14,0,0,0,3.92-2.67c.53-.54,1-1.12,1.57-1.75l.1-.11.08-.1.33-.39a12.72,12.72,0,0,0,1-1.27l.19-.23c.2-.29.31-.45.41-.62l.34-.54.33-.54a18.94,18.94,0,0,0,1.31-2.57,18.41,18.41,0,0,0,.84-2.38l0-.16,0-.11c.32-1.14.62-2.21.84-3.3a19.66,19.66,0,0,0,.31-2.77,22.39,22.39,0,0,0-.12-3.28,10.87,10.87,0,0,0-1.05-3.65,4.41,4.41,0,0,0-1.21-1.55,5.84,5.84,0,0,0-1.39-.81,2.78,2.78,0,0,0-1.12-.24,3.56,3.56,0,0,0-.58.06,5.31,5.31,0,0,0-.93.31c-.39.16-.77.32-1.15.51a17.62,17.62,0,0,0-2.28,1.26A14.64,14.64,0,0,0,153.35,64l-.32.35c0-1,0-1.93,0-2.89,0-.77,0-1.54-.08-2.32l0-1c-.08-2.08-.19-3.8-.34-5.41a17.76,17.76,0,0,0-.4-2.19l0-.23,0-.12c-.28-1.19-.52-2.1-.78-2.87l-.16-.5c-.13-.44-.27-.87-.43-1.3-.28-.71-.56-1.41-.86-2.11l-.09-.19-1-1.61-1.74-2.84c-.15-.23-.28-.47-.42-.72h-.1a.88.88,0,0,0-.33.06,3,3,0,0,1-.78.1c-1.44,0-2.88.07-4.33.08h-.25c-1.27,0-2.58,0-3.71-.09h-.68l-1.56-.08-.37,0-.73,0h-.18c-.47,0-.94,0-1.4-.09l-1.43-.15-1.43-.16a31.56,31.56,0,0,1-4.13-.66,42.36,42.36,0,0,1-4.29-1.29c-.78-.28-1.54-.61-2.29-.92l-.32-.13-1.07-.46-1.93-.8-2-.82c-.77-.33-1.54-.63-2.32-.94l-.16-.06c-1.68-.67-3.77-1.5-5.69-2.49a46.09,46.09,0,0,1-6.26-4.21c-.57-.45-1.12-.91-1.67-1.38l-.8-.66c-.92-.76-1.81-1.57-3-2.63l-.67-.62-1.46-1.39-1.44-1.38c-.2-.18-.38-.37-.56-.55l-.11-.11L89.13,16l-.44-.46-1-1-.12-.11-.08-.09a2,2,0,0,1-.25-.26l-1.45-1.67-.21-.25c-.25-.28-.5-.57-.74-.88l-.77-1c-1-1.25-2.08-2.67-3-4.12-.3-.48-.56-.93-.79-1.36s-.53-.75-.78-1.15l-.09-.15c-.22-.31-.42-.63-.61-1a.86.86,0,0,1-.1-.16h0l-.38-.7c-.3-.5-.57-1-.82-1.54L77.41,0h-.06l-.06.16Z"/><path class="cls-9" d="M213.89,74.83a8.38,8.38,0,0,0-1.13,1,7.08,7.08,0,0,0-.87,1.21l-.1.14A19.84,19.84,0,0,0,210.41,80c-.28.64-.49,1.16-.66,1.66s-.36,1-.47,1.49-.25,1-.37,1.55c-.19.79-.36,1.59-.47,2.35-.14,1-.27,1.92-.4,2.88l-.07.61,0,.21c-.07.53-.14,1-.19,1.58v.5l0,.12h0l-.07.39v.19a3.75,3.75,0,0,0,0,.44v.26c0,.31,0,.57-.06.82l0,.39v.16c-.36-1.3-.8-2.62-1.19-3.73-.82-2.39-1.73-4.81-2.78-7.41-.53-1.28-1.05-2.44-1.61-3.53a17.5,17.5,0,0,0-1.31-2.15,6.24,6.24,0,0,0-.77-.89,3,3,0,0,0-1.14-.8,1.91,1.91,0,0,0-.66-.14H198a3.07,3.07,0,0,0-.65.16,1.69,1.69,0,0,0-.66.47,6.14,6.14,0,0,0-.42.47,7.56,7.56,0,0,0-.64,1.07,6.19,6.19,0,0,0-.53,1.44,11.62,11.62,0,0,0-.27,1.85,27.74,27.74,0,0,0,.07,3.82v.23c.07,1.11.24,2.25.38,3.24l.1.67c.06.41.14.81.21,1.21l.12.67.08.4c.06.37.12.74.2,1.11l.28,1.27.29,1.26c.1.5.21,1,.35,1.48.23.81.46,1.63.7,2.44l.1.37c.1.37.19.69.3,1l.68,2,.69,2.06c.19.57.41,1.14.63,1.71l.31.82c.2.53.43,1,.67,1.57a3.64,3.64,0,0,0-1.18-.32l-.49,0a4.12,4.12,0,0,0-1.93.48,6.27,6.27,0,0,0-1.84,1.61,8.62,8.62,0,0,0-.66,1,6.36,6.36,0,0,0-.56,1.1,4.24,4.24,0,0,0-.19,2.47,9.49,9.49,0,0,0,.74,2l.75,1.61a22.26,22.26,0,0,0,2.38,3.93,17.91,17.91,0,0,0,3.36,3.31c.74.59,1.54,1.13,2.3,1.64l.35.23.13.08c.48.33,1,.65,1.44,1h0l.33.15,1,.42.34.15.43.16.8.29.34.12.76.24.86.17.57.06.93.12.16,0,1.29-.08h.19l.18,0,1.58-.1,1.58-.1.3,0,.24,0,1.3-.09,1.25-.08,1.18-.08,2.05-.14,1.11-.1h.05l.36-.13c.09,0,.19-.06.27-.1l.78-.33.45-.17h0l.68-.51.54-.41.14-.14.13-.12a.3.3,0,0,0,0-.08h0c.05,0,.11-.08.14-.14.31-.44.61-.89.91-1.34l.45-.67.07-.11c.71-1,1.44-2.13,2.07-3.24a26.12,26.12,0,0,0,1.46-3l.29-.68a22.22,22.22,0,0,0,.83-2.22,7.45,7.45,0,0,0,.28-3.3,13.38,13.38,0,0,0-.84-3.06,11.24,11.24,0,0,0-1.83-3,20.69,20.69,0,0,0-2-2,14.06,14.06,0,0,0-2.33-1.68,11.54,11.54,0,0,0-3.21-1.24,11.33,11.33,0,0,0-2.84-.35h-.48a8.1,8.1,0,0,0-1.58.24,4.77,4.77,0,0,0-.51.13l.1-.44.05-.17,0-.33c.11-.7.23-1.39.35-2.09l.2-1.11c0-.23.06-.47.09-.71l0-.35a64.09,64.09,0,0,0,.29-6.91l0-1.65v-.61c0-1.14,0-2.17,0-3.22,0-.77-.07-1.53-.14-2.3,0-.55-.12-1.09-.19-1.64l0-.26c0-.24-.08-.47-.12-.7l-.07-.36c-.08-.41-.16-.84-.25-1.25l0-.18c-.1-.42-.2-.84-.31-1.26a9.1,9.1,0,0,0-.41-1.13c-.12-.25-.25-.49-.39-.73a3.33,3.33,0,0,0-.58-.72,2.55,2.55,0,0,0-.58-.42l-.13-.07a2.25,2.25,0,0,0-1-.24,2.64,2.64,0,0,0-1.58.56Z"/><path class="cls-9" d="M14.51,272.61h0l.14.07-.15-.05h0c-.44,0-.89,0-1.34.07a18.56,18.56,0,0,0-3.17.64,13.16,13.16,0,0,0-3.23,1.37,15.6,15.6,0,0,0-2.59,1.86,12.26,12.26,0,0,0-2.27,2.59A11.93,11.93,0,0,0,.53,282,11.48,11.48,0,0,0,0,285.52a12.45,12.45,0,0,0,1.67,6.27,10.84,10.84,0,0,0,1.89,2.43A8.79,8.79,0,0,0,6.34,296a12.19,12.19,0,0,0,4.52.84,22.75,22.75,0,0,0,9-2.19,67.32,67.32,0,0,0,7.43-3.8l.91-.53c.75-.43,1.49-.86,2.22-1.32l.68-.43,1.11-.71.86-.59.09-.07.1-.07.45-.31c.54-.38,1-.74,1.47-1.11l.17-.14a8.92,8.92,0,0,0,1.36-1.31,2.24,2.24,0,0,0,.47-.92l.53.25-.72-.45-.1-.05c-1-.37-1.89-.79-2.8-1.24-2.35-1.17-4.67-2.42-7-3.55s-5-2.37-7.54-3.44c-1.15-.47-2.31-.93-3.42-1.5l-1.47-.76Z"/><path class="cls-9" d="M97.28,126.73l-.53.06-1.15.11h-.07l-1.15.09H94.3c-.57,0-1.14.07-1.71.12s-1.23.12-1.84.2l-1.63.2-.62.08h-.3c-.53,0-1.06,0-1.59,0H84.4l-.88,0-1.69-.11-1.51-.09h-.81l-.43,0-.25,0a.94.94,0,0,0-.32.08.4.4,0,0,0-.23.35l-1.19,0a.47.47,0,0,0-.5.45.49.49,0,0,0,.45.51c.59,0,1.19.07,1.78.09l.77,0c.25,0,.5,0,.76.07.52,0,1,0,1.56,0h1.5c.48,0,1-.05,1.44-.08l1.6-.07,1.51-.07c.54,0,1.09-.11,1.63-.18s1.36-.15,2-.23,1.17-.15,1.75-.23S94.46,128,95,128l.1,0,.88-.12q.49-.08,1-.18l.47-.1.25-.06a.45.45,0,0,0,.19,0,.51.51,0,0,0,.18-.09.36.36,0,0,0-.22-.62h0a4.38,4.38,0,0,0-.52,0Zm-3,.27h0Zm1.23-.1h0Z"/></g><g id="Draw_Layer-8" data-name="Draw Layer"><path class="cls-10" d="M100.56,127.8a4.25,4.25,0,0,0-.78,1.68c-.23.9-.42,1.81-.56,2.73a10.34,10.34,0,0,0,0,2.94,11.37,11.37,0,0,0,.23,1.44,9.62,9.62,0,0,0,.69,1.62,11.63,11.63,0,0,0,1.54,2.27,15.43,15.43,0,0,0,2,2.09,6,6,0,0,0,1.59,1,6,6,0,0,0,1.19.27s0,0,0,0c-.32-.32-.65-.63-.94-1a19.33,19.33,0,0,1-1.3-2.25c-.27-.52-.49-1.05-.74-1.57s-.55-1-.8-1.45l0,.11c0-.08-.07-.17-.11-.25-.29-.69-.63-1.35-1-2s-.53-1.51-.77-2.28a13.25,13.25,0,0,1-.45-2.34,11,11,0,0,1,0-2.3h0v0a3.18,3.18,0,0,1,.18-.6h0l0-.06s0,0,0,0Zm-.14,3v0Zm0-2.37h0Z"/><path class="cls-11" d="M76.81,2.75l-.1.17h0c-.1.18-.21.35-.32.52h0c-.61,1-1.17,2-1.76,3s-1.28,2.2-1.93,3.29S71.46,12,70.82,13L69.09,16c-.74,1.17-1.5,2.34-2.16,3.56S65.67,21.92,65,23.09s-1.32,2.16-1.95,3.26-1.24,2.22-1.87,3.32c-.57.91-1.14,1.81-1.7,2.72s-1.08,1.6-1.64,2.39-1.11,1.61-1.64,2.43c0,0,0,0,0,0l.34-.33v0l1.72-1.61c.59-.54,1.2-1.06,1.78-1.62s1-1.08,1.51-1.62,1.14-1.17,1.67-1.8c1-1.24,2-2.51,3-3.79A30.86,30.86,0,0,0,69,22.39c.38-.72.7-1.47,1-2.21s.68-1.43,1-2.15.59-1.43.87-2.15.57-1.44.85-2.16c.58-1.51,1.12-3,1.68-4.56s1.14-2.93,1.67-4.41c.25-.66.52-1.32.76-2,0,0,0,0,0,0Zm-.42.71h0Z"/><path class="cls-10" d="M85.24,142.59a4.53,4.53,0,0,0-.59.84,6,6,0,0,0-.45,1.67c-.1.62-.2,1.24-.27,1.85a7.53,7.53,0,0,0,.23,2.67,18,18,0,0,0,1.47,3.94,15.91,15.91,0,0,0,2.87,3.57s0,0,0,0a20.69,20.69,0,0,1-2-4.17s0,.06,0,.08c-.37-1.31-.73-2.62-1.13-3.92-.09-.34-.18-.69-.26-1a8.14,8.14,0,0,1-.2-1.7c0-.67-.07-1.33-.09-2a6.62,6.62,0,0,1,.09-1c.08-.27.19-.52.29-.78,0,0,0,0,0,0ZM86.54,153s0,0,0-.06l0,.06Z"/><path class="cls-12" d="M209.23,83.54a14,14,0,0,0-.87,3c-.23,1-.46,2-.61,3a30.32,30.32,0,0,0-.34,3.15c0,1.08,0,2.15,0,3.23,0,.79.07,1.58.14,2.37s.17,1.64.26,2.45.18,1.62.29,2.44.28,1.76.45,2.65c0,0,0,0,0,0-.08-1.12-.15-2.25-.15-3.38s0-2.11,0-3.16,0-2.12.05-3.17,0-2,0-3c0-1.33.05-2.65.14-4v0c.08-.89.18-1.79.26-2.68a16.74,16.74,0,0,1,.37-2.83s0,0,0,0a0,0,0,0,0,0,0Zm-.61,5.55h0v0Z"/><path class="cls-12" d="M218.35,77.94c0,1.16.11,2.31.19,3.46s.07,2.37.07,3.56,0,2.4,0,3.6c0,.67.05,1.33.09,2s.11,1.16.14,1.74.06.95.05,1.42,0,1,0,1.47.06.91.09,1.37a11.92,11.92,0,0,1,.05,1.34v0c-.08.88-.15,1.76-.2,2.64,0,0,0,0,0,0,.08-.36.16-.71.25-1.07,0,0,0-.09,0-.13l0-.19a2.26,2.26,0,0,1,0-.26c0-.25,0-.5.06-.74s0-.38.07-.57l0-.23c0-.2.07-.41.11-.61v-.05a2.44,2.44,0,0,1,0-.27c0-.23,0-.47.07-.71s.07-.47.11-.71,0-.22.05-.34l0-.56c0-.24,0-.48,0-.72,0-.05,0-.1,0-.15s0,0,0,0c0-.25,0-.49,0-.73,0-.77.11-1.54.17-2.3l0-2.93V86.7c0-.22-.05-.44-.07-.65-.15-1.29-.3-2.58-.53-3.86-.12-.64-.28-1.28-.44-1.93s-.35-1.18-.48-1.78h0c0-.18-.07-.36-.11-.54h0Z"/><polygon class="cls-12" points="218.48 78.49 218.48 78.48 218.48 78.49 218.48 78.49 218.48 78.49"/><polygon class="cls-12" points="219.11 97.89 219.11 97.88 219.11 97.89 219.11 97.89 219.11 97.89"/><path class="cls-12" d="M196.22,78.3c-.26.55-.52,1.09-.79,1.63-.19.39-.37.76-.54,1.16h0c-.11.5-.19,1-.26,1.49h0s0,0,0,0,0,0,0,0c-.06.4-.11.79-.17,1.18s-.07.72-.1,1.08,0,.74-.05,1.12-.06.67-.07,1,0,.73,0,1.09v2.24c0,.41,0,.81.07,1.22s.09.71.13,1.06a.13.13,0,0,0,0-.06c.1.66.24,1.32.34,2l0,.2c.14.55.3,1.11.47,1.65s.35,1.11.56,1.65.45,1.12.69,1.68.55,1.27.85,1.88.6,1.1.9,1.64.57,1,.86,1.57c0,0,.05.08.07.13a.3.3,0,0,0,0-.1c0-.12-.09-.23-.13-.34l-.16-.42c0-.11-.07-.23-.11-.34s-.16-.47-.22-.71-.09-.3-.12-.46,0-.19-.07-.28l-.1-.24c0-.09-.07-.19-.11-.28s-.08-.19-.12-.3l-.42-1.28c-.16-.5-.3-1-.44-1.52s-.29-1-.42-1.49c0-.15-.08-.3-.11-.45l-.09-.4c0-.22-.09-.43-.13-.64-.11-.52-.22-1-.31-1.56l-.12-.89,0-.32a.17.17,0,0,0,0-.07c-.08-.5-.16-1-.22-1.48s-.12-1-.15-1.56,0-1-.06-1.45c0-.1,0-.21,0-.32l-.12-1.25a30.43,30.43,0,0,1-.09-4c0-.37.08-.73.13-1.09a10,10,0,0,1,.25-1.11c.2-.74.43-1.47.61-2.22a0,0,0,0,0,0,0Z"/><polygon class="cls-12" points="194.63 82.58 194.63 82.58 194.63 82.58 194.63 82.57 194.63 82.58 194.63 82.58 194.63 82.58"/><polygon class="cls-12" points="194.63 82.6 194.63 82.6 194.63 82.6 194.63 82.6 194.63 82.6 194.63 82.6"/><path class="cls-12" d="M205,88.79l.05.12.09.25c0-.14-.05-.28-.08-.42a.16.16,0,0,1-.09,0l0,.08Z"/><path class="cls-12" d="M205.16,89.51a1.59,1.59,0,0,0,.07.2l.09.28c0-.2-.07-.4-.1-.6a.27.27,0,0,1-.06.12Z"/><path class="cls-12" d="M195.56,111.78a6.63,6.63,0,0,0-1.71,3.12c-.08.32-.13.65-.18,1a9,9,0,0,0-.1.91,4.64,4.64,0,0,0,.17,1.28,9,9,0,0,0,.69,2,13.72,13.72,0,0,0,3,4.17,12.8,12.8,0,0,0,2.9,1.77c.63.32,1.25.65,1.88.95a0,0,0,1,0,0,0c-.5-.42-1-.88-1.45-1.32-.73-.67-1.5-1.31-2.16-2.05a19.94,19.94,0,0,1-1.63-2.64l-.91-1.67-.36-.77a11.28,11.28,0,0,1-.83-2.08,10.63,10.63,0,0,1-.11-2.18,7.26,7.26,0,0,1,.3-1.4h0a9.93,9.93,0,0,1,.5-1s0,0,0,0Zm-.77,2.38v0Zm3.74,9.31a.46.46,0,0,1,.07.07l-.07-.07Zm-3.44-10.64v0Z"/><path class="cls-9" d="M197.9,121.66a.6.6,0,0,0-.13.28.55.55,0,0,0-.26.37,1.49,1.49,0,0,0,.23.85,7.65,7.65,0,0,0,.58,1,7.35,7.35,0,0,0,1.26,1.41c.22.19.42.39.65.56l.68.49c.27.2.58.37.87.55s.46.24.69.37l.19.08a4,4,0,0,0,.94.42.73.73,0,0,0,.46,0l.07,0s0,0,0,0l-.05,0a.87.87,0,0,0,.39-.39v0a.84.84,0,0,0,0-.62.9.9,0,0,0-.42-.48,7.83,7.83,0,0,0-.79-.34l-.25-.11c-.42-.23-.82-.49-1.22-.74h0a8.92,8.92,0,0,1-1.76-1.48,7.27,7.27,0,0,1-.8-1.11c-.11-.17-.2-.35-.29-.52l0-.06h0a.68.68,0,0,0-.11-.31.8.8,0,0,0-.29-.26.39.39,0,0,0-.23-.07.66.66,0,0,0-.46.21Zm1.12.51a.47.47,0,0,1,0,.1.47.47,0,0,0,0-.1Zm2.68,3,.09.06-.09-.06Z"/><path class="cls-9" d="M195.74,117.19a7,7,0,0,0,.12,1.11c.07.32.18.64.28,1a9.2,9.2,0,0,0,.42,1.1c.13.31.29.62.45.92a5.2,5.2,0,0,0,.25.46l.34.54a10.37,10.37,0,0,0,2.83,2.66s0,0,0,0c-.19-.13-.37-.26-.54-.4l-.5-.44c-.31-.29-.59-.6-.87-.91h0a8.13,8.13,0,0,1-.78-1.07,5.89,5.89,0,0,1-.32-.54l-.63-1.23h0v0h0c-.09-.2-.18-.39-.26-.59l-.27-.69c-.08-.23-.17-.45-.24-.69a4.81,4.81,0,0,1-.18-.65h0l-.06-.3h0a1.55,1.55,0,0,1-.05-.23,0,0,0,0,0,0,0s0,0,0,0Zm2.8,6h0Zm-1.72-2.84h0v0Zm-1-2.62Z"/><path class="cls-9" d="M195.48,116.08l.15,1.51a12.94,12.94,0,0,0,.22,1.41,12.33,12.33,0,0,0,.63,2,7.67,7.67,0,0,0,.89,1.61c.2.29.45.56.68.84l.49.5a3.47,3.47,0,0,0,.77.6.46.46,0,0,0,.6-.21.64.64,0,0,0-.19-.69c-.18-.22-.38-.42-.58-.62-.37-.39-.74-.77-1.1-1.17a15.46,15.46,0,0,1-1.32-1.91c-.16-.36-.3-.72-.44-1.08s-.19-.6-.27-.9a3.71,3.71,0,0,1,0-.67h0l0-.16h0s0,0,0,0h0l.11,0s0,0,0,0-.17-.13-.21,0,0,.25-.05.37v0c-.12-.47-.25-.93-.38-1.39h0s0,0,0,0Zm.55,2Zm.88,2.25h0Zm1.07,1.4s0,0,0,0l0,0Z"/><path class="cls-9" d="M195.38,115.79a.45.45,0,0,0-.41.47,2.26,2.26,0,0,0,.11.43v0l.09.48c0,.21.08.43.14.64s.07.23.1.35a5.59,5.59,0,0,0,.34,1.05c.12.32.25.64.4.95l.27.53a5,5,0,0,0,.39.62.56.56,0,0,0,.62.21l.07,0c.19.26.39.51.59.76a0,0,0,1,0,0,0l-.49-.83a.58.58,0,0,0,.14-.57,1.87,1.87,0,0,0-.32-.52c-.14-.24-.26-.48-.39-.73a14.81,14.81,0,0,1-.6-1.51c-.1-.31-.21-.61-.29-.92a7.35,7.35,0,0,0-.34-1.13.45.45,0,0,0-.41-.29Zm.52.78s0,0,0,.06v-.06Z"/><path class="cls-12" d="M218.13,103.47a2.59,2.59,0,0,0-.56.48,4.54,4.54,0,0,0-.73,1.11,10.09,10.09,0,0,0-.69,1.78,15.14,15.14,0,0,0-.46,1.79,12.4,12.4,0,0,0-.15,3,10.47,10.47,0,0,0,.49,2.61c.25.76.53,1.52.82,2.27,0,0,0,0,0,0a27.38,27.38,0,0,1-.27-4.15v.13c0-.81.12-1.62.22-2.43s.18-1.47.31-2.19a28.61,28.61,0,0,1,.65-3.19,5.12,5.12,0,0,1,.41-.85l0,0a1.22,1.22,0,0,1,.26-.3l.1,0,.31,0s0,0,0,0l-.24-.07h-.1a.91.91,0,0,0-.37.13Z"/><path class="cls-12" d="M226.83,104a11.67,11.67,0,0,0-1.3,1.33,9.94,9.94,0,0,0-2,4.24,10.84,10.84,0,0,0,.3,5.62,15.77,15.77,0,0,0,1.22,2.68s0,0,0,0c-.07-.33-.15-.65-.22-1h0c-.09-.45-.18-.9-.25-1.36a17.86,17.86,0,0,1-.11-3.27c0,.06,0,.11,0,.16.06-1,.19-1.92.33-2.88a18.93,18.93,0,0,1,.55-2.59l0,.1a13.55,13.55,0,0,1,1.41-2.92h0l.07-.1s0,0,0,0Zm-.06.13h0Z"/><path class="cls-12" d="M217.28,118.15a4.81,4.81,0,0,0,.47.68,4.88,4.88,0,0,0,1.17,1,5.8,5.8,0,0,0,1.52.57,4.46,4.46,0,0,0,1.82,0,3.35,3.35,0,0,0,2.16-1.27s0,0,0,0l-.37.16h0a5.6,5.6,0,0,1-1.24.4,8.09,8.09,0,0,1-1.39,0h0a11.89,11.89,0,0,1-2.64-.67,8.36,8.36,0,0,1-1.47-.87h0s0,0,0,0Zm1.46.84h0Zm5.28.26h0Z"/><path class="cls-12" d="M233.26,118.59c-.46.24-.92.49-1.39.7h0a9.63,9.63,0,0,1-2.18.59,7.79,7.79,0,0,1-1.74,0,6.56,6.56,0,0,1-.87-.23l.06,0a3.88,3.88,0,0,1-.85-.46L226,119a0,0,0,0,0,0,0,3,3,0,0,0,1.16,1.32,4.08,4.08,0,0,0,2.61.52,5.34,5.34,0,0,0,3.52-2.21s0,0,0,0Zm-7,.63h0Zm5.58.07Z"/><path class="cls-12" d="M209.67,119a16.24,16.24,0,0,1,.48,1.82,5.46,5.46,0,0,1,0,.81,6.28,6.28,0,0,1-.34,1.29,5.24,5.24,0,0,1-.53.92,5.6,5.6,0,0,1-.76.78,6.3,6.3,0,0,1-.87.53,6.55,6.55,0,0,1-1.44.4,9.36,9.36,0,0,1-2,0h0c-.36,0-.72-.13-1.08-.21,0,0,0,0,0,0a8.93,8.93,0,0,0,1.66.61,6.4,6.4,0,0,0,1.9.14,4.47,4.47,0,0,0,3.24-1.76,4.3,4.3,0,0,0,.74-3.4,3.83,3.83,0,0,0-.5-1.11c-.15-.28-.31-.55-.48-.82h0a0,0,0,0,0,0,0Zm-1.09,5.56,0,0,0,0Zm-4.39,1h0Zm2,0h0Z"/><path class="cls-12" d="M201.56,110.69c.92.93,1.81,1.88,2.75,2.79.45.43.89.87,1.36,1.28s1,.82,1.45,1.25c0,0,0,0,0,0a14.15,14.15,0,0,0-1.06-1.51h0v0l0,0h0a11.74,11.74,0,0,0-2-2.15,13.36,13.36,0,0,0-2.52-1.62h0a0,0,0,0,0,0,0Zm4.51,3.78h0l0,0,0,0Z"/><path class="cls-9" d="M195.67,91.39c0,.26,0,.51.05.76s0,.46.06.69.05.4.07.59.05.39.08.58l.15.77c0,.21.09.42.13.63s.08.34.13.52,0,.21.08.32.05.29.08.44.07.32.1.48c.08.34.17.68.25,1s.17.59.26.89.16.54.25.81.11.33.16.5l.11.3.33.93a13.33,13.33,0,0,0,.55,1.36c.09.2.2.39.31.59l.11.19c.07.11.13.2.2.29a.24.24,0,0,0,.3,0,.2.2,0,0,0,.09-.09.25.25,0,0,0,0-.19,1.09,1.09,0,0,0-.15-.35l0-.16c0-.11-.07-.23-.11-.34s-.07-.18-.1-.26-.15-.43-.24-.64v0a.32.32,0,0,0,0-.17,1.43,1.43,0,0,0-.09-.27c-.05-.13-.11-.25-.16-.38a2.29,2.29,0,0,1-.1-.23l-.07-.15h0a.26.26,0,0,0,.07-.19,1.41,1.41,0,0,0,0-.2,1.83,1.83,0,0,0-.08-.25.21.21,0,0,0,.13-.16s0,0,0,0a.33.33,0,0,0,0-.14.5.5,0,0,1,0-.12c0-.09,0-.17-.08-.25L198.4,99c-.09-.26-.19-.51-.29-.77l0-.11c-.15-.52-.29-1-.43-1.57s-.25-.94-.38-1.41,0-.87,0-1.31a.25.25,0,0,0-.25-.25.3.3,0,0,0-.16,0l-.15-.59,0-.3c0-.21,0-.43-.09-.64a.19.19,0,0,0-.11-.15,1.1,1.1,0,0,0,0-.18c0-.06,0-.13,0-.19a.42.42,0,0,0-.09-.19.24.24,0,0,0-.12-.07.11.11,0,0,0-.08,0h0a.25.25,0,0,0-.24-.18.26.26,0,0,0-.25.25Zm0,.22Z"/><path class="cls-10" d="M88.93,128.19a.26.26,0,0,0,.22.27c.81,0,1.61.08,2.42.12l2,.08,1.15,0a2.71,2.71,0,0,0,.4,0l.82,0h.38l.53,0,1.52-.14a.25.25,0,0,0,.21-.29.24.24,0,0,0-.29-.2c-.67.07-1.35.12-2,.18l-.83,0-.5,0h-.2c-.57,0-1.14,0-1.7-.06L89.21,128h0a.27.27,0,0,0-.27.23Zm7.33,0h0Z"/><path class="cls-10" d="M97.84,128l-.88.11-.62.08-1.36.12h.07l-1.42,0H92.34l-1.15,0c-.47,0-1,0-1.43,0a.26.26,0,0,0-.27.22.26.26,0,0,0,.22.28c.67,0,1.34,0,2,.06h.9c.32,0,.64,0,1,0l1.22,0h.27l.53,0,.93-.08,1.39-.17a.25.25,0,0,0,0-.5Z"/><path class="cls-10" d="M96.45,128.42h-.79l-1.47,0c-.49,0-1,0-1.45.07l-.85,0-1,.06a.23.23,0,0,0-.2.22.08.08,0,0,0,0,0h0a.24.24,0,0,0-.2.23.24.24,0,0,0,.22.27l.14,0a.19.19,0,0,0,0,.07.25.25,0,0,0,0,.19.34.34,0,0,0,.15.09.3.3,0,0,0-.08.16.22.22,0,0,0,.06.19.32.32,0,0,0,.16.09l.21,0,.16,0h.63l-.14.05c-.08,0-.11.11-.15.18a.25.25,0,0,0,0,.25.31.31,0,0,0,.21.14,6.19,6.19,0,0,0,.62.13l-.34,0a.27.27,0,0,0-.22.31.28.28,0,0,0,.31.22l.67-.08.36,0a3.85,3.85,0,0,0,.49-.08c.11,0,.23-.07.34-.1a.23.23,0,0,0,.14-.2.25.25,0,0,0-.1-.23.46.46,0,0,1-.07-.07.58.58,0,0,0-.17-.06l-.28,0h-.05l.32,0,.14,0a1.31,1.31,0,0,0,.27-.06.82.82,0,0,0,.25-.12.25.25,0,0,0,.14-.2.24.24,0,0,0-.16-.26l-.08,0,.21,0a3.45,3.45,0,0,0,.43-.12.29.29,0,0,0,.11-.11l.31,0,.89-.07a.24.24,0,0,0,.21-.22.23.23,0,0,0-.06-.19h0l.26,0,.18,0a.71.71,0,0,0,.18-.08.28.28,0,0,0,.14-.18.32.32,0,0,0,0-.14.42.42,0,0,0,0-.1.26.26,0,0,0-.21-.15h-.79Zm-2.51,2.44h0Z"/></g><g id="Draw_Layer-9" data-name="Draw Layer"><path class="cls-4" d="M83.82,65.1c-.81.5-1.61,1-2.42,1.54-.61.39-1.21.78-1.84,1.15a20.48,20.48,0,0,1-3.42,1.6c-1.71.59-3.47,1-5.23,1.45A42.31,42.31,0,0,1,65.34,72a21.48,21.48,0,0,1-5-.23,20,20,0,0,1-2.53-.66c-.47-.16-.91-.35-1.37-.53-.64-.25-1.26-.56-1.89-.84,0,0,0,0,0,0,.53.46,1.06,1,1.63,1.39.4.29.8.58,1.21.86A16,16,0,0,0,60,73.33a16.66,16.66,0,0,0,10.93.55c1.18-.32,2.36-.67,3.5-1.1a19,19,0,0,0,5.52-3.17,19.36,19.36,0,0,0,2.35-2.44c.55-.67,1.07-1.34,1.56-2,0,0,0,0,0,0Zm-7.5,4.23-.12,0,.12,0Z"/><path class="cls-4" d="M103.93,65.7a12.38,12.38,0,0,0,2.17,3.37,12.47,12.47,0,0,0,5.74,3.08,27,27,0,0,0,3.37.62,15.17,15.17,0,0,0,2.61.12A15.93,15.93,0,0,0,125.61,71,15.62,15.62,0,0,0,129,68a9.08,9.08,0,0,0,1.33-1.81s0,0,0,0a18.34,18.34,0,0,1-1.75.94c-.94.47-1.9.9-2.89,1.28a14.78,14.78,0,0,1-3.08.7c-1.06.08-2.11.07-3.17.09-.71,0-1.44,0-2.14,0-2.31-.16-4.61-.13-6.91-.48a17.83,17.83,0,0,1-3.27-1,24.48,24.48,0,0,1-3.13-2h0a0,0,0,0,0,0,0Zm21.71,2.71-.16.06a.76.76,0,0,1,.16-.06Zm-15.59.21.1,0-.1,0Z"/><path class="cls-13" d="M66.8,44.14c-.82.11-1.63.25-2.45.4a30.84,30.84,0,0,0-3.7.94A24,24,0,0,0,53.77,49a24.21,24.21,0,0,0-7.18,8.68s0,0,0,0l1.7-1.75c.88-.88,1.85-1.69,2.82-2.49a28.67,28.67,0,0,1,3.34-2.35,42.22,42.22,0,0,1,9.65-3.92l-.32.09c2.78-.78,5.59-1.47,8.37-2.27,2-.58,4-1.18,5.92-1.83,0,0,0,0,0,0a112.25,112.25,0,0,0-11.28,1Z"/><path class="cls-13" d="M115,42.44c-.87,0-1.75,0-2.62.08-2,.14-3.9.3-5.86.43,0,0,0,0,0,0,1.26.1,2.51.19,3.77.25.94.05,1.88.09,2.82.17l1.91.17c.44,0,.89.12,1.34.18l1.94.26c.47.06.95.16,1.41.25.8.14,1.59.31,2.38.51l-.17-.05a31.36,31.36,0,0,1,7.45,2.92c1,.58,2,1.22,2.94,1.86s1.88,1.34,2.84,2l2.51,1.64c.68.44,1.39.83,2.09,1.23.9.52,1.81,1,2.73,1.51,0,0,0,0,0,0-1.12-.94-2.21-1.89-3.32-2.83S137.08,51.2,136,50.3l-1.74-1.52c-.76-.65-1.55-1.25-2.36-1.83a22.42,22.42,0,0,0-4.92-2.7,25.1,25.1,0,0,0-5.55-1.4,33.05,33.05,0,0,0-3.58-.32L116,42.47l-.88,0Zm7.15,2.34h0Z"/><path class="cls-4" d="M98.1,81.56c0,.17.05.33.06.5A4,4,0,0,1,98,83a11.52,11.52,0,0,1-.8,2.07,6.34,6.34,0,0,1-.51.65,9.37,9.37,0,0,1-1.38,1.06,9.93,9.93,0,0,1-1.68.73,5.82,5.82,0,0,1-1,.14,6.88,6.88,0,0,1-.9-.1,5.88,5.88,0,0,1-1-.39,2.42,2.42,0,0,1-.36-.27,5.58,5.58,0,0,1-.55-.73,7.94,7.94,0,0,1-.54-1.4,10.66,10.66,0,0,1-.2-1.79s0,0,0,0a7,7,0,0,0-.45,2.2,4.8,4.8,0,0,0,.5,2.24A3.91,3.91,0,0,0,91,89a4.83,4.83,0,0,0,2.73.36,5.75,5.75,0,0,0,2.29-1,6.29,6.29,0,0,0,2-2.07,5,5,0,0,0,.59-2.52,9.32,9.32,0,0,0,0-1.18,2.78,2.78,0,0,0-.4-1.07,0,0,0,0,0,0,0s0,0,0,0Zm-6.28,6,.12,0-.12,0Z"/><path class="cls-4" d="M116.46,99.49c-1.5.75-3,1.5-4.53,2.2s-3.22,1.37-4.87,2a58.32,58.32,0,0,1-14,2.75c-2.28.16-4.55.17-6.83.13A49.28,49.28,0,0,1,79.5,106a24.57,24.57,0,0,1-5.44-1.71h0a21.61,21.61,0,0,1-2.63-1.44s0,0,0,0a18.47,18.47,0,0,0,5.71,4.53,25.76,25.76,0,0,0,7.61,2.35,40.85,40.85,0,0,0,8.41.65,31.61,31.61,0,0,0,8.51-1.54,34.29,34.29,0,0,0,7.25-3.21c1.06-.63,2.08-1.36,3.09-2.08a17.39,17.39,0,0,0,1.88-1.55c.89-.81,1.75-1.64,2.59-2.51,0,0,0,0,0,0Z"/><path class="cls-14" d="M115.55,85.55l-.93,2.34a.25.25,0,0,0,.14.32.25.25,0,0,0,.32-.13c.31-.78.62-1.57.94-2.35a.26.26,0,0,0-.14-.32l-.1,0a.26.26,0,0,0-.23.16Z"/><path class="cls-14" d="M118.93,82.82c-1,2-2,4-2.83,6a.56.56,0,0,0,.31.72.58.58,0,0,0,.43,0,.61.61,0,0,0,.3-.31c1-2,2-3.95,2.91-5.93a.61.61,0,0,0-.33-.79.63.63,0,0,0-.22,0,.66.66,0,0,0-.57.38Z"/><path class="cls-14" d="M121.4,82.51l-1.83,4C119,87.7,118.5,89,118,90.19a.63.63,0,0,0,1.16.47c.58-1.22,1.1-2.45,1.65-3.67l1.83-4a.65.65,0,0,0-.36-.85.65.65,0,0,0-.85.36Z"/><path class="cls-14" d="M125.67,82a.55.55,0,0,0-.26.26c-.43.83-.84,1.67-1.26,2.5-.32.64-.62,1.3-.92,1.94-.62,1.32-1.18,2.67-1.76,4a.47.47,0,0,0,.26.6.48.48,0,0,0,.59-.26c.61-1.3,1.16-2.63,1.76-3.93.31-.65.6-1.31.92-2,.42-.85.85-1.71,1.28-2.55a.46.46,0,0,0-.43-.64.52.52,0,0,0-.18,0Z"/><path class="cls-14" d="M127.4,81.53q-1,2.22-1.92,4.5c-.32.78-.64,1.57-.94,2.37a24.27,24.27,0,0,0-.89,2.52,1.13,1.13,0,0,0,0,.79,1,1,0,0,0,.57.56,1,1,0,0,0,1.34-.57c.69-1.58,1.37-3.16,2-4.75s1.26-3.06,1.93-4.57a1.15,1.15,0,0,0-.63-1.49,1.25,1.25,0,0,0-.42-.08,1.19,1.19,0,0,0-1.07.72Z"/><path class="cls-14" d="M130.58,82.52l-1.72,3.93c-.23.5-.44,1-.66,1.51-.12.29-.26.59-.37.89a8.65,8.65,0,0,0-.38,1.19,1,1,0,0,0,.07.51,1.07,1.07,0,0,0,.55.54,1,1,0,0,0,1.3-.56c.5-1.09,1-2.2,1.44-3.3.57-1.31,1.15-2.62,1.71-3.93a1,1,0,1,0-1.94-.78Z"/><path class="cls-14" d="M132.72,83.36c-.42,1.15-.86,2.29-1.3,3.44a.71.71,0,1,0,1.32.53c.49-1.12.92-2.27,1.34-3.42a.73.73,0,0,0-.41-1,.58.58,0,0,0-.26,0,.72.72,0,0,0-.69.45Z"/><path class="cls-14" d="M135.45,83.85c-.32.77-.63,1.53-1,2.28a.61.61,0,0,0,1.14.46c.35-.75.67-1.51,1-2.27a.64.64,0,0,0-.35-.81.59.59,0,0,0-.23-.05.64.64,0,0,0-.58.39Z"/></g><g id="Draw_Layer-10" data-name="Draw Layer"><path class="cls-14" d="M49.68,87.37c-.31.78-.62,1.56-.94,2.34a.25.25,0,1,0,.47.19l.93-2.34a.25.25,0,0,0-.14-.33l-.09,0a.25.25,0,0,0-.23.16Z"/><path class="cls-14" d="M53.06,84.65c-1,2-2,3.95-2.83,6a.57.57,0,0,0,.31.73.58.58,0,0,0,.43,0,.62.62,0,0,0,.3-.3c1-2,1.95-4,2.91-5.94a.62.62,0,0,0-.34-.79.54.54,0,0,0-.22,0,.63.63,0,0,0-.56.38Z"/><path class="cls-14" d="M55.53,84.33c-.61,1.32-1.23,2.64-1.83,4S52.63,90.77,52.1,92a.64.64,0,0,0,.35.82.63.63,0,0,0,.81-.35c.58-1.21,1.09-2.45,1.65-3.67s1.21-2.66,1.83-4a.66.66,0,0,0-.36-.85.65.65,0,0,0-.85.36Z"/><path class="cls-14" d="M59.79,83.79a.57.57,0,0,0-.25.26c-.43.83-.84,1.67-1.26,2.51-.32.64-.62,1.29-.92,1.94-.62,1.31-1.18,2.67-1.76,4a.47.47,0,0,0,.25.6.48.48,0,0,0,.6-.26c.61-1.3,1.15-2.63,1.76-3.93.3-.65.6-1.31.92-2,.42-.85.84-1.7,1.28-2.55a.47.47,0,0,0-.26-.61l-.17,0a.58.58,0,0,0-.19,0Z"/><path class="cls-14" d="M61.53,83.35c-.66,1.49-1.31,3-1.92,4.5-.32.79-.64,1.57-1,2.37s-.64,1.66-.88,2.52a1.16,1.16,0,0,0,0,.8,1,1,0,0,0,1.91,0c.68-1.58,1.36-3.16,2-4.75S63,85.71,63.65,84.2A1.14,1.14,0,0,0,63,82.72a1.06,1.06,0,0,0-.42-.09,1.17,1.17,0,0,0-1.07.72Z"/><path class="cls-14" d="M64.7,84.34C64.14,85.66,63.56,87,63,88.27c-.22.5-.44,1-.65,1.51-.13.3-.26.59-.38.89a9.8,9.8,0,0,0-.37,1.2,1,1,0,0,0,.07.5,1,1,0,0,0,.55.54,1,1,0,0,0,1.3-.56c.5-1.09,1-2.2,1.44-3.3.57-1.3,1.15-2.61,1.71-3.93a1.06,1.06,0,0,0-.58-1.36,1,1,0,0,0-1.37.58Z"/><path class="cls-14" d="M66.84,85.18c-.41,1.15-.85,2.3-1.29,3.44a.71.71,0,1,0,1.32.53c.49-1.12.92-2.27,1.33-3.42a.73.73,0,0,0-.4-1,.65.65,0,0,0-.27,0,.74.74,0,0,0-.69.45Z"/><path class="cls-14" d="M69.58,85.67c-.32.77-.64,1.53-1,2.28a.62.62,0,0,0,.34.8.63.63,0,0,0,.8-.34c.35-.75.67-1.51,1-2.27a.63.63,0,0,0-.34-.81.62.62,0,0,0-.23,0,.64.64,0,0,0-.58.38Z"/></g></g></svg>