<svg xmlns="http://www.w3.org/2000/svg" viewBox="0 0 1223.95 557.22"><defs><style>.cls-1{fill:#0a0e60;}.cls-2{fill:#404040;}</style></defs><g id="Layer_2" data-name="Layer 2"><g id="Draw_Layer" data-name="Draw Layer"><path class="cls-1" d="M826,12.24h-.19c-.87,0-1.74,0-2.61.07l-1.54,0-11.86.31-14,.37-14,.36h-.38l-3.65.08c-2.76.06-5.46.13-8.16.23l-10.36.41-10.37.41L721.3,15.61l-2.53.1c-2.52.1-5,.19-7.55.3l-45.84,2-3.65.16q-12.63.57-25.93,1.28l-3.37.17-6.77.34L604.3,21.09c-2.73.13-5.42.31-8.11.48l-3.85.24-28.21,1.73-5.59.35-5.23.32-1.37.08-3,.19L523,26.39l-19.59,1.44q-15.11,1.09-30.19,2.27l-5.27.41L447.75,32c-3.69.29-7.49.53-11.06.76L434,33l-2.86.19L418.62,34l-12.51.84c-3.13.21-6.31.37-9.39.52h-.22l-3.55.18-12.45.64-14.34.74-1.31.08c-.94.05-1.86.1-2.79.13l-4.1.1-4.1.11-27,.69c-4.85.13-9.71.18-13.4.22l-24.07.27c-1.14,0-2.28,0-3.42.07l-1.52,0L270,39l-4.76.11-4.57.09-.93.05h-.23l-5,.3L230.3,40.9l-3.7.25-1.11.08-.85.06-13.56.94-2.64.19c-3.89.27-8.73.6-13.35.85l-23.54,1.26c-4.6.25-9.2.53-13.8.8l-6.93.42c-4.59.27-9.26.6-13.77.93l-.83.06-3.79.27-4.24.3-4.24.3c-.57,0-1.13.11-1.69.18l-.87.09-.81.09-2.2.24-4.11.43L103,49.85c-1.65.17-3.37.42-4.88.64l-2,.29L84.2,52.41l-1.07.14c-6.19.86-12.5,1.93-19.28,3.29a206.85,206.85,0,0,0-25.11,6.83,102.62,102.62,0,0,0-10.36,4.16c-2,.92-4,2-5.76,3a57.63,57.63,0,0,0-7.07,4.78c-1.21.93-2.35,2-3.46,3a41.68,41.68,0,0,0-4.23,4.59,38.74,38.74,0,0,0-2.29,3.23l-.27.42-.39.68-.59,1a23.33,23.33,0,0,0-1.05,2.24l-.36.92-.37.92a22.29,22.29,0,0,0-1,4.45,23.09,23.09,0,0,0-.2,4v.76c0,.43,0,.87,0,1.31v.26l0,.49V103c.05,1,.09,2,.13,3l.09,1,.08,1c.07.82.17,1.65.28,2.46l.15,1,.13,1c.21,1.28.47,2.56.77,3.8.41,1.93,1,3.84,1.59,5.68l0,.11c.31,1,.62,1.87,1,2.9l2.18,5.64c.34.89.74,1.78,1.13,2.64l.2.46.36.81c.63,1.42,1.26,2.86,1.88,4.29.14.31.31.62.47.92l.09.18.17.33L13,141.7l.77,1.52.27.54.27.54c.42.85.83,1.68,1.28,2.48l1.66,3,1.66,3c1.42,2.55,2.87,5.09,4.31,7.63l.48.83,3.16,5.57c.42.74.86,1.47,1.31,2.2l.63,1,1.27,2.14c.6,1,1.28,2,1.88,2.89l.38.56a65.3,65.3,0,0,0,4.34,5.63c.34.41.7.79,1.07,1.18.19.2.38.4.56.61l1.83,2a1.46,1.46,0,0,0,1.06.44,1.53,1.53,0,0,0,1.09-.44,1.5,1.5,0,0,0,.36-1.54l.9.61c1.07.67,2.29,1.44,3.5,2.13a46.65,46.65,0,0,0,5.11,2.61c1.82.78,3.66,1.42,5.38,2,3.17,1.06,6.48,1.83,9.68,2.56l.18,0,1.79.41c1.56.36,3.2.69,4.64,1l2.67.55.82.17,4.38.93a72.86,72.86,0,0,1,8.44,2.34c1.92.69,3.85,1.5,5.74,2.4a42.31,42.31,0,0,1,5.54,3.2A50.48,50.48,0,0,1,106,208a52.14,52.14,0,0,1,4.77,4.94l-.07-.11c1.77,2.18,3.46,4.46,5,6.8a73,73,0,0,1,4.48,7.87,76.19,76.19,0,0,1,3.12,7.54,58.68,58.68,0,0,1,2.07,7.73,78.07,78.07,0,0,1,1,16.83q-.14,3.75-.33,7.49l-.12,1.19,0,.21c-.11,1.13-.22,2.3-.4,3.43l-.26,1.75c-.19,1.33-.39,2.67-.62,4l-.6,3.47-.6,3.47c-.19,1.14-.35,2.29-.52,3.44l0,.32-.07.45c-.07.51-.14,1-.22,1.52l-.18,1.24-.18,1.25c-.13.88-.22,1.76-.31,2.65l-.09.8c-.14,1.39-.26,2.91-.38,4.66-.18,2.8-.24,5.59-.18,8.29a75,75,0,0,0,.87,9c.41,2.79,1,5.52,1.52,7.58.71,3,1.47,5.77,2.35,8.41a68.16,68.16,0,0,0,3,7.46,58.71,58.71,0,0,0,4.1,7.37,46.38,46.38,0,0,0,9.57,10.45c1.92,1.55,3.93,2.93,5.67,4.1a76.22,76.22,0,0,0,6.87,4.07c1.85,1,3.78,1.89,5.64,2.78l.13.06,1,.48c1.61.77,3.25,1.49,4.66,2.1l.85.36.39.17c2.64,1.14,5.37,2.32,8.07,3.41l2.81,1.14,2.8,1.14a67.63,67.63,0,0,1,13,6.63c1.13.8,2.24,1.58,3.3,2.48l2,1.72a48,48,0,0,1,5.06,4.71,39.79,39.79,0,0,1,4.48,6.65l.94,1.77.93,1.77c1.14,2.54,2.41,5.36,3.49,8.17l.08.21a73.8,73.8,0,0,1,3.2,9.62c.2,1.21.31,2.42.42,3.66l.05.51c.06.72.12,1.37.13,2l0,1.38v.14c0,1.39.08,2.83.05,4.25l0,1.15c0,1.53-.06,3.07-.13,4.61-.09,2-.18,3.93-.28,5.9q-.2,4-.34,7.95l-.14,3.38-.08,1.79c-.06,1.4-.13,2.8-.17,4.19l-.17,6.74V471c0,1,0,2,0,3v1.1c0,2.35,0,4.69.12,7a74.36,74.36,0,0,0,1.61,13.57A55.42,55.42,0,0,0,224,508.75a57.75,57.75,0,0,0,7.42,11.19,62.63,62.63,0,0,0,4.72,5,48.84,48.84,0,0,0,5.49,4.45c1.88,1.33,3.63,2.46,5.36,3.45,2,1.14,4.1,2.24,6.28,3.25a19.37,19.37,0,0,0,6.26,1.8,11.07,11.07,0,0,0,1.15.06,3.3,3.3,0,0,0,.81.72,2.15,2.15,0,0,0,1,.29,1.54,1.54,0,0,0,.5-.08c2.25-.84,4.5-1.67,6.74-2.54s4.26-1.64,6.31-2.34,3.95-1.3,5.82-1.84l.41-.12c.92-.27,1.83-.53,2.76-.77s2.16-.49,3.16-.69l.7-.1a16.19,16.19,0,0,1,1.8-.11l.79,0a8.27,8.27,0,0,1,1.27.36,7.38,7.38,0,0,1,1.07.64,6.21,6.21,0,0,1,.73.7,17.16,17.16,0,0,1,1,1.58l.3.52a9.61,9.61,0,0,0,2.68,3,11.37,11.37,0,0,0,3.44,1.54q.69.21,1.38.36a1.08,1.08,0,0,0,.18.52,1.36,1.36,0,0,0,.82.57,1.1,1.1,0,0,0,.25,0,1.67,1.67,0,0,0,.74-.21q3-1.51,5.95-3l.1-.05c.73-.35,1.5-.68,2.27-1,1.13-.46,2.32-.83,3.47-1.19l.12,0,.49-.15c2.4-.75,4.88-1.3,7-1.76a136.09,136.09,0,0,1,14.51-2c2.33-.2,4.76-.3,7.22-.3,2,0,4.12.07,6.18.2,2.32.19,4.5.45,6.66.8a53.74,53.74,0,0,1,8.31,2.09c1.19.43,2.38.91,3.54,1.4s2.49,1.18,3.82,1.9c1.48.81,2.91,1.72,4.36,2.66l1.32.85.14.09c2.56,1.66,5.2,3.37,7.91,4.88a60.42,60.42,0,0,0,7.12,3.36,51.78,51.78,0,0,0,7.74,2.35,44.26,44.26,0,0,0,8.91.9h.38c1.34,0,2.75-.13,3.89-.23l.28,0a57.27,57.27,0,0,0,6-.93,60.9,60.9,0,0,0,6.83-1.81,57.21,57.21,0,0,0,8.37-3.58,75.76,75.76,0,0,0,9.95-6.36l.81-.58,1.76-1.23,1.73-1.18.29-.2c.26-.19.52-.37.79-.53l2.49-1.48.91-.54c.26-.15.53-.28.8-.42l.12-.06a3,3,0,0,0,.31-.15l.85-.43.8-.41,1.05-.48.8-.36a11.27,11.27,0,0,1,1.16-.5,10.23,10.23,0,0,1,1.81-.55,13,13,0,0,1,2.11-.22c.33,0,.66,0,1,0,.75,0,1.54.06,2.18.1a72.85,72.85,0,0,1,8.89,1.17l-.12-.08a13.18,13.18,0,0,1,2.18,1c.48.28,1,.57,1.43.88l.61.44c1.1.77,2.2,1.55,3.28,2.36,1.84,1.39,3.7,2.77,5.55,4.15,1.24.92,2.41,1.74,3.59,2.57l1.41,1c1.33,1,2.83,2,4.59,3.1a60,60,0,0,0,7.76,4.18c2.27,1,4.64,1.87,6.68,2.57,2.59.89,5.23,1.68,7.84,2.36a60.2,60.2,0,0,0,8.17,1.42,35,35,0,0,0,4,.2c1.39,0,2.84-.06,4.58-.19a97.79,97.79,0,0,0,12.09-1.93l7.49-1.6c.41-.09.83-.21,1.24-.33l.53-.14.93-.25,3.14-.86.41-.11,1.89-.52a3,3,0,0,0,.4-.12l.26-.09,1.15-.38,1.14-.38.8-.27,3.12-1c1.34-.44,2.63-.93,3.84-1.38,2.53-.95,4.94-2,7.15-3,1.32-.65,2.62-1.31,3.92-2,.94-.49,1.94-1,2.88-1.58l6.44-3.87c.45-.27.89-.56,1.33-.85l2-1.31,2-1.31.48-.3c.38-.24.76-.48,1.13-.74l1.47-1,1-.71,1.72-1.23,1.65-1.18c.48-.34,1-.71,1.49-1.12l3-2.5,3.31-2.73c.49-.4,1-.83,1.42-1.26l1.75-1.59,1.74-1.59,1.63-1.48,2.37-2.17,3.75-3.44.37-.34c.41-.38.82-.76,1.24-1.13l11.59-10c1-.83,1.93-1.67,2.88-2.51l1.52-1.32,2.59-2.29.82-.72c1.54-1.36,3.08-2.71,4.64-4.06,2-1.66,4.2-3.32,6.53-4.95a53.19,53.19,0,0,1,6.93-4c.76-.35,1.53-.7,2.31-1,1.3-.58,2.67-1.06,4-1.52l.16-.06a71.33,71.33,0,0,1,8.38-2.28h-.22l3.9-.64c1.42-.22,2.87-.35,4.23-.47s2.78-.18,4.35-.18,3.18.06,5.08.18c2.79.22,5.6.56,8.34,1a59.06,59.06,0,0,1,9.24,2.34q1.65.6,3.3,1.26c1.09.44,2.18.95,3.23,1.44l.48.22c.66.31,1.31.64,2,1l.23.12.71.35.74.36c.53.27,1.06.52,1.57.8l1.88,1,1.83,1c3.45,1.86,6.88,4,9.91,5.89l.72.45c1,.64,2,1.3,3.06,2l.15.1c.56.36,1.12.73,1.68,1.08,1.11.72,2.24,1.41,3.37,2.09l.17.1,1.67,1c.52.32,1.06.63,1.6.94l.81.46,2.07,1.2.87.51c.45.26.92.51,1.38.75l.09,0,.45.24,1.85,1,1.75,1c2.46,1.33,5,2.42,6.9,3.23a70,70,0,0,0,7.16,2.48,68.44,68.44,0,0,0,17.14,2.58l1.53,0c2.47,0,4.89-.19,7.16-.38,1.42-.13,2.9-.33,4.08-.49s2-.28,2.88-.45l1.72-.34,1.71-.33.73-.14.39-.07c.74-.14,1.48-.27,2.21-.44,1.42-.32,2.84-.65,4.25-1,1.17-.3,2.35-.66,3.49-1l.19-.06.33-.1a45.75,45.75,0,0,0,6.67-2.82,35.86,35.86,0,0,0,6.74-4.6,46.31,46.31,0,0,0,6-6.13c.66-.8,1.3-1.65,1.91-2.46l.44-.6.51-.67c.37-.49.75-1,1.1-1.49l.9-1.28c1-1.34,1.89-2.69,2.84-4,1.24-1.75,2.69-3.78,4.18-5.78l1.25-1.69,1.25-1.68c.35-.48.74-.93,1.12-1.39l.08-.1.58-.69,1-1.27,1.89-2.29c.33-.4.68-.78,1-1.15l.14-.15.41-.43,3-3.24a60.86,60.86,0,0,1,4.43-4.29,60.1,60.1,0,0,1,7.74-5.48l3-1.77,1.79-1.06q1.18-.69,2.37-1.35l1-.59.74-.42,1.34-.76c1-.57,2.09-1.11,3.12-1.64l.49-.24c2.15-1,4.34-2,6.68-2.82a56.36,56.36,0,0,1,7.63-2.12c1.23-.24,2.34-.44,3.46-.58l2.07-.26.26,0c.75-.09,1.49-.17,2.25-.23s1.26-.09,2-.09,1.44,0,2.15.08a16,16,0,0,1,2.11.35,23.41,23.41,0,0,1,3.12.94c.9.34,1.79.71,2.68,1.09l.71.3a18.94,18.94,0,0,1,2.38,1.28l.4.34.19.18a17.28,17.28,0,0,1,1.44,1.53c2.21,2.87,4.23,5.95,6.18,8.93l1,1.56.42.63c1.93,2.94,3.91,5.95,6,8.84.4.58.84,1.13,1.28,1.68l.6.77c.49.62,1,1.2,1.5,1.76l1.18,1.31,1.12,1.26c.15.16.32.33.49.49l.2.2,2,2c1,1,2,2,3.25,3.1a70.14,70.14,0,0,0,6.92,5.47c1.77,1.24,3.66,2.44,5.63,3.56a55.38,55.38,0,0,0,8.51,3.78c2.08.75,4.35,1.43,7.15,2.14,1.66.42,3.32.76,4.93,1l1.12.17c1.83.31,3.66.61,5.5.88l.62.09.63.09c1.51.23,3,.45,4.54.65l3,.39.28,0,.26,0c.78.1,1.56.18,2.35.25l1.1.11.34,0c.71.08,1.42.16,2.13.2l3.58.24.32,0c.59,0,1.18.08,1.77.09l2.34,0,2.36,0h.16c.48,0,1,0,1.45-.05l.38,0,3.69-.18h.17c.56,0,1.11-.08,1.66-.14l.42,0,3.54-.33.31,0c.51-.05,1-.14,1.54-.22l.24,0,.5-.08,1.5-.23,1.5-.22c.63-.1,1.27-.24,1.88-.37.28-.07.55-.13.83-.18l1.45-.3,1.44-.3c.22-.05.44-.12.65-.19l.29-.09,2-.57.69-.19c.57-.16,1.14-.32,1.69-.5,2-.68,4-1.36,6-2.07,1.52-.55,3.11-1.17,5.13-2,.94-.4,1.88-.8,2.82-1.22.62-.27,1.22-.57,1.81-.88l.21-.1.78-.4c.69-.35,1.37-.72,2.14-1.16a.26.26,0,0,0,.1.07,2,2,0,0,0,1,.28,2,2,0,0,0,.54-.08,2.16,2.16,0,0,0,1.2-.92c.33-.46.63-.95.91-1.43l.23-.38a39,39,0,0,0,3.28-2.67,2.12,2.12,0,0,0,.46-.91,1,1,0,0,0,0-.24c.59-.39,1.13-.74,1.65-1a30.08,30.08,0,0,1,2.78-1.37c1.48-.62,2.71-1.17,4-1.82a35.44,35.44,0,0,0,4.31-2.8c1.54-1.12,3-2.37,4.35-3.48.87-.73,1.74-1.46,2.63-2.17l.14-.11a48.39,48.39,0,0,1,9.33-5.49c2.11-1,4.27-1.88,6.37-2.78l1.15-.5.35-.14.15-.07c1.06-.45,2.16-.92,3.22-1.47s2.12-1.15,3.44-2c1.06-.66,2.08-1.36,3.3-2.22.36-.24.7-.52,1-.79l.52-.41c.35-.27.69-.56,1-.84l.31-.25c2.55-2.12,5-4.37,7.42-6.71a60.31,60.31,0,0,0,5.61-6.58c.29-.38.56-.77.83-1.16l.41-.61.66-.94,1.1-1.57c.19-.28.36-.56.54-.86l.14-.23,1.7-2.82,1-1.69.21-.39.19-.36.62-1.17.3-.57.59-1.11c.47-.86.93-1.73,1.36-2.61q1.29-2.64,2.59-5.28c.39-.81.74-1.63,1.09-2.47l.16-.39.62-1.48.63-1.48.21-.51c.19-.44.38-.87.54-1.31l.52-1.47c.76-2.17,1.72-4.88,2.55-7.47L1168,392c.31-1,.59-2,.86-2.94l.44-1.57c.8-2.78,1.61-5.7,2.4-8.67q1.29-4.81,2.61-9.64c.39-1.43.79-2.86,1.18-4.3l.58-2.1c1.08-3.92,2.17-7.84,3.22-11.77q1.34-5,2.62-10.1l.1-.37.36-1.41q.84-3.24,1.69-6.48,2.54-9.66,5.14-19.29c.21-.75.4-1.5.58-2.25l.11-.43.35-1.4.79-3.13.8-3.16c.57-2.28,1.11-4.56,1.65-6.85l.67-2.82.55-2.35.55-2.35c1-4.08,2-8.7,3.17-13.12l.3-1.16c.69-2.7,1.38-5.39,2-8.09l.3-1.17.07-.29c.21-.85.42-1.7.59-2.56l1.13-5.54,0-.21c.07-.38.13-.76.19-1.14l.11-.65.56-3.34c.18-1.05.36-2.1.51-3.15l.3-2,.16-1c.33-2.16.67-4.45,1-6.7l.73-5.62.75-5.66c.08-.66.14-1.33.21-2l.05-.52.36-3.66.36-3.66,0-.35c.07-.75.14-1.48.18-2.21l.15-3,.15-3,.13-2.61.13-2.61c0-.21,0-.43,0-.64l0-1.6,0-1.6,0-3.18,0-3.32v-.85c0-.66,0-1.33,0-2l0-.43v-.11c-.21-3.7-.43-7.4-.63-11.09,0-.75-.14-1.5-.23-2.23l-.12-1.1-.07-.59L1207,169c-.25-2.36-.61-4.73-1-7-.13-.85-.26-1.68-.38-2.5l-.6-4.17c-.11-.75-.25-1.51-.39-2.26l0-.21c-.09-.44-.17-.89-.25-1.33-.16-.89-.31-1.79-.47-2.68l-.07-.4c-.36-2.1-.74-4.26-1.18-6.37-.21-1-.43-2.05-.64-3.07-.44-2.12-.88-4.23-1.34-6.35l-1-4.56-1.25-5.59c-.37-1.64-.81-3.31-1.24-4.92l-.07-.26-.37-1.37c-.54-2.09-1.2-4.19-1.84-6.21l-.09-.28c-.73-2.33-1.54-4.55-2.24-6.41-.45-1.22-1-2.44-1.51-3.61l-.36-.82a70.76,70.76,0,0,0-5.81-10.36c-.73-1.1-1.58-2.27-2.53-3.47s-1.65-2.08-2.49-3-1.8-2-2.75-3c-1.39-1.48-2.91-2.84-4.39-4.16-1-.92-2.16-1.85-3.45-2.85-1.62-1.24-3.24-2.41-4.81-3.49-1.77-1.22-3.65-2.29-5.47-3.33l-.17-.09c-1.77-1-3.67-2-5.35-2.77l-.51-.26c-1.25-.62-2.62-1.23-4.19-1.88-4-1.65-7-2.85-9.87-3.9l-4.75-1.73c-3.78-1.38-8.48-3.1-13-4.67l-11.9-4.19-.59-.21c-.56-.2-1-.38-1.53-.53l-2.18-.68-2.26-.7-6.11-1.9-6.18-1.91-.59-.2c-.47-.15-1-.31-1.43-.43l-4-1L1078,36.08l-6.47-1.67-1.2-.31-3.64-.94-.11,0c-.52-.14-1-.27-1.56-.37l-15.36-3.07-8.56-1.7-1.06-.21c-1.07-.22-2.2-.45-3.32-.63l-11-1.66-12.19-1.84-9-1.36-1.06-.13-.19,0-.42-.05-2-.21L999,21.66l-6.9-.76-6.94-.77-6.5-.71-6.48-.72-2-.23-2.06-.23-.18,0-.5,0c-.39-.05-.78-.1-1.16-.13l-.74-.05-.72-.06-19.14-1.49L925,14.85c-1-.07-1.94-.11-2.92-.15l-1.39-.07L908,14l-12.84-.63-13.46-.66-1.12-.06h-.11c-.82-.06-1.66-.11-2.49-.11l-3.45,0-3.46,0-15-.09-15-.09-15-.09ZM17.63,77.79l.2-.1-.37.28.25-.21-.08,0Zm19.29,99-.09-.19.34.5-.26-.36v.05Z"/><path class="cls-1" d="M267.63,415.13c-.4.78-.75,1.57-1.07,2.37-.17.43-.33.85-.5,1.27s-.34.81-.52,1.21l-1.15,2.29c-.39.79-.74,1.59-1.08,2.41s-.63,1.48-.95,2.23-.67,1.64-1.05,2.44l0,0c-.22.46-.43.92-.68,1.36-.12.23-.24.45-.38.67s-.32.51-.48.75c-.27.41-.54.81-.79,1.23s-.65,1-1,1.56-.52.87-.79,1.3-.61.94-.93,1.4-.57.83-.84,1.24l-.48.71c-.14.21-.27.42-.42.63-.4.55-.78,1.11-1.2,1.64l-.77,1-.69.91c-.16.2-.33.41-.48.63-.28.4-.56.8-.85,1.19s-.78,1-1.17,1.54c-.72.83-1.44,1.65-2.17,2.47l-1,1.07c-.34.38-.68.76-1,1.12s-.75.78-1.15,1.14-.82.74-1.24,1.09l-2.76,2.34c-.47.39-1,.77-1.44,1.14s-1,.74-1.44,1.11l-2.73,2-.94.66c-.12.09-.25.16-.38.24l-.51.32-.89.53-1.07.62a.43.43,0,0,0,.4.76,15.49,15.49,0,0,0,1.41-.71c.22-.12.44-.23.65-.36l.82-.49.61-.43.58-.41,1.29-.95c.91-.68,1.81-1.35,2.71-2,.48-.36.94-.74,1.41-1.12s.84-.71,1.26-1.06c.78-.67,1.57-1.32,2.34-2l.71-.62c.15-.13.29-.29.44-.43.37-.37.74-.73,1.09-1.12.81-.89,1.61-1.78,2.41-2.68.36-.4.71-.81,1.06-1.22.12-.14.26-.29.37-.44l.61-.78.45-.58.47-.67c.3-.42.61-.85.92-1.26s.65-.86,1-1.28.69-.85,1-1.29.64-.89.95-1.34l.92-1.38c.62-.89,1.24-1.78,1.8-2.72s1.09-1.85,1.68-2.76c.29-.46.6-.91.89-1.37.14-.22.27-.45.4-.68l.42-.81c.24-.47.45-1,.66-1.44s.41-1,.6-1.42c.42-1,.83-2,1.23-3,.29-.73.61-1.44.93-2.15l-.05.1c.4-.81.78-1.62,1.17-2.44l0,0c.3-.65.55-1.32.8-2,.15-.38.29-.76.45-1.15s.28-.66.42-1l.33-.66a.45.45,0,0,0,.05-.3.39.39,0,0,0-.17-.23.37.37,0,0,0-.21-.06.33.33,0,0,0-.31.17Zm-6.26,14.1,0,.06,0-.06ZM249.48,447l0,0,0,0Z"/><path class="cls-2" d="M278.4,473a1.75,1.75,0,1,0,1.75-1.75A1.76,1.76,0,0,0,278.4,473Z"/><rect class="cls-1" width="1223.95" height="188.35"/><rect class="cls-1" x="1133.25" y="149.64" width="5.56" height="5.56"/><rect class="cls-1" x="1136.02" y="133.77" width="87.93" height="321.52"/><path class="cls-1" d="M1075.17,485c7.25-1.73,14.49-3.5,21.39-6.35,6.67-2.75,12.4-6.61,18.27-10.72a120.47,120.47,0,0,1,39.71-18.26c7.49-1.89,4.32-13.47-3.19-11.57a128.08,128.08,0,0,0-39.75,17.53c-5.93,4-11.51,8.47-18.09,11.37-6.85,3-14.27,4.7-21.53,6.43-7.51,1.79-4.33,13.36,3.19,11.57Z"/><path class="cls-1" d="M1046.19,493.28c12.74-.69,24.76-2.9,36.55-7.85,11-4.65,21.37-10.72,32.11-16a127.41,127.41,0,0,1,34.93-11.09c12.81-2.23,25.77-3.59,38.36-7,7.44-2,4.28-13.59-3.19-11.57-12.3,3.32-24.94,4.7-37.47,6.84a135.82,135.82,0,0,0-34.16,10.3c-10.41,4.78-20.27,10.66-30.65,15.52a96.34,96.34,0,0,1-36.48,8.86c-7.68.42-7.73,12.42,0,12Z"/></g></g></svg>