<svg xmlns="http://www.w3.org/2000/svg" viewBox="0 0 2224.54 1057.35"><defs><style>.cls-1{fill:#0a0e60;}.cls-2{fill:#f8f7d1;}.cls-3{fill:#404040;}.cls-4{fill:#ede4d6;}.cls-5{fill:#fefefe;}.cls-6{fill:#f2836b;}.cls-7{fill:#c0b6fd;}.cls-8{fill:#dd7761;}.cls-9{fill:#40627c;}.cls-10{fill:#2c4457;}.cls-11{fill:#ffd393;}.cls-12{fill:#f6cc8e;}.cls-13{fill:#efc68a;}.cls-14{fill:#ecc488;}.cls-15{fill:#e39279;opacity:0.42;}</style></defs><g id="Layer_2" data-name="Layer 2"><g id="Draw_Layer" data-name="Draw Layer"><path class="cls-1" d="M225.84,676.43a1.72,1.72,0,1,0,1.72-1.71,1.75,1.75,0,0,0-1.72,1.71Z"/><path class="cls-2" d="M913.92,939.53c-.43.26-.87.51-1.31.75s-.64.36-1,.53-.62.34-.94.51l-.52.3-.43.25c-.63.39-1.25.8-1.85,1.23l-.35.27-.21.16-.09.07-.13.11a1.24,1.24,0,0,0-.14.18,1.75,1.75,0,0,0-.16.27l0,.1a.36.36,0,0,1,0,.09s0,.09,0,.13a2.07,2.07,0,0,0,0,.22l0,.23a1.1,1.1,0,0,0,.11.32c0,.1.09.19.13.28v0h0l-.24.18a1,1,0,0,0-.24.3.26.26,0,0,0,.09.34.27.27,0,0,0,.35-.09l.06-.1a.93.93,0,0,1,.18-.16h0l0,0,0,0,.08-.06a.46.46,0,0,0,.12-.12.19.19,0,0,0,.07-.12l0-.16a.13.13,0,0,1,0-.06.48.48,0,0,0-.05-.17l-.13-.27h0a1.14,1.14,0,0,1-.09-.26.45.45,0,0,0,0-.11,1.72,1.72,0,0,1,.07-.21.5.5,0,0,1,0-.13l0,.06a1.25,1.25,0,0,1,.15-.28l0,0a.77.77,0,0,1,.18-.18h0a26.52,26.52,0,0,1,2.94-2l.83-.46.87-.47c.66-.36,1.31-.73,2-1.1a.28.28,0,0,0,.09-.35.25.25,0,0,0-.22-.12.31.31,0,0,0-.13,0ZM907.15,946h0Zm.43-2Z"/><path class="cls-2" d="M870.21,989.71a.25.25,0,1,0,.25-.25.25.25,0,0,0-.25.25Z"/><path class="cls-3" d="M225.84,676.43a1.72,1.72,0,1,0,1.72-1.71,1.75,1.75,0,0,0-1.72,1.71Z"/><path class="cls-1" d="M0,0V331.52l.27.42c6.24,9.63,12.23,19.41,17.87,29.42,7.66,13.59,15.72,27,22.65,41,.25.52.51,1,.77,1.55l1.7.78a41.8,41.8,0,0,1,5.53,3.19,50.8,50.8,0,0,1,4.61,3.67,53.31,53.31,0,0,1,4.76,4.94l0-.15c1.85,2.38,3.53,4.68,5,6.83A71.61,71.61,0,0,1,67.59,431a78,78,0,0,1,3.12,7.54,58.58,58.58,0,0,1,2.06,7.72,70.93,70.93,0,0,1,1.07,12.49c2.68,3.61,5.4,7.19,8.12,10.77,16.84,22.17,29.21,47.12,42.62,71.39l2.92,5.21c.8,1.38,1.6,2.75,2.44,4.11,6.75,10.85,14,21.36,20.7,32.27,3.21,5.26,6.25,10.6,9.63,15.76,3.65,5.56,7.27,11.08,10.6,16.83,2.63,4.55,5.23,9.14,7.74,13.75,1.55,2.85,3.22,5.67,4.62,8.6q4.25,8.79,8.24,17.73c4.67,10.47,9.65,20.79,15.12,30.85q5.73,10,11.42,20.1c4.26,7.57,8.59,15.11,12.44,22.91.92,1.86,1.75,3.75,2.52,5.66.78-.19,1.66-.38,2.68-.57l.7-.1a15.89,15.89,0,0,1,1.79-.11c.27,0,.53,0,.8,0a8,8,0,0,1,1.26.36,7.47,7.47,0,0,1,1.06.64,7.1,7.1,0,0,1,.72.68c.34.48.63,1,1,1.58l.29.52a9.55,9.55,0,0,0,2.69,3.06,11.35,11.35,0,0,0,3.45,1.55,13.33,13.33,0,0,0,1.38.36.89.89,0,0,0,.16.51,1.39,1.39,0,0,0,.84.58l.16,0a29.65,29.65,0,0,1,5.21-9.79A30.16,30.16,0,0,1,269.36,725l7.53-1.94c4.1,0,8.2-.16,12.3-.29,3.21-.09,6.42-.57,9.61-.87,5.52-.53,11-1.28,16.53-2,12.3-1.62,24.56-3.33,36.85-5s24.74-3.52,37-5.9,24.6-5.2,36.88-7.91c25.59-5.64,51.24-10.82,76.84-16.33s51.39-10.73,77-16.62q22.77-5.26,45.67-9.8c7-1.38,14.06-2.43,21.1-3.54L670.41,651c13.18-2.08,26.28-4.71,39.42-7.06q24.2-4.35,48.42-8.59c27.8-4.86,55.69-9,83.37-14.61,30.17-6.13,60.39-11.86,90.59-17.8q45.84-9,91.91-16.95c27.65-4.78,55.16-10.57,82.44-17.08q23.48-5.6,46.81-11.53c15.52-4,31.09-7.69,46.64-11.45,14.66-3.53,29.51-6.18,44.29-9.13,6-1.19,12.09-2.1,18.14-3.1,7.65-1.27,15.31-2.59,23-3.79,13.57-2.15,27.11-4.37,40.71-6.41,15.49-2.33,31-4.48,46.43-7.31,8.7-1.6,17.49-3,26.14-4.8l21.71-4.61c6.13-1.3,12.32-2.46,18.4-4l27.39-6.8q22.13-5.5,44.28-10.94c14.6-3.6,29.35-6.65,44-9.89,5.75-1.27,11.59-2.19,17.41-3.22l26.65-4.71c6.58-1.16,13.24-2,19.84-3l24.14-3.66c15.52-2.35,31.09-4.46,46.63-6.69,15.23-2.18,30.39-5,45.58-7.45s30.17-5.64,45.25-8.49c14.73-2.79,29.4-6.05,44.09-9.13s29-6.25,43.56-9.41c14.36-3.13,28.77-5.92,43.2-8.7,6.78-1.31,13.56-2.8,20.37-3.92l22.82-3.77,43.52-7.18,29.57-4.84c4.71-.78,9.38-1.82,14.06-2.75,14.37-2.88,28.78-5.63,43.1-8.77,14.82-3.25,29.62-6.62,44.48-9.74l29.84-6.26c5.7-1.19,11.37-2.55,17.11-3.57l48.81-8.7V0ZM227.56,678.16a1.72,1.72,0,1,1,1.72-1.73A1.75,1.75,0,0,1,227.56,678.16Z"/></g><g id="Draw_Layer-2" data-name="Draw Layer"><path class="cls-4" d="M210.89,1011.57l-1.18.11a25.77,25.77,0,0,0-4.82,1.13,37,37,0,0,0-5.56,2.22,23.91,23.91,0,0,0-9.56,8.44,22.93,22.93,0,0,0-2.67,6,20.35,20.35,0,0,0-.88,6.29,21.21,21.21,0,0,0,.42,3.85,22.14,22.14,0,0,0,1.27,3.67,20.07,20.07,0,0,0,2,3.17,17.65,17.65,0,0,0,3.19,3.27,19.17,19.17,0,0,0,3.74,2.49,36.4,36.4,0,0,0,6,2.59,59.56,59.56,0,0,0,12.7,2.32c6.2.51,12.43-.06,18.61-.65,2.79-.27,5.57-.59,8.35-.92a51.13,51.13,0,0,0,9-1.87,42.47,42.47,0,0,0,6.38-2.46,29.18,29.18,0,0,0,5.9-4.06,18.69,18.69,0,0,0,2.8-3.16,13.47,13.47,0,0,0,2.18-5.91,12.59,12.59,0,0,0,0-4.46,33,33,0,0,0-1.28-4.1,19.59,19.59,0,0,0-2.2-3.73c-.46-.69-.94-1.34-1.46-2a36.28,36.28,0,0,0-5.53-5.27c-3.31-2.7-7.33-4.57-11.21-6.3a58.92,58.92,0,0,0-13.16-3.82,34.41,34.41,0,0,0-6.57-.62,38.92,38.92,0,0,0-16.46,3.74Z"/></g><g id="Draw_Layer-3" data-name="Draw Layer"><path class="cls-5" d="M213,1010.05l0,0c.22.36.45.72.68,1.06l.37.58v-.19a15.24,15.24,0,0,0,1.48,2.31,4.58,4.58,0,0,0-1.4-.2h-.64a24.9,24.9,0,0,0-4.15.38,35.33,35.33,0,0,0-4.63,1.18,17.72,17.72,0,0,0-2,.77,12.57,12.57,0,0,0-2,1.08,1.67,1.67,0,0,0-.34.31,2.25,2.25,0,0,0-.35.44,2.41,2.41,0,0,0-.35,1.06,2.71,2.71,0,0,0,1.06,2.28,4.84,4.84,0,0,0,1.79.92,9.83,9.83,0,0,0,2.48.41h.68a21.62,21.62,0,0,0,4.22-.49c1-.22,2-.48,3-.8s1.82-.54,2.72-.82l1.08-.36.45-.17.51-.17c.5-.17.92-.31,1.34-.48a24.7,24.7,0,0,0,4.43-2.18l.24-.15a2.32,2.32,0,0,0,.18.71,20.17,20.17,0,0,0,1.54,3.16,25.32,25.32,0,0,0,4.2,5.43,30.57,30.57,0,0,0,2.6,2.19,23.92,23.92,0,0,0,3,2,27.08,27.08,0,0,0,3.18,1.48,13.74,13.74,0,0,0,3.54,1,5.07,5.07,0,0,0,.68,0,5.33,5.33,0,0,0,2.48-.58,4.08,4.08,0,0,0,1.32-1.13,3.93,3.93,0,0,0,.68-1.85,5.15,5.15,0,0,0-.07-1.62,10.73,10.73,0,0,0-.44-1.67,24.37,24.37,0,0,0-1.3-3.22,39.86,39.86,0,0,0-2.83-5c-.15-.23-.31-.45-.48-.68l-.17-.23a1.6,1.6,0,0,0-1.21-.6,10.33,10.33,0,0,0,.66-1.14l.1-.19c-.7,0-1.31.07-2.06.07h-.62c-.56,0-1.12,0-1.67-.09a4.74,4.74,0,0,0-.23.44h0a1.1,1.1,0,0,0-.52.14c-.2.09-.4.18-.6.25l-.1,0c-.15,0-.3.05-.46.06a4.63,4.63,0,0,1-1-.13c-.58-.15-1.14-.33-1.85-.58a22.23,22.23,0,0,1-2.32-1,10.76,10.76,0,0,1-1.7-1.24c-.13-.12-.24-.24-.36-.37l-.08-.09a24.92,24.92,0,0,1-3.09-1.79l-.05.12c0,.17,0,.23,0,.29h0a.42.42,0,0,0-.14.08,1.69,1.69,0,0,0-.51.79l-.34.17a11.25,11.25,0,0,1-1.82.24h-1.52a10.94,10.94,0,0,1-1.81-.2,1.51,1.51,0,0,0-.13-.22c-.34-.52-.68-1.07-1-1.67l-.22,0h-.47c-.92,0-1.71,0-2.44-.1l-1.07-.11Z"/><polygon class="cls-5" points="263.29 985.29 263.28 985.29 263.29 985.29 263.29 985.29 263.29 985.29 263.29 985.29"/><path class="cls-6" d="M224.46,1012.89l-.27.15,0,0,0,0h0a10.43,10.43,0,0,1-1.33.57l-.68.2-.48.14a5.52,5.52,0,0,1-.89.15h-.43l-.78,0a2.63,2.63,0,0,1-.49,0,2.11,2.11,0,0,0-.35-.05h-.37l-.3,0a6.07,6.07,0,0,1-.59-.24l-.51-.19a3,3,0,0,1-.49-.2l-.21-.1-.25-.11a.51.51,0,0,0-.59.15.49.49,0,0,0,.09.69,1.79,1.79,0,0,0,.39.2l.28.15c.11,0,.22.07.33.12l.33.11.37.16.45.17a1.44,1.44,0,0,0,.5.1h.42c.19,0,.37.07.56.08a5.41,5.41,0,0,0,.9,0,7.6,7.6,0,0,0,1.06-.1c.21,0,.43-.11.65-.17l.42-.15.39-.16a7.88,7.88,0,0,0,1.07-.47c.31-.19.63-.36.94-.54l.08,0a.31.31,0,0,0,.17-.39.32.32,0,0,0-.29-.2l-.1,0Zm.18.59,0,0,0,0Zm0,0,0,0,0,0Zm-2.83.44h0Zm-.06,0,0,0,0,0Zm-3.31.08h0Zm1.22.12h0Zm4.58-1.11Z"/><path class="cls-6" d="M243.62,1008.15a.74.74,0,0,0-.21.31l0,.1a.25.25,0,0,0-.18.15c-.21.48-.41.95-.62,1.41s-.43.89-.65,1.33-.43.84-.64,1.26c-.11.23-.22.46-.34.69a3,3,0,0,0-.2.49.3.3,0,0,0,.11.28l0,0-.19.45c-.12.27-.26.52-.4.78a.76.76,0,0,0-.12.63.44.44,0,0,0,.56.25.27.27,0,0,0,.1-.06h0l0,0a.33.33,0,0,0,.14-.12c.14-.2.25-.43.37-.64s.3-.61.44-.92.27-.63.42-.95.31-.67.45-1,.29-.65.42-1,.27-.7.41-1.06c.06-.18.11-.38.18-.57l.22-.55.12-.33a2.44,2.44,0,0,1,.1-.24l.06-.13a.68.68,0,0,0,.07-.2.5.5,0,0,0,0-.21.43.43,0,0,0-.13-.17.4.4,0,0,0-.24-.09.5.5,0,0,0-.26.08Zm-2.64,5.39,0,0h0l0,0Z"/><path class="cls-6" d="M240.42,1015.63a1.21,1.21,0,0,1,0,.18c0,.09-.07.17-.11.26a2.93,2.93,0,0,1-.39.48l.07-.07c-.14.13-.27.28-.4.42l-.43.37c-.16.11-.33.2-.49.3l.11-.07a6.65,6.65,0,0,1-.66.32,9.29,9.29,0,0,1-.87.35,7,7,0,0,1-.8.14.47.47,0,0,0-.41.39.47.47,0,0,0,.08.35.46.46,0,0,0,.31.18,2.9,2.9,0,0,0,.51,0l.43-.08c.11,0,.23,0,.34-.09l.34-.15.37-.17.28-.13c.18-.09.35-.19.52-.29l.32-.21a2.62,2.62,0,0,0,.25-.22c.18-.18.34-.37.5-.55a3.81,3.81,0,0,0,.29-.41c.09-.13.17-.26.26-.38a2.3,2.3,0,0,0,.2-.42l.06-.22a.36.36,0,0,0,0-.25.37.37,0,0,0-.19-.2l-.13,0a.34.34,0,0,0-.32.2Z"/></g><g id="Draw_Layer-4" data-name="Draw Layer"><path class="cls-3" d="M247.12,655.72l-.2.13.57.24,1.12.48,3,1.29,4.09-1.84-.68-.28-1.93-.81-1.86-.77-4.07,1.56Z"/><path class="cls-3" d="M231,945.32a.18.18,0,0,0-.08.15.2.2,0,0,0,.06.18.16.16,0,0,0,.14.07.31.31,0,0,0,.17-.05.22.22,0,0,0,.08-.15.26.26,0,0,0-.06-.19.16.16,0,0,0-.14-.06.22.22,0,0,0-.17.05Z"/><path class="cls-7" d="M231,945.32a.18.18,0,0,0-.08.15.2.2,0,0,0,.06.18.16.16,0,0,0,.14.07.31.31,0,0,0,.17-.05.22.22,0,0,0,.08-.15.26.26,0,0,0-.06-.19.16.16,0,0,0-.14-.06.22.22,0,0,0-.17.05Z"/><path class="cls-6" d="M281.43,876.37l-1.19.24-1.42.28c.13,1.37.29,2.71.48,4.12a7,7,0,0,0-1.63.64l-1.36.67-.43.21-.22.11c-1,.49-2,1-3,1.46s-2.19,1-3.29,1.4l-.54.2c-.45.16-.81.29-1.19.41l-1,.3-1,.31-1.2.3-1,.23-.64.11-.29,0-.86.16-.85.15c-.58.1-1.16.17-1.75.23l-.68.07q-1.08.13-2.16.21l-.71.06c-.56.05-1.11.1-1.67.12l-1.58.07-1.59.07c-1.47.07-3,.09-4.47.1-5.71.07-12.13.1-20.81.1-3.37-.1-6.74-.2-10.12-.34l-1.29-.07-.33,0-.64,0-.45,0-.44,0c-.5,0-1,0-1.51-.09l-.91-.08c-2.07-.17-4.41-.37-6.71-.78-1.05-.18-2.11-.43-3.17-.72s-2.14-.69-3.12-1.05c.22-.46.41-.95.59-1.45h-1.8l-1.18,0-1.16,0-.64,1.39a46.7,46.7,0,0,1-2.27,4.15,61.62,61.62,0,0,1-3.91,5.51l-1.18,1.49L185,897l-.22.26-.41.5c-.79,1-2,2.44-3.24,3.87a1.78,1.78,0,0,0-.39,1.54l-.7-.3-.4-.14c-.18,1.27-.33,2.52-.48,3.78.39.13.74.24,1.1.34l.13,0,.08-.08.49-.54.29-.3.36-.36a2.29,2.29,0,0,1,.23-.21.1.1,0,0,1,.06-.05c.19-.26.37-.53.58-.78s.57-.7.87-1l.75-.89a.3.3,0,0,1,.17-.1.23.23,0,0,1,.18,0,.25.25,0,0,1,.06.35l-.13.15.3-.27c.07-.07.16-.13.23-.19l.13-.11a1.53,1.53,0,0,1,.25-.16.7.7,0,0,1,.14,0h0a.21.21,0,0,1,.13,0l0,0c.61-.69,1.22-1.41,1.82-2.15l.34-.41.13-.17-.13,1.28-.07,1.27,0,.53c0,.48-.06,1-.07,1.44v1.1l0,2c0,1.17,0,2.35.07,3.38,0,.54,0,1,0,1.45,0,1.23.12,2.53.21,3.74l.07,1.14c.18,2.67.44,5.29.73,8.19l.05.53c.3,2.9.64,6,1.07,9.64.13,1.16.3,2.31.47,3.45l.13.94.11.77c.16,1.13.33,2.26.5,3.39l.08.55c.44,2.86.91,5.76,1.37,8.53l.19,1.18.05.32c.18,1.09.38,2.07.59,3.05l.22,1.14.15.76c.2,1,.41,2.07.69,3.15l.28,1.08,1.13,4.44c.05.22.12.45.19.67l0,.1,0,.12.16.54,1,3.26.18.62a15.71,15.71,0,0,0,.47,1.54c.22.63.44,1.26.67,1.89l.31.9.16.45c.36,1,.69,2,1.06,2.92,1.5,3.86,2.71,6.89,3.8,9.55.5,1.21,1,2.43,1.52,3.64l.58,1.38c.43,1,.87,2,1.33,3.07.73,1.64,1.46,3.25,2.18,4.86.16.36.35.72.53,1.07l.09.16.14.25.07.15.15.27.17.34.17.33c.2.42.41.85.65,1.25l.49.84.85,1.44c.29.5.61,1,.93,1.48l.38.58,0-.18a16,16,0,0,0,1.33,2.06c.18.13.36.25.52.38,1.11.26,2.2.54,3.28.89h.09l.42,0,1.43-.25.58-.15.24-.06.25-.13.59-.33.09-.08h0l.25-.24.25-.22a.35.35,0,0,1,.22-.08.23.23,0,0,1,.11,0,.29.29,0,0,1,.13.14h0a.52.52,0,0,1,.21,0,.35.35,0,0,1,.14.06l0,0h0a.3.3,0,0,1,.17.1c.26.31.51.62.76.94a1.71,1.71,0,0,1,.11.14c.1.09.21.19.31.3a1.37,1.37,0,0,1,.17.17l0-.06.11.15.17.19.15.16.16.15a13.68,13.68,0,0,0,4.13,2.44l.42.16c.67.27,1.34.53,2,.74a7.62,7.62,0,0,0,2.27.37h.23a6.62,6.62,0,0,0,2.32-.59,2,2,0,0,0,.64-.48h0a1.64,1.64,0,0,0,.5-.08.08.08,0,0,0,0,.05c.34-.41.7-.81,1-1.22l.75-.91h-.14c.69-1.19,1.32-2.44,1.9-3.6s1.18-2.27,1.78-3.4l.16-.31.68-1.17.15-.26.14-.24c.46-.79.92-1.58,1.36-2.38l.82-1.47.8-1.43c.32-.57.61-1.16.9-1.74l.18-.38,1.23-2.53c.26-.51.48-1,.67-1.5l.05-.14.31-.75c.71-1.65,1.45-3.29,2.19-4.93.49-1.09,1-2.16,1.54-3.23l.5-1c.26-.53.51-1.07.76-1.6l.48-1c.29-.62.54-1.24.8-1.88l.14-.36.52-1.27.13-.33c.1-.23.16-.38.21-.53l.45-1.33.45-1.35c.47-1.41.93-2.83,1.38-4.24l.07-.22.2-.61c.36-1.16.72-2.31,1.07-3.47l.17-.56.28-.93c.33-1.07.62-2.17.9-3.24l.05-.17c.13-.51.27-1,.4-1.52.31-1.13.66-2.26,1-3.39.17-.54.33-1.08.49-1.61.33-1.12.71-2.23,1.08-3.35l.14-.43.37-1.08c.32-1,.62-2.05.88-2.94l.1-.4.46-1.59c.29-1,.53-1.93.78-2.86l.07-.28.1-.37.41-1.58.93-3.41.41-1.49c.34-1.27.67-2.56,1-3.84l.28-1.12c.41-1.62.78-3.25,1.16-4.88l.36-1.6.52-2.1.75-3.05c.28-1.16.54-2.32.79-3.48l.42-1.89c.1-.46.18-.91.25-1.35l.13-.76.26-1.49.27-1.51c.18-1,.34-2,.5-3l.08-.49.23-1.39c.26-1.63.47-3.36.64-4.75l0-.26,0-.18c.18-1.39.37-3,.62-4.54l0-.28.47-2.89c.07-.51.17-1,.27-1.52l.18-.93c.22-1.16.42-2.31.62-3.47l.23-1.35.05-.24.05-.27a1,1,0,0,0-.15-.72,1.64,1.64,0,0,0-.09-1,1.49,1.49,0,0,0,.29-1c-.12-1.49-.25-3-.38-4.49l0-.14,0,0Zm-50.85,15.34.68,0v.06l-.68-.09Zm.42,53.94a.25.25,0,0,1-.06-.18.22.22,0,0,1,.08-.15.26.26,0,0,1,.18-.06.23.23,0,0,1,.14.07.25.25,0,0,1,.06.18.22.22,0,0,1-.08.15.25.25,0,0,1-.17.06.19.19,0,0,1-.15-.07Z"/><path class="cls-6" d="M211.06,1005.31a.47.47,0,0,0-.19.62l.34.64a.64.64,0,0,0-.07.47.35.35,0,0,0,.06.14h0c.15.35.34.68.51,1l.46.9c.15.29.32.58.48.87s.32.59.49.87.39.64.6.95.48.66.73,1l.58.76a2,2,0,0,0,.84.73.68.68,0,0,0,.86-.8,1.82,1.82,0,0,0-.33-.67c-.17-.25-.33-.49-.51-.73l-.81-1.07-.09-.14a11.09,11.09,0,0,1-.67-1.15c-.2-.43-.41-.84-.64-1.25a.56.56,0,0,0-.4-.27l-.32-.53a9.37,9.37,0,0,0-.78-1.19v0c-.16-.32-.32-.64-.49-1a.47.47,0,0,0-.41-.24.42.42,0,0,0-.22,0Z"/></g><g id="Draw_Layer-5" data-name="Draw Layer"><path class="cls-8" d="M229.53,915.17c-.4,2.25-.89,4.48-1.25,6.73s-.68,4.56-1,6.84l0-.24-.78,5.23c-.26,1.73-.49,3.48-.61,5.23s-.21,3.67-.33,5.51-.25,3.72-.36,5.57c-.2,3.5-.58,7-.89,10.47-.14,1.68-.38,3.34-.54,5s-.34,3.61-.43,5.43-.14,3.63-.17,5.45,0,3.57-.08,5.35-.15,3.25-.2,4.87c-.07,1.84-.11,3.68-.17,5.51-.05,1.54-.11,3.09-.07,4.63s.13,3.3.18,5,.1,3.39.18,5.09c0,.81.1,1.62.17,2.43s.16,1.75.31,2.62c0,0,0,0,0,0a40.2,40.2,0,0,1,.3-4.52c.14-1.38.33-2.75.49-4.13.34-2.87.58-5.76.9-8.64l.24-1.78v0l0,.17,0-.14c0,.06,0,.12,0,.17v.06c.5-3.68.91-7.37,1.18-11.07.11-1.63.15-3.25.21-4.88s.16-3.52.27-5.28.25-3.68.42-5.52.37-3.37.49-5.06c.27-3.61.48-7.22.59-10.83,0-1.7.09-3.4.11-5.1s0-3.69,0-5.53c0-.91,0-1.82,0-2.73s.05-1.82.09-2.74c.08-1.78.21-3.55.29-5.34.1-2.17.1-4.35.18-6.52.08-2.44.24-4.87.26-7.31,0,0,0,0,0,0Zm-4.29,79.6,0,.13,0-.13Zm.25-1.91v-.14l0,.14Z"/><path class="cls-8" d="M281.59,879.86c-.21,1.13-.49,2.24-.72,3.35s-.43,2.17-.62,3.25-.44,2.35-.7,3.52-.54,2.13-.78,3.21l-.39,1.77c-.11.54-.25,1.08-.32,1.63-.15,1.19-.24,2.38-.32,3.58s-.2,2.16-.29,3.24-.23,2.26-.33,3.39-.2,2.22-.35,3.33-.31,2.2-.52,3.29-.42,2.14-.65,3.21-.38,2-.59,3l-.63,3.14c-.21,1.1-.37,2.21-.5,3.33,0,0,0,0,0,0,.09-.57.19-1.15.33-1.72s.32-1.29.49-1.93c.3-1.1.61-2.2.93-3.29s.62-2.14.95-3.21.68-2.15,1-3.24.63-2.21.86-3.33.39-2.25.6-3.37.38-2.21.57-3.32.39-2.17.52-3.27.21-2.18.38-3.26.29-2.22.47-3.33.38-2.43.47-3.66.12-2.37.14-3.55c0-.94,0-1.88,0-2.82s0-2,0-3h0Z"/><path class="cls-8" d="M193,954.4a8.66,8.66,0,0,0,.11,1.61c.1.56.18,1.11.25,1.67s.19,1.13.29,1.71.17,1.22.24,1.84c.13,1.16.36,2.32.56,3.47s.45,2.27.68,3.4.46,2.32.71,3.48.49,2.26.81,3.37.63,2.28.95,3.41c.07.27.16.54.24.8l.13.43c0,.17.09.33.15.49l0,.07h0v.07l.09.28v0l0,.07v0h0c.19.66.37,1.32.58,2s.39,1.17.59,1.75.33,1,.52,1.55.45,1.08.69,1.62.42,1,.63,1.52.47,1,.72,1.48.42.94.64,1.4.44.86.64,1.3c.34.72.77,1.39,1.13,2.11.19.38.38.76.58,1.14s.46.75.69,1.12c.41.7.74,1.43,1.13,2.14s.63,1.11,1,1.65h0v0l.07.09,0,0,.1.16c.4.65.76,1.33,1.1,2a6.25,6.25,0,0,0,.49.77c.16.24.32.47.47.71l.06.1a17.67,17.67,0,0,0,1.07,2c.21.27.44.53.67.79a14.45,14.45,0,0,1,.88,1.18s0,0,0,0l-.09-.14h0c-.18-.29-.34-.59-.52-.89s-.29-.41-.42-.62-.21-.32-.32-.47a9.71,9.71,0,0,1-.64-1.65c-.22-.61-.58-1.15-.84-1.74-.13-.28-.21-.58-.32-.86-.17-.46-.35-.91-.55-1.35-.34-.75-.73-1.46-1-2.22s-.48-1.39-.74-2.08-.6-1.31-.83-2c-.11-.37-.23-.73-.36-1.09s-.27-.67-.4-1-.21-.64-.31-1-.22-.61-.31-.91c-.16-.54-.31-1.09-.48-1.63s-.39-1.12-.59-1.67-.35-1.07-.53-1.6-.41-1.12-.6-1.69-.24-.89-.37-1.34c-.19-.7-.41-1.4-.64-2.1s-.42-1.32-.62-2a1.18,1.18,0,0,0-.07-.2c-.12-.39-.25-.78-.38-1.17-.18-.54-.38-1.08-.56-1.62s-.35-1.14-.56-1.7-.4-1-.58-1.51l-.62-1.8c-.27-.76-.57-1.52-.84-2.29s-.55-1.64-.87-2.44-.62-1.64-.91-2.46-.59-1.58-.85-2.38c-.18-.61-.33-1.22-.52-1.82s-.4-1.16-.58-1.75-.33-1.34-.53-2h0a9.11,9.11,0,0,1-.28-1.56h0Zm1.95,7.18v0Zm13,40,0,.06,0-.06Zm3.41,5.4h0Zm-3.51-5.56-.05-.07h0l.05.08Zm-9.56-20.83h0l0-.06,0,.07Z"/><path class="cls-6" d="M230.58,943.09h0a.91.91,0,0,0-.32.45,2.64,2.64,0,0,0-.11.56c0,.26,0,.52,0,.78s0,.71,0,1.06,0,.51,0,.77v.19s0-.08,0-.11c0,.14,0,.29,0,.44a3.94,3.94,0,0,0,0,.84,1.15,1.15,0,0,0,.89.94,1,1,0,0,0,1.27-.25.46.46,0,0,0,.75-.18,3.18,3.18,0,0,0,.15-.68c0-.17,0-.33,0-.5h0c.28-1,.57-2.09.84-3.14,0,.13,0,.26,0,.39,0,.41,0,.83,0,1.25s0,.8,0,1.2a5.49,5.49,0,0,0,.18,1.9.08.08,0,0,0,.14,0,4.08,4.08,0,0,0,.14-.85c0-.34.05-.68.07-1,.05-.78.06-1.57.08-2.35,0,0,0,0,0,0,0,.72-.06,1.44-.13,2.16a13.49,13.49,0,0,1-.21,1.78,4.48,4.48,0,0,1-.06-.63c0-.82,0-1.65.06-2.47,0-.34,0-.69.07-1s0-.48.05-.72a5.43,5.43,0,0,0,0-.9.16.16,0,0,0-.3,0c-.28.81-.53,1.63-.78,2.45,0-.08,0-.17,0-.25a3.87,3.87,0,0,0,0-1.27.73.73,0,0,0-.42-.54.87.87,0,0,0-.22-.05,1,1,0,0,0-.7-.6.81.81,0,0,0-.58-.35h-.11a.86.86,0,0,0-.85.75Zm-.42,1.56v0Zm0,1.06v0Zm0,1.54v0Zm3.14.18a.09.09,0,0,0,0,.05v-.05Zm-3.15-.63v0Z"/><path class="cls-8" d="M249.14,1000.1c-.2.35-.33.73-.53,1.07l0,0c-.27.45-.54.88-.79,1.33-.13.22-.27.42-.41.63s-.39.62-.61.91a9.24,9.24,0,0,0-.86,1.19,4.52,4.52,0,0,0-.23.5c-.12.28-.26.55-.4.82s-.17.27-.26.41h0l-.05.08,0,0h0c-.17.29-.35.59-.51.89s-.48.81-.68,1.23c-.33.67-.64,1.36-.91,2.05-.38,1-.7,2-1.16,3-.21.43-.41.86-.59,1.31a11.5,11.5,0,0,1-.54,1.18s0,0,0,0c.18-.23.35-.47.51-.71s.38-.65.59-1,.47-.61.67-.94.42-.73.63-1.09c.38-.66.69-1.35,1.07-2,.25-.44.43-.9.66-1.33.17-.25.35-.49.5-.75.28-.47.49-1,.75-1.45a8.24,8.24,0,0,0,.59-1.19c.12-.3.24-.6.39-.89a11.41,11.41,0,0,0,.89-1.74c.13-.32.31-.61.43-.93s.2-.55.3-.83l.22-.6c.12-.34.18-.69.28-1h0l0-.14h0Zm-2.14,5.3-.06.09.06-.09Zm-2,1.63,0,0,0-.07-.06.1Z"/><path class="cls-8" d="M213.87,1011.42v0s0,0,0,0v0h0v0Z"/><path class="cls-6" d="M210,1000.83a.74.74,0,0,0-.45.32.73.73,0,0,0-.09.56c.22.62.49,1.21.73,1.82l.39,1c.11.3.25.59.38.88a16.22,16.22,0,0,0,.76,1.5,3.72,3.72,0,0,0,.19.34l.27.39a2.82,2.82,0,0,0,.75.79.6.6,0,0,0,.72-.06.62.62,0,0,0,.13-.68,9.2,9.2,0,0,0-.71-1.4c-.27-.5-.53-1-.76-1.51l-.42-.93c-.13-.28-.24-.58-.35-.87s-.32-.74-.47-1.12v0a1.42,1.42,0,0,0-.31-.72.66.66,0,0,0-.19-.18.72.72,0,0,0-.4-.12l-.16,0Zm.95.65v0Z"/><path class="cls-6" d="M207.27,995.34a4.43,4.43,0,0,0,.06.51l0,.38c0,.25.07.5.11.75.07.44.18.88.28,1.32s.26,1.08.4,1.63c.05.19.12.38.17.57s.18.61.3.91.31.85.5,1.26.44.94.68,1.4c.12.23.25.46.38.69l.06.15c.37.94.83,1.85,1.28,2.76a12.06,12.06,0,0,0,.79,1.34c.16.26.35.5.53.75l.23.27a1.1,1.1,0,0,0,.82.43.85.85,0,0,0,.77-1.24c-.23-.38-.47-.76-.71-1.14a7.06,7.06,0,0,0-.68-1.27l-.15-.26-.21-.46,0-.13a.81.81,0,0,0,0-.16h0a1.88,1.88,0,0,0-.24-.89l-.32-.61c-.15-.29-.31-.57-.47-.85-.33-.87-.65-1.74-.94-2.62a.89.89,0,0,0-.37-.52l-.08,0c-.16-.49-.31-1-.47-1.49-.07-.28-.15-.56-.22-.84s-.12-.59-.17-.88a1.11,1.11,0,0,0,0-.17l0-.08c0-.18,0-.36-.07-.54s-.06-.48-.09-.71l-.06-.26a1.17,1.17,0,0,0-.45-.64.71.71,0,0,0-.31-.13.77.77,0,0,0-.34-.08h0a1,1,0,0,0-.95.9Z"/><path class="cls-6" d="M225,1013.13a6.45,6.45,0,0,0,1,1.47,8.13,8.13,0,0,0,1.46,1.35,6.21,6.21,0,0,0,2.72,1.08s0,0,0,0c-.32-.12-.64-.25-1-.39a7.84,7.84,0,0,1-.85-.49,9.68,9.68,0,0,1-.95-.74h0c-.46-.38-.9-.77-1.34-1.18a8.88,8.88,0,0,1-1.1-1.11h0l0,0Z"/><path class="cls-8" d="M224,1013.14a6.12,6.12,0,0,0,.68,1.08c.25.35.56.66.83,1l0,0a4.09,4.09,0,0,0,.66.72c.11.09.2.2.31.3l.34.3a6,6,0,0,0,1.3.74h0l.34.17a2.85,2.85,0,0,0,.31.12h0l.11.05h0a2.09,2.09,0,0,0,.35.13s0,0,0,0l-.09,0h0l-.38-.23a2.33,2.33,0,0,1-.26-.17v0l-.17-.14h0l0,0h0a3.15,3.15,0,0,1-.29-.22h0a4,4,0,0,0-.31-.27l0,0-.13-.11c-.17-.13-.33-.29-.5-.42l0,0c-.16-.13-.3-.29-.46-.42l-.22-.21a2.43,2.43,0,0,0-.28-.2c-.21-.18-.41-.39-.6-.58s-.41-.4-.63-.57l0,0a4.26,4.26,0,0,1-.42-.43,4.55,4.55,0,0,1-.35-.4h0l-.18-.26h0s0,0,0,0Zm.19.24Zm3.82,3.54h0Zm.25.2h0Zm.45.42h0Zm-.64-.29h0Zm.25-.09h0Zm-.63-.51h0Z"/><path class="cls-8" d="M215.52,1014.07q.31.15.63.33c.22.12.46.21.69.31h0a7.53,7.53,0,0,0,1,.37,6.77,6.77,0,0,0,1.09.21h0a3.48,3.48,0,0,0,.79,0h0a7.37,7.37,0,0,0,.82-.13,2.85,2.85,0,0,0,.39-.11c.15,0,.31-.07.46-.12s0,0,0,0l-.13,0h-.38l-.17,0h0a3.47,3.47,0,0,1-.72,0l-.68-.06h0l-.65-.1.06,0c-.26,0-.52-.11-.79-.14h.06c-.41-.07-.82-.17-1.23-.26s-.77-.27-1.18-.36h0s0,0,0,0Zm4.17,1.23h0Zm-.4-.41Z"/><path class="cls-6" d="M247.6,1000.46a3.07,3.07,0,0,0-.31.72l-.29.81-.16.39a.29.29,0,0,0-.13,0,.47.47,0,0,0-.26.22,2.44,2.44,0,0,0-.1.24l0-.1c0,.13-.11.26-.16.38a1,1,0,0,0,0-.1c-.06.15-.13.29-.19.43l-.18.49c-.1.28-.22.57-.33.84v0c-.14.32-.27.65-.42,1,0,.08-.07.16-.11.23a.23.23,0,0,0-.07-.14.08.08,0,0,0,0,0l.36-.73a.24.24,0,0,0-.09-.34.26.26,0,0,0-.34.09c-.16.31-.3.63-.46.94l-.53,1-1.11,2c-.18.34-.36.67-.53,1s-.33.65-.49,1c-.24.49-.45,1-.66,1.48a8,8,0,0,0-.34.8.25.25,0,0,0,.45.2c.07-.14.13-.29.19-.43a1.67,1.67,0,0,1,.08-.2c.1-.21.19-.42.3-.62l.11-.21-.06.17c0,.15-.1.31-.14.46s-.19.55-.29.84a.88.88,0,0,1,0,.15l-.15.25a2.1,2.1,0,0,0-.24.41.68.68,0,0,0-.08.44.3.3,0,0,0,.29.22.32.32,0,0,0,.24-.11,1.14,1.14,0,0,0,.15-.23,1.64,1.64,0,0,1,.14-.22.35.35,0,0,0,.1-.11.54.54,0,0,0,.05-.11h0c.13-.19.26-.39.38-.59s.27-.42.39-.64l.35-.64.33-.69.33-.63.3-.66.28-.63c.11-.24.24-.48.35-.71s.13-.28.19-.41l.49-.8.36-.59c.14-.24.25-.47.37-.7.23-.44.47-.88.69-1.33l.3-.57.32-.69c.11-.23.2-.48.3-.71h0l.16-.36c.08-.22.17-.43.24-.65s.14-.42.2-.63.09-.37.14-.55a.38.38,0,0,0-.17-.43.34.34,0,0,0-.19-.05.42.42,0,0,0-.34.19Zm-1.82,4.14Z"/><path class="cls-6" d="M247.82,1000.72l-.25.68,0,.05a.32.32,0,0,0-.15.17c0,.14-.1.29-.15.44l-.15.37h0l-.21.46c-.09.18-.19.35-.28.52l-.22.41-.11.18a.35.35,0,0,0,0,.2.33.33,0,0,0,.11.15h0a.25.25,0,0,0,.19,0,.24.24,0,0,0,.15-.11,3.7,3.7,0,0,0,.21-.33l.17-.31c.15-.3.3-.59.44-.89a19.18,19.18,0,0,0,.75-1.87.25.25,0,0,0-.17-.31h-.07a.26.26,0,0,0-.24.18Z"/><path class="cls-8" d="M247.89,1002.59a.25.25,0,0,0-.13.14c-.09.18-.18.35-.25.53s-.09.25-.14.37l-.09.19-.05.1a1.21,1.21,0,0,1-.09.2c-.1.23-.2.47-.32.69s-.23.37-.35.56-.2.37-.3.55h0l0,.08,0-.06c-.08.14-.15.28-.22.42s-.1.24-.16.36-.23.38-.33.58l-.29.6a2.55,2.55,0,0,0-.13.29,1.42,1.42,0,0,0-.08.18,3.78,3.78,0,0,1-.17.35c-.11.22-.21.45-.33.68a1.62,1.62,0,0,1-.1.18l-.12.21.05-.08c-.16.3-.31.6-.46.9-.06.13-.13.26-.18.4s-.13.28-.2.41a2.59,2.59,0,0,1-.19.31l-.19.32c-.14.24-.29.48-.42.73h0l0,.05h0c-.05.09-.11.17-.17.26s-.16.27-.23.41a.25.25,0,0,0,0,.19.25.25,0,0,0,.14.13.27.27,0,0,0,.2,0c.06,0,.09-.08.13-.14s0,0,0,0l0,.06.22-.35.1-.17a1,1,0,0,0,.1-.17v0l0,0h0l.47-.79c.08-.13.15-.26.24-.38l.27-.43.27-.42.29-.49.25-.41c.1-.17.2-.34.29-.51l0,.06.17-.33a6.24,6.24,0,0,0,.35-.68,4.39,4.39,0,0,1,.21-.44c.06-.14.13-.28.2-.41l.2-.42c.07-.12.14-.25.2-.38s.12-.31.19-.47.15-.31.23-.46.15-.35.24-.52a1.15,1.15,0,0,1,.12-.25,1.89,1.89,0,0,0,.09-.21,1.57,1.57,0,0,0,.09-.23c.11-.27.21-.53.31-.8l.1-.22.08-.21c.08-.22.19-.44.29-.65a.21.21,0,0,0,0-.19.25.25,0,0,0-.14-.13l-.08,0-.11,0Zm-1.61,4.72a.56.56,0,0,1-.05.08l.05-.08Zm-1,2,0,0,0,0Zm-2.21,3.67h0v0Zm-.48-.15,0,0h0l0,.05Zm3.55-6.89v0h0v0Z"/><path class="cls-8" d="M281.41,880.82v.06a.11.11,0,0,0-.08,0,.52.52,0,0,0-.11.1.41.41,0,0,0,0,.19,2.06,2.06,0,0,0,0,.36c0,.27,0,.54,0,.81s0,.58,0,.86-.05.56-.08.84-.11.75-.16,1.13c0,.22-.07.44-.09.66a5.42,5.42,0,0,0-.06.58,1.28,1.28,0,0,0,0,.19.48.48,0,0,0,.07.2.26.26,0,0,0,.21.12.24.24,0,0,0,.12,0,.23.23,0,0,0,.11,0h0c0,.24,0,.48-.05.72s-.05.69-.09,1l-.18,1.17c-.08.42-.15.84-.23,1.26l-.21,1.24c-.08.53-.17,1.06-.26,1.59a.26.26,0,0,0,0,.19.24.24,0,0,0,.15.11.25.25,0,0,0,.19,0,.3.3,0,0,0,.12-.15c.19-1.18.38-2.36.59-3.54.1-.51.18-1,.25-1.54s.12-1,.16-1.51.07-1.06.1-1.59c0-.24,0-.48.05-.72l0-.59c0-.21.05-.42.07-.64,0-.41.06-.82.08-1.23l0-.66v-.34a3.49,3.49,0,0,0,0-.46v-.1a.75.75,0,0,0,0-.16.28.28,0,0,0-.11-.15v0a.26.26,0,0,0-.51,0Zm-.6,5.56h0v0Z"/><path class="cls-8" d="M280.8,881.34l-.12.56c0,.16-.05.32-.07.48a3.91,3.91,0,0,0-.05.48c0,.19,0,.37-.05.56l-.06,1.07c0,.33-.06.65-.1,1h0c-.08.5-.17,1-.26,1.51,0,.24-.09.48-.13.72s-.11.53-.15.8c-.09.52-.16,1-.21,1.55s-.11,1-.18,1.5-.13,1.14-.21,1.7-.13,1.07-.18,1.61c0,.2,0,.41-.07.62s0,.58-.07.86l0,.47c0,.1,0,.21,0,.31,0,.31,0,.62,0,.94s0,.34,0,.51a.25.25,0,0,0,.5,0c0-.28,0-.57,0-.85s0-.41,0-.62,0-.43.05-.65,0-.35.05-.52l.12-1.26c.06-.45.11-.89.17-1.33.1-.8.2-1.6.28-2.4,0-.37.07-.75.11-1.13l.15-1.27v0c.08-.51.18-1,.26-1.54l.12-.65c.05-.28.11-.57.14-.85s.07-.52.1-.78,0-.49,0-.73,0-.51,0-.76.05-.53.08-.8c0,0,0,0,0,.07a3.85,3.85,0,0,1,.08-.49,5.59,5.59,0,0,1,.12-.56.27.27,0,0,0-.18-.31h-.06a.26.26,0,0,0-.25.18Zm-.49,7.25v0Z"/><path class="cls-8" d="M280.16,881.65c0,.73-.06,1.45-.14,2.17s-.15,1.43-.23,2.15v0c-.14,1-.29,2-.41,3s-.24,2.09-.32,3.14c-.05.49-.07,1-.1,1.47s-.06,1.08-.09,1.62-.08,1.05-.11,1.58-.07,1-.09,1.58,0,.83,0,1.25a.35.35,0,0,0,.34.35.35.35,0,0,0,.35-.35c.06-1.07.12-2.14.21-3.21,0-.54.08-1.07.11-1.61s.05-1.14.08-1.7.05-1,.08-1.47.08-1.07.13-1.6c.07-1,.14-2,.25-3,0-.46.11-.92.15-1.38s.07-.89.11-1.33l.12-1.3c0-.45,0-.9.06-1.35a.26.26,0,0,0-.25-.25.25.25,0,0,0-.25.25Zm-.37,4.28v0Z"/><path class="cls-8" d="M279.13,883.38c.05.55.06,1.1.07,1.66s0,1.05,0,1.57c0,1.06-.12,2.12-.2,3.18,0,.47-.08,1-.11,1.43s-.08,1.11-.11,1.66l0,.77c0,.28,0,.56,0,.84,0,.53,0,1.07-.05,1.61s0,.95-.06,1.42-.06.92-.07,1.39c0,.24,0,.48,0,.73v.83c0,.52,0,1,0,1.54a.26.26,0,1,0,.51,0q0-.84.06-1.68c0-.58,0-1.16.05-1.74,0-.27,0-.54.05-.82s0-.49,0-.73c0-.52.05-1,.07-1.56,0-.27,0-.55,0-.82s0-.55,0-.82c0-.52.06-1,.08-1.56s.05-1.11.09-1.67l.09-1.55c0-.46.05-.93.08-1.39s0-1,.06-1.5,0-.87,0-1.31,0-1-.07-1.48a.25.25,0,0,0-.5,0Z"/><path class="cls-8" d="M280.1,883a.26.26,0,0,0-.31.19v.07h0l0,.21a.25.25,0,0,0-.13.21l-.06,1.13c0,.23,0,.46,0,.69,0,.56-.1,1.13-.16,1.69s-.13,1.17-.19,1.75l-.09.89c0,.16,0,.33,0,.5s0,.09,0,.14l0,.29a.88.88,0,0,0,0,.28.26.26,0,0,0,.19.25h0l-.09,1.34a.27.27,0,0,0,.53,0c.05-.78.09-1.55.15-2.32l.06-.9a.5.5,0,0,0,0-.13c0-.15,0-.3.05-.46s.07-.61.11-.92.11-.87.17-1.3.08-.76.13-1.14.05-.48.08-.73,0-.4.05-.59,0-.26,0-.39a5.23,5.23,0,0,0,0-.56.26.26,0,0,0-.19-.25h-.06a.28.28,0,0,0-.16,0Z"/><path class="cls-8" d="M279.09,883.07a3.85,3.85,0,0,0-.08.49l-.09,0a.25.25,0,0,0-.24.19.65.65,0,0,0-.06.24c0,.13,0,.26,0,.38s0,.29,0,.43,0,.55-.05.83,0,.51,0,.76v.91c0,.48,0,1,0,1.44,0,.22,0,.44,0,.66v.12c0,.19,0,.39-.05.59l-.06,1c0,.21,0,.44,0,.66,0,.62-.05,1.25-.07,1.88,0,.17,0,.33,0,.5h0c0,.17,0,.33,0,.5,0,.53,0,1.07,0,1.6,0,.21,0,.42,0,.63s0,.53,0,.8,0,.7,0,1.05c0,.17,0,.34,0,.5a2.18,2.18,0,0,0,0,.25,1.1,1.1,0,0,0,0,.31.24.24,0,0,0,.06.11l0,0a.25.25,0,0,0,.19.09.26.26,0,0,0,.25-.18,6.63,6.63,0,0,0,.11-.76c0-.13,0-.27,0-.4s0-.31,0-.46,0-.24,0-.36v-.28c0-.14,0-.29,0-.43a.24.24,0,0,0,.07-.17v-1c0-.52.07-1.05.09-1.57s0-1.13.07-1.69l0-.9c0-.27,0-.54,0-.8v-2.38c0-.33,0-.65,0-1,0-.52.06-1,.09-1.58a2.09,2.09,0,0,0,0-.25c0-.14,0-.28.05-.42s.05-.42.07-.63,0-.22,0-.33l0-.21a1.5,1.5,0,0,1,0-.2,2.54,2.54,0,0,0,0-.39.22.22,0,0,0-.07-.17.3.3,0,0,0-.17-.08c0-.06,0-.12,0-.19a.25.25,0,0,0-.18-.3h-.06a.24.24,0,0,0-.24.18Zm.58,1.09v0Z"/><path class="cls-8" d="M279.71,885.25c-.08.4-.16.8-.23,1.21a.24.24,0,0,0-.17,0l-.1.08a.41.41,0,0,0-.07.11,1,1,0,0,0-.08.29c0,.07,0,.14,0,.2v0a8.76,8.76,0,0,0-.09,1l0,.76,0,1c0,.47,0,.94,0,1.41l0,.56a.26.26,0,0,0-.11.14,8,8,0,0,0-.15,1.2l0,.75c-.05.62-.1,1.24-.14,1.87l-.06.7c0,.28,0,.57,0,.85s0,.54,0,.81,0,.35,0,.53,0,.37,0,.56a.25.25,0,0,0,.13.22.26.26,0,0,0,.37.15.29.29,0,0,0,.11-.11.77.77,0,0,0,.08-.34,2.09,2.09,0,0,0,0-.25v-.25c0-.3,0-.6.05-.91v-.19l.07,0a.33.33,0,0,0,.12-.16.2.2,0,0,0,0-.09c0-.11,0-.21,0-.32a3,3,0,0,1,0-.31l0-.5.06-1.29c0-.33,0-.66,0-1l.15-1.13h0l.15-1c0-.15.06-.3.09-.45l.12-.61a.25.25,0,0,0-.18-.31.25.25,0,0,0-.17,0c0-.14,0-.29,0-.43s.06-.45.09-.66l.15-1.13v0c0-.19.06-.39.08-.58s.06-.44.1-.65c.1-.56.2-1.13.31-1.69a.26.26,0,0,0-.18-.31H280a.24.24,0,0,0-.24.19Zm0,3.1s0,0,0-.05v.05Zm-.65-1.2v0Z"/><path class="cls-6" d="M189.22,893.82a8.63,8.63,0,0,0-.52,1.73c-.12.52-.24,1-.33,1.55s-.21,1.22-.31,1.82-.1,1-.15,1.46-.11,1-.14,1.47c0,.66-.07,1.32-.11,2,0,.43-.06.87-.07,1.31,0,.64,0,1.28,0,1.92,0,2.15,0,4.29.12,6.44,0,.59.05,1.19.08,1.78s.09,1.12.14,1.67c.09,1.15.2,2.29.32,3.44.06.55.12,1.12.22,1.67a1,1,0,0,0,1.24.82,1.06,1.06,0,0,0,.82-1.24c-.1-.68-.2-1.36-.31-2l-.15-1.38c-.13-1.24-.26-2.49-.4-3.73l-.12-1.7c0-.49,0-1-.06-1.47-.05-1.14-.08-2.27-.12-3.4s0-2.09-.08-3.14c0-.51,0-1,0-1.52,0-.67,0-1.34.05-2s.07-1.46.11-2.19c.07-1,.14-1.94.26-2.91a0,0,0,0,0,0,0,45.31,45.31,0,0,0-1.16,6.32v-.57c0-.49,0-1,0-1.48s0-1,0-1.46.11-1.22.16-1.83c0-.29.09-.57.12-.86s.08-.51.11-.76c.07-.43.14-.86.22-1.28h0c0-.13.06-.27.1-.4s0,0,0,0Z"/><path class="cls-8" d="M188.35,897.68a9.93,9.93,0,0,0-.33,1.51c-.07.51-.14,1-.2,1.53-.12,1-.26,2-.34,3,0,.5,0,1-.06,1.53s-.08,1-.11,1.53c-.07,1-.17,2.07-.2,3.11a57.74,57.74,0,0,0,0,6,20.21,20.21,0,0,0,.43,2.91c.18.91.37,1.81.54,2.72.1.55.22,1.08.34,1.62a12.19,12.19,0,0,1,.3,1.46h0a17,17,0,0,0,.23,1.9h0a12.82,12.82,0,0,1,0-1.39c0-.2,0-.4,0-.6a4.2,4.2,0,0,0-.06-.62h0c0-.54-.12-1.07-.18-1.6a.13.13,0,0,1,0,.06c-.05-.5-.07-1-.1-1.52s0-.84-.08-1.26l-.09-1.45c0-.47-.07-.94-.09-1.41-.06-1,0-2-.06-3v-1.48c0-.51,0-1,0-1.54s0-.93,0-1.4v-1.65c0-1,.08-2,0-3s0-2,0-3,0-2,0-3.05a8.08,8.08,0,0,1,.1-.86,0,0,0,0,0,0,0Zm.57,26.24v0Zm-.17.69v0Z"/><path class="cls-8" d="M188.9,893.91a32,32,0,0,0-1,3.47c-.13.53-.25,1.08-.37,1.62s-.25,1-.36,1.55c0,.18-.07.35-.1.53a2.11,2.11,0,0,0,0,.25c0,.26-.05.53-.07.8s0,.53-.08.81-.05.58-.07.87l-.06.71c0,.24-.05.48-.07.72,0,.56-.1,1.11-.12,1.67v-.07c0,.13,0,.27,0,.4v.06c0,.21,0,.43,0,.64,0,.51,0,1,0,1.51,0,.24,0,.47,0,.71,0,.4.06.8.11,1.2s.16.86.21,1.29.13,1,.23,1.51.19.86.27,1.29.14.79.23,1.18.22.7.34,1c0,0,0,0,0,0-.07-.35-.14-.7-.18-1.06h0c0-.4,0-.8,0-1.2s0-.87,0-1.31,0-1,.07-1.54,0-.89.07-1.33c.18-2.05.52-4.08.55-6.14,0-1.66,0-3.32,0-5,0-.22,0-.43,0-.64s0-.5,0-.75c0-.46,0-.91.06-1.37.07-1,.16-2,.3-2.94h0c0-.17.06-.33.08-.5h0Z"/><polygon class="cls-8" points="187.85 916.62 187.85 916.61 187.85 916.62 187.85 916.62 187.85 916.62"/><path class="cls-8" d="M187.38,900a.64.64,0,0,1,0,.07l0,.14a5.4,5.4,0,0,0-.08.58c0,.22-.09.43-.12.65s-.07.45-.1.68l-.18,1.48c0,.24-.07.47-.1.71s-.06.46-.07.69,0,.27,0,.41,0,.51,0,.77l-.06.64c0,.25,0,.49,0,.74s0,.5,0,.76,0,.51,0,.77c0,.45.05.9.09,1.34s.05.74.09,1.11a.28.28,0,0,0,0-.09c0,.23,0,.46.07.69s.1.66.13,1v0c0,.24.05.48.09.73s.06.45.1.68c.06.43.11.85.16,1.28v-.06a2,2,0,0,1,0,.23h0a8.54,8.54,0,0,0,.21,1.23.29.29,0,0,0,.34.21.31.31,0,0,0,.17-.13.33.33,0,0,0,0-.22c0-.11,0-.22,0-.33v0c0-.18,0-.36-.05-.53s0-.42,0-.62-.08-.67-.11-1a.28.28,0,0,0,0,.09c0-.35-.08-.7-.13-1v.09l-.06-.73c0-.21-.05-.41-.08-.61,0-.36-.06-.72-.1-1.08v.1c0-.28,0-.56-.07-.84l-.09-1.23c0-.44-.08-.88-.08-1.32s0-.92,0-1.38v-.34a.36.36,0,0,1,0,.1c0,.18.06.37.1.55a3.25,3.25,0,0,0,.08.43.27.27,0,0,0,.23.19.25.25,0,0,0,.25-.18.78.78,0,0,0,0-.34l0-.2v0h0v-.06h0a7.36,7.36,0,0,1-.06-.82c0-.15,0-.31,0-.47v-.54c0-.38,0-.75,0-1.13,0-.16,0-.32,0-.48a4.73,4.73,0,0,1,0-.53c0-.1,0-.2,0-.3h0v0a.25.25,0,0,0,0-.19.27.27,0,0,0-.15-.11h0l0-.25c0-.25.08-.5.11-.76s.08-.6.11-.9a.29.29,0,0,0,0-.09.24.24,0,0,0-.18-.24h-.07a.25.25,0,0,0-.24.17Zm.58,16.68v0Zm-.15-10v0Zm0-4.22a.11.11,0,0,0,0-.05v.05Z"/><path class="cls-8" d="M190.28,895.75l-.07.06-.07.09-.06.11-.29.48a.28.28,0,0,0-.31.13c-.06.13-.11.28-.16.42l-.07-.07-.12,0,0,0a.26.26,0,0,0-.29.11,3.89,3.89,0,0,0-.18.58c-.07.23-.13.45-.19.68v.05a1.52,1.52,0,0,0-.06.2c-.1.39-.21.78-.29,1.18-.05.25-.09.5-.14.75s-.06.41-.09.61,0,.39-.06.59,0,.18,0,.27,0,.2,0,.3-.06.48-.09.71,0,.37,0,.56a3,3,0,0,0,0,.31.26.26,0,0,0,.1.23l0,.25c0,.46-.07.91-.1,1.37,0,.1,0,.2,0,.3a.41.41,0,0,0,0,.11c0,.14,0,.27,0,.41a2.44,2.44,0,0,0,0,.27c0,.18,0,.36,0,.54h0c0,.06,0,.12,0,.18s0,.24,0,.37a1.17,1.17,0,0,0,0,.32c0,.3,0,.61,0,.91s0,.39,0,.59l0,.5c0,.11,0,.21,0,.32a8.53,8.53,0,0,0,0,.88c0,.31,0,.63.07.94a9.06,9.06,0,0,0,.19,1,.32.32,0,0,0,.39.23.33.33,0,0,0,.2-.15.38.38,0,0,0,0-.24l-.12-.94v.1c0-.26,0-.51,0-.76s0-.5,0-.75.06-.48.07-.71,0-.3,0-.44,0-.35,0-.52,0-.64,0-1c0-.16,0-.32,0-.48s0-.44.05-.67.05-.43.07-.66,0-.5.05-.75,0-.49.05-.74,0-.51.06-.77c.05-.51.12-1,.2-1.5s.19-1.16.29-1.73c.06-.29.14-.58.22-.87s.15-.51.24-.76l.3-.9c.09-.29.2-.57.31-.86s.18-.55.27-.83.1-.29.14-.43a2.51,2.51,0,0,0,0-.27.37.37,0,0,0-.09-.2.26.26,0,0,0-.19-.08.24.24,0,0,0-.12,0Zm0,1Z"/><path class="cls-8" d="M190.26,895.3c-.27.53-.56,1.06-.79,1.62s-.42,1-.6,1.57-.38,1.15-.55,1.74-.25,1.09-.36,1.64c-.21,1.08-.29,2.19-.45,3.28s-.39,2.23-.5,3.36-.17,2.49-.22,3.74-.13,2.2-.12,3.3.07,2.32.14,3.48.18,2.23.26,3.34.17,2.3.34,3.44a32.35,32.35,0,0,0,.66,3.37c.26,1.07.5,2.15.75,3.22s.52,2.14.79,3.21.61,2.39,1,3.58c0-.14,0-.28,0-.42l-.09-1-.12-1.4c0-.49-.07-1-.11-1.45,0-.68-.09-1.35-.14-2,0-.41,0-.8,0-1.21l0-.74a.76.76,0,0,1,0-.15c0-.37-.08-.74-.11-1.12-.12-1.08-.22-2.16-.29-3.25s-.13-2.25-.15-3.38,0-2.23-.11-3.34-.18-2.32-.27-3.47c-.1-1.38-.14-2.76-.15-4.14,0-.73,0-1.47,0-2.2s0-1.37,0-2c.08-1.09.17-2.17.17-3.25,0-.54,0-1.07,0-1.61s0-1.07,0-1.61a25.58,25.58,0,0,1,.4-3c.1-.49.21-1,.32-1.47s.3-1.07.45-1.6h0Z"/><path class="cls-8" d="M280.24,878.69c-.1.81-.21,1.62-.35,2.42s-.25,1.63-.37,2.44c-.24,1.61-.51,3.21-.77,4.81-.13.8-.28,1.6-.4,2.4s-.24,1.62-.37,2.43-.28,1.68-.46,2.52-.37,1.48-.54,2.23c-.36,1.63-.7,3.27-1,4.91s-.47,3.18-.7,4.77c-.11.8-.28,1.59-.42,2.39s-.29,1.75-.45,2.62c-.3,1.59-.71,3.15-1,4.75-.63,3.38-1.34,6.76-2.09,10.13-.72,3.2-1.19,6.46-1.68,9.71-.38,2.45-.74,4.9-1.26,7.32-.26,1.21-.5,2.43-.73,3.65s-.41,2.53-.67,3.79c0,0,0,0,0,0,.29-.9.54-1.81.83-2.71s.51-1.53.78-2.29c.6-1.66,1.27-3.29,1.83-5,1.1-3.23,2.16-6.47,3.23-9.71.51-1.57,1-3.14,1.54-4.71s1-3.29,1.37-5c.34-1.43.65-2.87,1-4.31l0-.2c.05-.32.1-.64.16-1l.21-1,0-.1c.06-.43.12-.86.19-1.29,0-.22.07-.43.11-.65s.12-.63.17-.94c0-.12.05-.24.08-.36s0-.2,0-.3,0-.43.07-.64c0-.37.1-.73.14-1.09s.09-.68.13-1l.15-1.3c0-.36.1-.72.15-1.08s.09-.72.14-1.08l.09-.56c0-.21.08-.42.11-.63s.06-.26.08-.39c.05-.33.09-.65.15-1,.11-.7.23-1.4.35-2.1,0-.28,0-.57.05-.85s0-.37.05-.55.07-.61.11-.91,0-.34.07-.51.09-.59.13-.88l.12-.68c0-.16,0-.3.08-.45-.05-1.26-.12-2.52-.2-3.77-.1-1.62-.36-3.24-.39-4.87s0-3.48,0-5.23c0-.69,0-1.38.07-2.08s.05-1.45.07-2.18h0Z"/><path class="cls-8" d="M269.64,888.63a55.93,55.93,0,0,1-7.08.77c-2.31.14-4.61.28-6.92.29-1.88-.06-3.76-.19-5.64-.21-.95,0-1.89,0-2.84,0s-1.89,0-2.83,0c-1.83,0-3.67,0-5.51.05s-3.8.19-5.7.29c-1.33.07-2.66.08-4,.11s-2.54.08-3.82.1c-2.08-.09-4.15-.32-6.22-.57-1-.12-2-.3-2.93-.39-1.24-.11-2.48-.18-3.73-.23,0,0,0,0,0,0,.8.18,1.6.38,2.4.58h0c1.82.57,3.58,1.32,5.38,2,.94.33,1.88.67,2.83,1s2.13.59,3.22.82,2,.31,2.95.43,2,.27,3,.35c2.08.17,4.19.07,6.27.07,1.83,0,3.68-.11,5.51-.25a51.79,51.79,0,0,0,5.54-.84c.89-.17,1.77-.38,2.66-.51s1.89-.24,2.82-.4c2-.34,3.9-.76,5.83-1.17a55.66,55.66,0,0,0,8.84-2.27s0,0,0,0Zm-54.8.88h0Zm41,.18h0Z"/><path class="cls-8" d="M272.13,886.68l-1.51.53c-.36.13-.75.21-1.13.32h0l0,0h0l-2.33.56h0c-.83.2-1.66.4-2.49.58s-1.84.33-2.77.43c-1.76.2-3.53.21-5.28.45s-3.51.43-5.26.68-3.55.61-5.32.95c-1.06.2-2.13.41-3.19.63a23.45,23.45,0,0,1-2.74.48c-2.21.22-4.42.41-6.65.48,0,0,0,0,0,0,1.88.41,3.74.84,5.63,1.13a22.73,22.73,0,0,0,2.85.28c.92,0,1.83,0,2.74,0a45,45,0,0,0,5.57-.43,47.43,47.43,0,0,0,5.66-1.07c.58-.16,1.16-.36,1.73-.55s1.08-.31,1.63-.45a46.67,46.67,0,0,0,6.32-1.86c1.06-.43,2.12-.86,3.17-1.32.6-.25,1.18-.53,1.77-.83a16.21,16.21,0,0,0,1.6-1s0,0,0,0Zm-2.65.86Z"/><path class="cls-8" d="M190.85,887.12c1.19.42,2.38.83,3.55,1.3s2.17.91,3.28,1.31l3.26,1.13c1.09.37,2.22.66,3.33,1s2.17.76,3.26,1.12a30.54,30.54,0,0,0,3.42.86l2.18.47.4,0,.34.06.52.09.93.18,1.16.26.26.06,1.59.26c1.6.24,3.19.38,4.8.46a35.54,35.54,0,0,0,5.16-.07c1.67-.15,3.33-.34,5-.49,1.37-.12,2.75-.18,4.13-.25,2.46-.08,4.93,0,7.39-.12a55.19,55.19,0,0,0,7.46-1A64.88,64.88,0,0,0,259,892c2.34-.72,4.68-1.4,7-2.13a13.35,13.35,0,0,0,4.67-2.19s0,0,0,0a9.23,9.23,0,0,1-.9.42,21.48,21.48,0,0,1-4.13.85c-1.35.16-2.7.3-4.05.43-2.49.23-5,.46-7.49.66l-3.2.14c-1.19,0-2.38,0-3.57.07s-2.35.09-3.52.07-2.44,0-3.65,0c-2.42,0-4.85,0-7.27,0-1.28,0-2.56,0-3.84.08a23.83,23.83,0,0,1-3.38,0c-1.17-.11-2.36-.17-3.53-.28s-2.38-.37-3.57-.52-2.45-.23-3.67-.37-2.33-.28-3.5-.36-2.25-.22-3.37-.39a33.2,33.2,0,0,0-3.57-.36c-2.36-.13-4.72-.24-7.07-.38-1-.06-2.08-.23-3.11-.34s-2.26-.16-3.39-.24c0,0,0,0,0,0Z"/><path class="cls-8" d="M273.79,886.25c-.92.4-1.85.79-2.79,1.16l-1.29.43h0c-1,.28-2.06.59-3.11.77l-3.27.56c-1.11.19-2.21.41-3.32.62s-2.33.39-3.5.56c-2.12.29-4.24.56-6.36.87l-3.38.49c-1.11.16-2.2.36-3.31.5-2,.26-4,.49-5.93.7-1,.11-2.1.19-3.15.33l-2.85.39c-4,.52-8,1.09-12.11,1.35h-2.81l.17,0,.72.17h.05l.54.1.4.09,1.06.22.74.17.63.15,1.55.1,2.55.18,1,.08,1.68.14,2.52.2,1.2.09,2.18.13,1.27.06,1.12,0,1,0,2.17-.07.68-.07,1.69-.18,3-.3,1.34-.2,3.54-.53,2.57-.39,2.78-.82c1-.31,2.07-.67,3.11-1s2.3-.77,3.44-1.18l3.11-1.13c1-.35,2-.66,2.95-1a28.28,28.28,0,0,0,3.25-1.53,30.45,30.45,0,0,0,3.23-2.18s0,0,0,0Zm-4.16,1.62,0,0,0,0Z"/><path class="cls-8" d="M281.2,886.48a.43.43,0,0,0-.29.32,1.91,1.91,0,0,0-.06.33.28.28,0,0,0-.24.2,1.77,1.77,0,0,0,0,.23,1.62,1.62,0,0,0,0,.22c0,.12,0,.24,0,.36s0,.16,0,.24l-.08,0a.47.47,0,0,0-.19.27,1.87,1.87,0,0,0,0,.58v.51q0,.56,0,1.11v.34c-.05.34-.1.69-.16,1s-.12.74-.19,1.11c.12-1.15.21-2.3.33-3.45a.26.26,0,0,0-.19-.29.25.25,0,0,0-.3.19c-.15,1.39-.25,2.78-.41,4.17l-.27,2.22c-.08.69-.16,1.38-.22,2.07a.28.28,0,0,0,.14.21.2.2,0,0,0,.11,0c-.06.45-.12.89-.17,1.34s-.16,1.06-.25,1.6c-.19,1.07-.36,2.16-.54,3.24l-.15.85c-.05.27-.08.54-.12.8-.08.52-.14,1-.2,1.55a.45.45,0,0,0,.06.32.42.42,0,0,0,.25.18h0c0,.27-.11.55-.16.82l-.15.87c0,.29-.09.59-.13.88-.15,1-.34,2-.56,3.07s-.49,2.13-.72,3.2-.44,2.13-.65,3.2a.45.45,0,1,0,.87.19c.27-1.11.51-2.23.76-3.35s.48-2,.69-3c.07-.31.13-.62.2-.93s.09-.5.14-.75c.09-.49.16-1,.23-1.47,0-.26.07-.53.12-.8l.15-.9c.05-.29.11-.58.17-.87l.15-.81c.2-1.07.32-2.15.48-3.23.07-.53.16-1,.24-1.58s.17-1,.27-1.45c.22-1.12.41-2.25.6-3.37s.29-2.06.43-3.09c.09-.65.17-1.31.25-2s.13-1.42.18-2.12.1-1.33.15-2l.07-.93c0-.27,0-.53,0-.8a.74.74,0,0,0,0-.21.46.46,0,0,0,0-.2.4.4,0,0,0-.25-.27.54.54,0,0,0-.22,0,.25.25,0,0,0-.12,0Z"/><path class="cls-8" d="M281.35,880.05a.25.25,0,0,0-.24.26c.06.36.1.72.15,1.07a.86.86,0,0,0,0,.16c0,.11,0,.23,0,.34s0,.39,0,.59,0,.2,0,.3v.17a5.44,5.44,0,0,0-.05.58c0,.25,0,.51-.06.76v.1c0,.27-.07.55-.1.83-.05.5-.1,1-.13,1.51l0,.49c0,.39-.05.77-.07,1.15,0,.16,0,.33,0,.5v.27a1.4,1.4,0,0,0,0,.5h0c0,.28-.07.55-.1.83s-.08.72-.12,1.08c-.15,1.39-.23,2.79-.29,4.18a.34.34,0,0,0,.11.25.38.38,0,0,0,.25.09A.37.37,0,0,0,281,896a.37.37,0,0,0,.09-.25c0-.64.07-1.29.11-1.93l.12-1.51c.06-.55.1-1.1.17-1.66,0-.28.06-.56.1-.84a.3.3,0,0,0,.19-.29c0-.31,0-.62,0-.93,0-.12,0-.24,0-.36s0-.28,0-.42.05-.52.06-.79l0-.33c0-.42.09-.83.14-1.24l.12-1.18c0-.32,0-.65,0-1a3.73,3.73,0,0,0,0-.48,1.57,1.57,0,0,0-.08-.29v-.13a3,3,0,0,0,0-.42.28.28,0,0,0-.21-.26h-.07c0-.1,0-.19,0-.28s0-.27-.05-.4-.06-.48-.1-.71a.3.3,0,0,0-.08-.18.27.27,0,0,0-.17-.06Z"/><path class="cls-8" d="M253.21,991.61a1.9,1.9,0,0,0-.2.34,3,3,0,0,1-.25.37c-.18.23-.34.46-.53.68a7.47,7.47,0,0,0-.48.63c-.12.18-.26.36-.37.55s-.29.57-.43.86a.36.36,0,0,1,0-.09c-.37.67-.76,1.32-1.11,2a.79.79,0,0,1,0-.09c-.19.36-.39.73-.6,1.09a15.76,15.76,0,0,0-.78,1.6c-.24.44-.46.9-.68,1.36s-.43.9-.6,1.37c-.37,1-.79,2-1.15,3s-.78,1.95-1.19,2.91c-.21.49-.39,1-.61,1.46s-.41.94-.6,1.41-.38,1-.61,1.46h0l-.06.1a0,0,0,1,0,0,0,10,10,0,0,0,.87-1.57v0c.24-.46.48-.9.74-1.34s.52-1,.8-1.42.57-.88.83-1.33.53-.92.77-1.39l-.06.12c.29-.54.61-1.08.93-1.6.14-.23.29-.45.42-.68l.45-.89c.16-.29.33-.59.47-.9s.25-.58.39-.87v0l.06-.12a.61.61,0,0,0-.05.12l.16-.3.07-.14.06-.15c.08-.2.15-.41.22-.62s.24-.6.37-.9a8,8,0,0,0,.27-.83c.07-.21.11-.43.16-.65,0,0,0,0,0,.07s0,0,0-.07v0c0-.11.06-.23.08-.34a0,0,0,0,1,0,0v0h0v0h0v0a6.62,6.62,0,0,1,.43-1.2c.2-.41.35-.85.56-1.26a.25.25,0,0,0,0,.07c.22-.43.4-.87.61-1.31.11-.23.22-.48.34-.71s.14-.44.24-.65c0,0,0,0,0,0ZM251,997a.06.06,0,0,1,0,0,.06.06,0,0,0,0,0Z"/><path class="cls-8" d="M251.09,996.71v0Z"/><polygon class="cls-8" points="251 997.11 251 997.11 251 997.11 251 997.11 251 997.11"/><polygon class="cls-8" points="249.68 1000.7 249.68 1000.71 249.69 1000.7 249.68 1000.7 249.68 1000.7 249.68 1000.7"/><path class="cls-8" d="M252.92,992.14c-.25.44-.46.9-.7,1.36s-.46.91-.68,1.37v0s0,0,0,0h0c-.29.53-.56,1.07-.84,1.61l0-.08-.51.93s0,0,0,.06l0,0,0,0c-.17.34-.36.66-.54,1l-.47,1v0c-.23.44-.45.89-.67,1.34l.09-.18-.57,1.09h0s0,0,0,0l0,0h0l-.11.21c-.3.55-.58,1.11-.86,1.67a3.51,3.51,0,0,1-.27.4,4.23,4.23,0,0,0-.63,1.21c-.21.52-.39,1.05-.62,1.56a8.49,8.49,0,0,1-.81,1.32l-.22.24a4.46,4.46,0,0,0-.4.66,8.25,8.25,0,0,0-.37.8c-.12.28-.25.56-.38.84-.25.57-.44,1.16-.69,1.72s-.46,1.06-.71,1.58c0,0,0,0,0,0l0-.06h0c.39-.42.74-.87,1.09-1.3s.79-1.06,1.2-1.59.61-.8.94-1.19a5.64,5.64,0,0,1,.4-.67l0,.06c0-.1.12-.2.18-.3.27-.47.48-1,.72-1.45.11-.23.23-.47.33-.7s.2-.49.31-.73.15-.35.24-.52a2.2,2.2,0,0,1,.21-.32l.05,0c.08-.2.16-.38.25-.57s.2-.43.31-.64l.38-.67.34-.62,0-.05,0,0c.06-.15.13-.3.21-.46a5.08,5.08,0,0,1,.17-.51c.07-.18.13-.35.21-.52s.17-.41.26-.61l.25-.5s0-.11.08-.16l.22-.52,0-.06a1.09,1.09,0,0,1,.05-.17c.08-.19.17-.37.24-.56s.13-.39.2-.58a5.89,5.89,0,0,1,.24-.58l.22-.51a1.22,1.22,0,0,1,.07-.17c.12-.41.24-.83.39-1.24.22-.6.42-1.22.64-1.83s.33-1,.52-1.47v0Zm-5.1,9.94,0,.07,0-.07Z"/><polygon class="cls-8" points="252.22 993.5 252.22 993.5 252.22 993.5 252.22 993.5 252.22 993.5"/><path class="cls-8" d="M251.52,994.9h0l0,0,0,0Z"/><polygon class="cls-8" points="250.18 997.41 250.19 997.41 250.18 997.41 250.18 997.41 250.18 997.41"/><path class="cls-8" d="M249.15,999.46l0,0,0,0Z"/><path class="cls-8" d="M248,1001.77h0l0,0,0,0Z"/><path class="cls-8" d="M250.07,998.41a4.77,4.77,0,0,0-.44,1.21s0,0,0,0c.17-.4.3-.82.44-1.22,0,0,0,0,0,0Z"/><path class="cls-8" d="M249.62,998a.37.37,0,0,0-.2.19c-.27.51-.52,1-.77,1.55s-.48.91-.74,1.35-.5.92-.73,1.39l-.66,1.37c-.22.44-.44.88-.67,1.32s-.51,1-.74,1.48-.42.92-.62,1.39-.41,1-.59,1.45q-.12.3-.21.6a2.25,2.25,0,0,0-.08.24l0,.1h0a.25.25,0,0,0,0,.22.28.28,0,0,0,.2.12.18.18,0,0,0,.07,0,.28.28,0,0,0,.28,0,.49.49,0,0,0,.14-.21c0-.1.09-.21.13-.31l.3-.78a.26.26,0,0,0,.18-.16,3,3,0,0,0,.14-.42c0-.07,0-.14.07-.22h0a.28.28,0,0,0,.18-.14c.18-.37.37-.74.57-1.1s.43-.84.67-1.26a.23.23,0,0,0-.06-.28l.06-.1.48-.83c.09-.15.18-.3.26-.45a5.39,5.39,0,0,0,.3-.52.28.28,0,0,0-.07-.33l-.1,0c0-.08.08-.17.13-.25.24-.47.48-.94.74-1.4.11-.22.24-.42.37-.64s.28-.45.4-.68l.34-.65c.13-.27.25-.54.37-.81l.3-.71a.38.38,0,0,0-.19-.49.37.37,0,0,0-.15,0l-.13,0Zm-2,6,0,0,0,0Zm-2.53,4.9v0Zm-.12.36v0Z"/><path class="cls-8" d="M255.36,986.87a14.29,14.29,0,0,0-.86,1.53c-.1.18-.2.36-.29.54l0,0c-.15.28-.3.56-.44.84-.32.66-.65,1.32-1,2l-.2.38-.09.16a8.23,8.23,0,0,0-.55,1c-.06.12-.13.24-.19.37a.25.25,0,0,0-.06.24c0,.16.26.17.34.06h0a.21.21,0,0,0,.05-.17h0c.1-.22.2-.44.31-.65l.22-.39c.22-.36.44-.72.65-1.09a6.28,6.28,0,0,0,.27-.59l.29-.66c.16-.37.34-.73.48-1.11v0c.09-.21.17-.43.26-.64s.22-.45.32-.68.31-.69.49-1l0,0,0-.08h0Z"/></g><g id="Draw_Layer-6" data-name="Draw Layer"><path class="cls-9" d="M365.64,744l-.41.66-.33.5a33.13,33.13,0,0,0-2.1,3.41,1,1,0,0,0-.08.21,2.14,2.14,0,0,0-.77-.09l-.58,0c-1,0-2,.11-3,.17l-2.57.19-2.85.2-6.31.42-1,.08-.52,0-.29,0s-.06-.11-.15-.15c-.55-.35-1.09-.71-1.63-1.08l-.15-.11-.46-.31a28.72,28.72,0,0,1-2.51-1.89c-1.05.06-2.09.1-3.14.13a20.83,20.83,0,0,0,2.31,2.08c.74.58,1.54,1.12,2.31,1.63l.34.23.13.09.14.09c.43.29.87.58,1.3.85,0,0,0,.07,0,.17a1.88,1.88,0,0,0-.35.85l0,.19c-.14.82-.24,1.55-.35,2.28l-.14,1-.13.86-.07.49c-.1.66-.18,1.24-.26,1.81l-.14,1.14,0,.24c-.09.64-.17,1.28-.25,1.92-.05.45-.1.88-.15,1.31l0,.23,0,.23c-.07.63-.15,1.26-.25,1.89l-.09.57-.66,4-.32,1.75-.33,1.79a30.64,30.64,0,0,1-2,6.86c-.38.82-.81,1.64-1.22,2.43l-.15.31-.06.1a29.63,29.63,0,0,1-2.81,4.55,15.64,15.64,0,0,1-2.42,2.33l-.62.48-.62.49-.48.33-1.31.9c-.4.27-.82.51-1.25.75l-.48.29a38.26,38.26,0,0,1-4.79,2.4,33,33,0,0,1-7.8,1.77c-1,.09-2.14.14-3.42.14s-2.35,0-3.39-.13c-2.14-.14-4-.34-5.62-.6a29.07,29.07,0,0,1-6.41-1.87,64.34,64.34,0,0,1-5.94-3.32c-1.06-.64-1.95-1.2-2.85-1.77a16.71,16.71,0,0,1-1.85-1.41L284,789c-1-.86-2-1.75-2.93-2.66s-1.74-1.73-2.54-2.58l-.22-.24c-.81-.86-1.59-1.74-2.36-2.61l-.19-.22-.26-.3c-.63-.72-1.2-1.49-1.7-2.16l-.07-.1-.29-.39-.86-1.28c-.93-1.43-1.85-2.83-2.83-4.16a26.41,26.41,0,0,0-4.31-4.79,16.65,16.65,0,0,0-2.69-1.86,12.61,12.61,0,0,0-3-1.14,17.12,17.12,0,0,0-4.43-.51c-1.36,0-2.82.11-4,.21l-.24,0H251l-1,.08c-1.69.14-3.49.23-5.35.28a2.28,2.28,0,0,0-.75.18l-.36-.29-.66-.49a11.22,11.22,0,0,1-1.62-1.73,18.49,18.49,0,0,1-1.83-3.11c-1-.09-2-.2-3-.31.17.49.37.94.53,1.33a18.55,18.55,0,0,0,2.92,4.67,10.8,10.8,0,0,0,2.24,1.88l-.22,1.07-.2,1a23.28,23.28,0,0,1-.84,3.48,14,14,0,0,1-1.07,2,13.5,13.5,0,0,1-1.87,1.92,15.88,15.88,0,0,1-2.77,1.85,8.86,8.86,0,0,1-1.72.55,6.5,6.5,0,0,1-1,.07l-.46,0a8.34,8.34,0,0,1-1.09-.24,10.61,10.61,0,0,1-1-.51,9.21,9.21,0,0,1-1-1,19.94,19.94,0,0,1-2-3.41,17.29,17.29,0,0,1-1.23-3.75,14.63,14.63,0,0,1-.14-3.41l.09-.85a2.72,2.72,0,0,0,0-.58,1.31,1.31,0,0,0,.21-.39c.36-1,.64-1.86.86-2.62a22.47,22.47,0,0,0,.61-3c0-.27.07-.55.1-.84l-2.67-.06-.06.4v.11a30.39,30.39,0,0,1-.79,3.13c-.2.6-.43,1.19-.65,1.78l0,.1c0-.07-.15-.13-.31-.16a46.17,46.17,0,0,0-5.49-.65h-2.64l-.91,0h-.2c-.55,0-1.09.06-1.63.11l-1.61.15-1.59.15a37.15,37.15,0,0,0-6.32,1.27,27.08,27.08,0,0,0-6.9,3.09,31.4,31.4,0,0,0-5.75,4.57,38.24,38.24,0,0,0-4.72,5.68,39.46,39.46,0,0,0-3.8,6.77c-.94,2.11-1.71,4.43-2.34,6.3l-.06.18-.37,1.12c-.17.52-.32,1-.47,1.57l-.06.21-.09.34c-.23.78-.44,1.53-.66,2.29l-.28,1c-.13.46-.24.9-.33,1.33l-.12.51,0,.2-.77,3.34c-.1.38-.17.77-.24,1.17l0,.12,0,.13,0,.15-.32,1.85-.33,1.82c-.25,1.49-.47,3.17-.57,4l0,.12-.14,1.06c-.17,1.31-.3,2.7-.42,3.93l0,.29-.1,1.11c-.13,1.38-.21,2.8-.29,4.13v.25l-.06.95,0,.39,0,.31c0,.38,0,.75,0,1.12l.07-.25.05-.18-.07.54-.07.62,0,1.27c0,.31,0,.61,0,.91,0,.63,0,1.23,0,1.83l0,1.83v.7c0,.68,0,1.37,0,2l0,1.41v.14c.07,2.35.15,5.27.12,8.09l-.05,1.83c0,.89,0,1.79-.07,2.68l-.13,1.53c-.12,1.34-.23,2.69-.36,4l-.13,1.38a63.8,63.8,0,0,1-1.8,11.55,38.6,38.6,0,0,1-3.85,8.33,38,38,0,0,1-5.47,6.86,48.13,48.13,0,0,1-5.92,4.5c-.93.61-1.87,1.2-3.06,1.91-.42.21-.84.41-1.28.6a2,2,0,0,0,.76,3.85H152a1.78,1.78,0,0,0,.38.26l-.12-.05c-.43,0-.89,0-1.33.07a20.13,20.13,0,0,0-3.18.64,13.73,13.73,0,0,0-3.23,1.37l-.3.17,1.78.66,1.43.53a16.16,16.16,0,0,1,3.33-.91,13.14,13.14,0,0,1,2-.15l.83,0a3.92,3.92,0,0,1,.77.16l.09,0a1.26,1.26,0,0,0,1.05.63,1.1,1.1,0,0,0,.59-.18,1.23,1.23,0,0,0,.56-.89c.27.16.56.3.85.45,1.74.88,3.55,1.69,5.15,2.41l1.05.47c1.76.8,3.53,1.65,5.24,2.48l.27.13,2.46,1.17-.17.14-.61.57-.13.13c-.17.16-.32.31-.47.44-.71.57-1.43,1.11-2.16,1.65l-.51.36c1.12.62,2.23,1.29,3.29,2l.07-.06.45-.32c.55-.37,1-.74,1.47-1.1l.17-.15a8.91,8.91,0,0,0,1.37-1.3,2.32,2.32,0,0,0,.46-.92l.13.07a36.4,36.4,0,0,0,5.22,1.85,1.55,1.55,0,0,0,.31,0,2.11,2.11,0,0,0,.56-.09l.64-.57c.16-.15.33-.29.5-.43l0,0a1.93,1.93,0,0,0,.13-1.07c0,.05.09.07.23.07h.19a2,2,0,0,0,1.26-.66l0-.06a1.46,1.46,0,0,1,.16-.19l.13-.13.22-.21h0c.84-.93,1.7-1.93,2.57-3a1.94,1.94,0,0,1,.23-.33l.42-.55.34-.42.12-.14.4-.53.56-.69.12-.14a.21.21,0,0,1,0-.07l.09-.11a1.68,1.68,0,0,1,.24-.29.18.18,0,0,1,.05-.07c.06-.09.13-.17.19-.25s.09-.13.14-.18a.41.41,0,0,1,.1-.09,52,52,0,0,0,3.25-4.71c.86-1.39,1.61-2.72,2.29-4.06a27.62,27.62,0,0,0,2.87,1c1,.31,2.16.61,3.72,1,1.37.25,2.93.48,4.78.68l1.64.16,1.47.15c.45,0,.89.07,1.35.09l.21,0,.71,0c3.56.23,6.89.41,10.17.56H223c1.2,0,2.38.11,3.55.13l2.41,0,2.41,0,0,0-.05,0h.05l.32,0c.73.06,1.49.07,2.21.08h.39l2.82,0-.08-.07h0l.91,0,1.44.08,2.68,0c1.45,0,2.83,0,4.21,0h2.79c.91,0,1.81,0,2.72,0l.93,0c.62,0,1.21,0,1.81,0l1.5-.09,1.44-.09c.54,0,1.08-.09,1.62-.14l.68-.07c.72-.08,1.48-.16,2.25-.29l.59-.09.11,0c.49-.08,1.05-.17,1.59-.3l.28-.06.42-.09.1,0,.13,0c.6-.14,1.24-.28,1.83-.47l.29-.08a44.56,44.56,0,0,0,4.43-1.5c2-.81,3.79-1.7,5.57-2.57l.09-.08.75-.62.84-.69c.23-.19.45-.39.69-.58l.12-.14a1.83,1.83,0,0,1,.13-.16l.7-.86.37-.44.29-.33.5-.58a1.29,1.29,0,0,0,0-.44c-.11-1.5-.25-3-.38-4.49l-.08-.91c-.1-1.11-.19-2.23-.28-3.34l-.1-1.37,0-.17v-.28c-.14-2-.33-4.38-.6-6.69l0-.16c-.34-2.87-.68-5.67-1.14-8.44l-.05-.3c-.51-3-.94-5.57-1.46-8.26l-.23-1.14-.06-.32c-.12-.68-.25-1.36-.39-2l-.49-2.26-.38-1.77c-.54-2.41-1.18-4.92-1.65-6.74l-.08-.3,0-.17c-.13-.51-.27-1-.42-1.55l-.17-.65-.47-1.83c-.46-1.8-.92-3.59-1.4-5.37.26.21.54.41.82.61a41.76,41.76,0,0,0,5,3,45.94,45.94,0,0,0,7.88,3.09c1.34.42,2.75.76,4,1l.27.06c.75.19,1.4.32,2,.44l1.89.32,1.9.32.71.13c.56.1,1.11.2,1.67.27l3.49.42,3,.37c.67.08,1.37.12,2,.16l.93.06,3.41.23h5.48l1.78-.1,1.65-.1.49,0c.71,0,1.25-.07,1.8-.14l3.68-.51a61.55,61.55,0,0,0,7.33-1.54,51,51,0,0,0,8.12-3.07,38.69,38.69,0,0,0,7.56-4.28,20.1,20.1,0,0,0,3-2.92c1-1.15,1.94-2.37,2.83-3.62a30.89,30.89,0,0,0,3.46-6l.36-.82c.32-.74.65-1.48.93-2.23l.64-1.7.13-.35,0-.1c.08-.21.16-.42.23-.64l.15-.46.15-.48c.21-.67.42-1.34.6-2l.43-1.64.44-1.64c.42-1.6.78-3.18,1.2-5.08l.08-.35.05-.26c.69-3.21,1.55-7.2,2.09-11l.05-.32.47-3.33c.1-.73.17-1.47.23-2.22l0-.32,0-.28v-.15l0-.22c.08-.91.14-1.68.17-2.5,0-.31,0-.62,0-.93v-.13c0-.59.06-1.25.06-1.9-.1-4.19-.26-8.32-.46-12.26,0-.74-.09-1.48-.14-2.22l0-.71-.09-1,0-.39c0-.32-.07-.64-.12-1s-.11-.67-.18-1a3.85,3.85,0,0,0-.27-.7h0c.05,0,.11-.08.14-.13.31-.44.61-.89.91-1.34l.45-.67.07-.11c.7-1,1.44-2.12,2.07-3.23a14.23,14.23,0,0,0,.7-1.34l-4.12.36Z"/><path class="cls-9" d="M187.7,901.87h0l0,0,0,0Z"/><path class="cls-9" d="M184.26,902.51c-.14.19-.3.37-.45.56l-.36.25-.26.23c-.15.14-.3.28-.44.43s-.48.53-.71.82l-.55.69-.12.15a.77.77,0,0,0-.1.29l-.05,0a.45.45,0,0,0-.2.33.39.39,0,0,0,.09.28.2.2,0,0,0,.11.09l.53-.46a6.64,6.64,0,0,1,.64-.55l.35-.27c.13-.14.26-.28.4-.41l.6-.59.33-.29a.36.36,0,0,1,0-.09c0-.07.11-.13.16-.19l.13-.13.23-.21,0,0,.14-.14a2.83,2.83,0,0,0,.2-.28.46.46,0,0,0-.1-.63.5.5,0,0,0-.26-.08.47.47,0,0,0-.37.19Zm-3,3.37v0Zm0,0v0Zm.15.06Zm0,0h0Z"/><path class="cls-9" d="M153.46,889.64c-.42.15-.85.29-1.28.42s-1,.27-1.45.43-1,.33-1.51.51l-.22.06a4.4,4.4,0,0,1-.63.13h-.05a.58.58,0,0,0-.21.1h0a.39.39,0,0,0-.4.06.38.38,0,0,0-.11.45.6.6,0,0,0,.49.31l.83.52a.43.43,0,0,0,0,0,.86.86,0,0,0,.4.33l.49.27c.26.15.53.29.8.43.45.24.91.48,1.38.69s1.05.5,1.6.71c.27.1.53.2.81.29l.43.14.13,0,.18,0h.15a.38.38,0,0,0,.28-.23v0a.36.36,0,0,0-.13-.41l-.22-.13v0a.37.37,0,0,0-.18-.17c-.5-.25-1-.44-1.54-.66l-1.28-.51-.16-.06-.49-.24,0,0,0,0,0,0,0,0c-.26-.14-.52-.27-.76-.42l-1.08-.66h0l.22-.05c.3-.07.6-.17.91-.26l.58-.18.22-.05,0,0,.28-.09.36-.11a.77.77,0,0,0,.33-.15.45.45,0,0,0,.16-.3,9.81,9.81,0,0,0,1-.38.47.47,0,0,0,.23-.61.49.49,0,0,0-.27-.24l-.15,0a.65.65,0,0,0-.19,0Zm-3.2,1.13-.07,0h0l.08,0Zm2,.45h0Zm-.69,1.93h0Z"/><path class="cls-9" d="M257.66,888.07H255l-.35,0h-.15a.33.33,0,0,0-.15,0,.32.32,0,0,0-.1.1.24.24,0,0,0-.07.18.26.26,0,0,0,.12.21,1.75,1.75,0,0,0,.29.18l.06,0a1.59,1.59,0,0,0,.33.1c.16,0,.34.08.51.12l.54.09.1,0-.31,0-.58,0-.89.06a.27.27,0,0,0-.17.08.24.24,0,0,0-.06.24.26.26,0,0,0,.13.19l.16.07.2,0,.3,0h.2l-.52,0a.28.28,0,0,0-.13,0,.27.27,0,0,0-.11.15.24.24,0,0,0,.12.28l.14.08a.24.24,0,0,0-.06.11.25.25,0,0,0,.18.31l.2,0,.5,0h1.28c.27,0,.54,0,.8,0H258a.52.52,0,0,0,.21,0,.27.27,0,0,0,.12-.06.29.29,0,0,0,.07-.18.13.13,0,0,0,0-.06.29.29,0,0,0,.07-.18.24.24,0,0,0-.07-.18l-.09,0h.34a.25.25,0,0,0,.24-.25.25.25,0,0,0-.25-.25c-.24,0-.49,0-.73,0h.41a3,3,0,0,0,.52-.08.24.24,0,0,0,.18-.24.26.26,0,0,0-.07-.18.36.36,0,0,0-.18-.07l-.59-.05h0l-.48-.06c-.18,0-.35-.06-.52-.09l-.74-.12,0-.08v0h1.15c.58,0,1.16,0,1.75,0a.26.26,0,0,0,.24-.19.28.28,0,0,0,0-.18.22.22,0,0,0-.15-.12l-.42,0-.39,0h-.95Z"/><path class="cls-9" d="M256.89,890.49l-.7,0c-.31,0-.62,0-.93,0a.33.33,0,0,0-.26.13h-.08a.27.27,0,0,0-.07.53l.23,0h1.29l.58,0h.13a3.84,3.84,0,0,0,.68,0,.25.25,0,0,0,.22-.12.27.27,0,0,0,0-.31h0a.35.35,0,0,0-.25-.31l-.27-.06-.17,0h-.34Z"/></g><g id="Draw_Layer-7" data-name="Draw Layer"><path class="cls-10" d="M204.64,802.47c-2.1,2.86-3,6.36-3.88,9.76-.54,2.22-.95,4.47-1.35,6.72-.75,4.28-1.28,8.61-1.6,12.95-.17,2.39-.31,4.77-.4,7.16-.08,2.09-.09,4.17-.16,6.26-.16,4.35-.48,8.69-.72,13-.17,3.11-.39,6.23-.43,9.35s0,6.19-.28,9.27c-.23,2-.49,4.09-.76,6.14-.13,1.07-.27,2.14-.45,3.2s-.46,2.39-.76,3.57c0,0,0,0,0,0,.46-1,.93-2,1.32-3s.71-1.87,1-2.82c.65-1.94,1.34-3.88,1.86-5.86a46.13,46.13,0,0,0,1.06-6.18q.39-3.24.64-6.49c.06-.59.11-1.18.17-1.77,0,.17,0,.34-.05.5a218,218,0,0,0,1.12-26.8c-.05-3.42-.11-6.85,0-10.27s.35-7.07.64-10.59c.18-1.69.37-3.38.58-5.06a35.3,35.3,0,0,1,1.66-7.46h0l0,0h0c.22-.56.47-1.1.74-1.63,0,0,0,0,0,0Zm-.72,1.64v0s0,0,0,0Z"/><path class="cls-10" d="M271.64,823.14c.24,1.74.53,3.47.8,5.2s.5,3.35.74,5,.47,3.3.79,4.93.6,3.33.86,5c.5,3.27.85,6.55,1.26,9.83.2,1.57.41,3.14.69,4.7s.55,3.23.86,4.84.61,3.24.9,4.86.59,3.25.94,4.87a87.55,87.55,0,0,0,2.58,9.39s0,0,0,0c-.56-3.31-.8-6.65-1.08-10-.13-1.61-.23-3.22-.36-4.83s-.31-3.28-.48-4.91-.37-3.2-.6-4.8-.46-3.45-.67-5.18c-.21-1.58-.42-3.16-.7-4.73s-.66-3.3-1.05-4.94c-.47-1.95-1-3.88-1.58-5.8l.06.25c-.6-2.35-1.14-4.72-1.79-7.06-.29-1-.59-2.09-.93-3.12s-.82-2.35-1.23-3.52h0Z"/><path class="cls-10" d="M365.75,778.5c-.12.72-.25,1.44-.38,2.16a20.29,20.29,0,0,1-1.15,3.8c-.26.61-.55,1.2-.81,1.81a9.94,9.94,0,0,0-.44,1.3c-.29,1-.56,1.95-.82,2.93s-.43,1.85-.66,2.76-.55,2-.87,3-.62,1.79-.93,2.68-.61,1.8-.89,2.71-.54,1.72-.88,2.55c-.57,1.38-1.2,2.74-1.8,4.11s-1.11,2.45-1.67,3.67a40.1,40.1,0,0,1-2.55,4.27c-.53.76-1.07,1.52-1.63,2.27s-1,1.29-1.56,1.92a34.34,34.34,0,0,1-2.71,2.82,39.83,39.83,0,0,1-3.64,3.11,32.22,32.22,0,0,1-3.12,1.79,20,20,0,0,1-2.31,1h0l-.65.21s0,0,0,0a17.5,17.5,0,0,0,2.85-.72c1.08-.35,2.14-.77,3.18-1.22a23,23,0,0,0,3.57-2.12c.78-.52,1.57-1.05,2.3-1.64a40.27,40.27,0,0,0,8.16-8.83,24,24,0,0,0,1.32-2.38c.47-.91.93-1.82,1.37-2.74s.85-1.73,1.29-2.58a23.62,23.62,0,0,0,1.33-2.84c.32-.85.58-1.72.88-2.57s.66-1.83.93-2.76.53-1.77.71-2.67c.23-1.14.4-2.29.52-3.45.11-1,.28-1.94.38-2.92s.21-2.18.34-3.26c.13-.65.27-1.29.38-1.94a17.87,17.87,0,0,0,.19-2.83c0-.49,0-1-.08-1.47l-.15-2v0s0,0,0,0Zm-.38,2.18v0Zm-22.91,45.57,0,0,0,0Z"/><path class="cls-10" d="M342.84,752.66c0,.58-.1,1.15-.17,1.72h0c-.17,1.16-.38,2.31-.6,3.47-.1.51-.21,1-.29,1.55s-.17,1.27-.25,1.9c-.2,1.29-.44,2.56-.6,3.85s-.26,2.53-.41,3.79c-.17,1.07-.38,2.13-.59,3.19-.11.57-.17,1.16-.27,1.74a13.25,13.25,0,0,1-.36,1.51c-.18.57-.39,1.14-.57,1.72s-.32,1-.5,1.55-.37,1.11-.57,1.65a14.74,14.74,0,0,0-.54,1.71c-.06.25-.12.49-.19.73a0,0,0,0,0,0,0,18.45,18.45,0,0,1,.84-1.66c.31-.51.63-1,.92-1.53s.59-1,.86-1.52.51-1,.77-1.52a11.23,11.23,0,0,0,.7-1.68,11.4,11.4,0,0,0,.38-1.53c.22-1.16.43-2.32.6-3.49a30.39,30.39,0,0,0,.2-3.44c0-1.16.06-2.32.16-3.48s.11-2.35.17-3.52c0-.54.1-1.07.16-1.61s.12-1.2.16-1.8a22.71,22.71,0,0,0,0-3.3h0Zm-.17,1.72v0Zm-1.13,6.8v0Z"/><path class="cls-10" d="M244.79,765.41c.08.21.15.41.23.6v0a6.48,6.48,0,0,1,.26,1.14,7.58,7.58,0,0,1-.06,1.43,21.87,21.87,0,0,1-1.19,3.81c-.07.14-.14.29-.2.43a15.94,15.94,0,0,1-1.43,2.51c-.65.92-1.3,1.85-2,2.73a15,15,0,0,1-2.42,2.07,13.32,13.32,0,0,1-1.54.92,13.83,13.83,0,0,1-1.53.66,10.69,10.69,0,0,1-1.94.44,8.74,8.74,0,0,1-1.77,0,5.15,5.15,0,0,1-1-.31h0c-.32-.15-.64-.3-1-.43,0,0,0,0,0,0l.11.08h0a13.78,13.78,0,0,0,1.12.9,5,5,0,0,0,1.45.61,8.72,8.72,0,0,0,1.82.28,15,15,0,0,0,3.35-.25,10.4,10.4,0,0,0,2.82-.94,10.21,10.21,0,0,0,1.69-1,8,8,0,0,0,1.92-2.1,20.33,20.33,0,0,0,1.47-2.57,13.19,13.19,0,0,0,1-2.8,16.5,16.5,0,0,0,.44-3,10.84,10.84,0,0,0-.13-2.48,5.94,5.94,0,0,0-1.51-2.74h0Zm.47,1.68v0Zm-15.89,14.38Z"/></g><g id="Draw_Layer-8" data-name="Draw Layer"><path class="cls-11" d="M215,621.7c-.45,1.07-.92,2.12-1.44,3.15-.29,1.13-.59,2.26-.87,3.39a22.25,22.25,0,0,1-1.28,3.62C211,633,210.5,634,210,635.1c-.07.17-.15.33-.23.5-.31.69-.59,1.39-.9,2.08a19.43,19.43,0,0,1-1.22,2.24c-.42.67-.82,1.35-1.24,2a19.32,19.32,0,0,1-1.39,2c-.46.59-1,1.15-1.42,1.74l-1.46,1.93c-.93,1.22-2,2.36-3,3.51-.74.87-1.44,1.78-2.23,2.61s-1.53,1.42-2.25,2.16l-.21.25c-.58.68-1.13,1.36-1.75,2a13.06,13.06,0,0,1-1.65,1.41c-.61.46-1.21.94-1.82,1.41s-1.09,1-1.64,1.44-1.11,1-1.68,1.41a15,15,0,0,1-2,1.34,13,13,0,0,1-2.08.94c-.79.28-1.59.51-2.39.75l-.3.11-.39.12,0,0-.58,1c-.33.58-.74,1.34-1.09,2.11l-.46,1-.13.3c-.08.17-.15.35-.22.53l0,.13-.14.37c-.23.64-.43,1.27-.64,1.91l-.1.29-.06.21c-.19.59-.3,1.1-.44,1.72l-.17.74c-.17.7-.3,1.44-.4,2.08l-.13.71c-.22,1.22-.4,2.53-.54,4a10.45,10.45,0,0,0-2.07-2.58,9.72,9.72,0,0,0-5.89-2.62l-.53,0a7.33,7.33,0,0,0-2.59.48,4.83,4.83,0,0,0-1.36.82,3.12,3.12,0,0,0-.44.45l-.19.21a4.44,4.44,0,0,0-.59.9,10.32,10.32,0,0,0-1,3.25,18.93,18.93,0,0,0-.17,3.57,28.59,28.59,0,0,0,1,6.86,14.14,14.14,0,0,0,1.31,3.25,13,13,0,0,0,2.26,3,8.73,8.73,0,0,0,1.35,1.08,7.75,7.75,0,0,0,1.58.77,7.92,7.92,0,0,0,1.62.39,5.83,5.83,0,0,0,1,.08,6,6,0,0,0,1-.09,4,4,0,0,0,1.74-.88l-.13.24a5.21,5.21,0,0,0,0,1.4,24.36,24.36,0,0,0,.47,3.09l.6,2.6c.12.51.27,1,.42,1.53l0,.17c.09.29.17.59.26.89.13.47.28.94.44,1.41l0,.14.22.68a82.66,82.66,0,0,0,3.66,9.24l.2.46.08.17c.2.44.4.88.63,1.31l.72,1.37.71,1.38a41.48,41.48,0,0,0,3.19,5,38.13,38.13,0,0,0,4.71,5.12,36.76,36.76,0,0,0,5.78,4.27,35.91,35.91,0,0,0,6.45,3.22c1.29.49,2.59.88,3.81,1.23l.77.23.11,0,.11,0c.64.19,1.27.38,1.91.54a45.53,45.53,0,0,0,5.79,1.21,30.52,30.52,0,0,0,3.65.22c.71,0,1.51,0,2.46-.09,1.84-.15,3.6-.45,5.1-.72.09.18.17.41.26.64a15.19,15.19,0,0,1,.79,3.38,20.48,20.48,0,0,1-.14,4.9l0,.1a25,25,0,0,1-.8,3.15c-.15.46-.32.92-.49,1.38l-.06.15c-.07.23-.14.45-.22.68l-.24.66-.18.57-.24.79s0,.07,0,.11-.08.37-.11.56l-.06.26-.06.32v0c0,.12,0,.23,0,.35a17.58,17.58,0,0,0,.28,3.1,20.89,20.89,0,0,0,2.1,5.85,14.59,14.59,0,0,0,1.62,2.58,9.11,9.11,0,0,0,2.45,2.14,7.59,7.59,0,0,0,3,1,10.51,10.51,0,0,0,1.12.06h.52a10.06,10.06,0,0,0,1.64-.3,10.17,10.17,0,0,0,2.57-1,18,18,0,0,0,2.32-1.54,18.93,18.93,0,0,0,2.34-2.11,12.35,12.35,0,0,0,1.77-2.65,17.93,17.93,0,0,0,1.56-5.93c0-.06,0-.12,0-.19a6.53,6.53,0,0,1-.13-.87c0-.24,0-.49-.05-.73l-.09-.6c-.07-.39-.14-.79-.2-1.18,0-.19-.07-.38-.1-.57h-.2a2,2,0,0,0-.74.18l-.37-.29-.28-.21-.38-.28a11.3,11.3,0,0,1-1.62-1.74,19.6,19.6,0,0,1-2.22-4,17.67,17.67,0,0,1-.89-4.06c-.07-.77-.1-1.51-.11-2.27a15.8,15.8,0,0,1,.11-2.11l0-.14,0-.11c0-.11,0-.19,0-.27l.91,0c.5,0,1-.1,1.47-.15l.87-.09c1.33-.14,2.67-.35,4-.55l.59-.08a54,54,0,0,0,12.23-3.91c1.58-.65,3.16-1.31,4.72-2a37.23,37.23,0,0,0,3.84-1.87,34.35,34.35,0,0,0,5.07-3.65l3.77-3.25a33.81,33.81,0,0,0,3.3-3.14,25.4,25.4,0,0,0,2-2.58c.09-.13.18-.26.26-.4l.1-.15.1-.15.11-.17.21-.34.21-.33c1.05-1.65,1.8-2.92,2.44-4.15.82-1.53,1.55-3.15,2.13-4.45l.08-.19c.57-1.25,1.16-2.59,1.66-4,.34-.9.66-1.81,1-2.73l.13,0h0a1.24,1.24,0,0,0,.41,0,6.88,6.88,0,0,0,1.43-.46c.32-.13.63-.27.94-.42a14.13,14.13,0,0,0,3.91-2.67c.53-.54,1-1.12,1.58-1.76l.09-.1.09-.1.32-.39a14.44,14.44,0,0,0,1-1.27l.18-.24c.2-.28.31-.44.41-.61l.34-.54.34-.55a20.15,20.15,0,0,0,1.31-2.57,19.28,19.28,0,0,0,.83-2.37l.05-.16,0-.11c.31-1.14.61-2.21.83-3.3a19.66,19.66,0,0,0,.31-2.77,22.39,22.39,0,0,0-.12-3.28,10.86,10.86,0,0,0-1-3.65,4.69,4.69,0,0,0-1.21-1.56,6.41,6.41,0,0,0-1.39-.8,2.86,2.86,0,0,0-1.13-.24,2.78,2.78,0,0,0-.58.06,5,5,0,0,0-.92.31c-.39.16-.78.32-1.16.51a19.48,19.48,0,0,0-2.28,1.25,15.4,15.4,0,0,0-2.81,2.3c-.11.11-.21.23-.31.34q0-1.44,0-2.88c0-.77,0-1.54-.08-2.32l0-.95c-.08-2.08-.19-3.8-.35-5.41a17.93,17.93,0,0,0-.4-2.2l0-.22,0-.12c-.27-1.19-.52-2.1-.77-2.87l-.16-.51c-.14-.43-.28-.87-.44-1.29-.28-.71-.56-1.42-.86-2.12l-.08-.18c-.34-.54-.67-1.08-1-1.62-.58-.94-1.17-1.88-1.75-2.83-.14-.23-.28-.48-.41-.72h-.11a.92.92,0,0,0-.33.06,3.41,3.41,0,0,1-.78.11c-1.44,0-2.88.07-4.32.08h-.26c-1.27,0-2.58,0-3.71-.09h-.68l-1.55-.08-.38,0-.73,0h-.18c-.46,0-.93-.05-1.39-.1l-1.43-.14-1.43-.16a31.44,31.44,0,0,1-4.14-.66,42.36,42.36,0,0,1-4.29-1.29c-.77-.29-1.53-.61-2.28-.92l-.33-.13-1.07-.46-1.93-.8-2-.82c-.77-.33-1.54-.64-2.31-.94l-.16-.07c-1.68-.66-3.78-1.5-5.7-2.49a45.94,45.94,0,0,1-6.26-4.2c-.57-.45-1.12-.91-1.67-1.38l-.79-.66c-.92-.77-1.82-1.58-3-2.63l-.67-.62-1.47-1.4-1.44-1.37-.56-.55-.11-.11-.1-.11-.45-.46-1-1-.11-.11-.09-.08a3.07,3.07,0,0,1-.25-.26L223.57,634l-.21-.24c-.25-.29-.5-.58-.73-.88l-.78-1c-1-1.24-2.07-2.66-3-4.11-.3-.48-.56-.93-.78-1.36s-.54-.76-.79-1.15l-.09-.15c-.22-.31-.42-.63-.61-1l-.09-.16h0c-.14-.23-.26-.47-.39-.7-.3-.5-.57-1-.82-1.54l-.1-.18h-.05c0,.05,0,.1-.07.15Z"/><path class="cls-11" d="M351.63,696.38a8.38,8.38,0,0,0-1.13,1,8.25,8.25,0,0,0-.87,1.2l-.09.15a19.92,19.92,0,0,0-1.39,2.77c-.28.63-.48,1.16-.65,1.66a14.81,14.81,0,0,0-.48,1.49c-.12.52-.25,1-.37,1.54-.19.8-.35,1.59-.47,2.36-.14,1-.27,1.92-.39,2.87l-.08.61,0,.22c-.07.53-.14,1-.18,1.58a.37.37,0,0,0,0,.11v.39l0,.12h0l-.07.39v.19c0,.17,0,.3,0,.44v.26c0,.31-.05.57-.06.82l0,.39v.16c-.36-1.31-.8-2.62-1.19-3.73-.81-2.39-1.72-4.81-2.78-7.41-.52-1.29-1.05-2.44-1.61-3.53a15.72,15.72,0,0,0-1.31-2.15,6.92,6.92,0,0,0-.76-.9,3.18,3.18,0,0,0-1.14-.79,1.77,1.77,0,0,0-.66-.15h-.13a3.39,3.39,0,0,0-.65.16,1.76,1.76,0,0,0-.66.47,4.69,4.69,0,0,0-.42.47,7.56,7.56,0,0,0-.64,1.07,5.77,5.77,0,0,0-.52,1.44,10.45,10.45,0,0,0-.27,1.85,26.34,26.34,0,0,0,.06,3.82V708c.08,1.12.24,2.25.39,3.25l.09.67.21,1.21.12.66.08.41c.06.37.12.74.21,1.11l.28,1.27.28,1.26c.1.49.21,1,.35,1.47.23.82.47,1.64.7,2.45l.1.37c.1.36.19.69.3,1l.69,2,.68,2.05c.19.58.41,1.15.64,1.72l.31.81a16.76,16.76,0,0,0,.66,1.57,3.91,3.91,0,0,0-1.18-.32,4.39,4.39,0,0,0-2.42.46,6.38,6.38,0,0,0-1.84,1.61,8.62,8.62,0,0,0-.66,1,5.92,5.92,0,0,0-.55,1.1,4.33,4.33,0,0,0-.2,2.47,9.24,9.24,0,0,0,.74,2l.75,1.62a22.26,22.26,0,0,0,2.38,3.93,18.22,18.22,0,0,0,3.36,3.31c.74.58,1.55,1.13,2.31,1.64l.34.23.13.08c.48.33,1,.65,1.44,1h0l.34.15c.31.15.63.28.95.42l.34.15.43.15.8.29.34.12.77.25.86.17.57.06.93.11.16,0,1.28-.07.19,0h.19l1.57-.1,1.58-.1.31,0,.24,0,1.29-.09,1.25-.09,1.19-.07,2-.14,1.11-.1h.06l.36-.13.27-.1.77-.33.45-.17h0l.68-.51.54-.41.14-.14.14-.12a.56.56,0,0,0-.05-.08h0s.11-.09.14-.14l.91-1.34.45-.68.08-.11c.7-1,1.43-2.12,2.06-3.23a26.12,26.12,0,0,0,1.46-3l.3-.69c.32-.74.59-1.46.83-2.21a7.48,7.48,0,0,0,.27-3.3,13.57,13.57,0,0,0-.83-3.06,11.35,11.35,0,0,0-1.83-3,24.84,24.84,0,0,0-2-2.06,16.39,16.39,0,0,0-2.33-1.68,12,12,0,0,0-3.22-1.23,11.33,11.33,0,0,0-2.84-.35h-.48a9,9,0,0,0-1.58.23l-.5.14.1-.44,0-.17,0-.34c.12-.69.23-1.38.36-2.08l.19-1.11q.06-.35.09-.72l0-.34a66.86,66.86,0,0,0,.28-6.91l0-1.65v-.61c0-1.14,0-2.17,0-3.22,0-.77-.08-1.53-.14-2.3-.05-.56-.13-1.09-.2-1.64l0-.26c0-.24-.07-.47-.12-.71l-.07-.35c-.07-.42-.16-.84-.25-1.25l0-.18c-.1-.42-.2-.84-.31-1.26a7.33,7.33,0,0,0-.41-1.13,5.72,5.72,0,0,0-.39-.73,3.33,3.33,0,0,0-.58-.72,2.35,2.35,0,0,0-.58-.42l-.13-.07a2.25,2.25,0,0,0-1-.24,2.64,2.64,0,0,0-1.58.56Z"/><path class="cls-11" d="M152.25,894.15h0l.14.08-.16-.06h0c-.43,0-.89,0-1.33.07a20.59,20.59,0,0,0-3.18.64,13.38,13.38,0,0,0-3.23,1.38,15.61,15.61,0,0,0-2.59,1.85,12.58,12.58,0,0,0-2.27,2.6,11.94,11.94,0,0,0-1.35,2.88,11.72,11.72,0,0,0-.54,3.48,12.58,12.58,0,0,0,1.67,6.27,10.37,10.37,0,0,0,1.9,2.42,8.65,8.65,0,0,0,2.78,1.79,12.15,12.15,0,0,0,4.52.83,22.72,22.72,0,0,0,8.95-2.18,67.29,67.29,0,0,0,7.43-3.8l.91-.53c.75-.43,1.5-.86,2.22-1.33l.68-.43,1.11-.71c.3-.18.58-.38.87-.59l.09-.06.09-.07.45-.32a17,17,0,0,0,1.47-1.1l.17-.15a8.91,8.91,0,0,0,1.37-1.3,2.4,2.4,0,0,0,.46-.92c.17.08.35.17.53.24l-.72-.44-.09-.06c-1-.37-1.89-.78-2.81-1.23-2.35-1.18-4.67-2.42-7-3.55s-5-2.38-7.54-3.44c-1.15-.48-2.31-.93-3.41-1.5l-1.48-.76Z"/><path class="cls-11" d="M235,748.28l-.54.05-1.15.11h-.07c-.38,0-.77,0-1.15.09h-.07l-1.72.13c-.61.05-1.23.12-1.84.2l-1.63.2-.62.08h-.3c-.53,0-1.06,0-1.58,0s-1,0-1.52,0h-.69l-.89,0-1.68-.12-1.52-.08h-.81l-.43,0h-.25a1.11,1.11,0,0,0-.31.09.43.43,0,0,0-.24.35l-1.18,0a.5.5,0,0,0-.51.46.49.49,0,0,0,.45.51c.59,0,1.19.07,1.78.09l.77.05c.25,0,.51,0,.76.07.52,0,1,0,1.56,0h1.5c.48,0,1-.06,1.45-.08s1.06-.06,1.59-.07l1.51-.07c.55,0,1.09-.11,1.63-.18s1.37-.16,2-.23l1.76-.23c.53,0,1.06-.12,1.6-.19a.23.23,0,0,0,.11,0l.87-.12,1-.18.47-.1.25-.06a.59.59,0,0,0,.19,0,.46.46,0,0,0,.18-.1.34.34,0,0,0,.11-.33.36.36,0,0,0-.33-.28h0a4.21,4.21,0,0,0-.51,0Zm-3,.26h0Zm1.22-.09h0Z"/></g><g id="Draw_Layer-9" data-name="Draw Layer"><path class="cls-12" d="M238.31,749.35a4,4,0,0,0-.78,1.68,25.78,25.78,0,0,0-.57,2.72,11.2,11.2,0,0,0,0,3,12,12,0,0,0,.24,1.44,8.45,8.45,0,0,0,.68,1.61,11.85,11.85,0,0,0,1.54,2.28,14.89,14.89,0,0,0,2,2.09,5.91,5.91,0,0,0,1.59,1,6.73,6.73,0,0,0,1.18.27s0,0,0,0c-.32-.32-.65-.63-.94-1a18.66,18.66,0,0,1-1.3-2.26c-.27-.51-.49-1-.74-1.57s-.55-.95-.8-1.44l.05.11-.11-.26c-.28-.69-.62-1.34-1-2s-.52-1.52-.76-2.28a13.27,13.27,0,0,1-.46-2.34,10.4,10.4,0,0,1,0-2.3h0v0h0a2.7,2.7,0,0,1,.19-.59h0l0-.06s0,0,0,0Zm-.14,3v0Zm0-2.37h0v0Z"/><path class="cls-13" d="M214.55,624.3a1,1,0,0,1-.1.17h0l-.31.52h0c-.61,1-1.16,2-1.76,3s-1.28,2.21-1.93,3.3-1.24,2.2-1.88,3.29-1.14,2-1.72,2.94c-.75,1.17-1.51,2.34-2.17,3.56s-1.25,2.38-1.91,3.54-1.32,2.17-1.95,3.27-1.24,2.22-1.87,3.32c-.56.91-1.14,1.81-1.69,2.72s-1.08,1.6-1.64,2.39-1.11,1.61-1.64,2.42c0,0,0,0,0,0l.34-.33h0l1.73-1.6c.59-.54,1.2-1.06,1.77-1.62s1-1.08,1.51-1.62,1.15-1.18,1.67-1.8c1-1.24,2-2.51,3-3.79a31.23,31.23,0,0,0,2.72-4.09c.39-.71.7-1.46,1-2.2s.68-1.43,1-2.15.59-1.43.86-2.16.57-1.43.85-2.15c.58-1.52,1.12-3,1.68-4.56s1.14-2.93,1.68-4.41c.24-.66.51-1.32.76-2h0Zm-.42.7Z"/><path class="cls-12" d="M223,764.14a4.05,4.05,0,0,0-.58.84,6,6,0,0,0-.46,1.67c-.09.62-.19,1.23-.27,1.85a7.53,7.53,0,0,0,.24,2.67,18,18,0,0,0,1.46,3.94,15.9,15.9,0,0,0,2.88,3.57s0,0,0,0a21.2,21.2,0,0,1-2-4.16.31.31,0,0,1,0,.08c-.36-1.31-.73-2.62-1.12-3.92l-.27-1a8.15,8.15,0,0,1-.19-1.71c0-.66-.08-1.33-.1-2a6.64,6.64,0,0,1,.1-1,7.25,7.25,0,0,1,.28-.78s0,0,0,0Zm1.3,10.36a.14.14,0,0,0,0-.06l0,.06Z"/><path class="cls-14" d="M347,705.08a14.14,14.14,0,0,0-.87,3c-.22,1-.46,2-.61,3a30,30,0,0,0-.33,3.15c0,1.07,0,2.15,0,3.23q0,1.18.15,2.37c.07.82.16,1.63.25,2.45s.19,1.62.29,2.43.29,1.77.45,2.66c0,0,0,0,0,0-.09-1.12-.16-2.25-.16-3.38s0-2.11,0-3.17,0-2.11,0-3.17,0-2,0-3c0-1.33,0-2.66.14-4v0c.09-.9.18-1.79.26-2.68a15.79,15.79,0,0,1,.38-2.83v0Zm-.61,5.56h0v0Z"/><path class="cls-14" d="M356.09,699.49c0,1.15.12,2.3.2,3.46s.06,2.37.06,3.55,0,2.41,0,3.61c0,.66.05,1.32.1,2s.1,1.15.13,1.74.07.95.05,1.42,0,1,0,1.47.07.91.1,1.37a11.83,11.83,0,0,1,.05,1.33s0,0,0,0a0,0,0,0,0,0,0,.07.07,0,0,1,0,0v0c-.08.88-.15,1.76-.19,2.64,0,0,0,0,0,0,.08-.36.17-.72.26-1.07a.57.57,0,0,1,0-.13,1.36,1.36,0,0,1,0-.2,2.11,2.11,0,0,1,0-.25q0-.37.06-.75l.06-.56c0-.08,0-.15,0-.23s.06-.41.1-.61v0a2.44,2.44,0,0,1,0-.27c0-.24,0-.47.07-.71s.07-.48.11-.71l.06-.34c0-.19,0-.37,0-.57s0-.48,0-.71c0-.05,0-.1,0-.15v0c0-.25,0-.49,0-.74.05-.76.11-1.53.16-2.29,0-1,0-2,0-2.93,0-.19,0-.37,0-.55s-.05-.44-.07-.66c-.14-1.29-.3-2.57-.53-3.85-.12-.65-.28-1.29-.44-1.93s-.34-1.18-.48-1.78h0c0-.18-.07-.36-.11-.55h0Z"/><polygon class="cls-14" points="356.23 700.04 356.23 700.03 356.23 700.04 356.23 700.04 356.23 700.04"/><polygon class="cls-14" points="356.85 719.43 356.85 719.42 356.85 719.43 356.85 719.43 356.85 719.43"/><path class="cls-14" d="M334,699.85l-.78,1.63c-.19.38-.38.76-.55,1.15h0c-.1.5-.18,1-.26,1.49h0s0,0,0,0,0,0,0,0c-.06.39-.11.79-.17,1.18s-.07.72-.1,1.08,0,.74-.05,1.11-.06.68-.06,1,0,.73,0,1.09,0,.77,0,1.15v1.09c0,.41,0,.81.07,1.22s.09.71.14,1.06l0-.06c.11.66.24,1.32.34,2l0,.2c.15.56.31,1.11.48,1.66s.34,1.11.55,1.65.46,1.12.69,1.68.55,1.26.86,1.88.59,1.09.9,1.63.57,1.05.85,1.57a.57.57,0,0,0,.08.13l-.05-.09a3.42,3.42,0,0,0-.13-.34c-.05-.14-.11-.28-.16-.43l-.11-.33c-.07-.24-.15-.47-.22-.71l-.12-.46-.06-.28-.11-.24c0-.09-.07-.19-.11-.28s-.08-.2-.11-.3c-.15-.42-.29-.85-.43-1.28s-.3-1-.44-1.52-.29-1-.42-1.49c0-.15-.08-.3-.11-.45s-.06-.27-.08-.41-.1-.42-.14-.63c-.11-.52-.22-1-.3-1.56l-.12-.89,0-.32a.22.22,0,0,1,0-.08c-.08-.49-.16-1-.23-1.47s-.12-1-.15-1.56,0-1-.06-1.45c0-.11,0-.21,0-.32,0-.41-.09-.83-.12-1.25a32.34,32.34,0,0,1-.1-4.06c0-.36.09-.72.13-1.08a10.7,10.7,0,0,1,.26-1.12c.2-.73.42-1.46.6-2.21,0,0,0,0,0,0Z"/><polygon class="cls-14" points="332.37 704.13 332.37 704.13 332.37 704.13 332.37 704.12 332.37 704.13 332.37 704.13 332.37 704.13"/><polygon class="cls-14" points="332.37 704.15 332.37 704.15 332.37 704.15 332.37 704.15 332.37 704.15 332.37 704.15"/><path class="cls-14" d="M342.78,710.34a.61.61,0,0,1,.05.12l.09.25c0-.14-.05-.28-.08-.42l-.08,0,0,.08Z"/><path class="cls-14" d="M342.9,711.06c0,.07.05.13.07.2l.1.28c0-.2-.07-.4-.11-.61a.16.16,0,0,1-.06.13Z"/><path class="cls-14" d="M333.3,733.33a7.47,7.47,0,0,0-.94,1.22,6.81,6.81,0,0,0-.76,1.9c-.08.32-.14.65-.19,1s-.08.6-.1.9a4.71,4.71,0,0,0,.17,1.29,9.55,9.55,0,0,0,.69,2,14,14,0,0,0,3,4.17,13.65,13.65,0,0,0,2.9,1.77l1.88,1s0,0,0,0c-.5-.42-1-.88-1.46-1.32-.73-.67-1.49-1.31-2.16-2a18.88,18.88,0,0,1-1.62-2.64c-.31-.56-.62-1.11-.92-1.67-.12-.26-.24-.51-.35-.77a12.17,12.17,0,0,1-.84-2.09,11.3,11.3,0,0,1-.11-2.18,7.63,7.63,0,0,1,.31-1.4v0a7.19,7.19,0,0,1,.5-1h0Zm-.76,2.38a.43.43,0,0,1,0,0v0Zm3.74,9.31.06.07-.06-.07Zm-3.44-10.65v0Z"/><path class="cls-11" d="M335.65,743.2a.71.71,0,0,0-.14.29.55.55,0,0,0-.26.37,1.51,1.51,0,0,0,.23.85,7.65,7.65,0,0,0,.58,1,7.37,7.37,0,0,0,1.27,1.41,8.11,8.11,0,0,0,.64.55l.68.5c.28.19.58.37.88.55a7.49,7.49,0,0,0,.69.36l.18.09a4,4,0,0,0,.94.42.67.67,0,0,0,.46-.05l.07,0s0,0,0,0l-.05,0a.86.86,0,0,0,.4-.4s0,0,0,0a.84.84,0,0,0-.39-1.1,4.59,4.59,0,0,0-.79-.34l-.25-.12c-.41-.23-.82-.48-1.22-.74h0a9,9,0,0,1-1.77-1.48,9.77,9.77,0,0,1-.8-1.11c-.11-.17-.2-.35-.29-.52l0-.06v0a.64.64,0,0,0-.11-.3.94.94,0,0,0-.29-.27.41.41,0,0,0-.23-.06.65.65,0,0,0-.45.2Zm1.11.52a.31.31,0,0,1,.05.1.31.31,0,0,0-.05-.1Zm2.68,3,.1.06-.1-.06Z"/><path class="cls-11" d="M333.48,738.73a8.35,8.35,0,0,0,.13,1.12,7.9,7.9,0,0,0,.27.95,11.47,11.47,0,0,0,.42,1.11c.13.31.3.61.46.91a4.16,4.16,0,0,0,.24.47l.35.53a8.73,8.73,0,0,0,1.15,1.35,8.22,8.22,0,0,0,1.68,1.32s0,0,0,0l-.54-.4-.5-.44c-.3-.29-.58-.6-.86-.91h0a7.42,7.42,0,0,1-.78-1.06c-.11-.18-.22-.36-.32-.54-.2-.42-.41-.82-.63-1.24h0v0h0c-.09-.2-.19-.4-.27-.6s-.18-.45-.26-.68-.17-.46-.25-.69-.12-.43-.18-.65h0a2.47,2.47,0,0,1-.06-.29h0a1.85,1.85,0,0,1,0-.23h0Zm2.81,6v0Zm-1.73-2.84Zm-.95-2.62h0Z"/><path class="cls-11" d="M333.22,737.63c0,.5.1,1,.16,1.51a13.13,13.13,0,0,0,.21,1.4,12.44,12.44,0,0,0,.63,2,7.67,7.67,0,0,0,.89,1.61c.21.29.45.56.69.83a5.78,5.78,0,0,0,.49.5,3.19,3.19,0,0,0,.76.61.46.46,0,0,0,.6-.22.61.61,0,0,0-.19-.68c-.18-.22-.38-.42-.58-.62-.37-.39-.74-.77-1.1-1.17a15.46,15.46,0,0,1-1.32-1.91c-.16-.36-.3-.72-.43-1.08s-.2-.6-.28-.91a3.66,3.66,0,0,1,0-.66h0l0-.17h0l0,0h0l.11.06s0,0,0,0-.17-.14-.2,0a2.2,2.2,0,0,0-.06.37v0c-.12-.47-.25-.93-.38-1.39h0s0,0,0,0Zm.56,2Zm.88,2.24h0Zm1.06,1.41,0,0,0,0Z"/><path class="cls-11" d="M333.13,737.34a.44.44,0,0,0-.41.47,1.51,1.51,0,0,0,.1.42v.06c0,.15.06.32.1.48s.08.43.13.64.07.23.1.35a8,8,0,0,0,.34,1,7.86,7.86,0,0,0,.41.94q.12.27.27.54a4,4,0,0,0,.38.62.58.58,0,0,0,.62.21l.07,0c.19.26.4.51.6.76,0,0,0,0,0,0l-.49-.84a.54.54,0,0,0,.14-.56,1.83,1.83,0,0,0-.32-.53c-.13-.23-.26-.48-.38-.72-.22-.5-.44-1-.61-1.51-.1-.31-.2-.61-.28-.92a8.7,8.7,0,0,0-.35-1.13.45.45,0,0,0-.41-.3Zm.51.77s0,0,0,.07v-.07Z"/><path class="cls-14" d="M355.87,725a2.55,2.55,0,0,0-.56.48,5.39,5.39,0,0,0-.73,1.1,10.5,10.5,0,0,0-.69,1.79,17.87,17.87,0,0,0-.46,1.78,12.48,12.48,0,0,0-.14,3,10.38,10.38,0,0,0,.48,2.6c.26.77.53,1.52.82,2.28,0,0,0,0,0,0a27.46,27.46,0,0,1-.26-4.15.57.57,0,0,0,0,.13c0-.81.12-1.62.23-2.43s.17-1.47.3-2.19a28.18,28.18,0,0,1,.66-3.19,5.08,5.08,0,0,1,.4-.85l0,0a1.48,1.48,0,0,1,.26-.3l.1-.05.31,0s0,0,0,0l-.24-.06h-.09a.91.91,0,0,0-.38.13Z"/><path class="cls-14" d="M364.58,725.58a10.2,10.2,0,0,0-1.3,1.33,9.84,9.84,0,0,0-2,4.24,11,11,0,0,0,.3,5.62,15.77,15.77,0,0,0,1.22,2.68,0,0,0,0,0,0,0c-.08-.33-.15-.65-.23-1h0c-.09-.46-.18-.9-.25-1.36a18.79,18.79,0,0,1-.11-3.27V734c.05-1,.18-1.93.32-2.88a17.3,17.3,0,0,1,.56-2.59l0,.1a13.33,13.33,0,0,1,1.41-2.92h0l.07-.1s0,0,0,0Zm-.06.13h0Z"/><path class="cls-14" d="M355,739.7a4.51,4.51,0,0,0,.46.68,5,5,0,0,0,1.17.94,5.61,5.61,0,0,0,1.52.58,4.46,4.46,0,0,0,1.82,0,4.64,4.64,0,0,0,1-.32,4.34,4.34,0,0,0,1.14-1,0,0,0,1,0,0,0l-.37.16h0a6,6,0,0,1-1.24.4,9.22,9.22,0,0,1-1.39,0h0a11.93,11.93,0,0,1-2.63-.66,8.83,8.83,0,0,1-1.48-.87h0s0,0,0,0Zm1.45.84h0Zm5.28.26h0Z"/><path class="cls-14" d="M371,740.14c-.46.24-.91.48-1.39.7l0,0,0,0h0a9.69,9.69,0,0,1-2.17.59,7.79,7.79,0,0,1-1.74,0,6.7,6.7,0,0,1-.88-.23l.06,0a3.92,3.92,0,0,1-.85-.47l-.28-.25s0,0,0,0a3,3,0,0,0,1.16,1.31,4,4,0,0,0,2.61.53,5.37,5.37,0,0,0,3.53-2.21s0,0,0,0Zm-7,.63Zm5.57.07h0Z"/><path class="cls-14" d="M347.42,740.5a16.2,16.2,0,0,1,.47,1.82,4.38,4.38,0,0,1,0,.81,6.28,6.28,0,0,1-.34,1.29,4.68,4.68,0,0,1-.53.92,6.91,6.91,0,0,1-.75.78,4.95,4.95,0,0,1-2.31.93,9.36,9.36,0,0,1-2,0h0c-.36-.06-.72-.13-1.08-.22a0,0,0,0,0,0,0,8.93,8.93,0,0,0,1.66.61,6.43,6.43,0,0,0,1.91.13,4.41,4.41,0,0,0,3.23-1.75,4.3,4.3,0,0,0,.75-3.4,4.44,4.44,0,0,0-.5-1.11c-.16-.28-.32-.55-.49-.82h0s0,0,0,0Zm-1.09,5.56,0,0,0,0Zm-4.39,1h0Zm2,0h0Z"/><path class="cls-14" d="M339.31,732.23c.91.94,1.8,1.89,2.74,2.8.45.43.9.86,1.36,1.28s1,.82,1.46,1.24a0,0,0,1,0,0,0,15.85,15.85,0,0,0-1.07-1.51h0l0,0h0a11.77,11.77,0,0,0-2-2.16,13.87,13.87,0,0,0-2.52-1.62h0s0,0,0,0Zm4.5,3.79h0l0,0,0,0Z"/><path class="cls-11" d="M333.42,712.94c0,.25,0,.51,0,.76s0,.46.06.69.05.39.08.59a5.77,5.77,0,0,0,.08.58c0,.26.09.52.14.77a6.21,6.21,0,0,0,.14.62c0,.18.08.35.12.52s.05.22.08.33,0,.29.08.44.07.32.11.48c.07.34.16.68.25,1s.17.59.25.89.17.54.25.81.11.33.16.49.07.21.11.3c.11.32.22.63.34.94a13.26,13.26,0,0,0,.54,1.36c.09.2.21.39.31.59l.12.19a1.87,1.87,0,0,0,.2.29.26.26,0,0,0,.3,0,.38.38,0,0,0,.09-.09.32.32,0,0,0,0-.19.93.93,0,0,0-.16-.35.88.88,0,0,0,0-.16,3.4,3.4,0,0,0-.12-.34,2,2,0,0,0-.1-.26c-.07-.22-.15-.43-.23-.64l0,0a.27.27,0,0,0,0-.18,1.12,1.12,0,0,0-.08-.26c0-.13-.12-.26-.17-.38s-.07-.16-.1-.23l-.06-.15h0a.33.33,0,0,0,.08-.19,1.5,1.5,0,0,0,0-.2c0-.09-.05-.17-.07-.25a.26.26,0,0,0,.13-.16v0a.33.33,0,0,0,0-.14.5.5,0,0,0,0-.12,1.83,1.83,0,0,0-.08-.25l-.15-.44c-.09-.26-.19-.52-.28-.77l0-.11c-.16-.52-.29-1-.43-1.57L335,716.7v-1.31a.25.25,0,0,0-.4-.2l-.15-.59,0-.3c0-.22,0-.44-.09-.65a.21.21,0,0,0-.1-.14,1.1,1.1,0,0,1,0-.18,1.11,1.11,0,0,0,0-.19.42.42,0,0,0-.09-.19.26.26,0,0,0-.11-.07h-.09a.24.24,0,0,0-.48.07Zm0,.22Z"/><path class="cls-12" d="M226.68,749.73a.26.26,0,0,0,.22.28l2.41.11c.66,0,1.31.07,2,.09l1.14,0h.4l.82,0H234l.53,0,1.53-.14a.26.26,0,0,0,.2-.29.25.25,0,0,0-.28-.21l-2,.19-.83,0-.5,0h-.2c-.57,0-1.13,0-1.7,0l-3.79-.18h0a.25.25,0,0,0-.26.22Zm7.33,0h0Z"/><path class="cls-12" d="M235.58,749.57l-.88.11-.61.08c-.46,0-.91.08-1.37.12h.07l-1.42,0h-1.28l-1.15,0c-.48,0-1,0-1.43,0a.25.25,0,1,0,0,.5c.67,0,1.34,0,2,0h1.85l1.23,0h.26l.53,0,.93-.08,1.39-.17a.26.26,0,0,0,.21-.29.25.25,0,0,0-.26-.21Z"/><path class="cls-12" d="M234.19,750h-.79l-1.47,0c-.48,0-1,0-1.45.08l-.85,0c-.33,0-.66,0-1,.06a.25.25,0,0,0-.21.22v0h0a.25.25,0,0,0-.21.22.25.25,0,0,0,.22.28l.14,0a.19.19,0,0,0,0,.07.22.22,0,0,0,.06.19.26.26,0,0,0,.15.09.26.26,0,0,0-.09.16.33.33,0,0,0,.06.19.27.27,0,0,0,.17.08l.2,0h.17l.34,0h.28l-.13,0c-.08,0-.12.11-.16.17a.25.25,0,0,0,0,.25.26.26,0,0,0,.2.15l.63.13-.35,0a.27.27,0,0,0,.09.53l.68-.09.36,0,.48-.08c.11,0,.23-.07.34-.1a.23.23,0,0,0,.14-.2.26.26,0,0,0-.1-.24l-.07-.06a.49.49,0,0,0-.17-.06l-.28,0h0l.31,0,.14,0a1.4,1.4,0,0,0,.28-.06,1.08,1.08,0,0,0,.24-.12c.08,0,.14-.1.14-.2a.24.24,0,0,0-.15-.26l-.09,0,.21,0a3.06,3.06,0,0,0,.43-.13.16.16,0,0,0,.11-.1l.31,0,.89-.06a.25.25,0,0,0,.21-.22.26.26,0,0,0-.05-.19h0l.26,0,.18,0a.75.75,0,0,0,.18-.08.25.25,0,0,0,.14-.18.22.22,0,0,0,0-.14.3.3,0,0,0,0-.1.23.23,0,0,0-.2-.15l-.57,0Zm-2.5,2.45h0Z"/></g><g id="Draw_Layer-10" data-name="Draw Layer"><path class="cls-3" d="M221.57,686.65c-.82.5-1.62,1-2.42,1.54-.62.39-1.22.78-1.84,1.15a21.25,21.25,0,0,1-3.42,1.6c-1.72.59-3.47,1-5.24,1.44a42.34,42.34,0,0,1-5.57,1.15,21.37,21.37,0,0,1-5-.23,20.2,20.2,0,0,1-2.54-.67c-.46-.15-.91-.34-1.36-.52-.65-.25-1.27-.57-1.9-.85,0,0,0,0,0,0,.53.47,1.07,1,1.64,1.39.39.3.79.59,1.2.86a16,16,0,0,0,2.6,1.35,16.69,16.69,0,0,0,10.94.55c1.18-.32,2.35-.67,3.5-1.1a17.34,17.34,0,0,0,7.86-5.61c.55-.67,1.08-1.34,1.56-2.05a0,0,0,0,0,0,0Zm-7.51,4.23-.12,0,.12,0Z"/><path class="cls-3" d="M241.68,687.24a10.46,10.46,0,0,0,7.9,6.46,27.69,27.69,0,0,0,3.37.61,14.34,14.34,0,0,0,2.62.13,16.1,16.1,0,0,0,7.79-1.91,15.57,15.57,0,0,0,3.35-3,9.37,9.37,0,0,0,1.33-1.81s0,0,0,0a17.29,17.29,0,0,1-1.74.95c-1,.47-1.91.9-2.89,1.28a14.87,14.87,0,0,1-3.09.7c-1.05.07-2.11.06-3.17.09-.71,0-1.44,0-2.14,0-2.31-.16-4.61-.13-6.91-.48a17.73,17.73,0,0,1-3.26-1,24.59,24.59,0,0,1-3.14-2h0s0,0,0,0Zm21.7,2.71-.16.06.16-.06Zm-15.59.22.1,0-.1,0Z"/><path class="cls-1" d="M204.55,665.68c-.83.12-1.64.26-2.46.41a29.93,29.93,0,0,0-3.7.94,24,24,0,0,0-6.87,3.5,24.64,24.64,0,0,0-5,5,27.58,27.58,0,0,0-2.24,3.68s0,0,0,0c.56-.58,1.12-1.17,1.69-1.75.89-.89,1.86-1.69,2.82-2.49a28,28,0,0,1,3.35-2.35,41.88,41.88,0,0,1,9.64-3.92l-.32.09c2.79-.78,5.59-1.47,8.37-2.27q3-.87,5.92-1.83s0,0,0,0a112,112,0,0,0-11.28,1Z"/><path class="cls-1" d="M252.73,664c-.87,0-1.75,0-2.61.08-2,.14-3.91.3-5.87.43,0,0,0,0,0,0,1.26.11,2.52.19,3.78.26.94.05,1.87.09,2.81.17l1.91.17c.45,0,.9.12,1.34.18l1.94.26c.48.06,1,.16,1.42.24.8.15,1.59.32,2.37.52l-.17-.05a31.19,31.19,0,0,1,7.45,2.92c1,.58,2,1.22,2.95,1.86s1.87,1.34,2.84,2,1.66,1.1,2.5,1.64c.68.44,1.39.83,2.09,1.23.91.51,1.81,1,2.73,1.51a0,0,0,0,0,0,0c-1.12-.94-2.22-1.89-3.33-2.84s-2.08-1.8-3.12-2.7c-.59-.5-1.16-1-1.75-1.53-.75-.64-1.55-1.24-2.35-1.82a22.72,22.72,0,0,0-4.93-2.7,25.15,25.15,0,0,0-5.54-1.4,30.88,30.88,0,0,0-3.59-.32l-1.83-.06c-.3,0-.59,0-.89,0Zm7.16,2.34h0Z"/><path class="cls-3" d="M235.84,703.11a4.26,4.26,0,0,1,.06.5,4.63,4.63,0,0,1-.12.91,13.24,13.24,0,0,1-.8,2.07,6.44,6.44,0,0,1-.52.65,9.53,9.53,0,0,1-1.38,1.06,10,10,0,0,1-1.68.73,5.82,5.82,0,0,1-1,.13,7,7,0,0,1-.91-.09,5.17,5.17,0,0,1-1-.4,2.11,2.11,0,0,1-.35-.26,5.65,5.65,0,0,1-.56-.73,8.8,8.8,0,0,1-.54-1.4,10.9,10.9,0,0,1-.2-1.79s0,0,0,0a7.18,7.18,0,0,0-.45,2.19,4.73,4.73,0,0,0,.51,2.25,3.88,3.88,0,0,0,1.84,1.65,4.83,4.83,0,0,0,2.73.36,5.75,5.75,0,0,0,2.29-1,6.32,6.32,0,0,0,2-2.07,5.13,5.13,0,0,0,.58-2.52,9.24,9.24,0,0,0-.05-1.18,2.83,2.83,0,0,0-.4-1.08h0Zm-6.28,6,.12,0-.12,0Z"/><path class="cls-3" d="M254.2,721c-1.5.75-3,1.49-4.53,2.2s-3.22,1.37-4.87,2a57.86,57.86,0,0,1-14,2.76c-2.28.16-4.55.17-6.83.12a46.18,46.18,0,0,1-6.75-.53,24,24,0,0,1-5.45-1.7h0a21.61,21.61,0,0,1-2.63-1.44s0,0,0,0a18.59,18.59,0,0,0,5.71,4.53,26,26,0,0,0,7.62,2.35,41.52,41.52,0,0,0,8.4.65,32,32,0,0,0,8.51-1.54,34.06,34.06,0,0,0,7.25-3.21c1.07-.63,2.08-1.36,3.09-2.08a18.52,18.52,0,0,0,1.89-1.55c.88-.81,1.75-1.64,2.58-2.51,0,0,0,0,0,0Z"/><path class="cls-15" d="M253.29,707.09c-.3.78-.62,1.57-.93,2.35a.25.25,0,0,0,.14.32.26.26,0,0,0,.33-.14l.93-2.34a.25.25,0,0,0-.14-.32.15.15,0,0,0-.09,0,.27.27,0,0,0-.24.15Z"/><path class="cls-15" d="M256.67,704.37c-1,2-1.94,4-2.82,6a.56.56,0,0,0,.31.73.55.55,0,0,0,.72-.31q1.49-3,2.92-5.94a.62.62,0,0,0-.34-.79.57.57,0,0,0-.22,0,.64.64,0,0,0-.57.38Z"/><path class="cls-15" d="M259.14,704.06c-.61,1.32-1.22,2.64-1.82,4s-1.07,2.48-1.6,3.72a.62.62,0,0,0,.34.81.64.64,0,0,0,.82-.35c.57-1.21,1.09-2.44,1.65-3.66s1.21-2.66,1.83-4a.65.65,0,0,0-.37-.85.52.52,0,0,0-.24-.05.7.7,0,0,0-.61.41Z"/><path class="cls-15" d="M263.41,703.52a.43.43,0,0,0-.25.26c-.43.83-.85,1.66-1.27,2.5-.32.64-.61,1.29-.92,1.94-.62,1.32-1.17,2.67-1.76,4a.46.46,0,0,0,.85.34c.61-1.3,1.16-2.63,1.76-3.93.31-.66.6-1.32.92-2,.43-.85.85-1.71,1.29-2.56a.46.46,0,0,0-.26-.6.42.42,0,0,0-.36,0Z"/><path class="cls-15" d="M265.15,703.07q-1,2.23-1.92,4.5c-.32.79-.64,1.58-1,2.37a23,23,0,0,0-.88,2.53,1.13,1.13,0,0,0,0,.79,1.11,1.11,0,0,0,.57.56,1.06,1.06,0,0,0,1.35-.58c.68-1.58,1.36-3.16,2-4.75s1.26-3,1.94-4.56a1.15,1.15,0,0,0-.64-1.49,1,1,0,0,0-.42-.08,1.17,1.17,0,0,0-1.06.71Z"/><path class="cls-15" d="M268.32,704.06c-.56,1.32-1.14,2.62-1.72,3.93l-.66,1.52c-.12.29-.25.59-.37.89a9.69,9.69,0,0,0-.38,1.19,1,1,0,0,0,.08.51,1,1,0,0,0,.54.53,1,1,0,0,0,1.31-.55c.5-1.09.95-2.2,1.43-3.3q.87-2,1.71-3.93a1,1,0,0,0-.58-1.37,1,1,0,0,0-.38-.07,1.07,1.07,0,0,0-1,.65Z"/><path class="cls-15" d="M270.46,704.91c-.42,1.15-.85,2.29-1.3,3.44a.72.72,0,0,0,.4.92.73.73,0,0,0,.93-.39c.49-1.12.91-2.27,1.33-3.42a.74.74,0,0,0-.41-1,.75.75,0,0,0-.26,0,.74.74,0,0,0-.69.46Z"/><path class="cls-15" d="M273.2,705.4c-.32.77-.64,1.53-1,2.28a.61.61,0,1,0,1.13.45c.36-.74.68-1.5,1-2.27a.62.62,0,0,0-.35-.8.59.59,0,0,0-.22,0,.62.62,0,0,0-.58.39Z"/></g><g id="Draw_Layer-11" data-name="Draw Layer"><path class="cls-15" d="M187.42,708.92l-.93,2.34a.25.25,0,0,0,.46.19c.32-.78.62-1.56.94-2.35a.26.26,0,0,0-.14-.32l-.1,0a.26.26,0,0,0-.23.16Z"/><path class="cls-15" d="M190.8,706.19c-1,2-2,4-2.83,6a.56.56,0,0,0,.31.72.58.58,0,0,0,.43,0,.61.61,0,0,0,.3-.31c1-2,2-4,2.91-5.93a.61.61,0,0,0-.33-.79.63.63,0,0,0-.22-.05.66.66,0,0,0-.57.38Z"/><path class="cls-15" d="M193.27,705.88c-.61,1.32-1.22,2.64-1.82,4s-1.08,2.48-1.61,3.72A.63.63,0,0,0,191,714c.58-1.21,1.1-2.45,1.65-3.67l1.83-4a.66.66,0,0,0-.36-.85.65.65,0,0,0-.85.36Z"/><path class="cls-15" d="M197.54,705.34a.55.55,0,0,0-.26.26c-.43.83-.84,1.67-1.26,2.5-.32.64-.62,1.3-.92,1.95-.62,1.31-1.18,2.66-1.76,4a.46.46,0,1,0,.85.34c.61-1.3,1.16-2.63,1.76-3.93.31-.65.6-1.31.92-2,.42-.85.85-1.7,1.28-2.55a.46.46,0,0,0-.26-.61.47.47,0,0,0-.17,0,.52.52,0,0,0-.18,0Z"/><path class="cls-15" d="M199.27,704.9q-1,2.22-1.92,4.5c-.32.79-.64,1.57-.94,2.37a25.12,25.12,0,0,0-.89,2.52,1.13,1.13,0,0,0,0,.79,1,1,0,0,0,.57.56,1,1,0,0,0,1.34-.57c.69-1.58,1.37-3.16,2-4.75s1.26-3.06,1.93-4.57a1.15,1.15,0,0,0-.63-1.49,1.25,1.25,0,0,0-.42-.08,1.19,1.19,0,0,0-1.07.72Z"/><path class="cls-15" d="M202.45,705.89c-.57,1.31-1.14,2.62-1.72,3.93-.23.5-.44,1-.66,1.51-.12.3-.26.59-.37.89a8.65,8.65,0,0,0-.38,1.19,1,1,0,0,0,.07.51,1.07,1.07,0,0,0,.55.54,1,1,0,0,0,1.3-.56c.5-1.09,1-2.2,1.44-3.3.57-1.31,1.15-2.62,1.71-3.93a1.07,1.07,0,0,0-.58-1.37,1.06,1.06,0,0,0-.38-.07,1.08,1.08,0,0,0-1,.66Z"/><path class="cls-15" d="M204.59,706.73c-.42,1.15-.86,2.3-1.3,3.44a.72.72,0,0,0,.4.93.73.73,0,0,0,.93-.4c.48-1.12.91-2.27,1.33-3.42a.73.73,0,0,0-.41-.95.58.58,0,0,0-.26-.05.72.72,0,0,0-.69.45Z"/><path class="cls-15" d="M207.32,707.22c-.32.77-.63,1.53-1,2.28a.61.61,0,0,0,1.14.46c.35-.75.68-1.51,1-2.27a.64.64,0,0,0-.35-.81.59.59,0,0,0-.23,0,.64.64,0,0,0-.58.39Z"/></g></g></svg>