<svg xmlns="http://www.w3.org/2000/svg" viewBox="0 0 397.17 316.25"><defs><style>.cls-1{fill:#0b17ff;}.cls-2{fill:#fefefe;}.cls-3{fill:#99e287;}.cls-4{fill:#69d470;}.cls-5{fill:#99bffa;}.cls-6{fill:#c7e8ff;}</style></defs><g id="Layer_2" data-name="Layer 2"><g id="Draw_Layer" data-name="Draw Layer"><path class="cls-1" d="M341.93,174.78h0l0,0Z"/><path class="cls-1" d="M230.83,83.42h6.54l-6.53,0a.43.43,0,0,0,0,0Z"/><path class="cls-2" d="M287.52,0a2,2,0,0,0-.58.24H216.82l-.43,0h-.3l-.47,0-.86.06-.12.08-.1.1-.33.3L214,1c-.41.38-.82.76-1.22,1.15-.2.2-.4.39-.61.57l-.5.48c-.36.34-.72.68-1.11,1l-.37.29L210,4.7l-.14.12-.46.37-.07.08-2.4,2.28-2.87,2.75c-1.55,1.48-3.08,2.95-4.61,4.4l-3.71,3.54L193.91,20l-1.83,1.75-1.9,1.81-5.5,5.1q-4.74,4.37-9.47,8.75c-1.12,1-2.26,2.1-3.4,3.15l-1.14,1.05-.47.43-1.79,1.65-.54.49-.08.09c-.45.4-1,.91-1.49,1.43a1.7,1.7,0,0,0-.25.39l-.83.77-.15.14-2.34,2.19-1.16,1.1-.13.13-.14.12h-1.84l-5.73,0H150c-1.57,0-3.14,0-4.71,0h-15.2l-5.45,0h-6.77c-.93,0-2.16,0-3.39.1h-.15l-1.79.16-.32,0-.32,0-.15.11-.11.09-.57.52-.09.08-.19.17-.11.09-.52.42c-.18.14-.37.29-.54.44l-.29.26-.17.16-.17.15c-.36.33-.72.65-1.1,1s-.62.54-.92.83l-.33.32-.22.21-.09.07c-.31.29-.63.55-1,.81l-.11.08-.61.52-.17.15-.12.1-.44.36c-.34.26-.68.52-1,.77l-.67.5-.6.48-.1.08-.24.2-.13.1c-.39.33-.77.64-1.16.93-.19.15-.37.32-.55.48l-.21.18-.49.4c-.27.22-.56.44-.85.65l-.45.32-.7.61c-.3.26-.6.52-.91.77s-.78.68-1.16,1l-.3.27-.68.59-.09.09c-.28.23-.56.48-.83.73l-.8.77-.55.53-.3.3-.31.29c-.25.25-.5.5-.76.74l-.06.07-.12.1-.52.46-.14.13c-.31.26-.61.52-.89.79l-1,.94-.18.17-.36.33-1.49,1.4a2.21,2.21,0,0,1-.47.33l-.19.07c-.18.15-.35.31-.51.47-.44.42-.91.83-1.37,1.23-.19.17-.37.35-.55.53l-.17.15-.08.09-.46.45c-.28.26-.55.53-.82.8s-.25.27-.38.41L77.49,81l-4.24,3.91q-2.77,2.57-5.53,5.18c-.86.82-1.72,1.62-2.57,2.44l-.46.44-.46.44c-.43.35-.85.71-1.27,1.07l-.3.21-.31.3-.24.24-.24.23-.42.42-.91.88-.43.43-.4.41-.2.22-.2.2-.2.21-.65.68-.12.13-.13.13,0,1.68v12c0,1.39,0,2.79,0,4.18a.27.27,0,0,0,0,.15,3.87,3.87,0,0,0,0,.48v.12l0,.8v.85c0,.17,0,.24,0,.31,0,.52,0,1,0,1.57v1.08a2.44,2.44,0,0,0,0,.27l0,.17V123c0,.18,0,.23,0,.29s0,.33,0,.49v.47l0,.11a.28.28,0,0,0,.18.3.34.34,0,0,0,.19,0h.92l.25,0,.16,0,.2,0,.67,0H62a.76.76,0,0,0,.22,0h.47c.36,0,.73,0,1.09,0l.26,0,.25,0h73.31l-.71.61-.11.11-.69.72a5.49,5.49,0,0,0-.48.6c-.34.38-.63.68-.93,1l-.11.11-.3.3H42.45l-.25.22-.25.24-.07.07-.25.22-.47.44c-.34.32-.7.63-1,.93l-.46.41-.45.39-.9.8-.9.8c-.3.28-.61.54-.93.79l-.47.38c-.62.57-1.23,1.16-1.83,1.74-.79.7-1.57,1.41-2.34,2.12l-2.52,2.32-.82.76-4.63,4.24-1.11,1-.73.66-.09.08-2.29,2.07-2,1.83-.68.62-.22.21-1.28,1.18q-4.25,3.89-8.44,7.76l-.68.63-.4.37c-.8.75-1.59,1.48-2.39,2.21l-1.14,1.05-.35.31-1,.89-.15.13a5.82,5.82,0,0,0-.61.6l0,.14v.11c0,.2,0,.39,0,.59s0,.45,0,.68l0,.49,0,6.21V197l-.14,0,0,.18c0,.7,0,1.41,0,2.11a.76.76,0,0,0,0,.15v.11c0,.47,0,.94,0,1.42l0,.82c.45.05.86.06,1.26.07s.84,0,1.26.08l.35,0,.32,0,1.07.09.17,0h29c-1.93,1.72-4,3.68-7.06,6.55-.78.75-1.56,1.5-2.33,2.26l-.49.45-.52.49-.46.43c-.36.32-.71.65-1.05,1a7.48,7.48,0,0,0-.91.65l-.52.43-.28.22-.76.69-.1.09-.16.16-1.26,1.19-.15.14-.08.08-.1.09-.1.1c-.24.23-.49.47-.72.71a1.37,1.37,0,0,0-.2.23l-.64.58-.43.4-.36.44c-.13.16-.25.32-.39.47v1.5c0,.77,0,1.55,0,2.32,0,.48,0,1,0,1.45,0,1.68,0,3.5-.08,5.36v.23l0,.25v.75c0,.89,0,1.77,0,2.65l0,1.34c0,1.05.11,2.64.06,4.13,0,1.79,0,3.59,0,5.06v1a.44.44,0,0,0,0,.15l0,.16a2.88,2.88,0,0,0,0,.48v.16c0,.13,0,.25,0,.38v.62l0,.31v.31l0,.54c0,.36,0,.72,0,1.08a2.07,2.07,0,0,0,.4,0l.4,0h.66c.31,0,.58,0,.85,0h.57l.38,0,1,0h.17l34.47,0c-1.44,1.24-2.85,2.56-4.29,3.91q-4.89,4.6-9.74,9.25l-.32.31-.18.17-.17.16-2.39,2.24c-1.92,1.8-3.84,3.61-5.77,5.4L28,274l-2.39,2.23L23.66,278l-.11.07-.1.07-1,.93-1.15,1.06-1.14,1.06-.28.26-.28.26a.43.43,0,0,0-.1.25.85.85,0,0,0-.05.21c0,.08,0,.17,0,.25a.87.87,0,0,0,0,.19c0,.12,0,.23,0,.35l0,.22,0,.15v.27c0,.08,0,.16,0,.24v.47c0,.07,0,.13,0,.19l0,.3v.29l.18,3.87.18,3.86V293l.51,10.73v.22c0,.85.08,1.62.11,2.4l0,.33V307l0,.24.21,4.47L21,316.1a1.31,1.31,0,0,0,.5.08l23.44,0h.26l19.27,0H99.68c.42,0,.84-.05,1.26-.06h.38l.87,0h1.47l.75,0c.63-.65,1.31-1.34,2.1-2.09l0-.13.09-.08.1-.11.27-.31c.39-.43.77-.86,1.14-1.3l.25-.29.13-.14.13-.14.16-.18.83-.83c1-1,2-1.94,3-2.85l.62-.55.38-.32a5.63,5.63,0,0,0,.89-.86,2.61,2.61,0,0,0,.34-.58l.3-.26,1.46-1.3q3.27-3,6.51-6c3.61-3.35,7.34-6.9,10.63-10l.33-.31.41-.38,1.2-1.14q7.83-7.47,15.64-15l1.89-1.81,2.55-2.43,5.2-5,.5-.48.5-.48,2.72-2.48a1.19,1.19,0,0,0,.49.28,3,3,0,0,0,.53.11,6,6,0,0,0,1.12.13l.51,0,.49,0c.23,0,.47.05.72.06.44,0,.88,0,1.33,0h7.21l6.12,0,7.68,0h21l9.83.06,6.41,0,22.38.15,9.52,0,4.85,0,6.93,0h4.89c.44,0,.89,0,1.34,0s1.1,0,1.66,0,1,0,1.44,0h.24a2.26,2.26,0,0,0,1.05-.25,2.57,2.57,0,0,0,.38-.23.53.53,0,0,0,.32-.21c.2-.22.41-.43.62-.63l.45-.38.09-.08.33-.33.18-.18.15-.16.08-.13,1-.89a.76.76,0,0,0,.15-.09l.57-.51.19-.18.17-.15.54-.51.55-.51,1.57-1.47.52-.48,4.21-3.94.77-.72,1.91-1.79L303,240.1a.36.36,0,0,0,.07-.1l.43-.39.41-.38a.53.53,0,0,0,.15-.25l2.81-2.62,5.5-5.12,2.75-2.57,2.8-2.61,1.63-1.53q1.65-1.51,3.28-3.05l.45-.43,6.44-6,.31-.29.17-.16.55-.51a.83.83,0,0,0,.08-.12l.48-.41V212.2c0-.14,0-.27,0-.4v-.2c0-.48,0-.94,0-1.41v-.83c0-.07,0-.15,0-.22v-1c0-.28,0-.56,0-.84a.86.86,0,0,1,0-.16v-.55c0-.19,0-.37,0-.55l0-.19v-.33a.41.41,0,0,1,0-.11c0-.39,0-.74,0-1.08s0-.88,0-1.33v-.18c0-.13,0-.25,0-.37v-.79l0-.57v-.56c0-.25,0-.5,0-.75l-.05-2.12a2.49,2.49,0,0,0,.07-.53c0-2.09,0-4.22,0-6.28v-1.14l0-2.19,0-1.9v-1.51l0-2.35-.05-.1v-.36l0-.25c0-.14,0-.28,0-.42l0-.4,0-.4,0-.24v-.94c0-.14,0-.29,0-.44,0-.41,0-.82,0-1.21s0-.93,0-1.4c0-.23,0-.44,0-.65l-.18,0h-.14l-.78,0h-.27l-.52,0-1.73-.08H279.44l.32-.22.11-.1,9.31,0h41.21l.14,0,.4,0h1.35l.67,0h.19a2.34,2.34,0,0,0,.38,0h1.67l.3,0h.75l.35,0,8.42,0H357.3a12.64,12.64,0,0,1,1.37,0h.47a7.85,7.85,0,0,1,1-.06h1.43c.38,0,.76,0,1.13,0l.29,0,1.21,0h.18l.2.07h.34l.64,0h.7l.9-.06h1.74l1.08,0h1.16l1.6-1.46.8-.75,1.41-1.3,1.41-1.31a.72.72,0,0,0,.18-.11l.18-.16.18-.16.59-.56.2-.18,1.1-1,.57-.53,3.28-3.07,3.31-3.09,3.3-3.09,4.38-4.09,2.19-2,.65-.6.65-.61v-2.16c0-.58,0-1.16,0-1.73,0-.32,0-.63,0-.94s0-.36,0-.54,0-.15,0-.21a2.19,2.19,0,0,1,0-.37l0-.09c0-.61,0-1.22,0-1.82,0-2.17,0-4.28,0-6.39l0-2.5v-2.5c0-1.53,0-3.07,0-4.6l0-.4c0-.25,0-.41,0-.59,0-.46,0-.92,0-1.38l0-.41,0-.42v-.26c0-.51,0-1,0-1.54,0-.17,0-.27,0-.38l-.44,0-.5,0-.71-.07H251.32a10.83,10.83,0,0,0,1.25-1.06l.41-.42.25-.29.13-.15.12-.14.32-.34.23-.24a2.61,2.61,0,0,1,.24-.23l.16-.14.11-.09.22-.21.22-.21.16-.17.11-.13a.82.82,0,0,0,.13-.17c0-.09.09-.15.16-.15a.2.2,0,0,1,.12,0,1,1,0,0,1,.24-.14.62.62,0,0,1,.19-.06h.17l.11.07.13,0h.13c.24,0,.47,0,.69,0h.12l.22,0,.14,0,.34,0c1,0,2.07.09,3.11.11s1.91,0,2.86,0H268c2.82,0,5.63-.06,8.46-.09l1.7,0,4.52-.06H283l7.48-.09,4.74-.08,2.72-.05,1.65,0,1.59,0,1.63,0,6.26.07,3.15,0,1.64,0,2.32,0h.48c.53,0,1.05,0,1.57,0l.91,0,.2,0,.2,0a10.29,10.29,0,0,0,1.21.07h.11c.32,0,.65,0,1,0l.17,0h.16l.24-.07h.21a9.93,9.93,0,0,1,1.32-.13l.32-.31.14-.17.15-.16.64-.6c.66-.61,1.26-1.18,1.87-1.76l.36-.35.56-.54.19-.2.41-.39.47-.35.08-.07a2.73,2.73,0,0,1,.25-.23l-.15-.07.16-.07.37-.33,1.35-1.17c.63-.56,1.24-1.13,1.85-1.71l.14-.14.72-.67,3.61-3.43.28-.26,1.32-1.25q5.42-5.13,10.88-10.22,3.6-3.37,7.23-6.74c.19-.2.33-.35.48-.49l.11-.12c.14-.15.29-.29.44-.43.31-.33.61-.66.92-1l.1-.11v-.33c0-.26,0-.52,0-.78l0-.85,0-.82V78.79c0-.1,0-.2,0-.29a3.34,3.34,0,0,1,0-.36v-.22c0-.38,0-.72.06-1.07v-.64c0-1-.05-2-.05-3V62.48c0-2.16,0-4.3,0-6.43v-.16l0-.5c-.08-.82-.1-1.57-.12-2.28l0-.77V51.08l-.52,0s0-.06-.09-.11l-.17,0h-.44l-.37,0-.5,0H356c-.17,0-.34,0-.51,0H321.6a1.06,1.06,0,0,1-.33,0h-3.46l-.42,0-.16,0-.34,0a1.25,1.25,0,0,1-.24,0H273.93c.92-.75,1.8-1.56,2.77-2.47l2.5-2.31,7.25-6.79,1.82-1.72.94-.87V34.78c0-1.51,0-3,0-4.52l-.14,0,.05-.84V26.53c0-.07,0-.15,0-.22,0-1.7,0-3.41,0-5.07v-7.7c0-2.65,0-5.31,0-8a1.42,1.42,0,0,0,0-.29l.11,0c0-.93.07-1.82.1-2.71V2.2c0-.27,0-.55,0-.83V.31a2.3,2.3,0,0,0-.48,0,1.55,1.55,0,0,0-.89-.26,3,3,0,0,0-.42,0ZM218.27,25.36l0-.13V23c0-1.64,0-3.22,0-4.8,0-1-.05-2-.09-3l0-.55c0-.54,0-1.09,0-1.64v-.68c0-.53,0-1.06,0-1.59l0-.47c0-.69-.06-1.39-.06-2.09v-1c0-.26.05-.51.07-.88s0-.66,0-1l.05,0,4.34,0h58l.69,0h.44l0,0h.05l-.46.33-4,3.77L276,10.59l-1.81,1.68L266.3,19.6l-.3.28-2.79,2.6-1.5,1.39-1.47,1.34h-1.52l-.73,0h-.72l-3.4,0-7.07.06h-8.34l-7.8,0h-3.72c-1.8,0-3.61,0-5.4-.06a.27.27,0,0,1-.14,0h-3.13ZM162.72,67.11l0-2.32,0-3.92v-1c0-.79,0-1.58,0-2.38v-.58c0-.33,0-.66,0-1a.71.71,0,0,1-.06-.25,1.85,1.85,0,0,1,0-.23v-.13l0-.21c0-.22,0-.37,0-.52a3.7,3.7,0,0,1,0-.49c0-.18,0-.37,0-.49a.73.73,0,0,1,0-.18l.29-.26.6-.56,1.76-1.63,3.48-3.25,6.73-6.28.09-.08,6.8-6.35,6.8-6.36L195.28,23l6.19-5.79L213.91,5.55h0l0,.11a.33.33,0,0,0-.06.23A15.8,15.8,0,0,0,214,8.53v.13c.07.8.12,1.61.17,2.41,0,1.2,0,2.39.06,3.58v.59c0,1.2,0,2.39.07,3.58v.69c0,1,0,2.07,0,3.1v3.21l0,.17-.15.11-.29.24-.29.24-.35.28-.11.09c-.2.18-.32.29-.46.4l-.15.11-.61.47-.57.43q-10.41,9.8-20.86,19.55L188.21,50,184.7,53.3l-.34.32-6.73,6.31-6.73,6.3-4.65,4.39-1.88,1.81-.87.86-.3.27a2.43,2.43,0,0,1-.42.32s0,0-.06.06v0l0,0v0l0,0h0c.16-2.37.12-4.64.07-6.83ZM262.84,27.69c.35-.37.7-.74,1.06-1.1,1.51-1.55,2.91-2.88,4.28-4.08q3.93-3.75,7.88-7.48l3.79-3.59L282.42,9l.65-.6.07-.08.47-.44.39-.36.27-.23h0l.07.06c-.09,1.79-.1,3.46-.11,6v8.25c0,1.48,0,3.12,0,4.68a1.48,1.48,0,0,0,0,.21v5.6c0,.2,0,.41,0,.62v.17c0,.47,0,.92,0,1.34a3.7,3.7,0,0,0,.07.66l-.9.79-7.29,6.87-1.66,1.59-.84.8-4.25,4a2.25,2.25,0,0,0-.6,1.06l-.54.5-.6.55q-9.3,0-18.66,0c-2.94,0-6,0-9-.07H238.2l0,0h-.05c1.1-.93,2.11-1.88,3.12-2.86l.23-.21,1.18-1.13.81-.76c3.6-3.41,7.16-6.79,10.71-10.18l6.06-5.78.12,0,.12,0,2.32-2.41ZM160.76,81.35l1.41-1.08.67-.54,1.52-1.18.2-.2c.44-.44.89-.89,1.34-1.32l.12-.11.26-.24a6.35,6.35,0,0,1,.58-.58l.62-.57c.61-.56,1.22-1.12,1.82-1.69l.38-.34.32-.3,5.68-5.34,11-10.37.13-.13c1.26-1.18,2.52-2.38,3.77-3.57l1.28-1.21,6.29-6,.08-.07,2.32-2.19q4.61-4.32,9.19-8.66c2-1.9,4-3.78,6.07-5.7l3.44,0h1.58l1.37,0,4.75,0h3.72l7.73,0h8.22q3.42,0,6.84.06l1,0,.33,0h.27s0,0,0,0v0l-.73.66L252,32.89c-3.19,2.93-6.72,6.2-10.78,10l-.73.68-.84.77-.5.47c-1.2,1.11-2.4,2.22-3.58,3.34l-.09.09-.15.17a17.69,17.69,0,0,1-1.3,1.27l-.27.29q-.41.47-.81.87l-.14.15-.08.08-.6.61-.58.58c0,.33,0,.62-.07.92v.27l-.06.7c0,.67-.09,1.33-.16,2,0,.2,0,.4-.05.59l-.11,7.85L231,69.43c0,.82,0,1.62,0,2.41v.3c0,.3,0,.59,0,.93,0,.11,0,.19,0,.28s0,.42,0,.63l0,2.42v1.34a3,3,0,0,0,.09.68l-.12,0v0l0,.27c0,.19,0,.37,0,.59v2.81l0,.16c0,.36,0,.69-.06,1.07l6.69,0h2.85l3,0h78.35c.76,0,1.52,0,2.29,0l.21,0h.2l0,0h0l-.33.23-.66.63-.39.37a6.82,6.82,0,0,0-.53.55l-.09.08-.09.07-.1.09-.34.32-.22.2-.22.2-.2.2-.08.08-.21.22c-.39.31-.78.64-1.16,1l-.28.25-.29.25-.18.15c-1.75.16-3.37.16-4.94.16h-.58l-20,0h-6.11l-15.5,0H256.48l-.29.19-.47.29-.26.18-.34.34-.12.13-.07.07c-.35.32-.69.64-1.05.93l-.29.24-.28.22a8.22,8.22,0,0,1-.65.52l-.45.32-.22.16-.69.49-.62.6-1.27,1.17-2.09,1.92-1,1-1.05,1L241,102.15,236.86,106q-4.11,3.8-8.21,7.61c-1.38,1.3-2.76,2.6-4.12,3.92-.6.59-1.21,1.18-1.8,1.78l-.19.19c-.27.27-.53.53-.78.8l-.22.23-.13.13-.19,0c-.16.24-.27.44-.37.62l-.12.21-.19.36,0,.52c0,.71-.08,1.35-.14,2v.25c0,.26,0,.52,0,.79v.29a2.66,2.66,0,0,1,.07.75v.81c0,.49,0,1,0,1.47v.72l0,.78c0,1.37,0,2.73,0,4.1v2.45l0,2.31v5.35c0,.56,0,1.12,0,1.71,0,.32,0,.61,0,.88l0,.26h0a4.74,4.74,0,0,0,.87.1h.16a4.4,4.4,0,0,1,.49,0h.46l.57,0,.75,0,1.18.08.07-.12.25.09.33,0,1.75.05h1.61c.2,0,.4,0,.61,0H331.8l22.75,0,6.49,0h6.5l0,0h0l-.19.09h-61c-9.19,0-16.31,0-24.21.1l-1.69,0-1.67,0h-.68c-.48,0-1,0-1.45,0h-.14a1.67,1.67,0,0,0-.39,0l-.35,0a3,3,0,0,0-.57.14,1.06,1.06,0,0,0-.42-.07,1.45,1.45,0,0,0-1,.41c-.27.25-.54.5-.8.76l-1.59,1.46-1,.9c-1.28,1.17-2.54,2.35-3.81,3.53s-2.4,2.25-3.62,3.41l-.35.33-1,.94-2.48,2.33c-2.47,2.33-5,4.63-7.43,6.94l-1.53,1.43-.88.82-1.17,1.08-1.69,1.57-.52.5-1,.94-.09.07a.75.75,0,0,0-.18.18l-.18.21-.05.1-.19.15a.46.46,0,0,0-.16.22,1.13,1.13,0,0,0,0,.14v.35l0,.87c0,.22,0,.46,0,.72s0,.39,0,.6v.4a1.93,1.93,0,0,0,0,.24V180l0,.19v.41c0,.21,0,.42,0,.62,0,.64,0,1.28,0,1.93v1c0,1.48,0,3,0,4.45v1.12c0,1.19,0,2.39,0,3.62v1.79c0,.54,0,1.08,0,1.62v1.39c0,.48,0,1,0,1.5v1.48l0,.56v.12l0,.25v.4c0,.17,0,.33,0,.5l0,.17a.41.41,0,0,0,0,.11v.1l0,.11V204c0,.13,0,.26,0,.39v.87c0,.13,0,.24,0,.31a.26.26,0,0,1,0,.14l.21.05h2l.26,0h41.71l.1,0H290l.66-.06.6,0,.61,0,1,0h1.38l.15,0h.14l.23,0,.24,0h.17a.34.34,0,0,1,.18,0h0s0,0,0,0l-12.13,10.46-5.5,4.78-.27.26-.37.35a1.07,1.07,0,0,0-.14.16l-.18.15-.18.15-.5.44-.09.08-.13.11-.17.13H168.26l-.79,0h-2.55l-.35,0h-.24l-.11,0-.2.16-.11.13-.22.21-.23.17-.22.17-.16.13-.26.22-.26.21-.31.27-.41.36-.79.69-.43.37-.42.37-.23.19-.09.08-.09.08-.23.18-.56.46-.44.36-.14.11c-1,1-2,1.93-3,2.89L154,232c-3.2,3.12-6.52,6.29-10.52,10.1l-.25.25-.82.76-8.6,8.18c-6.27,5.7-11.71,10.73-16.65,15.37l-6.53,6.15-3.22,3-5,4.69-2.22,2.08h-.41l-.49,0h-.36l-.23,0h-.22l-.26,0-.45.06a1.87,1.87,0,0,0-.4,0H64.43l-4.26,0-1.54,0H57.34l0,0h0l.09,0,.13-.1c.63-.55,1.24-1.13,1.86-1.7l2.12-2,2.12-2,4.27-4,4.24-4c2.81-2.67,5.6-5.3,8.4-7.93l2.35-2.2,3.33-3.11.35-.3a2.36,2.36,0,0,1-.07-.35,10.37,10.37,0,0,1-.07-1.33c0-.44,0-.88,0-1.31l0-.41v-.24c0-.56,0-1.12.09-1.67,0-.24,0-.46,0-.68a3.25,3.25,0,0,1,.08-.58l0-.09h0l-.08,0,0,0h0v-.52c0-1.22,0-2.45,0-3.74v-2.19c0-5.7-.07-11.74-.17-17.49v-.15a4.3,4.3,0,0,0,0-.46l.17-.12.13-.13v-1.51c0-.11,0-.22,0-.33s0-.47,0-.7v-.12l0-.35c0-.23,0-.47,0-.78a1.67,1.67,0,0,0-.39,0l-.45,0a2.09,2.09,0,0,0-1.35-.47h-26l-5.39,0-.91,0H49.83l.07-.06h0l.21-.21c.17-.16.32-.32.46-.48l.34-.31.08-.08.26-.24.21-.19.5-.47.09-.11c.77-.69,1.51-1.38,2.26-2.08l.43-.4.18-.17.91-.84,2.35-2.21,4.9-4.58,1.63-1.51,1.48-1.39c1.35-1.26,2.68-2.5,4-3.75.8-.76,1.61-1.52,2.4-2.29l.27-.23v-.52c0-.16,0-.33,0-.5s0-.37,0-.55v-.82l0-1,0-1v-1.19c0-.76,0-1.4,0-2,0-2.27,0-4.49,0-6.7v-.13l0-2.67c0-2.34,0-4.69,0-7.05a.5.5,0,0,0,0-.12.76.76,0,0,0,0-.15l0-.21v-1l0-.53.06-1.05v-.27l0-.3V170l0-.31a3.38,3.38,0,0,1,0-.57.42.42,0,0,0,.13-.29.45.45,0,0,0-.11-.31V168c0-.25,0-.49,0-.72l0-.59,0-.59c0-.34,0-.68,0-1l0-.48c0-.13,0-.26,0-.4v-.64l0-.2v0l-.75,0-1,0-3.75-.05-1.89,0H63.31c-3.12-.06-6.24-.1-9.36-.14l-2.05,0c-3.22,0-6.41-.08-9.6-.14l-1.18,0-.41,0h-.27c.61-.53,1.21-1.1,1.82-1.67l.19-.17,4,0h7.77l5.66,0h2.85l7.7,0H78l7.51,0,21.72,0h21.57l.67-.06c.87-.08,1.75-.15,2.62-.19s1.46-.05,2.19-.05h.9l36-34.32v-.5c0-.29,0-.59,0-.89v-1.61c0-.24,0-.48,0-.76s0-.41,0-.6,0-.41,0-.61v-.1l-.11,0-.07,0,0,0h0v-2.53c0-.3,0-.61,0-.91v-.11c0-.12,0-.24.05-.36l0-.1h0l-.13,0,0-.46v-.83c0-1.74,0-3.42,0-5.1v-1.83c0-1.22,0-2.44,0-3.65v-1.22c0-1.28,0-2.56,0-3.84,0-.25,0-.49,0-.73v-3a.81.81,0,0,1,0-.16l0-.18,0-.36-.14,0-.71-.07L168.32,96,168,96l-.28,0-.2,0-.18,0-41.06,0-16.42,0H99l0,0h0c3.11-2.86,6.66-6.18,11.17-10.44,1.42-1.33,2.81-2.64,4.24-4h42.43c.33,0,.67,0,1,0h2.86l.11-.09ZM116.27,55.21h.66l.42,0,.22,0,.89,0h.14l.45,0h.37l.47,0h2.26l.22,0h.57l.35,0,.32,0,.68.05h1l.66,0h.27c.24,0,.48,0,.73,0h.17l.51,0h.16l.58,0h.6l.31,0h.17c.12,0,.25,0,.37,0h.72c.5,0,1,.08,1.52.08l.27,0c.37,0,.56-.05.75-.05h.52l.55.05.71.09.35,0H150l2.78,0,2.83,0,2.22,0h.57a4.47,4.47,0,0,0-.05.87v4.42q0,2,0,3.93c0,.82,0,1.59,0,2.36V68c0,2-.05,4.17,0,6.32a2.23,2.23,0,0,0,.08.6,1.59,1.59,0,0,0,.07.2c0,.34,0,.71,0,1.19a.28.28,0,0,1,0,.16l-.14-.06a.45.45,0,0,1-.12.22.26.26,0,0,1-.18.06H157l-7.61.15-5.7.1-13.55.25-5.75.1-3.28.06-1.77,0-1.76,0-1.36,0h-1c-.14-.06-.22-.15-.22-.26l0-.1,0-.13,0-.14h-.32a6,6,0,0,0,0-1.27c0-.47,0-.92-.06-1.36,0-.9-.05-1.8-.06-2.7l0-.69,0-1.15c0-.78,0-1.57,0-2.36v-1c0-.94,0-1.88.08-2.81v-.12l0-.76,0-1.47c0-.92,0-1.85,0-2.77v-.67c0-.73,0-1.48,0-2.21v-.2l.05-.17.49,0h.85ZM66.65,95.79h0l.11-.1,2.49-2.31c1.63-1.52,3.24-3,4.86-4.57l5-4.79.68-.66,1.72-1.63a1.6,1.6,0,0,0,.61-.39l.23-.19.24-.18.08-.07.1-.09.29-.22c.21-.16.42-.32.62-.49l.77-.71c.44-.42.87-.84,1.32-1.25l.49-.47.25-.23.62-.6.55-.48.08-.07c.24-.21.48-.41.71-.63l.2-.2.19-.2c.27-.27.54-.54.83-.8l.11-.1c.41-.34.81-.69,1.19-1.06s.7-.64,1.06-1l.08-.06.15-.13c.27-.23.52-.48.78-.73l.09-.09.11-.1.36-.34c.17-.17.36-.33.54-.48l.12-.09.23-.19c.34-.3.67-.6,1-.92s.53-.47.81-.7l.08-.07.17-.14.1-.09c.24-.19.47-.39.69-.59C98,67,98.59,66.49,99.23,66c.34-.27.68-.55,1-.84l.2-.16.26-.22.39-.31.27-.21c.27-.2.55-.42.8-.64l.54-.51a9.28,9.28,0,0,1,.93-.84l.13-.1.15-.1.14-.11.23-.17.84-.63.15-.12.2-.16.27-.2.1-.07a10.51,10.51,0,0,0,1.12-.91l.25-.24.34-.3c.31-.29.6-.59.88-.9s.77-.65,1.13-.94l.68-.56c.18-.15.36-.3.57-.45l.76-.52.11-.07h0l.07.06a8.27,8.27,0,0,0,0,1.49c.06,1.13.11,2.27.14,3.39l.07,2.27,0,.7,0,.88,0,.87,0,.84,0,.86c0,1.23.07,2.48.1,3.73V72l0,.78v.77l0,1.07c0,.71,0,1.41,0,2.12,0,.52,0,1,0,1.59l-.15.15-.16.17-.25.25-.25.25-.16.16-.47.47-.07.09-.22.17-.06.11-.14.13-.17.18-.17.17-.08.08-.23.19-.23.2-.14.12-.14.14-.27.22-.19.17L101.64,88l-4.92,4.3-1.58,1.39-.07.1-.15.11-.24.18-.15.11-.17.13-.31.24-.31.24-.08.07-.3.27-.15.13-.08.08-.16.14-.45.42-.53,0-.54,0-.28,0-6.27,0H67.75l-.54-.07h-.6l0,0,0,0h0ZM265.11,56.12H268l15.14,0h29.31l.49,0c1,0,2,0,3-.06h.5l.52,0c.54,0,1.09,0,1.64,0s1.05,0,1.58.07l.47.07h32.62a1,1,0,0,1,.37,0h0l.05,0h0l0,0a.32.32,0,0,0-.23.14c-1,1-2,1.94-3,2.9l-.29.28-.55.53-.28.26-.29.29-7.15,6.64-4.33,4c-2.6,2.41-5.19,4.84-7.81,7.27H242.21l-5,0h-1.66a1.35,1.35,0,0,0,.19-.77l0-2.51,0-1.22v-.15l.06-1.11c0-.19,0-.38,0-.57V70.24c0-1.63,0-3.27.06-4.93V65l0-4.45.09-4.5,13.35,0,13.35,0ZM329.5,83.46l.1-.08.15-.15.4-.38.61-.55.12-.12.13-.11.19-.19.18-.19c.25-.25.5-.51.76-.73l0-.16,1.25-1.17c2.07-2,4.16-3.94,6.23-5.92L344,69.59l1.21-1.15,6.2-5.9,2.5-2.31.25-.22.26-.23h0l.08.07-.08,1.91v4.89c0,2.06,0,4.06,0,6.08v5.1a6,6,0,0,0,.09,1v1l0,.93-1.11,1L346.83,88Q341.42,93.15,336,98.25l-5.24,4.89c-1.11,1-2.79,2.62-4.53,4.42l-.82.68-.54.51v0l0,0v0l0,0a0,0,0,0,1,0,0l0,0a8.72,8.72,0,0,0,.07-1.55v-5.54l0-5.43v-.11l0-.27,0-.25c0-.16,0-.32,0-.48v-.37c0-.22,0-.45,0-.67V93.6l0-.11c0-.34,0-.68,0-1l0-.33V91a.53.53,0,0,1,0-.13V89.68l0-.13V88.41c0-.12,0-.29,0-.5a.32.32,0,0,1,.05-.19.39.39,0,0,1,.08-.1l.23-.22.13-.11.72-.67.29-.27.5-.48.5-.47.76-.71.65-.63.42-.33.28-.26h0l0,0Zm-72.28,28.27v-.36c0-.29,0-.58-.06-.86l.07-.55a3.16,3.16,0,0,0,0-.32l0-.26v-.65l-.08-.15c0-.35,0-.66,0-1v-.22c0-1.6,0-3.17,0-4.75s0-3.35,0-5V93.77a6.19,6.19,0,0,0,0-.86.93.93,0,0,0,0-.14v0h0s0,0,0-.08l0-.13.4,0h15.76l11,0H290l13.28,0H313.5l6.48,0c-.05,1.7-.05,3.47-.05,5.17v9.05l0,.41,0,.37,0,.37q-.06.5-.09,1l0,.31-.09,1.25v.32l0,.26v.2l0,.2v.21l-.05.17v0h0v0a8,8,0,0,0-1.42-.11h-1.21c-.7,0-1.41,0-2.11,0-1.55,0-3.1.06-4.65.07l-2.17,0-4.58.07q-5-.11-10-.18-7.68-.09-15.36-.14l-1.94,0-2.25,0h-1c-2.38,0-4.7,0-7,0h-2c-2.2,0-3.51.06-4.66.11l-.52,0-.52,0-.55,0-.21,0Zm-25.82,5q3.65-3.46,7.28-6.94l.8-.76,4.1-3.94,4.13-3.95,1.37-1.31L250,99l.45-.43.47-.44.9-.88.64-.6,0,0,.07.07-.07.39c0,1.77,0,3.47,0,5.16v6c0,.69,0,1.48,0,2.25,0,1.11,0,2.21,0,3.31a.89.89,0,0,0,0,.23v.13l-.06.63-.05.31c-.24.22-.48.47-.73.73l-.79.86-.39.37-.2.19-.24.23-.34.32-.35.31-.09.08-.2.18-.5.49-.3.3-.17.16-.42.42-.66.69-.39.38-11.46,0h-7.9l0,0h-.05c1.46-1.33,2.86-2.62,4.24-3.92ZM63,119.49l0-.15v-.19c0-.45,0-.83,0-1.17,0-1.83,0-3.64,0-5.39v-9.73c0-.66,0-1.31,0-2h0c4.83.06,9.41.07,15.36.07h9.86l.56.09h.33l.38,0,.38,0c.22,0,.44,0,.67,0h.28l.54,0h64.38l4.07,0h2.68v0h0c-.89.78-1.77,1.63-2.5,2.36l-.43.41-2.44,2.36-2.44,2.36-2.29,2.08-1.11,1c-2.75,2.49-5.47,5-8.31,7.7l-.43.36a2,2,0,0,0-.58-.07H112.52L63,119.49ZM135.62,155v-.26l-.06-1.47-.14-3v-.27l-.15-3.43c0-1.48,0-3,0-4.46l0-2.69,0-2.54c0-.45,0-.75,0-1.06l0-.42v-.49c0-.21,0-.41,0-.61v-.31c0-.11,0-.23,0-.35v-.92c0-.19,0-.38,0-.58v-.29l.24-.21.25-.24,2.14-2,.71-.67.57-.54,6.81-6.42,13.84-13.06,2.62-2.47,1.22-1.16.34-.32.34-.32.28-.27a.63.63,0,0,0,.18-.2.46.46,0,0,0,.09-.2l.51-.47.88-.82,0,0,.07.07c0,.57,0,1.2-.05,1.83v1.43c0,1.81,0,3.63,0,5.45v2.29c0,.22,0,.45.05.68v.21c0,.56.05,1.12.07,1.67s.06.94.07,1.41l0,.9c0,.51,0,1,.05,1.49v.31c.05.89.1,1.78.14,2.68l0,.19c0,.56.05,1.05.06,1.54l0,1.27-11.18,10.6-5.52,5.24q-5.82,5.55-11.65,11.07l-.16.15-1.49,1.42-.65.53h0l-.39.37v0l0,0v0l0,0v0l0,0V155ZM224.78,139l0-2,0-2.19,0-2.19,0-2.19,0-1.79,0-1.18v-.6c0-.4,0-.8,0-1.23h0l63.82,0h86.92l9.64.05H391s0,0,0,0H391c-.61.48-1.19,1-1.78,1.59l-.15.14-.31.3-6.43,6-7.94,7.39-.66.61-.89.81H225.65a4.46,4.46,0,0,0-.75.09l0,0h-.05l0-3.69Zm144.9,29.69v-.37l0-.74c0-.43,0-.87,0-1.3v-.62l0-.1v-.24c0-1.28,0-2.51,0-3.77v-.1l0-2.86v-3.38c0-1.21,0-2.5,0-3.77l.69-.59a.42.42,0,0,0,.12-.07.31.31,0,0,0,.13-.09l1.35-1.25.1-.09.66-.61.43-.4,1.43-1.33,1.43-1.33,5.54-5.17,1.36-1.27,4.07-3.8,2.7-2.5.76-.71.25-.23.42-.39.25-.24,1.05-1a.26.26,0,0,0,.1-.16l.82-.74.39-.36h0l.07.07-.08,1.6,0,5v1.12c0,1.67,0,3.31,0,4.95v4.89l0,.16-.24.21-1.16,1.09-.08.08-2.18,2L388.14,152l-7,6.55-3.5,3.26L374.2,165l-.74.7-.74.68-.1.09-.11.08-.37.3-.23.18-.11.11-.28.24-.19.17-1,.87a3.46,3.46,0,0,1-.4.33l-.15.05-.05,0v0l0,0h-.05v-.16ZM44.58,156.26a14.84,14.84,0,0,0,.1-2.12c0-.67,0-1.34-.07-2,0-.84-.1-1.68-.16-2.53a1.49,1.49,0,0,0,0-.21l.07-.41a3.74,3.74,0,0,0,.07-.58c0-.34,0-.69,0-1v-2.1l0-2.23,0-2.25,0-1.54V137.7l0-1.54v-1.3c0-.61,0-1.22,0-1.86h0l48.37,0h36.68l.62.05h.21a1.31,1.31,0,0,0,0,.35c0,.35,0,.71,0,1.11v.15l.08,1.72.05,1.32c.06,1.36.12,2.72.19,4.1,0,1.16.06,2.21.09,3.27v3.06c0,.76,0,1.51,0,2.26v.28c0,.34,0,.67,0,1a5.58,5.58,0,0,0,.09.81c0,.3,0,.61,0,.92s.06.57.09.84a1.27,1.27,0,0,0,.11.26l0,.12v.59l-.06.89-.6,0H113.62c-18.91,0-40.91,0-62.61.09H49c-.28,0-.57,0-.85,0H48c-.3,0-.61,0-.91,0H45.49l-.69,0-.22,0ZM11.25,162.5H11.2l1.14-1L14,160l.74-.66.72-.65,1.4-1.27,1-.88,1-.93,1-.86c2.06-1.85,4.13-3.72,6.19-5.59l4.17-3.82,2-1.78,4.11-3.76c1.61-1.47,2.9-2.67,4.06-3.78l0,0,.07.08-.1,2.15,0,2.19,0,4.5c0,.71,0,1.41,0,2.13v1a7.49,7.49,0,0,0,.12,1.16l0,.18v.25c0,.45,0,.88,0,1.31,0,1,0,1.91,0,2.85v1l0,.14c0,.12,0,.23,0,.34,0,.43,0,.86-.06,1.29l0,.45c0,.3,0,.59,0,.89v.33l0,.19-.31.25-.14.13-.27.23-.26.23-.88.65L38,160l-.16.13-.21.16-.23.18c-1.12.85-2,1.61-2.9,2.39L30,162.8l-2.95,0h-.4l-2.69,0-2,0L18,162.66h-.15l-1.39,0-2.5,0-2.51,0-.17,0-.05,0h0Zm238.89,12.2h-.06l3.63-3.36c2.45-2.32,4.9-4.65,7.36-7l2.14-2,1.3-1.21,1.31-1.24,2.7-2.55q1.91-1.8,3.78-3.61l.75-.72.37-.36.7-.66,0,0,.05.1a4.21,4.21,0,0,0-.07,1v.52a1.35,1.35,0,0,0,0,.4q0,3.18-.06,6.37v1.07l0,1.09v.94c0,1.71,0,3.42,0,5.22,0,.85,0,1.66,0,2.47v1l0,.45-.19.16-.21.2-.56.56-.19.18-.46.47-.08.08-.62.61h-20.5a5.19,5.19,0,0,1-.87-.07h-.12Zm27-5.38v-.5c0-1.76,0-3.45,0-5.14,0-3.25,0-6.51-.09-9.77a1.64,1.64,0,0,0,0-.38v-.47l0-.52h0a4.42,4.42,0,0,0,.76.06l2.18,0,5.47.05,10.66.06h64.77l4.36,0c-.07.81-.07,1.67-.07,2.51v4.2l0,1.69v1.15l0,1.26c0,.11,0,.22,0,.33v.36c0,.32,0,.63,0,1v.37l0,.39v.3l0,.24c0,.11,0,.2,0,.28V167l0,.21a1.57,1.57,0,0,1,0,.28v1.08a4.48,4.48,0,0,1-.07.7v0h0v0h0v0l-.14,0h-.2l-.41,0-.44,0-1.3,0-.45,0-.26,0-.11,0h-4.19l-.89,0h-.34l-.31,0h-73l-5.76,0ZM5.2,197q0-6.13,0-12.28l0-14.41-.07-.11,0-.25,0-.18,0-.25v-.37l0,0,1.23,0H26.76q7.92,0,15.85,0l13.13,0H68a.44.44,0,0,1,.19,0h0l-1.15,1-.78.73-1.91,1.84-1,1-1,.91L61.15,176,50.49,186.17l-1.33,1.27L46.5,190l-.17.12c-.19.18-.35.32-.5.48s-.43.43-.66.63l-.78.7-.08.06a4,4,0,0,1-.32.28l-.12.11-.59.53-.23.19-.28.24-.27.2v.13h0v0h0l0,0-.06,0-.13.1-.21.19-.63.56-.21.18-.86.76-.16.16-.5.48-.52.46-.11.09-.12.11a1.8,1.8,0,0,1-.21.19h-.4c-.5,0-1,0-1.5.05S35.59,197,35,197h-21L5.2,197Zm16.09,21.31c.41-.42.8-.84,1.2-1.26l.15-.17.15-.15.1-.1.57-.48.15-.13a8.24,8.24,0,0,0,.62-.56,1.45,1.45,0,0,0,.28-.36l.18-.16.74-.71.55-.52.55-.51,2.5-2.29c2.56-2.37,5.26-4.92,9-8.5a2.59,2.59,0,0,1,.31-.41l.44-.44.81-.81c.28-.29.58-.56.88-.83l.42-.38.93-.84.62-.54.63-.61.65-.6a1.63,1.63,0,0,0,.64-.66l1.87-1.78,1.87-1.79q7.27-6.76,14.56-13.5l1.77-1.64,3.75-3.46,1-.91h0l.07.07c-.08,2.35-.1,4.85-.12,7.3V183l0,3v7.8c0,.32,0,.63,0,.95v.43a12.36,12.36,0,0,0,0,1.36c0,.09,0,.16,0,.31V197l-.5.45-.52.48-3.56,3.36a3.58,3.58,0,0,1-.26.29l-.84.75-1.22,1.16L61,204.65l-1.53,1.43a3.25,3.25,0,0,0-.45.32c-.19.14-.35.26-.5.39l-.65.55-.36.3-1,.9-.21.18L56,209l-.67.6-1.9,1.75-.44.41-.14.12-.29.27-.19.17a9.61,9.61,0,0,1-.93.79l-.08.06-.26.24-.53.49-.07.07-.15.13c-.54.51-1.46,1.37-2.32,2l-.18.19-.26.28-.34.37c-.34.37-.55.59-.78.8-.62.52-1.19,1-1.75,1.5a1.7,1.7,0,0,0-.3.33l-4.67,0H34.41l-8.61-.07H20.09l0,0h-.05c.42-.38.83-.78,1.23-1.17ZM248,200.72c0-.17,0-.34,0-.51,0-.41,0-.82,0-1.23a.71.71,0,0,0,0-.27V198c0-.68,0-1.36,0-2v-.87c0-1.35,0-2.69,0-4v-2.78c0-1.42,0-2.8,0-4.17,0-.87,0-1.71,0-2.56v-1.73a.34.34,0,0,1,.24-.06c1,0,2,0,3,0h70.48l2.15,0h1.4l0,0h0l0,0h0l-1.33,1.06L322.66,182,320,184.23a.57.57,0,0,1-.18.28l-.69.6-.65.57-1.68,1.45-3.14,2.72-.29.25-2.32,2-5.13,4.45-.69.59-1.11,1-2.39,2.06-.24.21-.27.23h-.55l-.51,0-.26,0h-.35l-.2,0-.46.06-.29,0-.58,0h-1.93l-.42,0L248,200.72Zm35.06,44.73,0-.18v-2.92l0-2.23v-1.05l0-2.18c0-2.87,0-5.73-.07-8.6l0-.11a5.14,5.14,0,0,1,0-.68c0-.19,0-.32,0-.46s0-.37,0-.56,0-.57,0-.84l0-.28,0-.18v-.6c0-.28,0-.56,0-.84l0-.39.27-.31.28-.33.23-.26.39-.46.48-.42,1.77-1.55,2.81-2.45,2.47-2.15,3.51-3.07,2.45-2.12,5.21-4.54,11.71-10.18,10.18-8.85,2.32-2,0,0,.07.07c-.1,2.38-.14,4.67-.16,6.41v.33c-.05,2.42-.09,4.82-.1,7.21,0,1.71-.05,3.41-.08,5.11l0,2.57,0,1.25v1.26l0,1.27c0,.27,0,.54,0,.86-1.44,1.29-2.88,2.6-4.29,3.88l-2.48,2.24-.49.44L319,218l-4,3.61-6.1,5.46-4.23,3.78L291.34,242.7l-.09.07-4.39,3.92-2.31,2.07-.81.71-.22.13,0,0h0l-.15.13v0l0,0v0l0,0v0h0a4.36,4.36,0,0,0,0-1.14l0-1.31,0-1.34a1,1,0,0,1,.06-.47h0v0h-.2Zm-264-.53,0-1,.06-1c0-.31,0-.6,0-.9v-1.08a8.06,8.06,0,0,0,0-.85,3.52,3.52,0,0,0-.19-.84c0-.8,0-1.61,0-2.43v-1c0-1.59-.06-3.12-.08-4.66,0-1.35,0-2.7-.06-4.06v-2.51h0l15.58,0H80.19l.27,0h.18l-.5.36-.46.43-3.27,3.05-.89.84-.09.08-1.38,1.3-.21.2-.17.16-.22.21-.26.25q-5.3,5-10.56,9.92l-3.88,3.65-.8.06h-.12l-1.43.11-28,0H19.09a2.35,2.35,0,0,0,0-.28Zm5.2,37.79h-.06l.22-.21.12-.15.26-.33.1-.1.18-.17,1.2-1.14,1.38-1.3L29.05,278l2.85-2.7,2.85-2.69,2.19-2.06,1.27-1.2,1.13-1.07,2-1.9.7-.66,5.81-5.39c3.61-3.36,7.08-6.63,11.22-10.61,3.36-3.15,6.68-6.26,10-9.38l9.31-8.77L79,231l.68-.64,2.78-2.61h0l.08.07c-.15,4.39-.17,8.88-.2,13.22V242c0,2.44,0,4.88-.07,7.37,0,0,0,0-.06.11a1.62,1.62,0,0,0,0,.32v.2a.42.42,0,0,1,0,.16v.28l0,.52,0,.53,0,.55,0,.55v.18l0,.22c-.72.66-1.45,1.34-2.17,2l-.43.4-2.06,1.94-3.59,3.37-2,1.84-1.35,1.25-1.64,1.54-.08.07-5.51,5.16-2.85,2.66-2.2,2.07-2.07,1.93-.5.46-.17.16-.09.09c-.39.35-.77.71-1.13,1.09-.12.13-.23.25-.36.37l-.32.31a8.23,8.23,0,0,0-.86.94l-.26.2-.12.09-.26.19-.12.1-.13.11-.34.26-.32.25-.09.08L51,282l-.39.35-.56.46-7.16,0H25.71l-1.16,0-.18-.06H24.3Zm144.13-33.9h-.05c0-.69,0-1.37,0-2.06v-.21l0-.42a6.25,6.25,0,0,1,0-1.85,1.53,1.53,0,0,1,.06-.25v-5.45l0-7.32v-3.45h0l22.76,0h81.53c.29,0,.58,0,.87,0H276c1,0,2,0,3,0-.08,2.94-.11,6-.12,8.62l0,4.21v5.84l0,.27c.06,1.42,0,2.86-.05,4,0,.6-.05,1.13-.07,1.63l0,.12v.53a.83.83,0,0,1,.09.39,4.51,4.51,0,0,1,0,.52v.15l0,.21,0,.26a2,2,0,0,1-.45.09l-.37,0-.31,0-.12,0-.16,0-.15,0c-1,0-1.92,0-2.88,0h-6.45l-3.66,0H261l-4.74,0q-11,0-22,0H211.82q-9-.09-18.07-.15c-4.57,0-9.09-.08-13.63-.14h-1.63l-4.85,0h-3.27c-.5,0-1,0-1.51,0h-.28l-.34,0,0-.77,0-.72,0-.39,0-.38c0-.32,0-.65,0-1,0-.69.07-1.3.11-1.93l.07-.28h0l-.07,0-.07,0,0,0,0-.07Zm-64.74,60v-.34c0-.89,0-1.8,0-2.7v-1.5c0-1.14,0-2.32-.06-3.46a2.45,2.45,0,0,0,0-.27v-1.82l0-1.78v-1.05c0-3.25-.06-6.48-.11-9.7a1.82,1.82,0,0,0-.13-.85c.91-.8,1.82-1.65,2.72-2.5l3.33-3.14,2.25-2.12,4.08-3.84,1.79-1.69,1.34-1.26,4-3.73c4.68-4.42,9.28-8.84,14.06-13.51l9.39-8.75.46-.42.13-.12.14-.13.14-.13c3.56-3.3,6.92-6.42,10.29-9.47l1.66-1.5,1.26-1.15.56-.5,1.58-1.44.61-.56.63-.57h0l.08.07c-.1,2.35-.11,4.69-.12,7.73v1.91c0,1.85,0,3.64,0,5.43,0,.35,0,.69,0,1v.64c0,1.12,0,2.2,0,3.18a2,2,0,0,0,0,.25v1.48l0,1.55a2.82,2.82,0,0,0,.26,1.22l-2,1.9-2,1.95-.57.56L159,258l-9.88,9.13-2.2,2q-6.42,5.92-12.81,11.87l-1.76,1.64c-3.24,3-7.07,6.55-10.95,10.23q-3.53,3.35-7,6.71c-1.17,1.14-2.34,2.28-3.49,3.43l-.73.74-.74.74c-.31.3-.61.6-.9.92a4.62,4.62,0,0,0-.48.58l0,.15a.69.69,0,0,0-.13.26l-1,1-.61.59-.12.12-.12.12-.34.3c-.32.27-.63.53-.92.79l-.14.11-.11.1-.12.11-.24.22-.1.09-.15.13-.12,0,0,0v0l0,0h0c0-.46,0-.91,0-1.37Zm-79.53,2.44c0-.95-.07-1.94-.12-2.92q-.16-3-.34-6.07l0-.17,0-.35v-.46l0-.2,0-.36,0-.36c-.09-1.92-.17-3.85-.24-5.77l-.06-1.46-.07-1.75-.07-1.78,0-.45-.05-1.37,0,0,0,0s0,0,.14,0H96.12l.42,0,.12-.05.14,0,.51,0,.44,0,.47,0a9.78,9.78,0,0,1,1.15.12h.12a2.83,2.83,0,0,0,0,.54l0,.48c-.05,2.79-.08,5.57-.1,8.37l0,1.34c0,.62,0,1.21,0,1.8l0,.29c0,1.15,0,2.31,0,3.44v1.86c0,.67,0,1.32,0,2v.51c0,.55,0,1.11,0,1.7v.47l0,.51-4.09,0H64.49l-19.1,0H45.1l-15.57,0c-1.78,0-3.56,0-5.37,0Z"/><path class="cls-3" d="M230.67,29.92h-3.73l-4.75,0h-2.95l-3.44,0c-2.06,1.91-4.07,3.8-6.07,5.7l-9.18,8.65-2.32,2.19-.08.07q-3.17,3-6.3,6l-1.28,1.22-3.76,3.57-.14.12-11,10.37L170,73.2l-.32.3-.38.35c-.6.56-1.21,1.13-1.82,1.68l-.62.57a7.93,7.93,0,0,0-.58.58l-.26.24-.12.11-1.34,1.32-.19.2c-.51.39-1,.78-1.52,1.19l-.68.53c-.47.36-.94.71-1.4,1.08l-.11.09h-2.87c-.33,0-.67,0-1,0H114.36c-1.43,1.31-2.81,2.62-4.23,4C105.61,89.66,102.06,93,99,95.84l27.38,0,41.05,0,.18,0,.2,0,.28,0,.28,0,1.72.15.71.06.14,0,0,.36v.18a.44.44,0,0,0,0,.17v3c0,.24,0,.48,0,.73,0,1.28,0,2.56,0,3.85v1.21c0,1.21,0,2.43,0,3.65v1.84c0,1.68,0,3.36,0,5.09v.83l0,.46.13,0,0,.1c0,.12,0,.24,0,.37v.1c0,.3,0,.61,0,.91v2.53l.12,0,.11,0v.1c0,.2,0,.4,0,.61s0,.39,0,.6,0,.52,0,.76v.51l0,.56v.54c0,.3,0,.6,0,.9v.23l0,.26-36,34.32h-.91c-.73,0-1.46,0-2.18.05-.88,0-1.76.11-2.63.19l-.67.06H107.26l-21.72,0-7.51,0h-7.6l-7.7,0H59.88l-5.66,0H46.46l-4,0-.2.17c-.6.57-1.21,1.14-1.82,1.67l.68,0,1.18,0c3.19.06,6.38.1,9.6.14l2.05,0,9.36.14h2.35l1.89,0,3.76,0,.94,0,.75.05,0,.22v.33l0,.31c0,.14,0,.27,0,.4s0,.32,0,.48c0,.34,0,.69,0,1l0,.59,0,.58c0,.24,0,.48,0,.73v.45a.58.58,0,0,1,.11.31.4.4,0,0,1-.14.28,5,5,0,0,0,0,.57V170c0,.05,0,.11,0,.16l0,.29,0,.28c0,.35,0,.7-.06,1.05l0,.53v1l0,.22v.15a.49.49,0,0,1,0,.12q0,3.54,0,7.05l0,2.67v.13c0,2.21,0,4.43,0,6.69v2.54c0,.22,0,.45,0,.7v1l0,1v.83c0,.18,0,.37,0,.55s0,.33,0,.5v.52l-.27.23-2.4,2.28-4,3.76-1.48,1.38-1.62,1.52-4.91,4.58-2.35,2.21-.91.84-.17.17-.44.4c-.75.7-1.48,1.39-2.25,2.08l-.09.11c-.16.16-.34.32-.51.47l-.21.19-.26.24-.08.08-.34.31a5.1,5.1,0,0,1-.46.48l-.2.21,3,.08,5.39,0h25l1,0a2.13,2.13,0,0,1,1.36.48l.44,0a1.23,1.23,0,0,1,.39,0c0,.31,0,.55,0,.78l0,.35,0,.12c0,.23,0,.46,0,.69v1.85l-.13.13-.17.11a2.88,2.88,0,0,1,0,.47v.15c.1,5.75.14,11.79.17,17.49l0,2.19c0,1.29,0,2.52,0,3.74v.52l.14-.06,0,.1a4.28,4.28,0,0,0-.08.58c0,.22,0,.44,0,.67,0,.56-.06,1.11-.09,1.68v.24l0,.4c0,.44,0,.88,0,1.32a12.74,12.74,0,0,0,.07,1.33,2.36,2.36,0,0,0,.07.35l-.35.3-3.33,3.11-2.35,2.2-8.4,7.93-4.24,4-4.27,4-2.12,2-2.12,2c-.61.58-1.23,1.16-1.86,1.71l-.12.1-.09,0,2.82,0,4.26,0H97.36a2.69,2.69,0,0,1,.4,0l.46-.05.25,0h.22l.23,0,.23,0h.13l.5,0h.4l2.22-2.08,5-4.7,3.22-3,6.53-6.14c4.94-4.64,10.39-9.67,16.65-15.37l8.61-8.18.81-.77.26-.24c4-3.81,7.31-7,10.52-10.11l1.45-1.41c1-1,1.95-1.91,3-2.89l.14-.11.44-.37.56-.46.23-.18.09-.07.09-.08.23-.19.43-.38.42-.37.79-.68.41-.36.31-.27.26-.21.26-.22.16-.13.22-.17.23-.17.23-.22.1-.12.2-.16.11,0h.25l.34,0h2.55l.79,0H273.17c.85,0,1.7,0,2.51,0l.17-.13.13-.12.09-.08.49-.43.18-.15.18-.15.15-.16.36-.36.27-.26,5.51-4.77,12.12-10.46c0-.05-.09-.05-.21-.06H295l-.24,0-.23,0h-.3l-.28,0h-1.09l-1,0-.61,0-.6,0-.66.06H246.62l-.26,0h-.76c-.32,0-.63,0-.93,0h-.34l-.21-.05a.21.21,0,0,0,0-.14c0-.08,0-.18,0-.31v-1.91l0-.12v-.1a.38.38,0,0,1,0-.1l0-.17c0-.17,0-.34,0-.5V202l0-.25v-.12l0-.56v-1.48c0-.54,0-1,0-1.5v-1.4c0-.54,0-1.07,0-1.61v-1.8c0-1.22,0-2.42,0-3.61v-1.12c0-1.49,0-3,0-4.45v-1c0-.65,0-1.29,0-1.94,0-.2,0-.4,0-.61v-.41l0-.19v-.38a2.09,2.09,0,0,1,0-.25v-.39c0-.21,0-.41,0-.61s0-.49,0-.72l0-.87v-.34a.37.37,0,0,1,0-.14.46.46,0,0,1,.15-.22l.19-.15.06-.11a2.3,2.3,0,0,1,.17-.2.6.6,0,0,1,.18-.18l.09-.07,1-.94.53-.5,1.68-1.58,1.17-1.07c.27-.27.56-.53.88-.82l1.54-1.43,7.42-6.94,2.48-2.33,1-.95.35-.33,3.62-3.4,3.81-3.53,1-.9,1.59-1.46.8-.76a1.5,1.5,0,0,1,1-.41,1.27,1.27,0,0,1,.42.07,3.65,3.65,0,0,1,.57-.14l.34,0a1.75,1.75,0,0,1,.4,0h.14c.48,0,1,0,1.45,0h.67l1.68,0,1.69,0c7.9-.09,15-.1,24.21-.1h61l.18-.09-13,0-22.74,0H228.35l-1.22,0c-.58,0-1.17,0-1.75-.05l-.33,0a1,1,0,0,1-.24-.09l-.07.12-1.18-.07-.76,0-.57,0h-.1l-.21,0h-.15a4.4,4.4,0,0,0-.49,0l-.15,0a5.87,5.87,0,0,1-.88-.11l0-.25c0-.28,0-.57,0-.88,0-.59,0-1.16,0-1.72v-5.35l0-2.31v-2.45c0-1.37,0-2.73,0-4.1l0-.77v-.73c0-.49,0-1,0-1.46v-.82a2.66,2.66,0,0,0-.07-.75v-.29c0-.27,0-.53,0-.79v-.25c.06-.62.1-1.25.14-2l0-.51.19-.36.12-.22c.11-.18.22-.37.38-.62l.18,0,.13-.13.22-.23c.25-.27.51-.53.78-.8l.19-.19,1.8-1.77c1.36-1.32,2.74-2.63,4.12-3.93q4.09-3.82,8.21-7.61l4.18-3.87,4.19-3.86,1.05-1,1-1,2.09-1.92,1.27-1.17.63-.6.69-.49.22-.16.44-.32c.23-.16.44-.34.65-.51l.28-.23.29-.24c.36-.29.7-.61,1.05-.93l.07-.07.13-.13.33-.34.27-.17.46-.3.3-.19H272l15.5,0h6.11l20,0h.59c1.57,0,3.19,0,4.94-.16l.18-.15.29-.25.28-.24c.38-.33.77-.66,1.16-1l.21-.22.08-.08.2-.2.21-.2.22-.2.35-.32.1-.09.09-.07.09-.08a6.82,6.82,0,0,1,.53-.55l.39-.37.66-.63.32-.23-.42,0c-.76,0-1.52,0-2.28,0H243.4l-3,0h-9.55c0-.4.06-.74.07-1.12l0-.16V79.33c0-.22,0-.4,0-.59l0-.29.12,0a2.83,2.83,0,0,1-.09-.68V76.4l0-2.42c0-.21,0-.42,0-.63s0-.16,0-.28c0-.34,0-.63,0-.93v-.3c0-.79,0-1.59,0-2.41l.06-4.85.11-7.85c0-.19,0-.39.05-.58.07-.67.13-1.33.16-2l.06-.7v-.27c0-.29,0-.59.07-.92l.59-.58.59-.61.08-.08.14-.15c.28-.27.54-.56.82-.87l.26-.29a18,18,0,0,0,1.31-1.27l.14-.17.09-.09c1.18-1.12,2.38-2.23,3.58-3.34l.5-.46.84-.78.73-.68c4.06-3.8,7.59-7.07,10.78-10l2.93-2.72.1-.07-.59,0-1,0L246.62,30h-8.23l-7.72,0Z"/><path class="cls-4" d="M103.59,175.36c-.07.84-.11,1.68-.14,2.52,0,.11,0,.22,0,.33l-.17-.11a10.14,10.14,0,0,0-1.31-.68,18.26,18.26,0,0,0-1.78-.7,13.18,13.18,0,0,0-3.1-.66,12.53,12.53,0,0,0-3.29.24,1.18,1.18,0,0,0-.72.56,1.2,1.2,0,0,0-.12.93,1.24,1.24,0,0,0,.55.72,1.37,1.37,0,0,0,.93.12l.87-.14a9.84,9.84,0,0,1,2,0,14.42,14.42,0,0,1,3,.88c.41.18.82.37,1.21.59a9.77,9.77,0,0,1,1.13.77c.17.13.33.27.49.41s.35.38.54.55a1.22,1.22,0,0,0,2.08-.86,9.37,9.37,0,0,0-.06-1.05c0-.25,0-.51-.07-.76l-.09-1.12c-.07-.85-.15-1.7-.26-2.55a.91.91,0,0,0-.25-.61.87.87,0,0,0-.61-.26.88.88,0,0,0-.86.87Zm-8.34,3.14h0Z"/><path class="cls-4" d="M113.53,175.05a19.65,19.65,0,0,0-2.86.38,12.15,12.15,0,0,0-5.23,2.88,6.64,6.64,0,0,0-1.58,2.41c-.09.18-.17.37-.25.56a.8.8,0,0,0-.08.59.77.77,0,0,0,1.4.18c.16-.36.32-.72.47-1.09l-.08.19A6,6,0,0,1,106,180a6.55,6.55,0,0,1,1-1,11.88,11.88,0,0,1,2.21-1.28,9.55,9.55,0,0,1,2-.56,17.47,17.47,0,0,1,2.29-.09,1,1,0,0,0,.06-2ZM106,180l0,.06,0-.06Z"/><path class="cls-4" d="M246.18,150.66V152c0,.24,0,.49,0,.74l-.48-.27a5.17,5.17,0,0,0-1.52-.57,13.82,13.82,0,0,0-2-.2,8.59,8.59,0,0,0-2.08.21,7.38,7.38,0,0,0-1.74.8,1.27,1.27,0,0,0-.45,1.73,1.29,1.29,0,0,0,1.73.45c.28-.15.55-.3.84-.44a4,4,0,0,1,.6-.15,9.38,9.38,0,0,1,2,0,5.86,5.86,0,0,1,.9.21,9.33,9.33,0,0,1,1.4.91l-.27-.22c.24.2.49.38.73.59a5.29,5.29,0,0,1,.54.52c.2.2.35.45.56.65a1.42,1.42,0,0,0,1.71.22,1.45,1.45,0,0,0,.67-1.52l.36-.25c.29-.2.58-.4.88-.58s.7-.45,1.07-.63l1.18-.58,1.24-.49a1.52,1.52,0,0,0,.88-.67,1.47,1.47,0,0,0-.53-2,1.43,1.43,0,0,0-1.49,0,21.34,21.34,0,0,0-2.93,1.51c-.38.24-.77.47-1.14.73-.06-.68-.11-1.37-.17-2.05a1.22,1.22,0,1,0-2.43,0Zm6.53,3-.29.12.29-.12Z"/><path class="cls-4" d="M266.57,209.92a2.78,2.78,0,0,0-.73,1.81c-.06.37-.11.75-.16,1.12-.08.58-.14,1.15-.21,1.72-.37-.36-.75-.71-1.13-1.06s-.78-.7-1.18-1L261.29,211a1.14,1.14,0,0,0-.92-.12,1.18,1.18,0,0,0-.71.55,1.23,1.23,0,0,0-.12.92,1.3,1.3,0,0,0,.55.71l.3.23c.43.34.89.67,1.3,1s.93.84,1.38,1.28l1.3,1.29.33.33.19.18a1.2,1.2,0,0,0,.35.9,1.25,1.25,0,0,0,1.18.31,2.28,2.28,0,0,0,.69-.28,6.53,6.53,0,0,0,.77-.62l.95-.7c.39-.28.81-.52,1.22-.77a24,24,0,0,1,2.31-1.2,21.38,21.38,0,0,1,2.1-.67,1.23,1.23,0,1,0-.65-2.38,15.77,15.77,0,0,0-4.11,1.63c-.55.31-1.1.63-1.64,1,.05-.24.11-.47.16-.7a14.49,14.49,0,0,0,.28-1.85,4.26,4.26,0,0,0,0-1.07,3.22,3.22,0,0,0-.32-.9,1,1,0,0,0-.61-.47l-.26,0a1.15,1.15,0,0,0-.73.3Zm-6.12,3.45.18.14-.18-.14Z"/><path class="cls-4" d="M141.48,227.38a1.66,1.66,0,0,0-.39.26,2,2,0,0,0-.36.58c-.11.23-.2.48-.3.72s-.18.63-.26.94a6.3,6.3,0,0,0-.14,1.05l-.37-.21c-.41-.21-.84-.4-1.27-.59a13.25,13.25,0,0,0-2.66-.84,17.82,17.82,0,0,0-2.82-.19,1.16,1.16,0,0,0-1.16,1.16,1.18,1.18,0,0,0,1.16,1.16c.7,0,1.4,0,2.1.1a10.94,10.94,0,0,1,2.31.68,15,15,0,0,1,1.79.9c.24.16.48.33.71.51a6.33,6.33,0,0,1,.46.44,1.12,1.12,0,0,0,.81.33,1.14,1.14,0,0,0,.66-.2.85.85,0,0,0,.25.13.81.81,0,0,0,.91-.37,4,4,0,0,1,.43-.72,7.94,7.94,0,0,1,1.22-1.17,21.57,21.57,0,0,1,2.78-1.64c.68-.37,1.38-.7,2.09-1a.75.75,0,0,0,.38-.49.82.82,0,0,0-.08-.63.84.84,0,0,0-.49-.38.89.89,0,0,0-.64.08c-.87.42-1.72.88-2.56,1.36-.67.37-1.34.75-2,1.18a10,10,0,0,0-.8.62c0-.27,0-.55,0-.82a13.22,13.22,0,0,0-.06-1.4,2.82,2.82,0,0,0-.15-.7,2.16,2.16,0,0,0-.43-.69,1,1,0,0,0-.42-.25l-.24,0a1.2,1.2,0,0,0-.51.13Zm3.23,4.55-.14.11.14-.11Z"/><path class="cls-4" d="M196.05,182.14a1.57,1.57,0,0,0-.71.37,1.58,1.58,0,0,0-.39,1s0-.07,0-.11a13.57,13.57,0,0,0-.12,2.7,15.19,15.19,0,0,0-1.56-1.05,7.39,7.39,0,0,0-2-.74,10.19,10.19,0,0,0-2.4-.14,1.33,1.33,0,1,0,0,2.65,12,12,0,0,1,1.47,0,6.05,6.05,0,0,1,1.09.29,9.37,9.37,0,0,1,1.49.9c.55.45,1.08.91,1.59,1.4a15.24,15.24,0,0,1,1.19,1.36A1.37,1.37,0,0,0,198,189.4a.3.3,0,0,0,0-.1l.11-.08a3.42,3.42,0,0,0,.68-.69,11,11,0,0,1,1.42-1.3,11.36,11.36,0,0,1,2.25-1.28,13.49,13.49,0,0,1,2.74-.89,1.11,1.11,0,0,0,.77-1.36,1.09,1.09,0,0,0-.51-.66,1.19,1.19,0,0,0-.85-.11,9.15,9.15,0,0,0-1.55.44c-.64.23-1.27.48-1.9.76a13.34,13.34,0,0,0-1.19.61,11.33,11.33,0,0,0-1.35.95l-.44.36-.09-.84c-.06-.46-.14-.91-.23-1.36a3.91,3.91,0,0,0-.55-1.19,1.17,1.17,0,0,0-1-.56,1,1,0,0,0-.29,0Zm-1.11,1.42v.1s0-.07,0-.1Zm7.4,2.44-.12.05.12-.05Zm-2,1.11-.11.09.11-.09Z"/><path class="cls-4" d="M171,130.48a1.34,1.34,0,0,0-.62,1.13c0,.49,0,1,0,1.44s.08,1,.13,1.5a10.39,10.39,0,0,0-1.89-.6,10.78,10.78,0,0,0-3.49-.22,8.75,8.75,0,0,0-1.53.27,8,8,0,0,0-1.54.64,1.17,1.17,0,0,0-.42,1.59,1.18,1.18,0,0,0,1.6.42l.51-.24a7.41,7.41,0,0,1,1.33-.34,10.33,10.33,0,0,1,2.08,0,9.47,9.47,0,0,1,1.81.48,11.4,11.4,0,0,1,1.38.74c.36.23.71.5,1.09.7a1.4,1.4,0,0,0,1.36,0,1.34,1.34,0,0,0,.66-1.16c0-.17,0-.35,0-.52a1.41,1.41,0,0,0,.24-.13,2.09,2.09,0,0,0,.42-.42,6.06,6.06,0,0,1,.64-.6,8.58,8.58,0,0,1,1.61-.92,25.05,25.05,0,0,1,3.6-1.13,1.05,1.05,0,0,0,.73-1.29,1.07,1.07,0,0,0-1.29-.73c-1,.26-2,.55-3,.89a13.3,13.3,0,0,0-2.21,1,5.14,5.14,0,0,0-.55.35l0-.17a9.77,9.77,0,0,0-.59-1.83l.12.28c-.09-.22-.18-.44-.29-.66a1.39,1.39,0,0,0-.87-.64,1.84,1.84,0,0,0-.33,0,1.33,1.33,0,0,0-.66.17Zm-2.27,6,.1,0-.1,0Z"/><path class="cls-4" d="M68.08,209.14a3.2,3.2,0,0,0-1,.75,4.71,4.71,0,0,0-.89,1.51,6.28,6.28,0,0,0-.45,1.84l-.76-.32,0,0a19.61,19.61,0,0,0-1.94-.71,4.28,4.28,0,0,0-2.38,0,1.28,1.28,0,0,0,.68,2.46l.19-.05a1.61,1.61,0,0,1,.38,0,8.12,8.12,0,0,1,1.45.45,10.63,10.63,0,0,1,1.94,1,8.48,8.48,0,0,1,.92.88l.08.14a1.42,1.42,0,0,0,1.92.51,1.47,1.47,0,0,0,.65-.84,1.31,1.31,0,0,0,0-.62.64.64,0,0,0,.24-.1,9.11,9.11,0,0,0,.94-.81,4.73,4.73,0,0,1,.4-.37l1-.85a7,7,0,0,1,1.27-.73c.35-.14.72-.26,1.09-.37a1,1,0,0,0-.55-2,13.1,13.1,0,0,0-1.85.77,7,7,0,0,0-1.42,1.06c0-.15,0-.3.07-.44s.07-.36.11-.53a5.61,5.61,0,0,0,.23-1.35,1.64,1.64,0,0,0-.77-1.33,1.35,1.35,0,0,0-.7-.18,2.08,2.08,0,0,0-.91.23Z"/><path class="cls-4" d="M120.86,80.43a2.86,2.86,0,0,0-.22.47,2,2,0,0,0,0,.6c0,.14,0,.28,0,.42,0,.32.07.65.1,1,0,.12,0,.24.05.36a10,10,0,0,0-1.39-.7,6.54,6.54,0,0,0-1.78-.49,5.77,5.77,0,0,0-1.76.07,3.8,3.8,0,0,0-.92.35c-.25.11-.5.23-.74.36a1.3,1.3,0,1,0,1.31,2.24c.23-.12.46-.24.7-.35a2.66,2.66,0,0,1,.38-.1,5.21,5.21,0,0,1,.79,0,6.66,6.66,0,0,1,1.15.36,15.88,15.88,0,0,1,2.52,1.54,1.61,1.61,0,0,0,.39.31l.39.17a1.16,1.16,0,0,0,1.06.24,2.34,2.34,0,0,0,.6-.28,4.4,4.4,0,0,0,.52-.43c.14-.13.27-.25.41-.36l1-.86c.44-.36.89-.7,1.34-1l-.15.12,1.08-.76c.48-.33,1-.63,1.5-.92a1.23,1.23,0,0,0,.43-1.67,1.21,1.21,0,0,0-1.66-.44,26.83,26.83,0,0,0-3,2c-.41.33-.82.65-1.22,1l-.13.12c0-.27,0-.53-.08-.79a13.24,13.24,0,0,0-.27-1.53,2.83,2.83,0,0,0-.21-.6,2.4,2.4,0,0,0-.5-.64,1.16,1.16,0,0,0-.78-.3,1,1,0,0,0-.91.52Zm1.87.62s0,.07,0,.11v-.11Z"/><path class="cls-4" d="M192.89,59.79a5.1,5.1,0,0,0-.82.55c-.14.12-.27.26-.4.38a6.51,6.51,0,0,0-.51.54l-.24.27a1.4,1.4,0,0,0-1.13-.82,1.61,1.61,0,0,0-1.12.44,3.4,3.4,0,0,0-.65,1.16,8.69,8.69,0,0,0-.39,1.32c0,.08,0,.15,0,.23l-.12-.08c-.48-.34-1-.68-1.46-1a5.86,5.86,0,0,0-2.41-.95,3.62,3.62,0,0,0-1.31.1,5.15,5.15,0,0,0-1.14.53.78.78,0,1,0,.78,1.35,5.68,5.68,0,0,1,.55-.28,2.13,2.13,0,0,1,.45-.13,2.9,2.9,0,0,1,.51,0,5.12,5.12,0,0,1,.67.19,11.24,11.24,0,0,1,2,1.27l-.17-.14c.21.17.43.32.64.5.38.32.74.67,1.15,1a.93.93,0,0,0,1.27-.33,4.17,4.17,0,0,0,.29-.72,2,2,0,0,0,.05-.26,1,1,0,0,0,.38.4,1,1,0,0,0,1.19-.16,1.2,1.2,0,0,0,.29-.39,2.14,2.14,0,0,0,.18-.54h0a7,7,0,0,1,.43-.63c.27-.34.54-.67.83-1a9.16,9.16,0,0,1,.92-1l.33-.21a.94.94,0,0,0,.33-1.27.91.91,0,0,0-.8-.46,1,1,0,0,0-.47.12Z"/><path class="cls-4" d="M275.45,81.35a2.86,2.86,0,0,0-.07.93,5.63,5.63,0,0,0-1.07-.21,12.09,12.09,0,0,0-2.48,0c-1.24.1-2.48.24-3.71.42a1.4,1.4,0,0,0-.87.67,1.46,1.46,0,0,0,.52,2l.35.15a1.47,1.47,0,0,0,.78,0l.28,0,.88-.1.91-.09a20.25,20.25,0,0,1,2.81-.07,4.39,4.39,0,0,1,.6.15,6.32,6.32,0,0,1,.85.53l0,0,.11.08.14.13.41.32.43.18.46.06a1.39,1.39,0,0,0,1.25-.72c.07-.14.13-.28.19-.42a.51.51,0,0,0,0-.13,7.81,7.81,0,0,1,.56-.59,5.07,5.07,0,0,1,.82-.46,25.56,25.56,0,0,1,4.24-1.07,1,1,0,1,0-.51-1.84c-.9.19-1.8.39-2.69.65A9,9,0,0,0,277.89,83l-.1.08,0-.13c-.16-.56-.35-1.09-.53-1.64a.92.92,0,0,0-1.77,0Z"/><path class="cls-4" d="M91.14,267.46a.72.72,0,0,0-.34.6,6.78,6.78,0,0,0,.09,1.62c0,.34.08.68.13,1,0,0,0,.09,0,.13l-.55-.26a5.5,5.5,0,0,0-1.19-.38,5,5,0,0,0-1.45,0,4.65,4.65,0,0,0-1.33.34,7.69,7.69,0,0,0-1.16.65.64.64,0,1,0,.65,1.1,6.67,6.67,0,0,1,.94-.53,4.1,4.1,0,0,1,.78-.22,7.06,7.06,0,0,1,.92,0,5,5,0,0,1,.86.25,10.26,10.26,0,0,1,1.6,1l.2.16,0,0,.24.19a.94.94,0,0,0,.29.66.84.84,0,0,0,.56.24.82.82,0,0,0,.69-.4c.14-.24.27-.47.43-.7a5.44,5.44,0,0,1,.48-.48,11.21,11.21,0,0,1,2-1.08l.72-.25a.85.85,0,0,0-.45-1.63l-.61.21c-.3.11-.6.26-.89.4a11.21,11.21,0,0,0-1.35.77,5,5,0,0,0-.52.39l-.06-.45c0-.4-.11-.81-.16-1.21s-.15-.77-.24-1.15l-.06-.27-.12-.29-.17-.24a1.07,1.07,0,0,0-.41-.21.47.47,0,0,0-.17,0,.72.72,0,0,0-.36.1Zm-4.22,4.26,0,0,0,0Z"/><path class="cls-4" d="M242.9,28.5h-.05a.58.58,0,0,0-.4.4,3.05,3.05,0,0,0,0,.74c0,.3.06.6.1.89a.59.59,0,0,0,0,.14,7,7,0,0,0-1.72-.7,6.85,6.85,0,0,0-2-.14.68.68,0,0,0-.68.67.69.69,0,0,0,.68.68,9,9,0,0,1,1,0,5.58,5.58,0,0,1,1.15.31,5.76,5.76,0,0,1,.74.39c.2.12.39.26.58.4l0,0,0,0,.12.08a.18.18,0,0,1-.07,0,9.79,9.79,0,0,1,.85.72.74.74,0,0,0,1,.22.69.69,0,0,0,.34-.44.75.75,0,0,0-.07-.57.67.67,0,0,0-.11-.18l.14-.21a6.11,6.11,0,0,1,.58-.56,8.1,8.1,0,0,1,1.42-.83,9,9,0,0,1,1.82-.52c.33-.06.65-.1,1-.14a.69.69,0,0,0,.4-.31.66.66,0,0,0-.75-1l-.94.19a10,10,0,0,0-1.81.63,8.17,8.17,0,0,0-1.83,1.12c-.12.09-.22.19-.33.28a1.29,1.29,0,0,0,0-.19,7.13,7.13,0,0,0-.54-1.81.54.54,0,0,0-.5-.28l-.14,0Zm3.81,1.94-.12,0,.12,0Zm-4.26,1.9,0,0h0l.06,0Z"/><path class="cls-5" d="M168.36,227.78h0v3.45l0,7.32V244a1.53,1.53,0,0,0-.06.25,5.9,5.9,0,0,0,0,1.85l0,.42v.11l0,.1c0,.69,0,1.37,0,2.06l.2,0-.07.3c0,.61-.08,1.23-.12,1.92,0,.33,0,.66,0,1l0,.38,0,.39,0,.72,0,.77.34,0h5.06l4.85,0h1.63c4.54.06,9.06.1,13.63.14l18.07.14,15.3,0h7.15c7.33,0,14.66,0,22,0l4.74,0h16.33l.16,0,.12,0,.31,0,.37,0a2.11,2.11,0,0,0,.45-.09l0-.26,0-.21V254a4.51,4.51,0,0,0,0-.52.83.83,0,0,0-.09-.39v-.53l0-.11c0-.51,0-1,.07-1.64.05-1.15.11-2.59.05-4v-.27l0-.22v-5.62l0-4.21c0-2.63,0-5.68.12-8.62-1,0-2,0-3,0h-2.5l-.87,0H191.12l-22.76,0Z"/><path class="cls-5" d="M248.1,179.75h0a.34.34,0,0,0-.24.06v1.73c0,.85,0,1.69,0,2.56,0,1.37,0,2.75,0,4.17v2.78c0,1.34,0,2.69,0,4V196c0,.67,0,1.35,0,2v.73a.46.46,0,0,1,0,.27q0,.61,0,1.23c0,.17,0,.34,0,.51l47.65.05.42,0h.39l.38,0H298l.58,0,.29,0,.46-.06.2,0h.35l.26,0,.51,0h.55l.27-.23.24-.21,2.39-2.06,1.11-1,.69-.59,5.13-4.45,2.32-2,.29-.25,3.14-2.72,1.68-1.45.65-.57.69-.6a.57.57,0,0,0,.18-.28l2.63-2.27,1.22-1.06,1.33-1.06-3.57-.08h-67.7l-2.79,0-3,0Z"/><path class="cls-5" d="M277,152.54h0l0,.52v.47a1.64,1.64,0,0,1,0,.38c.06,3.26.08,6.52.1,9.77,0,1.69,0,3.38,0,5.14v.5l5.76,0h73l.31,0h.34c.3,0,.59,0,.89,0l1.45,0h2.74l.12,0,.25,0,.45,0,1.3,0,.44,0,.41,0h.2l.14,0a4.38,4.38,0,0,0,.08-.77v-1.08a1.57,1.57,0,0,0,0-.28l0-.2v-.15c0-.08,0-.17,0-.28l0-.24V166l0-.39v-.37c0-.32,0-.63,0-1v-.36c0-.11,0-.22,0-.33l0-1.26V159.5l0-1.69V155.3c0-.84,0-1.7.07-2.51l-4.36,0H296.08c-3.53,0-7.06,0-10.66-.05l-5.47-.06-2.18,0a3.61,3.61,0,0,1-.76-.06Z"/><path class="cls-5" d="M224.69,125.7h0c0,.43,0,.83,0,1.23v1.78l0,1.79,0,2.19,0,2.19,0,2.19,0,2,0,3.69a5.06,5.06,0,0,1,.84-.11H372.84l.89-.81.66-.61,7.94-7.39,6.43-6,.31-.3.15-.14c.59-.56,1.17-1.1,1.77-1.59l-15.56-.08H288.51l-63.82,0Z"/><path class="cls-5" d="M273.27,92.49H257.53l-.4,0,0,.13c0,.12,0,.18,0,.24a5,5,0,0,1,.05.86v3.84c0,1.68,0,3.36,0,5s0,3.15,0,4.75v.22c0,.31,0,.62,0,1l.07.15v.43l0,.21,0,.27a1.73,1.73,0,0,1,0,.32l-.07.55c0,.28.05.57.06.86v.36h.21l.55,0,.52,0,.52,0c1.15-.06,2.46-.09,4.66-.11h2c2.33,0,4.65,0,7,0h1l2.25,0H278q7.68.06,15.36.15l10,.17,4.58-.07h2.17c1.55,0,3.1,0,4.65-.07.7,0,1.41,0,2.11,0h1.21a8,8,0,0,1,1.42.11l.05-.23,0-.21,0-.2v-.46l0-.32c0-.42.05-.83.09-1.25l0-.31c0-.33,0-.66.08-1l0-.37,0-.37,0-.41V97.74c0-1.7,0-3.47.05-5.17l-6.48,0H303.24l-13.28,0h-5.63l-11,0Z"/><path class="cls-5" d="M318.57,55.94c-.55,0-1.1,0-1.64,0h-1c-1,0-2,0-3,.06l-.49,0H283.12l-15.14,0h-5.17l-13.35,0-13.35,0-.09,4.5L236,65v.33c0,1.66,0,3.29-.05,4.93v1.84c0,.19,0,.38,0,.57,0,.37,0,.74,0,1.11l0,.15,0,1.22,0,2.51a1.35,1.35,0,0,1-.19.77l6.64.06h87.55q3.92-3.65,7.81-7.27l4.33-4,7.15-6.64.29-.29.28-.26.55-.53.29-.28c1-1,2-1.91,3-2.9a.36.36,0,0,1,.23-.14.81.81,0,0,0-.45-.09H320.62l-.47-.07c-.53,0-1-.06-1.58-.06Z"/><path class="cls-5" d="M218.12,5.29h0l-.05,0c0,.33,0,.65,0,1S218,7,218,7.21v1c0,.7,0,1.4.07,2.1v.46c0,.53,0,1.06,0,1.59l0,.68c0,.55,0,1.1,0,1.64l0,.55c0,1,.08,2,.09,3,0,1.58,0,3.16,0,4.8v2.22l0,.14h3.12a.25.25,0,0,0,.14,0c1.79,0,3.6.05,5.4.06h3.72l7.8,0h8.34l7.07-.06,3.4,0h3l1.47-1.34,1.5-1.39,2.79-2.6.3-.28,7.87-7.33L276,10.59l1.19-1.11,4-3.77.46-.33-1.16-.07h-58l-4.34,0Z"/><path class="cls-5" d="M118.6,55.13h-.14c-.3,0-.6,0-.89,0h-.22l-.42,0h-1.51l-.49,0-.06.17,0,.2c0,.73,0,1.48,0,2.21v.67c0,.92,0,1.85,0,2.77l0,1.47,0,.76v.11c0,.94-.06,1.88-.07,2.82l0,1c0,.79,0,1.58,0,2.36l0,1.15,0,.69q0,1.35.06,2.7c0,.44,0,.89.07,1.36a6.73,6.73,0,0,1,0,1.27H115l0,.14,0,.13v.1c0,.1.07.19.21.26h1l1.36,0,1.76,0,1.77,0,3.28-.06,5.75-.1L143.66,77l5.7-.1,7.61-.15h.94a.26.26,0,0,0,.18,0,.55.55,0,0,0,.12-.22l.14.06a.28.28,0,0,0,0-.16c0-.48,0-.85,0-1.19a1.59,1.59,0,0,1-.07-.2,2.29,2.29,0,0,1-.08-.6c-.08-2.15-.05-4.27,0-6.32v-.89c0-.77,0-1.54,0-2.36,0-1.31,0-2.62,0-3.93V56.44a4.64,4.64,0,0,1,.05-.88l-2.79-.06-2.83,0-2.78,0H135.24l-.35,0c-.24,0-.47-.07-.71-.09l-.55-.05h-.52c-.19,0-.38,0-.75.05l-.27,0c-.51,0-1,0-1.52-.08h-.72l-.37,0h-.17l-.31,0h-.6l-.58,0h-.16l-.51,0H127c-.25,0-.49,0-.73,0h-2l-.68-.05-.32,0-.35,0h-.24l-.33,0h-2.48l-.47,0h-.82Z"/><path class="cls-5" d="M63.05,100.85h0c0,.69,0,1.34,0,2v9.73c0,1.75,0,3.56,0,5.39a10.4,10.4,0,0,1,0,1.17v.19l0,.15,49.48,0H142a2.1,2.1,0,0,1,.59.08l.42-.36c2.84-2.69,5.56-5.21,8.31-7.7l1.11-1,2.29-2.08,2.44-2.36,2.44-2.36.43-.41c.73-.73,1.61-1.58,2.5-2.36l-6.78-.07h-62l-.2,0-.6,0H91.41l-.54,0h-.28c-.23,0-.45,0-.67,0l-.38,0-.38,0h-.33l-.56-.08H78.41c-6,0-10.53,0-15.36-.07Z"/><path class="cls-5" d="M44.48,133h0c0,.64,0,1.25,0,1.86v1.3l0,1.54,0,1.53v1.54l0,2.25,0,2.23v2.1c0,.35,0,.7,0,1a5.19,5.19,0,0,1-.06.58l-.07.41c0,.07,0,.14,0,.21.06.85.11,1.69.16,2.54,0,.67.08,1.34.08,2a13.5,13.5,0,0,1-.11,2.12l.22,0,.69,0h1.59l.91,0h.15l.85,0h2c21.7-.08,43.7-.09,62.61-.09h16.87l.59,0,.06-.89v-.71a2.39,2.39,0,0,1-.1-.26c0-.27-.07-.56-.09-.84s0-.62,0-.92a5.58,5.58,0,0,1-.09-.81c0-.33,0-.66,0-1v-.28c0-.75,0-1.5,0-2.26V145.1c0-1-.06-2.1-.09-3.26-.07-1.38-.13-2.74-.19-4.1l-.05-1.32-.08-1.72v-.15c0-.4,0-.76,0-1.11a1.31,1.31,0,0,1,0-.35l-.83-.06H92.85l-48.37,0Z"/><path class="cls-5" d="M5.29,169.11h0l0,0v.37l0,.24,0,.18,0,.25.07.12,0,14.41q0,6.15,0,12.28l8.74,0H35l1.88-.12,1.5,0h.4a1.12,1.12,0,0,0,.21-.18l.12-.11.1-.09a6.9,6.9,0,0,0,.52-.47l.51-.47.16-.16.86-.76.2-.18c.22-.18.43-.37.64-.56l.2-.19.14-.1.06,0h0l0,0h0v-.15l.27-.2.28-.24a1.92,1.92,0,0,0,.23-.2l.59-.52.12-.11a4,4,0,0,0,.32-.28l.08-.06.78-.71c.23-.19.45-.41.66-.62s.31-.3.5-.48l.16-.12,2.67-2.53,1.33-1.27L61.15,176l1.29-1.23,1-.91,1-1,1.92-1.84.78-.73,1.15-1a.39.39,0,0,0-.24-.06H55.74l-13.13,0q-7.94,0-15.85-.05H6.52l-1.23,0Z"/><path class="cls-5" d="M18.83,224.52h0V227l.06,4.06c0,1.54.05,3.07.08,4.66v1c0,.82,0,1.63.05,2.43a4.06,4.06,0,0,1,.18.84,8.06,8.06,0,0,1,0,.85V242c0,.3,0,.59,0,.89l-.06,1,0,1a2.35,2.35,0,0,1,0,.28l37.31.06,1.43-.11H58l.8-.06,3.88-3.65q5.28-5,10.56-9.92l.26-.25.22-.21.17-.16.21-.2,1.38-1.3.09-.08.89-.84,3.26-3.05.47-.43.49-.36-.44-.08H34.41l-15.58,0Z"/><path class="cls-5" d="M23.11,287.73l0,0,.05,1.37,0,.45.07,1.78.07,1.75.06,1.46c.08,1.92.15,3.85.24,5.77l0,.36,0,.36v.66l0,.35v.17c.11,2,.23,4.05.34,6.07.06,1,.11,2,.12,2.92,1.81,0,3.59,0,5.37,0l15.57,0h.29l19.1,0H95.07l4.09,0,0-.51v-.47c0-.59,0-1.15,0-1.7v-.51c0-.65,0-1.3,0-2v-1.86c0-1.13,0-2.29,0-3.44a2.85,2.85,0,0,1,0-.29c0-.59,0-1.18,0-1.8l0-1.34c0-2.8,0-5.58.09-8.37l0-.48a3.83,3.83,0,0,1,0-.54,12,12,0,0,0-1.27-.14l-.47,0-.44,0-.51,0h-.14l-.12.05-.42,0H23.28c-.11,0-.14,0-.14,0l0,0Z"/><path class="cls-6" d="M82.46,227.74h0l-2.77,2.61L79,231l-.6.56-9.31,8.77c-3.31,3.12-6.63,6.23-10,9.38-4.14,4-7.6,7.25-11.22,10.61l-5.81,5.4-.7.65-2,1.9-1.13,1.07-1.27,1.2-2.19,2.06-2.85,2.69L29.06,278l-1.36,1.28-1.37,1.3-1.21,1.15-.18.16-.1.1-.26.33-.12.15-.22.21.31.11,1.16,0H42.87l7.16,0,.55-.46L51,282l.09-.08.09-.08.32-.25.33-.26.14-.11.12-.1.26-.19.12-.09.26-.2a8.23,8.23,0,0,1,.86-.94l.32-.31.36-.37c.36-.38.74-.74,1.12-1.09l.1-.09.17-.16.5-.46,2.07-1.93,2.2-2.07,2.85-2.66,5.51-5.16.08-.07,1.64-1.54,1.34-1.25,2-1.84,3.59-3.37,2.06-1.94.43-.4c.72-.7,1.45-1.38,2.17-2l0-.22v-.18l0-.55,0-.55,0-.53,0-.52v-.28a.42.42,0,0,0,0-.16v-.2a1.62,1.62,0,0,1,0-.32c0-.06,0-.1.06-.11,0-2.49,0-4.93.07-7.37V241c0-4.34,0-8.83.19-13.22l-.07-.07Z"/><path class="cls-6" d="M163.71,228.79h0l-.63.57-.61.56-1.58,1.44-.56.5L159.05,233l-1.66,1.5c-3.37,3-6.73,6.17-10.29,9.47l-.14.13-.13.13-.14.12-.46.42-9.39,8.75c-4.78,4.67-9.38,9.09-14.06,13.51l-4,3.73L117.47,272l-1.79,1.69-4.08,3.84-2.25,2.12L106,282.83c-.9.85-1.81,1.7-2.71,2.5a1.94,1.94,0,0,1,.12.85c.06,3.22.08,6.45.11,9.7v1.05l0,1.78v1.82a1.23,1.23,0,0,1,0,.27c.05,1.14.06,2.32.06,3.46v1.5c0,.9,0,1.81,0,2.7v.34c0,.46,0,.91,0,1.37l.23-.07.15-.13.1-.1.24-.21.12-.11.11-.1.14-.11c.29-.26.59-.52.92-.79l.33-.3.13-.12.12-.12.61-.59,1-1a.69.69,0,0,1,.13-.26l0-.15a4.62,4.62,0,0,1,.48-.58c.29-.32.59-.62.9-.92l.74-.74.73-.74c1.15-1.15,2.32-2.29,3.49-3.43q3.48-3.37,7-6.71c3.88-3.68,7.71-7.23,10.95-10.23L134.1,281q6.41-5.94,12.82-11.87l2.2-2L159,258l.29-.28.57-.56,2-1.95,2-1.91a2.75,2.75,0,0,1-.26-1.21l0-1.55V249a2.11,2.11,0,0,1,0-.25c0-1,0-2.06,0-3.18V245c0-.34,0-.69,0-1,0-1.79,0-3.58,0-5.43v-1.91c0-3,0-5.38.11-7.73l-.07-.07Z"/><path class="cls-6" d="M69.21,173.2h0l-1,.91-3.75,3.46-1.77,1.64-14.56,13.5-1.87,1.79-1.87,1.78a1.57,1.57,0,0,1-.64.66l-.65.6-.63.61-.62.54-.93.84-.42.38c-.3.27-.59.55-.88.83l-.81.81-.44.44a3.15,3.15,0,0,0-.31.41c-3.76,3.58-6.46,6.12-9,8.5l-2.5,2.29-.55.52-.55.51-.74.71-.18.16a1.45,1.45,0,0,1-.28.36,6.66,6.66,0,0,1-.62.56l-.15.13-.56.48-.11.1-.14.15-.16.17c-.4.42-.79.85-1.2,1.26s-.81.79-1.23,1.17l14.35.11h5.31l4.67,0a1.7,1.7,0,0,1,.3-.33c.55-.5,1.13-1,1.75-1.5.23-.21.44-.44.78-.8l.34-.37.26-.28.18-.19c.86-.67,1.78-1.52,2.32-2l.15-.13.07-.07.53-.49.26-.24.08-.06a9.61,9.61,0,0,0,.93-.79l.19-.17.29-.27.14-.12.44-.41,1.9-1.75L56,209l.31-.29.21-.19,1-.89.36-.3.65-.55c.15-.13.31-.25.5-.39a3.25,3.25,0,0,1,.45-.32L61,204.65l1.2-1.13,1.21-1.16c.29-.24.57-.49.84-.76a1.86,1.86,0,0,0,.27-.29L68.09,198l.52-.48.5-.45v-.11a1.57,1.57,0,0,1,0-.31,10.25,10.25,0,0,1,0-1.36v-.43c0-.32,0-.63,0-.95v-7.8l0-3v-2.46c0-2.45,0-4.95.12-7.3l-.07-.07Z"/><path class="cls-6" d="M40.3,136h0c-1.16,1.11-2.45,2.31-4.05,3.78l-4.12,3.76-2,1.79L26,149.12c-2,1.87-4.13,3.74-6.19,5.6l-1,.85-1,.93-1,.88-1.4,1.27-.72.65L14,160l-1.63,1.48-1.14,1,.12.09.17,0,2.51,0,2.5,0H18l3.94.05,2,0,2.69,0H27l2.95,0,4.53.07c.87-.78,1.79-1.54,2.9-2.39l.23-.18.21-.16L38,160l.16-.11.86-.65.27-.23.27-.23.14-.13.31-.25,0-.19v-.33l.06-.89,0-.45c0-.43,0-.86.06-1.29,0-.11,0-.22,0-.34l0-.14v-1c0-.94,0-1.89,0-2.85,0-.43,0-.86,0-1.31v-.24l0-.19a8.81,8.81,0,0,1-.11-1.16v-1c0-.72,0-1.42,0-2.13l0-4.5,0-2.19.1-2.15L40.3,136Z"/><path class="cls-6" d="M166.21,102.35l0,0-.88.82-.51.47a.53.53,0,0,1-.09.2.63.63,0,0,1-.18.2l-.28.27-.34.32-.34.32-1.22,1.16-2.62,2.47-13.84,13.06-6.81,6.42-.57.54-.71.67-2.14,2-.25.24-.23.21,0,.16v.14c0,.19,0,.38,0,.57v.92c0,.12,0,.24,0,.35v.31c0,.2,0,.4,0,.61v.49l0,.42c0,.31,0,.61,0,1.06l0,2.54,0,2.69c0,1.49,0,3,0,4.46l.15,3.43,0,.27.13,3c0,.49,0,1,.06,1.47v.46l1.12-.91,1.49-1.42.16-.15q5.83-5.52,11.65-11.07l5.52-5.24,11.18-10.6,0-1.27c0-.49,0-1-.07-1.54v-.19c0-.9-.09-1.79-.14-2.68v-.31c0-.49,0-1-.05-1.5l0-.89c0-.47,0-.94-.07-1.41s0-1.11-.07-1.67l0-.21c0-.23,0-.46,0-.68v-2.29c0-1.82,0-3.64,0-5.45v-1.43c0-.63,0-1.26.05-1.83l-.07-.07Z"/><path class="cls-6" d="M111.69,55.7h0l-.11.07-.76.52c-.21.15-.39.3-.57.45l-.68.56c-.36.29-.71.57-1.13.94s-.57.61-.88.91l-.33.29-.26.24a10.51,10.51,0,0,1-1.12.91l-.1.07-.27.2-.2.16-.15.12-.84.63-.22.17-.16.11-.14.1-.13.1a9.28,9.28,0,0,0-.93.84l-.53.51c-.26.22-.54.44-.81.64l-.27.21-.39.31-.26.22-.2.16c-.33.29-.67.57-1,.84-.64.51-1.28,1.06-1.9,1.63l-.68.59-.11.09-.17.14-.08.07c-.28.23-.55.46-.81.7s-.66.62-1,.92l-.23.19-.12.09c-.18.15-.37.31-.54.48l-.36.34-.1.1-.1.09c-.26.25-.51.5-.78.73l-.15.13-.08.06c-.36.31-.72.61-1.06,1s-.78.72-1.19,1.06l-.1.1c-.3.26-.57.53-.84.8l-.19.2-.2.2c-.23.22-.47.42-.7.63l-.09.07-.55.48-.62.6-.24.23-.5.47c-.45.41-.88.83-1.32,1.25l-.77.71c-.2.17-.41.33-.62.49l-.29.22-.1.09-.08.07-.23.18-.24.19a1.49,1.49,0,0,1-.61.39l-1.72,1.63-.68.66-5,4.79-4.85,4.57-2.5,2.31-.11.1,1.14.15H84.9l6.27,0,.28,0c.18,0,.36,0,.54,0a4,4,0,0,1,.53,0l.45-.41.16-.14.08-.08.15-.13.3-.27.08-.07.31-.24.31-.24.17-.13.14-.11.25-.18.15-.11.07-.1,1.58-1.39,4.92-4.3,7.12-6.21.19-.17.27-.22.14-.14.14-.12.23-.2.23-.19.07-.08.18-.17.17-.18.13-.13.07-.11.22-.17.07-.09.47-.47.16-.16.25-.25.25-.25.16-.17.15-.15c0-.56,0-1.07,0-1.59,0-.71,0-1.41,0-2.12l0-1.07,0-.78V72l0-.77v-.46c0-1.25,0-2.49-.11-3.72l0-.86,0-.84,0-.87,0-.88v-.7l-.07-2.27c0-1.12-.08-2.26-.14-3.39a8.27,8.27,0,0,1,0-1.49l-.07-.06Z"/><path class="cls-6" d="M213.93,5.54h0L201.47,17.16,195.28,23l-6.07,5.68L182.41,35l-6.8,6.35-.09.08-6.73,6.28-3.48,3.25-1.76,1.63-.6.56-.29.26a.73.73,0,0,0,0,.18,4.23,4.23,0,0,1,0,.49,3.91,3.91,0,0,0,0,.5c0,.14,0,.29,0,.51l0,.21v.36a1,1,0,0,0,.05.25V57.5c0,.8,0,1.59,0,2.38v1c0,1.31,0,2.61,0,3.92l0,2.32c.05,2.2.09,4.46-.07,6.83a1.67,1.67,0,0,0,.55-.38l.3-.28.87-.85,1.88-1.81,4.65-4.39,6.73-6.3,6.72-6.31.35-.32L188.21,50l2.25-2.1q10.44-9.76,20.86-19.56l.57-.42.61-.47.15-.11.46-.4.11-.09.35-.28.29-.24.29-.24.15-.11,0-.16a2.26,2.26,0,0,0,0-.25v-3c0-1,0-2.07,0-3.1v-.69c0-1.19-.05-2.38-.06-3.58v-.59c0-1.19,0-2.38-.06-3.58-.05-.8-.1-1.61-.17-2.41V8.53a15.8,15.8,0,0,1-.08-2.65.33.33,0,0,1,.06-.23l0-.11Z"/><path class="cls-6" d="M284.28,7.32h0l-.26.23-.39.36-.46.44-.08.08-.65.6-2.57,2.4L276.06,15l-7.88,7.48c-1.37,1.2-2.77,2.53-4.28,4.08-.36.36-.71.73-1.06,1.1l-2.32,2.41-.12,0-.12,0-6.06,5.78c-3.55,3.39-7.11,6.77-10.71,10.18l-.81.76-1.18,1.13-.23.21c-1,1-2,1.93-3.12,2.86,3.63.11,7.27.11,10.79.11h18.66l.6-.54.54-.5a2.16,2.16,0,0,1,.6-1.06l4.25-4,.84-.8,1.66-1.59,7.29-6.87.9-.79a3,3,0,0,1-.07-.66,11.72,11.72,0,0,1,0-1.34v-.17c0-.21,0-.42,0-.62v-5.6a1.48,1.48,0,0,1,0-.21c0-1.56,0-3.2,0-4.68V13.38c0-2.54,0-4.21.11-6l-.08-.06Z"/><path class="cls-6" d="M354.41,59.77h0l-.26.23-.25.22-2.5,2.31-6.2,5.9L344,69.59l-4.31,4.13-6.23,5.91-1.25,1.18,0,.16a10.18,10.18,0,0,0-.76.72l-.18.19-.19.19-.13.11-.12.12-.61.55c-.14.13-.27.25-.4.39l-.15.14-.1.08-.76.6-.66.63-.75.71-.5.47-.51.48-.29.27-.72.67-.13.11-.23.22-.08.1a.32.32,0,0,0-.05.19c0,.21,0,.38,0,.5v1.14l0,.13v.75l0,.41v1l0,.3,0,.33c0,.34,0,.68,0,1v.11a1.48,1.48,0,0,0,0,.21v.27c0,.22,0,.45,0,.67v.37a3.87,3.87,0,0,0,0,.48v.25l0,.28a.45.45,0,0,0,0,.11v11a9.75,9.75,0,0,1-.08,1.55l1.43-1.19c1.74-1.8,3.42-3.38,4.53-4.42L336,98.25q5.44-5.1,10.86-10.23l6.48-6.15,1.11-1,0-.93v-1a6,6,0,0,1-.09-1v-5.1c0-2,0-4,0-6.08V61.75l.08-1.91-.08-.07Z"/><path class="cls-6" d="M252.47,96.59l0,0-.64.6-.9.88-.47.44L250,99l-.91.88-1.37,1.31-4.13,3.95-4.1,3.94-.8.76q-3.63,3.48-7.28,6.94c-1.38,1.3-2.77,2.59-4.24,3.92l19.39.08.39-.38.66-.69.42-.42.17-.16.3-.3.5-.49.2-.18.09-.08.35-.31.34-.32.24-.23.2-.19.39-.37.79-.86c.25-.26.49-.51.73-.73l.05-.31.06-.63V114a.89.89,0,0,1,0-.23c0-1.1,0-2.2,0-3.31,0-.77,0-1.56,0-2.25v-6c0-1.69,0-3.39,0-5.16l.07-.39-.07-.07Z"/><path class="cls-6" d="M274.15,152l0,0-.7.66-.37.36-.75.73c-1.25,1.2-2.51,2.41-3.78,3.6l-2.7,2.55-1.31,1.24-1.3,1.21-2.14,2q-3.69,3.47-7.36,7l-3.63,3.35a3.81,3.81,0,0,0,1,.12h20.5l.62-.61.08-.09.46-.46.19-.18.56-.56.21-.2.19-.16,0-.45v-3.46c0-1.81,0-3.52,0-5.23v-.94l0-1.09V160.3c0-2.13,0-4.25.07-6.37a1.36,1.36,0,0,1,0-.4V153a4.21,4.21,0,0,1,.07-1l-.05-.1Z"/><path class="cls-6" d="M393.65,129.16h0l-.4.36-.81.74a.33.33,0,0,1-.11.16c-.34.33-.7.66-1.05,1l-.25.24-.42.39-.25.23-.76.71-2.7,2.5-4.07,3.8-1.36,1.27-5.54,5.17-1.43,1.33-1.43,1.33-.43.4-.65.61-.11.09-1.35,1.25a.31.31,0,0,1-.13.09.42.42,0,0,1-.12.07l-.69.59c0,1.27,0,2.56,0,3.77v3.38l0,2.86v.1c0,1.26,0,2.49,0,3.77v.24l0,.1v.62c0,.43,0,.87,0,1.3l0,.74v.53l.27-.1a3.46,3.46,0,0,0,.4-.33l1-.87.19-.17.28-.24.11-.11.23-.18.37-.3.11-.08.1-.09.74-.68.74-.7,3.44-3.21,3.5-3.26,7-6.55,1.77-1.66,2.18-2,.08-.08,1.16-1.09.24-.21,0-.16v-4.89c0-1.64,0-3.28,0-4.95v-1.12l0-5,.08-1.6-.07-.07Z"/><path class="cls-6" d="M327.11,184.64l0,0-2.32,2-10.18,8.85-11.71,10.18-5.21,4.54-2.44,2.12-3.52,3.07-2.46,2.15L286.42,220l-1.77,1.55-.48.42-.39.46-.23.27-.28.32-.27.31,0,.39c0,.28,0,.56,0,.84V225l0,.16,0,.18v.28c0,.27,0,.54,0,.84s0,.38,0,.56,0,.27,0,.46a5.15,5.15,0,0,0,0,.68l0,.11c0,2.87.05,5.73.07,8.6l0,2.18v1.05l0,2.23v2.92l0,.18h.21a1,1,0,0,0-.07.5l0,1.34,0,1.31a4.84,4.84,0,0,1-.05,1.14l.48-.28.81-.71,2.31-2.07,4.39-3.92.09-.07,13.28-11.87,4.23-3.78,6.09-5.46,4-3.61.49-.44.49-.44,2.48-2.24c1.41-1.28,2.85-2.59,4.29-3.88,0-.32,0-.59,0-.86l0-1.27v-1.26l0-1.25,0-2.57c0-1.7.06-3.4.07-5.11q0-3.58.11-7.21v-.33c0-1.74.06-4,.16-6.41l-.07-.07Z"/></g></g></svg>