<svg width="727" height="725" viewBox="0 0 727 725" fill="none" xmlns="http://www.w3.org/2000/svg">
<rect x="0.897949" y="0.948853" width="725.529" height="723.566" fill="#FDA14D"/>
<g clip-path="url(#clip0)">
<path d="M494.2 442.101L474.82 337.706C474.627 336.664 473.966 335.761 473.019 335.246L424.241 308.72C423.608 308.375 422.898 308.238 422.201 308.291L431.075 420.222L430.778 420.352L489.154 445.958C489.629 446.165 490.134 446.268 490.637 446.268C491.432 446.268 492.22 446.012 492.868 445.516C493.927 444.708 494.44 443.393 494.2 442.101Z" fill="#44C868"/>
<path d="M370.918 334.079L321.03 308.674C320.432 308.369 319.77 308.244 319.117 308.287C319.29 308.277 319.464 308.278 319.636 308.291L310.762 420.222L369.436 445.958C369.909 446.165 370.415 446.269 370.918 446.269V334.079Z" fill="#44C868"/>
<path d="M319.635 308.291C318.938 308.239 318.229 308.376 317.596 308.72L268.817 335.246C267.87 335.761 267.209 336.663 267.015 337.706L247.636 442.1C247.396 443.392 247.909 444.707 248.967 445.517C249.616 446.013 250.404 446.269 251.199 446.269C251.702 446.269 252.207 446.166 252.682 445.958L310.74 420.491L319.635 308.291Z" fill="#4CE166"/>
<path d="M422.2 308.289C421.72 308.326 421.246 308.451 420.806 308.675L370.918 334.08V446.269C370.918 446.269 370.918 446.269 370.919 446.269C371.422 446.269 371.928 446.167 372.401 445.959L431.075 420.222L422.2 308.289Z" fill="#4CE166"/>
<path d="M261.142 369.343L257.206 390.55L315.5 360.445L316.854 343.374L317.078 340.543L261.142 369.343Z" fill="#FFDB56"/>
<path d="M316.025 353.826L315.5 360.446L257.206 390.55L247.636 442.101C247.396 443.392 247.909 444.708 248.967 445.517C249.616 446.013 250.404 446.269 251.199 446.269C251.702 446.269 252.207 446.167 252.682 445.958L310.74 420.492L316.025 353.826Z" fill="#A8EEFC"/>
<path d="M370.933 348.072L317.078 340.543L315.5 360.446L370.918 442.732V412.81L337.849 361.898L370.933 365.767V348.072Z" fill="#FFBB24"/>
<path d="M469.179 333.159L445.747 320.416L423.564 325.483L423.841 328.986L424.937 342.805L469.179 333.159Z" fill="#FFBB24"/>
<path d="M426.904 367.62L424.803 341.122L423.564 325.483L370.932 348.072V365.766L405.312 351.149L426.904 367.62Z" fill="#FFDB56"/>
<path d="M494.2 442.101L489.332 415.878L424.937 342.805L426.904 367.62L492.944 445.451C493.949 444.637 494.434 443.36 494.2 442.101Z" fill="#FFBB24"/>
<path d="M371.15 230.957C343.223 230.957 320.503 253.153 320.503 280.435C320.503 297.312 328.698 315.431 344.861 334.289C356.732 348.14 368.442 357.048 368.935 357.421C369.587 357.914 370.368 358.161 371.15 358.161C371.932 358.161 372.714 357.914 373.366 357.421C373.859 357.048 385.569 348.14 397.44 334.289C413.603 315.431 421.797 297.312 421.797 280.435C421.796 253.153 399.076 230.957 371.15 230.957ZM389.906 280.435C389.906 290.554 381.509 298.758 371.15 298.758C360.791 298.758 352.393 290.555 352.393 280.435C352.393 270.315 360.791 262.111 371.15 262.111C381.509 262.111 389.906 270.315 389.906 280.435Z" fill="#FF4A4A"/>
<path d="M371.15 230.957C368.937 230.957 366.756 231.097 364.617 231.367C389.47 234.508 408.732 255.315 408.732 280.435C408.732 297.312 400.537 315.431 384.374 334.289C376.74 343.196 369.178 350.054 364.618 353.918C367.149 356.062 368.759 357.288 368.935 357.421C369.587 357.914 370.368 358.161 371.15 358.161C371.932 358.161 372.714 357.914 373.366 357.421C373.859 357.048 385.569 348.14 397.44 334.289C413.603 315.431 421.797 297.312 421.797 280.435C421.796 253.153 399.076 230.957 371.15 230.957Z" fill="#E7343F"/>
<path d="M372.401 445.958L394.219 436.388L370.918 412.81V446.269C370.918 446.269 370.918 446.269 370.919 446.269C371.422 446.269 371.927 446.166 372.401 445.958Z" fill="#FFDB56"/>
<path d="M474.82 337.706C474.626 336.664 473.965 335.761 473.018 335.246L469.178 333.158L424.936 342.804L489.331 415.877L474.82 337.706Z" fill="#1EA4E9"/>
<path d="M370.917 446.268C370.918 446.268 370.918 446.268 370.917 446.268V442.732L315.5 360.445L310.761 420.222L369.435 445.958C369.908 446.166 370.414 446.268 370.917 446.268Z" fill="#1EA4E9"/>
</g>
<defs>
<clipPath id="clip0">
<rect width="246.68" height="241.189" fill="white" transform="translate(247.578 218.019)"/>
</clipPath>
</defs>
</svg>
