<svg width="100" height="96" viewBox="0 0 100 96" fill="none" xmlns="http://www.w3.org/2000/svg">
<path d="M23.7705 36.1967V29.9016H33.6066V36.1967" fill="#BC8F6F"/>
<path d="M23.7705 36.1967V29.9016H30.3279V36.1967" fill="#CB9E78"/>
<path d="M76.2295 23.6066H99.1803V29.9016H76.2295V23.6066Z" fill="#BC8F6F"/>
<path d="M76.2295 23.6066H90.9836V29.9016H76.2295V23.6066Z" fill="#CB9E78"/>
<path d="M95.9016 29.9016H79.5082V88.1311C79.5082 92.4767 83.1783 96 87.7049 96C92.2315 96 95.9016 92.4767 95.9016 88.1311V29.9016Z" fill="#BAB8B9"/>
<path d="M85.2459 95.6004C88.5622 94.593 90.9836 91.6498 90.9836 88.1311V29.9016H79.5082V88.1311C79.5082 91.6483 81.9296 94.5914 85.2459 95.6004Z" fill="#D9D7D8"/>
<path d="M87.7049 96C92.2315 96 95.9016 92.4767 95.9016 88.1312V51.9344H79.5082V88.1312C79.5082 92.4767 83.1783 96 87.7049 96Z" fill="#D46B69"/>
<path d="M85.2459 95.6004C88.5622 94.593 90.9836 91.6499 90.9836 88.1312V51.9344H79.5082V88.1312C79.5082 91.6483 81.9296 94.5915 85.2459 95.6004Z" fill="#ED7775"/>
<path d="M50 96.0001C53.6213 96.0001 56.5574 93.1814 56.5574 89.705V88.1627C56.5574 87.1099 56.282 86.0725 55.7577 85.1489L36.8852 51.9345V36.1968H20.5062V51.9345L1.63614 85.1489C1.11184 86.0741 0.835682 87.1099 0.835682 88.1627V89.705C0.835682 93.1814 3.77177 96.0001 7.39306 96.0001H50Z" fill="#BAB8B9"/>
<path d="M51.6394 89.705V88.1627C51.6394 87.1099 51.364 86.0725 50.8397 85.1489L31.9672 51.9345V36.1968H20.5062V51.9345L1.63614 85.1489C1.11184 86.0741 0.835682 87.1099 0.835682 88.1627V89.705C0.835682 93.1814 3.77177 96.0001 7.39306 96.0001H45.082C48.7033 96.0001 51.6394 93.1814 51.6394 89.705Z" fill="#D9D7D8"/>
<path d="M56.5574 89.7049V88.1626C56.5574 87.1098 56.282 86.0724 55.7577 85.1488L44.039 64.5245H41.5215C40.6522 64.5245 39.8181 64.8565 39.2034 65.4467L37.8458 66.7499C37.231 67.3401 36.397 67.6721 35.5277 67.6721H34.9657C34.0964 67.6721 33.2624 67.3401 32.6476 66.7499L31.29 65.4467C30.6737 64.8565 29.8396 64.5245 28.9703 64.5245H28.4084C27.5391 64.5245 26.705 64.8565 26.0902 65.4467L24.7326 66.7499C24.1163 67.3401 23.2822 67.6721 22.4129 67.6721H21.851C20.9817 67.6721 20.1476 67.3401 19.5329 66.7499L18.1753 65.4467C17.5589 64.8565 16.7248 64.5245 15.8555 64.5245H13.3541L1.63614 85.1488C1.11184 86.074 0.835682 87.1098 0.835682 88.1626V89.7049C0.835682 93.1813 3.77177 95.9999 7.39306 95.9999H50C53.6213 95.9999 56.5574 93.1813 56.5574 89.7049Z" fill="#599072"/>
<path d="M53.2787 55.0819V68.4951C47.5522 70.4415 43.4426 75.6716 43.4426 81.836C43.4426 89.6595 50.0472 95.9999 58.1967 95.9999C66.3462 95.9999 72.9508 89.6595 72.9508 81.836C72.9508 75.6716 68.8413 70.4415 63.1148 68.4951V55.0819" fill="#BAB8B9"/>
<path d="M43.4426 81.836C43.4426 89.1255 49.1819 95.1231 56.5574 95.907C63.9328 95.1231 69.6721 89.1255 69.6721 81.836C69.6721 75.6716 65.5626 70.4415 59.8361 68.4951V55.0819H53.2787V68.4951C47.5522 70.4415 43.4426 75.6716 43.4426 81.836Z" fill="#D9D7D8"/>
<path d="M72.9508 81.8361C72.9508 81.3028 72.91 80.7803 72.8492 80.2623H71.0297C70.1604 80.2623 69.3263 80.5943 68.7116 81.1845L67.354 82.4877C66.7392 83.0779 65.9052 83.4099 65.0359 83.4099H64.4739C63.6046 83.4099 62.7706 83.0779 62.1558 82.4877L60.7982 81.1845C60.1819 80.5943 59.3478 80.2623 58.4785 80.2623H57.9166C57.0473 80.2623 56.2132 80.5943 55.5984 81.1845L54.2408 82.4877C53.6245 83.0779 52.7904 83.4099 51.9211 83.4099H51.3592C50.4899 83.4099 49.6558 83.0779 49.041 82.4877L47.6835 81.1845C47.0671 80.5943 46.233 80.2623 45.3637 80.2623H43.5443C43.4834 80.7803 43.4426 81.3028 43.4426 81.8361C43.4426 89.6596 50.0472 96 58.1967 96C66.3462 96 72.9508 89.6596 72.9508 81.8361Z" fill="#85B6CF"/>
<path d="M56.5574 95.907C63.9328 95.1232 69.6721 89.1255 69.6721 81.836C69.6721 81.4157 69.6329 81.0054 69.5921 80.5958C69.2703 80.7472 68.9685 80.9377 68.7116 81.1844L67.354 82.4877C66.7392 83.0779 65.9052 83.4098 65.0359 83.4098H64.4739C64.0001 83.4098 63.539 83.303 63.1164 83.117C62.6921 83.303 62.231 83.4098 61.7572 83.4098H61.1953C60.326 83.4098 59.4919 83.0779 58.8771 82.4877L57.5195 81.1844C57.241 80.917 56.9112 80.7095 56.559 80.5551C56.2068 80.7095 55.8786 80.917 55.5984 81.1844L54.2408 82.4877C53.6245 83.0779 52.7904 83.4098 51.9211 83.4098H51.3592C50.8853 83.4098 50.4242 83.303 50.0016 83.117C49.5774 83.303 49.1163 83.4098 48.6424 83.4098H48.0805C47.2112 83.4098 46.3771 83.0779 45.7624 82.4877L44.4048 81.1844C44.1478 80.9377 43.8461 80.7472 43.5243 80.5958C43.4818 81.0054 43.4426 81.4157 43.4426 81.836C43.4426 89.1255 49.1819 95.1232 56.5574 95.907Z" fill="#94CCE7"/>
<path d="M27.0492 83.4099C27.0492 85.1481 25.5811 86.5574 23.7705 86.5574C21.9598 86.5574 20.4918 85.1481 20.4918 83.4099C20.4918 81.6717 21.9598 80.2623 23.7705 80.2623C25.5811 80.2623 27.0492 81.6717 27.0492 83.4099Z" fill="#70B48F"/>
<path d="M38.5246 77.1147C38.5246 78.8529 37.0565 80.2623 35.2459 80.2623C33.4353 80.2623 31.9672 78.8529 31.9672 77.1147C31.9672 75.3765 33.4353 73.9672 35.2459 73.9672C37.0565 73.9672 38.5246 75.3765 38.5246 77.1147Z" fill="#70B48F"/>
<path d="M13.9344 86.5573C13.9344 88.2955 12.4664 89.7049 10.6557 89.7049C8.84509 89.7049 7.37705 88.2955 7.37705 86.5573C7.37705 84.8191 8.84509 83.4098 10.6557 83.4098C12.4664 83.4098 13.9344 84.8191 13.9344 86.5573Z" fill="#70B48F"/>
<path d="M13.9344 7.86881C13.9344 11.3452 10.9983 14.1639 7.37705 14.1639C3.75576 14.1639 0.819672 11.3452 0.819672 7.86881C0.819672 4.39238 3.75576 1.57373 7.37705 1.57373C10.9983 1.57373 13.9344 4.39238 13.9344 7.86881Z" fill="#599072"/>
<path d="M17.2131 23.6065C17.2131 25.3447 15.7451 26.7541 13.9344 26.7541C12.1238 26.7541 10.6557 25.3447 10.6557 23.6065C10.6557 21.8683 12.1238 20.459 13.9344 20.459C15.7451 20.459 17.2131 21.8683 17.2131 23.6065Z" fill="#85B6CF"/>
<path d="M10.6557 37.7705C10.6557 40.3778 8.45367 42.4918 5.7377 42.4918C3.02174 42.4918 0.819672 40.3778 0.819672 37.7705C0.819672 35.1632 3.02174 33.0492 5.7377 33.0492C8.45367 33.0492 10.6557 35.1632 10.6557 37.7705Z" fill="#CB9E78"/>
<path d="M48.3607 53.5082H68.0328V56.6557H48.3607V53.5082Z" fill="black"/>
<path d="M48.3607 53.5082H68.0328V56.6557H48.3607V53.5082Z" fill="#BC8F6F"/>
<path d="M48.3607 53.5082H63.1148V56.6557H48.3607V53.5082Z" fill="#CB9E78"/>
<path d="M53.2787 59.8032H63.1148V62.9508H53.2787V59.8032Z" fill="#BC8F6F"/>
<path d="M53.2787 59.8032H59.8361V62.9508H53.2787V59.8032Z" fill="#CB9E78"/>
<path d="M15.5738 40.9181H41.8033V44.0656H15.5738V40.9181Z" fill="#BC8F6F"/>
<path d="M15.5738 40.9181H31.9672V44.0656H15.5738V40.9181Z" fill="#CB9E78"/>
<path d="M36.8852 88.1311H40.1639V91.2786H36.8852V88.1311Z" fill="#70B48F"/>
<path d="M33.6066 84.9836H36.8852V88.1312H33.6066V84.9836Z" fill="#70B48F"/>
<path d="M30.3279 88.1311H33.6066V91.2786H30.3279V88.1311Z" fill="#70B48F"/>
<path d="M17.2131 73.9672H20.4918V77.1147H17.2131V73.9672Z" fill="#70B48F"/>
<path d="M84.4262 86.5574H87.7049V89.7049H84.4262V86.5574Z" fill="#D46B69"/>
<path d="M87.7049 80.2623H90.9836V83.4099H87.7049V80.2623Z" fill="#D46B69"/>
<path d="M84.4262 73.9673H87.7049V77.1148H84.4262V73.9673Z" fill="#D46B69"/>
<path d="M87.7049 67.6721H90.9836V70.8197H87.7049V67.6721Z" fill="#D46B69"/>
<path d="M84.4262 61.3771H87.7049V64.5246H84.4262V61.3771Z" fill="#D46B69"/>
<path d="M35.2459 25.1803H31.9672V4.72131C31.9672 2.1186 34.1741 0 36.8852 0H92.6229C95.3341 0 97.541 2.1186 97.541 4.72131V18.8853H94.2623V4.72131C94.2623 3.85451 93.5275 3.14754 92.6229 3.14754H36.8852C35.9807 3.14754 35.2459 3.85451 35.2459 4.72131V25.1803Z" fill="#ED7775"/>
<path d="M64.7541 50.3607H61.4754V17.3115C61.4754 16.4447 60.7406 15.7378 59.8361 15.7378H27.0492C26.1447 15.7378 25.4098 16.4447 25.4098 17.3115V25.1804H22.1311V17.3115C22.1311 14.7088 24.338 12.5902 27.0492 12.5902H59.8361C62.5472 12.5902 64.7541 14.7088 64.7541 17.3115V50.3607Z" fill="#599072"/>
<path d="M54.918 50.3606H51.6394V11.0164C51.6394 8.41364 53.8462 6.29504 56.5574 6.29504H76.2295C78.9407 6.29504 81.1475 8.41364 81.1475 11.0164V18.8852H77.8689V11.0164C77.8689 10.1496 77.134 9.44259 76.2295 9.44259H56.5574C55.6529 9.44259 54.918 10.1496 54.918 11.0164V50.3606Z" fill="#94CCE7"/>
</svg>
