<svg width="92" height="92" viewBox="0 0 92 92" fill="none" xmlns="http://www.w3.org/2000/svg">
<path d="M84.9203 53.2792C85.7587 53.2806 86.5718 52.9924 87.2221 52.4634C84.1171 72.4356 66.8437 87.7217 46 87.7217C22.9587 87.7217 4.27835 69.0413 4.27835 46C4.27835 44.983 4.31489 43.9749 4.38796 42.9759C4.88115 42.6234 5.46195 42.4136 6.06656 42.3696C6.67118 42.3256 7.27623 42.4491 7.81526 42.7265C8.35428 43.0039 8.80643 43.4245 9.12204 43.9421C9.43764 44.4596 9.6045 45.0542 9.60429 45.6604V51.096C9.60429 51.9647 9.94941 52.7979 10.5637 53.4122C11.178 54.0265 12.0112 54.3717 12.88 54.3717C13.7488 54.3717 14.582 54.0265 15.1963 53.4122C15.8106 52.7979 16.1557 51.9647 16.1557 51.096V36.7192C16.1557 36.2412 16.2498 35.7679 16.4327 35.3264C16.6156 34.8848 16.8837 34.4836 17.2217 34.1456C17.5597 33.8076 17.9609 33.5395 18.4025 33.3566C18.844 33.1737 19.3173 33.0796 19.7953 33.0796C20.2732 33.0796 20.7465 33.1737 21.1881 33.3566C21.6296 33.5395 22.0309 33.8076 22.3688 34.1456C22.7068 34.4836 22.9749 34.8848 23.1578 35.3264C23.3407 35.7679 23.4348 36.2412 23.4348 36.7192V43.4521C23.4346 44.1777 23.6513 44.8869 24.0571 45.4886C24.4629 46.0902 25.0393 46.5567 25.7122 46.8283C26.3852 47.0999 27.124 47.1641 27.8337 47.0127C28.5434 46.8612 29.1917 46.5011 29.6951 45.9785H29.7167V46C29.7172 50.0099 31.197 53.8786 33.8729 56.8651C36.5487 59.8516 40.2323 61.7458 44.2181 62.1849C48.2038 62.6241 52.2115 61.5772 55.4733 59.2449C58.7351 56.9126 61.0217 53.4588 61.8951 49.5453L61.9239 49.5506C62.4904 49.3203 63.1048 49.2327 63.713 49.2955C64.3213 49.3583 64.9048 49.5697 65.4122 49.911C65.9196 50.2523 66.3354 50.713 66.6229 51.2527C66.9105 51.7924 67.061 52.3945 67.0612 53.006V65.8357C67.0612 66.801 67.4446 67.7267 68.1272 68.4093C68.8097 69.0918 69.7355 69.4753 70.7007 69.4753C71.666 69.4753 72.5917 69.0918 73.2743 68.4093C73.9568 67.7267 74.3403 66.801 74.3403 65.8357V41.4503C74.3403 40.5332 74.7046 39.6536 75.3531 39.0051C76.0017 38.3566 76.8812 37.9922 77.7984 37.9922C78.7155 37.9922 79.5951 38.3566 80.2436 39.0051C80.8921 39.6536 81.2565 40.5332 81.2565 41.4503V49.6153C81.2563 50.0965 81.351 50.573 81.535 51.0176C81.7191 51.4622 81.989 51.8662 82.3292 52.2064C82.6695 52.5467 83.0734 52.8165 83.518 53.0006C83.9626 53.1847 84.4391 53.2793 84.9203 53.2792Z" fill="#F6C583"/>
<path d="M10.0395 50.5173L9.6043 45.6604C9.60503 45.0539 9.43848 44.4591 9.12299 43.9412C8.80749 43.4233 8.35526 43.0024 7.81605 42.7249C7.27684 42.4474 6.67153 42.324 6.06672 42.3683C5.46191 42.4126 4.88103 42.6228 4.38797 42.9758C4.3143 43.9749 4.27776 44.983 4.27836 46C4.27836 69.0413 22.9587 87.7216 46 87.7216C46.9097 87.7216 47.8122 87.6922 48.7075 87.6334C31.7095 86.554 17.4775 75.2966 12.0391 59.8875C10.9844 56.8597 10.3127 53.7119 10.0395 50.5173Z" fill="#FFE3C2"/>
<path d="M87.7216 46C87.7224 48.1641 87.5553 50.325 87.2221 52.4633C86.6845 52.8985 86.0346 53.1725 85.3477 53.2536C84.6607 53.3346 83.9649 53.2195 83.3407 52.9215C82.7165 52.6235 82.1895 52.1548 81.8206 51.5697C81.4518 50.9846 81.2562 50.307 81.2565 49.6153V41.4503C81.2565 40.5331 80.8922 39.6536 80.2436 39.005C79.5951 38.3565 78.7155 37.9922 77.7984 37.9922C76.8813 37.9922 76.0017 38.3565 75.3532 39.005C74.7047 39.6536 74.3403 40.5331 74.3403 41.4503V65.8357C74.3403 66.8009 73.9569 67.7267 73.2743 68.4092C72.5918 69.0918 71.666 69.4752 70.7007 69.4752C69.7355 69.4752 68.8097 69.0918 68.1272 68.4092C67.4446 67.7267 67.0612 66.8009 67.0612 65.8357V53.006C67.061 52.3945 66.9105 51.7924 66.6229 51.2527C66.3354 50.713 65.9196 50.2522 65.4122 49.9109C64.9048 49.5696 64.3213 49.3583 63.713 49.2954C63.1048 49.2326 62.4904 49.3202 61.9239 49.5506L61.8952 49.5452C62.393 47.3121 62.4148 44.9992 61.959 42.7571C61.5032 40.5151 60.58 38.3942 59.2497 36.5328C57.9194 34.6714 56.2117 33.1112 54.2381 31.954C52.2645 30.7967 50.0691 30.0683 47.7951 29.8162C45.5211 29.5642 43.2195 29.7941 41.0404 30.4911C38.8612 31.188 36.8533 32.3364 35.1477 33.8613C33.442 35.3861 32.0768 37.2533 31.141 39.3411C30.2053 41.4289 29.72 43.6905 29.7167 45.9784H29.6952C29.1916 46.5009 28.5434 46.861 27.8337 47.0124C27.124 47.1638 26.3853 47.0995 25.7124 46.828C25.0394 46.5564 24.4631 46.0899 24.0572 45.4883C23.6514 44.8868 23.4347 44.1776 23.4348 43.452V36.7191C23.4348 35.7538 23.0514 34.8281 22.3688 34.1455C21.6863 33.463 20.7606 33.0795 19.7953 33.0795C18.83 33.0795 17.9043 33.463 17.2217 34.1455C16.5392 34.8281 16.1557 35.7538 16.1557 36.7191V51.0959C16.1557 51.9647 15.8106 52.7979 15.1963 53.4122C14.582 54.0265 13.7488 54.3716 12.88 54.3716C12.0112 54.3716 11.178 54.0265 10.5637 53.4122C9.94942 52.7979 9.6043 51.9647 9.6043 51.0959V45.6603C9.60503 45.0539 9.43849 44.459 9.12299 43.9411C8.80749 43.4232 8.35526 43.0024 7.81605 42.7249C7.27684 42.4474 6.67153 42.324 6.06672 42.3683C5.46191 42.4125 4.88103 42.6228 4.38797 42.9758C5.93508 21.3468 23.9757 4.27832 46 4.27832C69.0413 4.27832 87.7216 22.9586 87.7216 46Z" fill="#FF5A81"/>
<path d="M44.6092 10.9411C44.6738 11.1228 44.7066 11.3143 44.7063 11.5071C44.7059 11.8584 44.5966 12.201 44.3936 12.4877C44.1906 12.7744 43.9037 12.9911 43.5724 13.1082L38.8808 14.7631C38.4559 14.913 37.9889 14.8879 37.5826 14.6935C37.1762 14.499 36.8636 14.1511 36.7138 13.7263C36.5639 13.3014 36.5889 12.8344 36.7834 12.428C36.9778 12.0216 37.3257 11.7091 37.7506 11.5592L42.4422 9.90432C42.8671 9.75462 43.334 9.77974 43.7403 9.97415C44.1467 10.1686 44.4592 10.5164 44.6092 10.9411Z" fill="#D8FF33"/>
<path d="M35.0229 23.2821C35.2067 23.4084 35.3637 23.5697 35.4852 23.7567C35.6066 23.9438 35.6899 24.1529 35.7305 24.3722C35.771 24.5915 35.768 24.8166 35.7215 25.0347C35.675 25.2528 35.586 25.4595 35.4595 25.6432L32.6402 29.7419C32.5138 29.9255 32.3524 30.0825 32.1653 30.2037C31.9782 30.325 31.7691 30.4082 31.5498 30.4486C31.3305 30.489 31.1054 30.4857 30.8874 30.4391C30.6694 30.3924 30.4627 30.3033 30.2791 30.1767H30.2773C30.0936 30.0504 29.9365 29.8891 29.8152 29.7021C29.6938 29.515 29.6104 29.3059 29.5699 29.0866C29.5293 28.8674 29.5324 28.6423 29.5788 28.4242C29.6253 28.2061 29.7143 27.9993 29.8407 27.8156L32.6618 23.717C32.7881 23.5332 32.9494 23.3762 33.1364 23.2548C33.3235 23.1334 33.5326 23.0501 33.7519 23.0095C33.9711 22.969 34.1962 22.972 34.4143 23.0185C34.6324 23.0649 34.8392 23.1539 35.0229 23.2803V23.2821Z" fill="#D8FF33"/>
<path d="M75.1237 27.6503C75.4646 27.9446 75.6747 28.3623 75.7077 28.8115C75.7407 29.2606 75.594 29.7045 75.2998 30.0455L75.298 30.0473C75.1524 30.216 74.9749 30.3543 74.7758 30.4544C74.5766 30.5544 74.3597 30.6143 74.1374 30.6305C73.9152 30.6466 73.6919 30.6189 73.4803 30.5487C73.2688 30.4786 73.0732 30.3674 72.9046 30.2216L69.1384 26.9711C68.9696 26.8255 68.8311 26.6482 68.7309 26.4491C68.6307 26.25 68.5707 26.0331 68.5544 25.8109C68.538 25.5886 68.5656 25.3653 68.6356 25.1537C68.7056 24.9421 68.8166 24.7463 68.9623 24.5777V24.5759C69.2566 24.235 69.6743 24.0249 70.1234 23.9919C70.5726 23.9589 71.0165 24.1056 71.3575 24.3998L75.1237 27.6503Z" fill="#D8FF33"/>
<path d="M65.532 32.8361C65.9764 32.8357 66.4109 32.9672 66.7806 33.2138C67.1502 33.4605 67.4384 33.8113 67.6086 34.2218C67.7788 34.6323 67.8235 35.084 67.7369 35.5199C67.6503 35.9558 67.4363 36.3562 67.1221 36.6704C66.8078 36.9846 66.4075 37.1986 65.9716 37.2852C65.5357 37.3718 65.084 37.3272 64.6735 37.1569C64.263 36.9867 63.9122 36.6985 63.6655 36.3289C63.4189 35.9593 63.2874 35.5247 63.2878 35.0804C63.2879 34.4852 63.5245 33.9145 63.9453 33.4936C64.3661 33.0728 64.9369 32.8363 65.532 32.8361Z" fill="#55D8D8"/>
<path d="M64.0766 11.7281C64.5444 11.7283 65.0018 11.8672 65.3907 12.1273C65.7796 12.3874 66.0827 12.757 66.2615 13.1893C66.4404 13.6216 66.4871 14.0973 66.3956 14.5561C66.3042 15.015 66.0787 15.4364 65.7478 15.7671C65.4168 16.0978 64.9952 16.3229 64.5363 16.414C64.0774 16.5051 63.6018 16.4581 63.1696 16.2789C62.7374 16.0997 62.368 15.7964 62.1083 15.4072C61.8485 15.0181 61.7099 14.5607 61.7101 14.0928C61.7104 13.4655 61.9598 12.8639 62.4036 12.4204C62.8474 11.977 63.4492 11.728 64.0766 11.7281Z" fill="#55D8D8"/>
<path d="M56.5908 22.7341C56.5962 22.7898 56.5979 22.8437 56.5979 22.8994C56.5976 23.3212 56.4405 23.7277 56.1573 24.0401C55.8741 24.3526 55.4849 24.5486 55.0652 24.5903L50.113 25.0719C49.8911 25.0935 49.6671 25.0712 49.4537 25.0063C49.2404 24.9413 49.042 24.835 48.8698 24.6933C48.6976 24.5516 48.555 24.3774 48.4501 24.1806C48.3452 23.9838 48.2802 23.7683 48.2587 23.5463C48.2533 23.4906 48.2497 23.4331 48.2497 23.3774C48.2503 22.956 48.4078 22.55 48.6915 22.2384C48.9752 21.9268 49.3647 21.732 49.7842 21.6919L54.7364 21.2086C54.9583 21.1869 55.1824 21.2092 55.3957 21.2742C55.609 21.3391 55.8074 21.4455 55.9796 21.5872C56.1518 21.7288 56.2945 21.903 56.3993 22.0998C56.5042 22.2966 56.5692 22.5122 56.5908 22.7341Z" fill="#D8FF33"/>
<path d="M29.3789 11.5988C29.7283 11.5988 30.0698 11.7023 30.3602 11.8964C30.6507 12.0905 30.8771 12.3664 31.0108 12.6891C31.1445 13.0119 31.1794 13.367 31.1113 13.7097C31.0431 14.0523 30.8749 14.367 30.6279 14.6141C30.3809 14.8611 30.0661 15.0293 29.7235 15.0975C29.3809 15.1656 29.0257 15.1306 28.703 14.997C28.3802 14.8633 28.1043 14.6369 27.9103 14.3464C27.7162 14.0559 27.6126 13.7144 27.6126 13.3651C27.6129 12.8967 27.7991 12.4476 28.1303 12.1165C28.4615 11.7853 28.9106 11.5991 29.3789 11.5988Z" fill="#55D8D8"/>
<path d="M46 4.27832C23.9757 4.27832 5.93508 21.3468 4.38797 42.9758C4.88116 42.6233 5.46196 42.4135 6.06657 42.3695C6.67119 42.3255 7.27624 42.449 7.81527 42.7264C8.35429 43.0038 8.80644 43.4244 9.12205 43.942C9.43765 44.4596 9.60451 45.0541 9.6043 45.6604L9.66898 46C9.66898 44.9829 9.70552 43.9749 9.77859 42.9758C11.2621 22.2375 27.9091 5.6948 48.6913 4.36637C47.8012 4.31048 46.9044 4.27832 46 4.27832Z" fill="#FFC5D6"/>
<path d="M24.6028 20.9641C24.6592 21.1798 24.6725 21.4045 24.6419 21.6253C24.6113 21.8461 24.5375 22.0587 24.4247 22.251C24.3119 22.4433 24.1623 22.6114 23.9844 22.7458C23.8065 22.8801 23.6039 22.9781 23.3881 23.0341L18.5725 24.2883C18.1367 24.4014 17.6738 24.3368 17.2856 24.1087C16.8974 23.8806 16.6157 23.5076 16.5025 23.0718L16.5007 23.07C16.3876 22.6342 16.4522 22.1713 16.6803 21.7832C16.9084 21.395 17.2814 21.1133 17.7172 21L22.5328 19.7476C22.7485 19.6912 22.9731 19.678 23.194 19.7085C23.4148 19.7391 23.6274 19.8129 23.8197 19.9257C24.012 20.0385 24.1801 20.1881 24.3145 20.366C24.4488 20.5439 24.5468 20.7465 24.6028 20.9623V20.9641Z" fill="#D8FF33"/>
<path d="M10.9394 34.0508C11.3113 34.051 11.6748 34.1614 11.9839 34.3682C12.2931 34.575 12.5339 34.8688 12.6761 35.2124C12.8183 35.5561 12.8553 35.9342 12.7826 36.2989C12.7099 36.6637 12.5306 36.9987 12.2675 37.2615C12.0044 37.5244 11.6692 37.7033 11.3044 37.7757C10.9396 37.8481 10.5616 37.8107 10.218 37.6682C9.8745 37.5257 9.58093 37.2845 9.37446 36.9752C9.16798 36.6658 9.05787 36.3022 9.05804 35.9303C9.05795 35.6833 9.10656 35.4387 9.20109 35.2105C9.29563 34.9823 9.43423 34.775 9.60897 34.6004C9.78371 34.4259 9.99116 34.2875 10.2194 34.1931C10.4477 34.0988 10.6924 34.0505 10.9394 34.0508Z" fill="#55D8D8"/>
<path d="M45.6256 10.582C45.3799 9.88823 44.869 9.32027 44.2051 9.00268C43.5412 8.68509 42.7784 8.6438 42.0841 8.88788L37.393 10.5432C36.7006 10.7875 36.1332 11.2962 35.8149 11.958C35.4967 12.6197 35.4535 13.3806 35.695 14.074C35.6962 14.078 35.6976 14.0819 35.6991 14.0857C35.8203 14.4295 36.0081 14.7461 36.2517 15.0173C36.4953 15.2886 36.7899 15.5092 37.1188 15.6665C37.4477 15.8238 37.8043 15.9148 38.1684 15.9343C38.5324 15.9538 38.8968 15.9013 39.2405 15.78L43.9324 14.1247C44.6243 13.8797 45.1912 13.371 45.5093 12.7094C45.8274 12.0479 45.8709 11.2874 45.6302 10.594C45.6284 10.5899 45.627 10.5859 45.6256 10.582ZM43.2143 12.0913L38.5225 13.7461C38.3686 13.8 38.1996 13.7912 38.0521 13.7215C37.9046 13.6518 37.7905 13.5268 37.7344 13.3736L37.7321 13.3673C37.6774 13.2124 37.6864 13.0422 37.7572 12.8939C37.8279 12.7457 37.9546 12.6316 38.1094 12.5767L42.8016 10.9212C42.9557 10.8672 43.1249 10.876 43.2725 10.9458C43.4202 11.0156 43.5344 11.1407 43.5904 11.2941L43.5928 11.3005C43.6472 11.4555 43.638 11.6258 43.5672 11.774C43.4964 11.9222 43.3697 12.0363 43.2149 12.0913H43.2143Z" fill="#284268"/>
<path d="M25.6441 20.6842C25.4572 19.9734 24.996 19.3658 24.3617 18.9946C23.7274 18.6234 22.9718 18.5189 22.2606 18.704L17.445 19.9568C17.0921 20.0485 16.7608 20.2089 16.47 20.4287C16.1791 20.6485 15.9344 20.9235 15.7498 21.2379C15.5652 21.5523 15.4444 21.9 15.3942 22.2611C15.344 22.6222 15.3654 22.9896 15.4573 23.3425L15.4605 23.354C15.6171 23.9455 15.9646 24.4688 16.449 24.8426C16.9333 25.2165 17.5276 25.42 18.1395 25.4216C18.3769 25.4217 18.6133 25.3915 18.8431 25.3318L23.6587 24.0788C24.3707 23.8926 24.9798 23.4316 25.3524 22.797C25.7249 22.1623 25.8306 21.4058 25.6461 20.6933C25.6457 20.6899 25.645 20.687 25.6441 20.6842ZM23.1161 21.9914L18.3005 23.2442C18.1416 23.2853 17.9728 23.2617 17.8313 23.1785C17.6898 23.0953 17.5871 22.9594 17.5458 22.8005L17.544 22.7937C17.5043 22.6352 17.5288 22.4675 17.6121 22.327C17.6955 22.1865 17.831 22.0846 17.9891 22.0435L22.8047 20.7907C22.8834 20.7702 22.9655 20.7654 23.0461 20.7765C23.1267 20.7877 23.2043 20.8147 23.2745 20.8558C23.3447 20.897 23.406 20.9516 23.4551 21.0166C23.5042 21.0815 23.54 21.1554 23.5605 21.2342L23.5619 21.2398C23.6018 21.3985 23.5773 21.5666 23.4938 21.7074C23.4103 21.8482 23.2745 21.9503 23.1161 21.9914Z" fill="#284268"/>
<path d="M68.1463 23.8715L68.1391 23.8798C67.6611 24.4375 67.4237 25.162 67.4788 25.8945C67.5339 26.6269 67.877 27.3077 68.4331 27.7877L72.1993 31.0386C72.7014 31.4743 73.3441 31.7139 74.0089 31.7131C74.0778 31.7131 74.1471 31.7106 74.2165 31.7056C74.9459 31.654 75.6249 31.3148 76.1043 30.7627C76.1081 30.7584 76.1117 30.7541 76.1156 30.7498C76.5957 30.1921 76.8351 29.4667 76.7812 28.7328C76.7273 27.9988 76.3846 27.3162 75.8281 26.8346L72.0617 23.5837C71.5039 23.1034 70.7785 22.864 70.0445 22.918C69.3104 22.972 68.6278 23.3149 68.1463 23.8715ZM74.4884 29.3353L74.4822 29.3421C74.4291 29.4037 74.3643 29.4543 74.2916 29.4908C74.2189 29.5274 74.1397 29.5493 74.0585 29.5553C73.9774 29.5612 73.8958 29.5511 73.8186 29.5256C73.7413 29.5 73.6698 29.4595 73.6082 29.4063L69.8422 26.1554C69.7805 26.1022 69.73 26.0374 69.6934 25.9647C69.6568 25.892 69.6348 25.8128 69.6289 25.7316C69.6229 25.6504 69.633 25.5689 69.6585 25.4916C69.6841 25.4143 69.7246 25.3428 69.7779 25.2812L69.782 25.2765C69.8898 25.1537 70.0418 25.0785 70.2049 25.0672C70.3679 25.0559 70.5288 25.1094 70.6526 25.2161L74.419 28.4671C74.5422 28.5737 74.6186 28.7245 74.6316 28.887C74.6445 29.0494 74.5931 29.2105 74.4884 29.3353Z" fill="#284268"/>
<path d="M57.6618 22.6181C57.5877 21.8875 57.2271 21.216 56.659 20.7507C56.0909 20.2854 55.3615 20.0642 54.6306 20.1356L49.679 20.6182C48.9493 20.6893 48.2774 21.0462 47.8099 21.6108C47.3425 22.1755 47.1173 22.9022 47.1836 23.6323C47.1836 23.6388 47.1847 23.6452 47.1854 23.6517C47.2531 24.3374 47.573 24.9735 48.0831 25.4367C48.5932 25.8998 49.2571 26.1571 49.9462 26.1585C50.036 26.1585 50.1265 26.1541 50.2177 26.1452L55.1693 25.6626C55.9017 25.5903 56.5756 25.2305 57.0431 24.6621C57.5106 24.0936 57.7335 23.363 57.663 22.6304C57.6632 22.6264 57.6618 22.6226 57.6618 22.6181ZM54.9602 23.5166L50.0085 23.9992C49.8465 24.0147 49.6849 23.966 49.5585 23.8635C49.4321 23.7611 49.3509 23.6132 49.3323 23.4515C49.3323 23.4481 49.3323 23.4447 49.3323 23.4413C49.3165 23.2776 49.3662 23.1144 49.4707 22.9874C49.5751 22.8605 49.7257 22.7802 49.8894 22.7642L54.8407 22.2812C54.9217 22.2733 55.0035 22.2814 55.0814 22.3051C55.1593 22.3288 55.2318 22.3677 55.2947 22.4194C55.3576 22.4711 55.4096 22.5347 55.4479 22.6066C55.4862 22.6785 55.5099 22.7572 55.5177 22.8383V22.8454C55.5318 23.0081 55.4812 23.1697 55.377 23.2953C55.2727 23.421 55.1232 23.5004 54.9607 23.5166H54.9602Z" fill="#284268"/>
<path d="M35.647 22.4016L35.6339 22.3925C35.027 21.976 34.2798 21.8172 33.5561 21.9509C32.8324 22.0847 32.1912 22.5 31.7733 23.1058L28.9533 27.2047C28.5373 27.809 28.3775 28.5535 28.5088 29.2753C28.6401 29.9972 29.0519 30.6377 29.6541 31.0568L29.6673 31.0662C30.2741 31.4828 31.0213 31.6417 31.7451 31.5079C32.4689 31.3742 33.11 30.9588 33.5278 30.3528L36.3488 26.2541C36.7647 25.6498 36.9245 24.9053 36.7932 24.1836C36.6619 23.4618 36.2502 22.8213 35.6481 22.4022L35.647 22.4016ZM34.5719 25.0313L31.7508 29.1302C31.6582 29.2644 31.5166 29.3567 31.3565 29.3873C31.1964 29.4178 31.0306 29.3842 30.8952 29.2935C30.893 29.2921 30.8907 29.2903 30.8881 29.2889C30.821 29.2427 30.7637 29.1838 30.7194 29.1154C30.6751 29.0471 30.6447 28.9707 30.6299 28.8906C30.6151 28.8105 30.6163 28.7282 30.6333 28.6486C30.6503 28.5689 30.6829 28.4934 30.7291 28.4264L33.5493 24.3275C33.6418 24.1933 33.7834 24.1009 33.9435 24.0703C34.1036 24.0397 34.2693 24.0734 34.4048 24.164L34.4122 24.169C34.4793 24.2152 34.5366 24.2741 34.581 24.3424C34.6253 24.4108 34.6557 24.4872 34.6705 24.5673C34.6853 24.6474 34.6842 24.7296 34.6671 24.8093C34.6501 24.8889 34.6176 24.9645 34.5714 25.0315L34.5719 25.0313Z" fill="#284268"/>
<path d="M32.2245 13.3652C32.2245 12.8025 32.0576 12.2524 31.745 11.7845C31.4324 11.3167 30.988 10.952 30.4682 10.7366C29.9483 10.5213 29.3763 10.4649 28.8244 10.5747C28.2725 10.6844 27.7655 10.9554 27.3676 11.3532C26.9697 11.7511 26.6987 12.258 26.5888 12.8099C26.479 13.3618 26.5353 13.9339 26.7506 14.4537C26.9659 14.9736 27.3305 15.418 27.7983 15.7307C28.2662 16.0434 28.8162 16.2103 29.3789 16.2104C30.1333 16.2096 30.8566 15.9096 31.3901 15.3762C31.9235 14.8428 32.2236 14.1196 32.2245 13.3652ZM28.6904 13.3652C28.6904 13.2289 28.7308 13.0957 28.8065 12.9824C28.8822 12.8692 28.9898 12.7809 29.1157 12.7287C29.2415 12.6766 29.3801 12.6629 29.5137 12.6895C29.6473 12.7161 29.7701 12.7817 29.8664 12.8781C29.9628 12.9744 30.0284 13.0972 30.055 13.2308C30.0816 13.3644 30.0679 13.5029 30.0158 13.6288C29.9636 13.7547 29.8753 13.8623 29.762 13.938C29.6487 14.0137 29.5155 14.0541 29.3793 14.0541C29.1966 14.0539 29.0215 13.9813 28.8924 13.8521C28.7632 13.723 28.6906 13.5478 28.6904 13.3652Z" fill="#284268"/>
<path d="M67.5205 14.093C67.5204 13.4119 67.3183 12.7461 66.9398 12.1798C66.5613 11.6136 66.0234 11.1722 65.3942 10.9117C64.7649 10.6511 64.0724 10.583 63.4044 10.7159C62.7364 10.8488 62.1228 11.1769 61.6412 11.6585C61.1596 12.1402 60.8317 12.7538 60.6989 13.4219C60.566 14.0899 60.6342 14.7823 60.8949 15.4116C61.1556 16.0409 61.597 16.5787 62.1633 16.9571C62.7297 17.3355 63.3955 17.5374 64.0766 17.5374C64.9898 17.5364 65.8652 17.1731 66.5108 16.5274C67.1565 15.8817 67.5196 15.0062 67.5205 14.093ZM62.7891 14.093C62.7893 13.8384 62.8649 13.5894 63.0064 13.3778C63.148 13.1661 63.3491 13.0011 63.5844 12.9038C63.8197 12.8064 64.0786 12.781 64.3284 12.8307C64.5781 12.8805 64.8075 13.0032 64.9875 13.1833C65.1676 13.3634 65.2901 13.5929 65.3397 13.8427C65.3894 14.0924 65.3638 14.3513 65.2663 14.5866C65.1688 14.8218 65.0037 15.0229 64.792 15.1643C64.5802 15.3058 64.3313 15.3812 64.0766 15.3812C63.7351 15.3809 63.4077 15.245 63.1663 15.0035C62.925 14.762 62.7893 14.4345 62.7891 14.093Z" fill="#284268"/>
<path d="M65.532 31.7587C64.8749 31.7586 64.2324 31.9535 63.686 32.3185C63.1396 32.6836 62.7137 33.2025 62.4622 33.8096C62.2107 34.4168 62.1449 35.0848 62.2731 35.7294C62.4012 36.3739 62.7177 36.966 63.1823 37.4306C63.647 37.8953 64.239 38.2118 64.8836 38.34C65.5281 38.4682 66.1962 38.4025 66.8033 38.151C67.4104 37.8995 67.9294 37.4736 68.2945 36.9272C68.6596 36.3808 68.8544 35.7384 68.8544 35.0813C68.8534 34.2004 68.5031 33.3559 67.8802 32.733C67.2574 32.1101 66.4129 31.7597 65.532 31.7587ZM65.532 36.2476C65.3013 36.2477 65.0758 36.1793 64.884 36.0511C64.6922 35.923 64.5426 35.7409 64.4543 35.5277C64.366 35.3146 64.3429 35.0801 64.3879 34.8538C64.4329 34.6276 64.5439 34.4197 64.707 34.2566C64.8702 34.0935 65.078 33.9824 65.3042 33.9373C65.5305 33.8923 65.765 33.9154 65.9781 34.0037C66.1913 34.092 66.3734 34.2415 66.5016 34.4333C66.6298 34.6251 66.6982 34.8506 66.6982 35.0813C66.6978 35.3904 66.5748 35.6868 66.3562 35.9055C66.1376 36.1241 65.8412 36.2471 65.532 36.2476Z" fill="#284268"/>
<path d="M10.9388 32.9727C10.3537 32.9727 9.78169 33.1462 9.29516 33.4713C8.80863 33.7964 8.42942 34.2584 8.20549 34.799C7.98157 35.3396 7.92298 35.9345 8.03713 36.5084C8.15129 37.0823 8.43307 37.6095 8.84683 38.0232C9.26059 38.437 9.78775 38.7188 10.3617 38.8329C10.9356 38.9471 11.5304 38.8885 12.071 38.6646C12.6116 38.4406 13.0737 38.0614 13.3988 37.5749C13.7239 37.0884 13.8974 36.5164 13.8974 35.9312C13.8965 35.1468 13.5845 34.3948 13.0299 33.8402C12.4752 33.2856 11.7232 32.9736 10.9388 32.9727ZM10.9388 36.7335C10.7802 36.7335 10.625 36.6865 10.4931 36.5983C10.3612 36.5101 10.2583 36.3848 10.1976 36.2382C10.1369 36.0916 10.121 35.9303 10.152 35.7747C10.1829 35.6191 10.2593 35.4761 10.3715 35.3639C10.4837 35.2517 10.6267 35.1753 10.7823 35.1443C10.938 35.1134 11.0993 35.1293 11.2459 35.19C11.3925 35.2507 11.5178 35.3535 11.6059 35.4855C11.6941 35.6174 11.7411 35.7725 11.7411 35.9312C11.7407 36.1438 11.656 36.3475 11.5056 36.4978C11.3553 36.6481 11.1514 36.7326 10.9388 36.7328V36.7335Z" fill="#284268"/>
<path d="M46 3.2006C37.5351 3.20062 29.2603 5.71078 22.222 10.4136C15.1837 15.1165 9.69801 21.8008 6.45864 29.6214C3.21926 37.442 2.37169 46.0475 4.02311 54.3497C5.67452 62.652 9.75075 70.2781 15.7363 76.2637C19.7077 80.2513 24.4265 83.4165 29.6226 85.5781C34.8188 87.7397 40.3902 88.8554 46.0181 88.8611C51.6459 88.8668 57.2196 87.7626 62.4202 85.6115C67.6207 83.4605 72.346 80.3049 76.3255 76.3255C80.3049 72.346 83.4605 67.6207 85.6115 62.4202C87.7626 57.2196 88.8668 51.6459 88.8611 46.0181C88.8554 40.3902 87.7397 34.8188 85.5781 29.6226C83.4165 24.4265 80.2513 19.7077 76.2637 15.7363C72.2987 11.7495 67.5823 8.5888 62.3875 6.43704C57.1927 4.28528 51.6228 3.18524 46 3.2006ZM74.7389 74.739C69.0548 80.423 61.8129 84.2939 53.929 85.862C46.045 87.4302 37.873 86.6254 30.4465 83.5492C23.02 80.473 16.6724 75.2637 12.2065 68.58C7.74059 61.8963 5.3569 54.0384 5.35686 46C5.35686 45.2024 5.38255 44.4087 5.42783 43.6188C5.76576 43.4737 6.13441 43.4148 6.50073 43.4473C6.86704 43.4798 7.21956 43.6027 7.52665 43.805C7.83375 44.0074 8.08581 44.2828 8.26023 44.6065C8.43465 44.9303 8.52597 45.2923 8.52601 45.66V51.0954C8.52601 52.2501 8.98471 53.3575 9.80121 54.174C10.6177 54.9905 11.7251 55.4492 12.8798 55.4492C14.0345 55.4492 15.142 54.9905 15.9585 54.174C16.775 53.3575 17.2337 52.2501 17.2337 51.0954V36.7192C17.2337 36.0398 17.5035 35.3883 17.9839 34.9079C18.4643 34.4276 19.1158 34.1577 19.7951 34.1577C20.4744 34.1577 21.126 34.4276 21.6063 34.9079C22.0867 35.3883 22.3566 36.0398 22.3566 36.7192V43.4522C22.3575 44.2151 22.5432 44.9664 22.8978 45.6418C23.2524 46.3173 23.7652 46.8968 24.3926 47.3309C25.0199 47.7649 25.743 48.0406 26.5001 48.1343C27.2572 48.228 28.0257 48.137 28.74 47.8689C29.1769 51.9038 31.0136 55.6581 33.931 58.4795C36.8483 61.301 40.6618 63.0112 44.7091 63.3131C48.7563 63.615 52.7814 62.4895 56.0851 60.1322C59.3887 57.7748 61.7621 54.3346 62.7929 50.4092C63.1787 50.3289 63.5775 50.3357 63.9604 50.429C64.3432 50.5223 64.7004 50.6998 65.006 50.9486C65.3117 51.1973 65.558 51.5111 65.727 51.8671C65.8961 52.223 65.9837 52.6121 65.9834 53.0062V65.8359C65.9834 67.0871 66.4805 68.2871 67.3652 69.1718C68.2499 70.0565 69.4499 70.5536 70.7011 70.5536C71.9523 70.5536 73.1523 70.0565 74.037 69.1718C74.9218 68.2871 75.4188 67.0871 75.4188 65.8359V41.4505C75.4188 40.8194 75.6695 40.2142 76.1157 39.768C76.562 39.3218 77.1672 39.0711 77.7982 39.0711C78.4293 39.0711 79.0345 39.3218 79.4807 39.768C79.927 40.2142 80.1777 40.8194 80.1777 41.4505V49.6155C80.1756 50.3137 80.3282 51.0036 80.6244 51.6358C80.9207 52.268 81.3533 52.8267 81.8912 53.2718C82.4291 53.7169 83.0588 54.0374 83.7353 54.2102C84.4117 54.383 85.118 54.4038 85.8035 54.2712C84.2045 62.0321 80.3564 69.1505 74.7389 74.739ZM30.7954 46C30.7954 42.9928 31.6872 40.0532 33.3579 37.5528C35.0287 35.0525 37.4033 33.1037 40.1816 31.9529C42.9599 30.8021 46.017 30.501 48.9664 31.0877C51.9158 31.6744 54.625 33.1226 56.7514 35.249C58.8778 37.3754 60.3258 40.0846 60.9125 43.034C61.4991 45.9834 61.198 49.0405 60.0472 51.8188C58.8964 54.5971 56.9476 56.9717 54.4472 58.6424C51.9468 60.3131 49.0072 61.2048 46 61.2048C41.9689 61.2002 38.1042 59.5968 35.2538 56.7463C32.4033 53.8959 30.8 50.0311 30.7954 46ZM86.2267 51.8458C85.8309 52.0798 85.3792 52.2026 84.9194 52.201C84.2339 52.2003 83.5767 51.9276 83.092 51.4429C82.6073 50.9582 82.3347 50.301 82.3339 49.6155V41.4505C82.3339 40.2476 81.856 39.0939 81.0054 38.2433C80.1548 37.3927 79.0012 36.9148 77.7982 36.9148C76.5953 36.9148 75.4416 37.3927 74.591 38.2433C73.7404 39.0939 73.2626 40.2476 73.2626 41.4505V65.8357C73.2626 66.5151 72.9927 67.1666 72.5123 67.6469C72.032 68.1273 71.3805 68.3972 70.7011 68.3972C70.0218 68.3972 69.3703 68.1273 68.8899 67.6469C68.4095 67.1666 68.1397 66.5151 68.1397 65.8357V53.006C68.1382 51.7311 67.6311 50.5088 66.7296 49.6073C65.8281 48.7057 64.6058 48.1987 63.3309 48.1972C63.2949 48.1972 63.259 48.1992 63.2231 48.1999C63.5207 45.8686 63.3418 43.501 62.6973 41.2409C62.0528 38.9807 60.9561 36.8749 59.4737 35.0511C57.9913 33.2273 56.1539 31.7235 54.0731 30.6308C51.9923 29.5382 49.7112 28.8794 47.3683 28.6944C45.0253 28.5094 42.6691 28.8021 40.4426 29.5546C38.216 30.3072 36.1655 31.5041 34.4152 33.0726C32.665 34.6411 31.2514 36.5487 30.2602 38.6798C29.269 40.8108 28.7208 43.1209 28.6488 45.4701C28.2004 45.8232 27.6459 46.0148 27.0751 46.0137C26.396 46.0129 25.7449 45.7428 25.2647 45.2625C24.7845 44.7823 24.5144 44.1312 24.5137 43.452V36.7192C24.5137 35.4679 24.0167 34.268 23.1319 33.3832C22.2472 32.4985 21.0472 32.0015 19.796 32.0015C18.5448 32.0015 17.3448 32.4985 16.4601 33.3832C15.5754 34.268 15.0783 35.4679 15.0783 36.7192V51.0954C15.0783 51.6782 14.8468 52.2372 14.4347 52.6493C14.0225 53.0615 13.4636 53.293 12.8807 53.293C12.2979 53.293 11.7389 53.0615 11.3268 52.6493C10.9147 52.2372 10.6832 51.6782 10.6832 51.0954V45.66C10.6819 44.4994 10.2202 43.3866 9.39953 42.5659C8.57882 41.7452 7.46608 41.2836 6.30543 41.2823C6.07716 41.2823 5.84924 41.3 5.62369 41.3351C6.50123 33.7451 9.50039 26.556 14.2772 20.5927C19.0539 14.6293 25.4149 10.1331 32.6303 7.6198C39.8458 5.10652 47.6235 4.67793 55.0714 6.38321C62.5194 8.08848 69.3358 11.8585 74.7389 17.261C78.5249 21.0262 81.5264 25.505 83.5698 30.438C85.6132 35.3711 86.6578 40.6605 86.6432 46C86.6431 47.956 86.5039 49.9095 86.2267 51.8458Z" fill="#284268"/>
<path d="M53.0639 80.3785C50.7393 80.854 48.3727 81.0933 46 81.093C45.7141 81.093 45.4398 81.2065 45.2376 81.4087C45.0355 81.6109 44.9219 81.8851 44.9219 82.1711C44.9219 82.457 45.0355 82.7312 45.2376 82.9334C45.4398 83.1356 45.7141 83.2492 46 83.2492C48.5183 83.2496 51.0301 82.9956 53.4973 82.4909C53.6364 82.4629 53.7687 82.4078 53.8865 82.3285C54.0042 82.2493 54.1052 82.1476 54.1836 82.0293C54.262 81.9109 54.3162 81.7783 54.3432 81.639C54.3702 81.4996 54.3694 81.3563 54.3408 81.2172C54.3123 81.0782 54.2566 80.9462 54.1769 80.8287C54.0973 80.7112 53.9952 80.6107 53.8765 80.5328C53.7579 80.4549 53.625 80.4011 53.4856 80.3747C53.3461 80.3483 53.2028 80.3496 53.0639 80.3787V80.3785Z" fill="#284268"/>
<path d="M41.1035 80.7525C33.8152 79.7258 27.0362 76.4268 21.731 71.3248C21.5232 71.1349 21.2494 71.0338 20.968 71.0431C20.6866 71.0524 20.42 71.1714 20.2252 71.3747C20.0304 71.578 19.9229 71.8494 19.9256 72.1309C19.9283 72.4124 20.041 72.6818 20.2396 72.8813C25.8718 78.2966 33.068 81.7981 40.8049 82.8879C40.8549 82.8949 40.9054 82.8984 40.956 82.8985C41.2291 82.8985 41.492 82.7949 41.6916 82.6085C41.8912 82.4222 42.0127 82.1671 42.0315 81.8947C42.0504 81.6222 41.9651 81.3528 41.793 81.1408C41.6209 80.9288 41.3747 80.79 41.1042 80.7525H41.1035Z" fill="#284268"/>
<path d="M17.2013 66.0326C17.1203 65.9165 17.0172 65.8175 16.8979 65.7412C16.7786 65.665 16.6454 65.613 16.506 65.5882C16.3666 65.5634 16.2237 65.5663 16.0854 65.5968C15.9471 65.6272 15.8162 65.6846 15.7001 65.7656C15.584 65.8467 15.485 65.9498 15.4088 66.0691C15.3325 66.1884 15.2805 66.3215 15.2558 66.4609C15.231 66.6003 15.2339 66.7433 15.2643 66.8815C15.2948 67.0198 15.3522 67.1507 15.4332 67.2668C15.8368 67.8451 16.2614 68.4183 16.6951 68.9703C16.7822 69.0829 16.8906 69.1771 17.0142 69.2476C17.1379 69.3181 17.2742 69.3635 17.4154 69.381C17.5567 69.3985 17.7 69.3879 17.8371 69.3498C17.9742 69.3117 18.1024 69.2468 18.2143 69.1589C18.3262 69.0709 18.4196 68.9617 18.4891 68.8376C18.5586 68.7134 18.6028 68.5766 18.6192 68.4353C18.6356 68.2939 18.6239 68.1507 18.5846 68.0139C18.5454 67.8771 18.4795 67.7494 18.3907 67.6382C17.9819 67.1179 17.5819 66.5777 17.2013 66.0326Z" fill="#284268"/>
</svg>
