<svg width="300" height="300" viewBox="0 0 300 300" fill="none" xmlns="http://www.w3.org/2000/svg">
<rect width="300" height="300" fill="#FBEB5D"/>
<path d="M188.92 161.279C189.759 161.281 190.572 160.992 191.222 160.463C188.117 180.436 170.844 195.722 150 195.722C126.959 195.722 108.278 177.041 108.278 154C108.278 152.983 108.315 151.975 108.388 150.976C108.881 150.623 109.462 150.414 110.067 150.37C110.671 150.326 111.276 150.449 111.815 150.726C112.354 151.004 112.806 151.424 113.122 151.942C113.438 152.46 113.605 153.054 113.604 153.66V159.096C113.604 159.965 113.949 160.798 114.564 161.412C115.178 162.027 116.011 162.372 116.88 162.372C117.749 162.372 118.582 162.027 119.196 161.412C119.811 160.798 120.156 159.965 120.156 159.096V144.719C120.156 144.241 120.25 143.768 120.433 143.326C120.616 142.885 120.884 142.484 121.222 142.146C121.56 141.808 121.961 141.54 122.402 141.357C122.844 141.174 123.317 141.08 123.795 141.08C124.273 141.08 124.746 141.174 125.188 141.357C125.63 141.54 126.031 141.808 126.369 142.146C126.707 142.484 126.975 142.885 127.158 143.326C127.341 143.768 127.435 144.241 127.435 144.719V151.452C127.435 152.178 127.651 152.887 128.057 153.489C128.463 154.09 129.039 154.557 129.712 154.828C130.385 155.1 131.124 155.164 131.834 155.013C132.543 154.861 133.192 154.501 133.695 153.978H133.717V154C133.717 158.01 135.197 161.879 137.873 164.865C140.549 167.852 144.232 169.746 148.218 170.185C152.204 170.624 156.211 169.577 159.473 167.245C162.735 164.913 165.022 161.459 165.895 157.545L165.924 157.551C166.49 157.32 167.105 157.233 167.713 157.296C168.321 157.358 168.905 157.57 169.412 157.911C169.92 158.252 170.335 158.713 170.623 159.253C170.91 159.792 171.061 160.395 171.061 161.006V173.836C171.061 174.801 171.445 175.727 172.127 176.409C172.81 177.092 173.735 177.475 174.701 177.475C175.666 177.475 176.592 177.092 177.274 176.409C177.957 175.727 178.34 174.801 178.34 173.836V149.45C178.34 148.533 178.705 147.654 179.353 147.005C180.002 146.357 180.881 145.992 181.798 145.992C182.716 145.992 183.595 146.357 184.244 147.005C184.892 147.654 185.256 148.533 185.256 149.45V157.615C185.256 158.097 185.351 158.573 185.535 159.018C185.719 159.462 185.989 159.866 186.329 160.206C186.669 160.547 187.073 160.817 187.518 161.001C187.963 161.185 188.439 161.279 188.92 161.279Z" fill="#F6C583"/>
<path d="M114.04 158.517L113.604 153.66C113.605 153.054 113.438 152.459 113.123 151.941C112.807 151.423 112.355 151.002 111.816 150.725C111.277 150.447 110.672 150.324 110.067 150.368C109.462 150.413 108.881 150.623 108.388 150.976C108.314 151.975 108.278 152.983 108.278 154C108.278 177.041 126.959 195.722 150 195.722C150.91 195.722 151.812 195.692 152.708 195.633C135.709 194.554 121.477 183.297 116.039 167.887C114.984 164.86 114.313 161.712 114.04 158.517Z" fill="#FFE3C2"/>
<path d="M191.722 154C191.722 156.164 191.555 158.325 191.222 160.463C190.684 160.898 190.035 161.172 189.348 161.254C188.661 161.335 187.965 161.22 187.341 160.922C186.717 160.624 186.189 160.155 185.821 159.57C185.452 158.985 185.256 158.307 185.256 157.615V149.45C185.256 148.533 184.892 147.654 184.244 147.005C183.595 146.357 182.716 145.992 181.798 145.992C180.881 145.992 180.002 146.357 179.353 147.005C178.705 147.654 178.34 148.533 178.34 149.45V173.836C178.34 174.801 177.957 175.727 177.274 176.409C176.592 177.092 175.666 177.475 174.701 177.475C173.735 177.475 172.81 177.092 172.127 176.409C171.445 175.727 171.061 174.801 171.061 173.836V161.006C171.061 160.394 170.91 159.792 170.623 159.253C170.335 158.713 169.92 158.252 169.412 157.911C168.905 157.57 168.321 157.358 167.713 157.295C167.105 157.233 166.49 157.32 165.924 157.551L165.895 157.545C166.393 155.312 166.415 152.999 165.959 150.757C165.503 148.515 164.58 146.394 163.25 144.533C161.919 142.671 160.212 141.111 158.238 139.954C156.264 138.797 154.069 138.068 151.795 137.816C149.521 137.564 147.22 137.794 145.04 138.491C142.861 139.188 140.853 140.336 139.148 141.861C137.442 143.386 136.077 145.253 135.141 147.341C134.205 149.429 133.72 151.69 133.717 153.978H133.695C133.192 154.501 132.543 154.861 131.834 155.012C131.124 155.164 130.385 155.1 129.712 154.828C129.039 154.556 128.463 154.09 128.057 153.488C127.651 152.887 127.435 152.178 127.435 151.452V144.719C127.435 143.754 127.051 142.828 126.369 142.146C125.686 141.463 124.761 141.08 123.795 141.08C122.83 141.08 121.904 141.463 121.222 142.146C120.539 142.828 120.156 143.754 120.156 144.719V159.096C120.156 159.965 119.811 160.798 119.196 161.412C118.582 162.026 117.749 162.372 116.88 162.372C116.011 162.372 115.178 162.026 114.564 161.412C113.949 160.798 113.604 159.965 113.604 159.096V153.66C113.605 153.054 113.438 152.459 113.123 151.941C112.807 151.423 112.355 151.002 111.816 150.725C111.277 150.447 110.672 150.324 110.067 150.368C109.462 150.413 108.881 150.623 108.388 150.976C109.935 129.347 127.976 112.278 150 112.278C173.041 112.278 191.722 130.959 191.722 154Z" fill="#FF5A81"/>
<path d="M148.609 118.941C148.674 119.123 148.707 119.314 148.706 119.507C148.706 119.858 148.597 120.201 148.394 120.488C148.191 120.774 147.904 120.991 147.572 121.108L142.881 122.763C142.456 122.913 141.989 122.888 141.583 122.693C141.176 122.499 140.864 122.151 140.714 121.726C140.564 121.301 140.589 120.834 140.783 120.428C140.978 120.022 141.326 119.709 141.751 119.559L146.442 117.904C146.867 117.755 147.334 117.78 147.74 117.974C148.147 118.169 148.459 118.516 148.609 118.941Z" fill="#D8FF33"/>
<path d="M139.023 131.282C139.207 131.408 139.364 131.57 139.485 131.757C139.607 131.944 139.69 132.153 139.73 132.372C139.771 132.591 139.768 132.817 139.721 133.035C139.675 133.253 139.586 133.46 139.46 133.643L136.64 137.742C136.514 137.926 136.352 138.082 136.165 138.204C135.978 138.325 135.769 138.408 135.55 138.449C135.331 138.489 135.105 138.486 134.887 138.439C134.669 138.392 134.463 138.303 134.279 138.177H134.277C134.094 138.05 133.937 137.889 133.815 137.702C133.694 137.515 133.61 137.306 133.57 137.087C133.529 136.867 133.532 136.642 133.579 136.424C133.625 136.206 133.714 135.999 133.841 135.816L136.662 131.717C136.788 131.533 136.949 131.376 137.136 131.255C137.323 131.133 137.533 131.05 137.752 131.01C137.971 130.969 138.196 130.972 138.414 131.018C138.632 131.065 138.839 131.154 139.023 131.28V131.282Z" fill="#D8FF33"/>
<path d="M179.124 135.65C179.465 135.945 179.675 136.362 179.708 136.811C179.741 137.261 179.594 137.705 179.3 138.046L179.298 138.047C179.152 138.216 178.975 138.354 178.776 138.454C178.577 138.554 178.36 138.614 178.137 138.63C177.915 138.647 177.692 138.619 177.48 138.549C177.269 138.479 177.073 138.367 176.905 138.222L173.138 134.971C172.97 134.826 172.831 134.648 172.731 134.449C172.631 134.25 172.571 134.033 172.554 133.811C172.538 133.589 172.566 133.365 172.636 133.154C172.706 132.942 172.817 132.746 172.962 132.578V132.576C173.257 132.235 173.674 132.025 174.123 131.992C174.573 131.959 175.016 132.106 175.357 132.4L179.124 135.65Z" fill="#D8FF33"/>
<path d="M169.532 140.836C169.976 140.836 170.411 140.967 170.781 141.214C171.15 141.461 171.438 141.811 171.609 142.222C171.779 142.632 171.823 143.084 171.737 143.52C171.65 143.956 171.436 144.356 171.122 144.67C170.808 144.985 170.407 145.199 169.972 145.285C169.536 145.372 169.084 145.327 168.673 145.157C168.263 144.987 167.912 144.699 167.666 144.329C167.419 143.959 167.287 143.525 167.288 143.08C167.288 142.485 167.524 141.914 167.945 141.494C168.366 141.073 168.937 140.836 169.532 140.836Z" fill="#55D8D8"/>
<path d="M168.077 119.728C168.544 119.728 169.002 119.867 169.391 120.127C169.78 120.387 170.083 120.757 170.262 121.189C170.44 121.622 170.487 122.097 170.396 122.556C170.304 123.015 170.079 123.436 169.748 123.767C169.417 124.098 168.995 124.323 168.536 124.414C168.077 124.505 167.602 124.458 167.17 124.279C166.737 124.1 166.368 123.796 166.108 123.407C165.848 123.018 165.71 122.561 165.71 122.093C165.71 121.465 165.96 120.864 166.404 120.42C166.847 119.977 167.449 119.728 168.077 119.728Z" fill="#55D8D8"/>
<path d="M160.591 130.734C160.596 130.79 160.598 130.844 160.598 130.899C160.598 131.321 160.441 131.728 160.157 132.04C159.874 132.353 159.485 132.549 159.065 132.59L154.113 133.072C153.891 133.094 153.667 133.071 153.454 133.006C153.24 132.941 153.042 132.835 152.87 132.693C152.698 132.552 152.555 132.377 152.45 132.181C152.345 131.984 152.28 131.768 152.259 131.546C152.253 131.491 152.25 131.433 152.25 131.377C152.25 130.956 152.408 130.55 152.691 130.238C152.975 129.927 153.365 129.732 153.784 129.692L158.736 129.209C158.958 129.187 159.182 129.209 159.396 129.274C159.609 129.339 159.807 129.445 159.98 129.587C160.152 129.729 160.294 129.903 160.399 130.1C160.504 130.297 160.569 130.512 160.591 130.734Z" fill="#D8FF33"/>
<path d="M133.379 119.599C133.728 119.599 134.07 119.702 134.36 119.896C134.651 120.091 134.877 120.366 135.011 120.689C135.144 121.012 135.179 121.367 135.111 121.71C135.043 122.052 134.875 122.367 134.628 122.614C134.381 122.861 134.066 123.029 133.724 123.097C133.381 123.166 133.026 123.131 132.703 122.997C132.38 122.863 132.104 122.637 131.91 122.346C131.716 122.056 131.613 121.714 131.613 121.365C131.613 120.897 131.799 120.448 132.13 120.116C132.461 119.785 132.911 119.599 133.379 119.599Z" fill="#55D8D8"/>
<path d="M150 112.278C127.976 112.278 109.935 129.347 108.388 150.976C108.881 150.623 109.462 150.414 110.067 150.37C110.671 150.326 111.276 150.449 111.815 150.726C112.354 151.004 112.806 151.424 113.122 151.942C113.438 152.46 113.605 153.054 113.604 153.66L113.669 154C113.669 152.983 113.706 151.975 113.779 150.976C115.262 130.238 131.909 113.695 152.691 112.366C151.801 112.31 150.904 112.278 150 112.278Z" fill="#FFC5D6"/>
<path d="M128.603 128.964C128.659 129.18 128.672 129.404 128.642 129.625C128.611 129.846 128.538 130.059 128.425 130.251C128.312 130.443 128.162 130.611 127.984 130.746C127.807 130.88 127.604 130.978 127.388 131.034L122.572 132.288C122.137 132.401 121.674 132.337 121.286 132.109C120.897 131.881 120.616 131.508 120.502 131.072L120.501 131.07C120.388 130.634 120.452 130.171 120.68 129.783C120.908 129.395 121.281 129.113 121.717 129L126.533 127.748C126.748 127.691 126.973 127.678 127.194 127.709C127.415 127.739 127.627 127.813 127.82 127.926C128.012 128.039 128.18 128.188 128.314 128.366C128.449 128.544 128.547 128.747 128.603 128.962V128.964Z" fill="#D8FF33"/>
<path d="M114.939 142.051C115.311 142.051 115.675 142.161 115.984 142.368C116.293 142.575 116.534 142.869 116.676 143.212C116.818 143.556 116.855 143.934 116.783 144.299C116.71 144.664 116.531 144.999 116.268 145.262C116.004 145.524 115.669 145.703 115.304 145.776C114.94 145.848 114.562 145.811 114.218 145.668C113.874 145.526 113.581 145.285 113.374 144.975C113.168 144.666 113.058 144.302 113.058 143.93C113.058 143.683 113.107 143.439 113.201 143.211C113.296 142.982 113.434 142.775 113.609 142.6C113.784 142.426 113.991 142.287 114.219 142.193C114.448 142.099 114.692 142.05 114.939 142.051Z" fill="#55D8D8"/>
<path d="M149.626 118.582C149.38 117.888 148.869 117.32 148.205 117.003C147.541 116.685 146.778 116.644 146.084 116.888L141.393 118.543C140.701 118.788 140.133 119.296 139.815 119.958C139.497 120.62 139.454 121.381 139.695 122.074C139.696 122.078 139.698 122.082 139.699 122.086C139.82 122.43 140.008 122.746 140.252 123.017C140.495 123.289 140.79 123.509 141.119 123.667C141.448 123.824 141.804 123.915 142.168 123.934C142.532 123.954 142.897 123.901 143.241 123.78L147.932 122.125C148.624 121.88 149.191 121.371 149.509 120.709C149.827 120.048 149.871 119.287 149.63 118.594C149.628 118.59 149.627 118.586 149.626 118.582ZM147.214 120.091L142.523 121.746C142.369 121.8 142.2 121.791 142.052 121.721C141.905 121.652 141.79 121.527 141.734 121.374L141.732 121.367C141.677 121.212 141.686 121.042 141.757 120.894C141.828 120.746 141.955 120.632 142.109 120.577L146.802 118.921C146.956 118.867 147.125 118.876 147.273 118.946C147.42 119.016 147.534 119.141 147.59 119.294L147.593 119.301C147.647 119.456 147.638 119.626 147.567 119.774C147.496 119.922 147.37 120.036 147.215 120.091H147.214Z" fill="#284268"/>
<path d="M129.644 128.684C129.457 127.973 128.996 127.366 128.362 126.995C127.727 126.623 126.972 126.519 126.261 126.704L121.445 127.957C121.092 128.049 120.761 128.209 120.47 128.429C120.179 128.649 119.934 128.923 119.75 129.238C119.565 129.552 119.444 129.9 119.394 130.261C119.344 130.622 119.365 130.99 119.457 131.342L119.461 131.354C119.617 131.945 119.965 132.469 120.449 132.843C120.933 133.216 121.528 133.42 122.139 133.422C122.377 133.422 122.613 133.391 122.843 133.332L127.659 132.079C128.371 131.893 128.98 131.432 129.352 130.797C129.725 130.162 129.831 129.406 129.646 128.693C129.646 128.69 129.645 128.687 129.644 128.684ZM127.116 129.991L122.3 131.244C122.142 131.285 121.973 131.262 121.831 131.179C121.69 131.095 121.587 130.959 121.546 130.801L121.544 130.794C121.504 130.635 121.529 130.467 121.612 130.327C121.695 130.187 121.831 130.085 121.989 130.044L126.805 128.791C126.883 128.77 126.965 128.765 127.046 128.777C127.127 128.788 127.204 128.815 127.274 128.856C127.345 128.897 127.406 128.952 127.455 129.017C127.504 129.081 127.54 129.155 127.56 129.234L127.562 129.24C127.602 129.399 127.577 129.567 127.494 129.707C127.41 129.848 127.275 129.95 127.116 129.991Z" fill="#284268"/>
<path d="M172.146 131.872L172.139 131.88C171.661 132.438 171.424 133.162 171.479 133.894C171.534 134.627 171.877 135.308 172.433 135.788L176.199 139.039C176.701 139.474 177.344 139.714 178.009 139.713C178.078 139.713 178.147 139.711 178.216 139.706C178.946 139.654 179.625 139.315 180.104 138.763C180.108 138.758 180.112 138.754 180.116 138.75C180.596 138.192 180.835 137.467 180.781 136.733C180.727 135.999 180.385 135.316 179.828 134.835L176.062 131.584C175.504 131.103 174.778 130.864 174.044 130.918C173.31 130.972 172.628 131.315 172.146 131.872ZM178.488 137.335L178.482 137.342C178.429 137.404 178.364 137.454 178.292 137.491C178.219 137.527 178.14 137.549 178.059 137.555C177.977 137.561 177.896 137.551 177.819 137.526C177.741 137.5 177.67 137.459 177.608 137.406L173.842 134.155C173.781 134.102 173.73 134.037 173.693 133.965C173.657 133.892 173.635 133.813 173.629 133.732C173.623 133.65 173.633 133.569 173.659 133.492C173.684 133.414 173.725 133.343 173.778 133.281L173.782 133.277C173.89 133.154 174.042 133.079 174.205 133.067C174.368 133.056 174.529 133.109 174.653 133.216L178.419 136.467C178.542 136.574 178.619 136.725 178.632 136.887C178.645 137.049 178.593 137.21 178.488 137.335Z" fill="#284268"/>
<path d="M161.662 130.618C161.588 129.888 161.227 129.216 160.659 128.751C160.091 128.285 159.361 128.064 158.631 128.136L153.679 128.618C152.949 128.689 152.277 129.046 151.81 129.611C151.342 130.176 151.117 130.902 151.184 131.632C151.184 131.639 151.185 131.645 151.185 131.652C151.253 132.337 151.573 132.973 152.083 133.437C152.593 133.9 153.257 134.157 153.946 134.159C154.036 134.159 154.126 134.154 154.218 134.145L159.169 133.663C159.902 133.59 160.576 133.23 161.043 132.662C161.511 132.094 161.734 131.363 161.663 130.63C161.663 130.626 161.662 130.623 161.662 130.618ZM158.96 131.517L154.009 131.999C153.847 132.015 153.685 131.966 153.559 131.864C153.432 131.761 153.351 131.613 153.332 131.452C153.332 131.448 153.332 131.445 153.332 131.441C153.316 131.278 153.366 131.114 153.471 130.987C153.575 130.86 153.726 130.78 153.889 130.764L158.841 130.281C158.922 130.273 159.004 130.281 159.081 130.305C159.159 130.329 159.232 130.368 159.295 130.419C159.358 130.471 159.41 130.535 159.448 130.607C159.486 130.678 159.51 130.757 159.518 130.838V130.845C159.532 131.008 159.481 131.17 159.377 131.295C159.273 131.421 159.123 131.5 158.961 131.517H158.96Z" fill="#284268"/>
<path d="M139.647 130.402L139.634 130.392C139.027 129.976 138.28 129.817 137.556 129.951C136.832 130.085 136.191 130.5 135.773 131.106L132.953 135.205C132.537 135.809 132.377 136.554 132.509 137.275C132.64 137.997 133.052 138.638 133.654 139.057L133.667 139.066C134.274 139.483 135.021 139.642 135.745 139.508C136.469 139.374 137.11 138.959 137.528 138.353L140.349 134.254C140.765 133.65 140.924 132.905 140.793 132.184C140.662 131.462 140.25 130.821 139.648 130.402L139.647 130.402ZM138.572 133.031L135.751 137.13C135.658 137.264 135.517 137.357 135.356 137.387C135.196 137.418 135.031 137.384 134.895 137.294C134.893 137.292 134.891 137.29 134.888 137.289C134.821 137.243 134.764 137.184 134.719 137.115C134.675 137.047 134.645 136.971 134.63 136.891C134.615 136.81 134.616 136.728 134.633 136.649C134.65 136.569 134.683 136.493 134.729 136.426L137.549 132.328C137.642 132.193 137.783 132.101 137.944 132.07C138.104 132.04 138.269 132.073 138.405 132.164L138.412 132.169C138.479 132.215 138.537 132.274 138.581 132.342C138.625 132.411 138.656 132.487 138.671 132.567C138.685 132.647 138.684 132.73 138.667 132.809C138.65 132.889 138.618 132.964 138.571 133.032L138.572 133.031Z" fill="#284268"/>
<path d="M136.224 121.365C136.224 120.802 136.058 120.252 135.745 119.785C135.432 119.317 134.988 118.952 134.468 118.737C133.948 118.521 133.376 118.465 132.824 118.575C132.272 118.684 131.765 118.955 131.368 119.353C130.97 119.751 130.699 120.258 130.589 120.81C130.479 121.362 130.535 121.934 130.751 122.454C130.966 122.974 131.33 123.418 131.798 123.731C132.266 124.043 132.816 124.21 133.379 124.21C134.133 124.21 134.857 123.91 135.39 123.376C135.924 122.843 136.224 122.12 136.224 121.365ZM132.69 121.365C132.69 121.229 132.731 121.096 132.806 120.982C132.882 120.869 132.99 120.781 133.116 120.729C133.242 120.677 133.38 120.663 133.514 120.69C133.647 120.716 133.77 120.782 133.866 120.878C133.963 120.974 134.028 121.097 134.055 121.231C134.082 121.364 134.068 121.503 134.016 121.629C133.964 121.755 133.875 121.862 133.762 121.938C133.649 122.014 133.516 122.054 133.379 122.054C133.197 122.054 133.022 121.981 132.892 121.852C132.763 121.723 132.691 121.548 132.69 121.365Z" fill="#284268"/>
<path d="M171.52 122.093C171.52 121.412 171.318 120.746 170.94 120.18C170.561 119.614 170.023 119.172 169.394 118.912C168.765 118.651 168.072 118.583 167.404 118.716C166.736 118.849 166.123 119.177 165.641 119.659C165.16 120.14 164.832 120.754 164.699 121.422C164.566 122.09 164.634 122.782 164.895 123.412C165.156 124.041 165.597 124.579 166.163 124.957C166.73 125.335 167.395 125.537 168.077 125.537C168.99 125.536 169.865 125.173 170.511 124.527C171.156 123.882 171.52 123.006 171.52 122.093ZM166.789 122.093C166.789 121.838 166.865 121.589 167.006 121.378C167.148 121.166 167.349 121.001 167.584 120.904C167.82 120.806 168.079 120.781 168.328 120.831C168.578 120.88 168.808 121.003 168.988 121.183C169.168 121.363 169.29 121.593 169.34 121.843C169.389 122.092 169.364 122.351 169.266 122.587C169.169 122.822 169.004 123.023 168.792 123.164C168.58 123.306 168.331 123.381 168.077 123.381C167.735 123.381 167.408 123.245 167.166 123.003C166.925 122.762 166.789 122.434 166.789 122.093Z" fill="#284268"/>
<path d="M169.532 139.759C168.875 139.759 168.232 139.953 167.686 140.319C167.14 140.684 166.714 141.203 166.462 141.81C166.211 142.417 166.145 143.085 166.273 143.729C166.401 144.374 166.718 144.966 167.182 145.431C167.647 145.895 168.239 146.212 168.884 146.34C169.528 146.468 170.196 146.402 170.803 146.151C171.41 145.9 171.929 145.474 172.294 144.927C172.66 144.381 172.854 143.738 172.854 143.081C172.853 142.2 172.503 141.356 171.88 140.733C171.257 140.11 170.413 139.76 169.532 139.759ZM169.532 144.248C169.301 144.248 169.076 144.179 168.884 144.051C168.692 143.923 168.543 143.741 168.454 143.528C168.366 143.315 168.343 143.08 168.388 142.854C168.433 142.628 168.544 142.42 168.707 142.257C168.87 142.093 169.078 141.982 169.304 141.937C169.53 141.892 169.765 141.915 169.978 142.004C170.191 142.092 170.373 142.241 170.502 142.433C170.63 142.625 170.698 142.851 170.698 143.081C170.698 143.39 170.575 143.687 170.356 143.905C170.138 144.124 169.841 144.247 169.532 144.248Z" fill="#284268"/>
<path d="M114.939 140.973C114.354 140.973 113.782 141.146 113.295 141.471C112.809 141.796 112.429 142.258 112.205 142.799C111.982 143.34 111.923 143.934 112.037 144.508C112.151 145.082 112.433 145.609 112.847 146.023C113.261 146.437 113.788 146.719 114.362 146.833C114.936 146.947 115.53 146.888 116.071 146.665C116.612 146.441 117.074 146.061 117.399 145.575C117.724 145.088 117.897 144.516 117.897 143.931C117.896 143.147 117.584 142.395 117.03 141.84C116.475 141.286 115.723 140.974 114.939 140.973ZM114.939 144.734C114.78 144.734 114.625 144.686 114.493 144.598C114.361 144.51 114.258 144.385 114.198 144.238C114.137 144.092 114.121 143.93 114.152 143.775C114.183 143.619 114.259 143.476 114.372 143.364C114.484 143.252 114.627 143.175 114.782 143.144C114.938 143.113 115.099 143.129 115.246 143.19C115.392 143.251 115.518 143.354 115.606 143.485C115.694 143.617 115.741 143.773 115.741 143.931C115.741 144.144 115.656 144.348 115.506 144.498C115.355 144.648 115.151 144.733 114.939 144.733V144.734Z" fill="#284268"/>
<path d="M150 111.201C141.535 111.201 133.26 113.711 126.222 118.414C119.184 123.117 113.698 129.801 110.459 137.621C107.219 145.442 106.372 154.047 108.023 162.35C109.675 170.652 113.751 178.278 119.736 184.264C123.708 188.251 128.427 191.416 133.623 193.578C138.819 195.74 144.39 196.855 150.018 196.861C155.646 196.867 161.22 195.763 166.42 193.612C171.621 191.461 176.346 188.305 180.325 184.325C184.305 180.346 187.461 175.621 189.612 170.42C191.763 165.22 192.867 159.646 192.861 154.018C192.855 148.39 191.74 142.819 189.578 137.623C187.416 132.426 184.251 127.708 180.264 123.736C176.299 119.75 171.582 116.589 166.388 114.437C161.193 112.285 155.623 111.185 150 111.201ZM178.739 182.739C173.055 188.423 165.813 192.294 157.929 193.862C150.045 195.43 141.873 194.625 134.447 191.549C127.02 188.473 120.672 183.264 116.207 176.58C111.741 169.896 109.357 162.038 109.357 154C109.357 153.202 109.383 152.409 109.428 151.619C109.766 151.474 110.134 151.415 110.501 151.447C110.867 151.48 111.22 151.603 111.527 151.805C111.834 152.007 112.086 152.283 112.26 152.607C112.435 152.93 112.526 153.292 112.526 153.66V159.095C112.526 160.25 112.985 161.358 113.801 162.174C114.618 162.991 115.725 163.449 116.88 163.449C118.035 163.449 119.142 162.991 119.958 162.174C120.775 161.358 121.234 160.25 121.234 159.095V144.719C121.234 144.04 121.504 143.388 121.984 142.908C122.464 142.428 123.116 142.158 123.795 142.158C124.474 142.158 125.126 142.428 125.606 142.908C126.087 143.388 126.357 144.04 126.357 144.719V151.452C126.358 152.215 126.543 152.966 126.898 153.642C127.252 154.317 127.765 154.897 128.393 155.331C129.02 155.765 129.743 156.041 130.5 156.134C131.257 156.228 132.026 156.137 132.74 155.869C133.177 159.904 135.014 163.658 137.931 166.48C140.848 169.301 144.662 171.011 148.709 171.313C152.756 171.615 156.781 170.49 160.085 168.132C163.389 165.775 165.762 162.335 166.793 158.409C167.179 158.329 167.578 158.336 167.96 158.429C168.343 158.522 168.7 158.7 169.006 158.949C169.312 159.197 169.558 159.511 169.727 159.867C169.896 160.223 169.984 160.612 169.983 161.006V173.836C169.983 175.087 170.48 176.287 171.365 177.172C172.25 178.057 173.45 178.554 174.701 178.554C175.952 178.554 177.152 178.057 178.037 177.172C178.922 176.287 179.419 175.087 179.419 173.836V149.451C179.419 148.819 179.67 148.214 180.116 147.768C180.562 147.322 181.167 147.071 181.798 147.071C182.429 147.071 183.035 147.322 183.481 147.768C183.927 148.214 184.178 148.819 184.178 149.451V157.615C184.176 158.314 184.328 159.004 184.624 159.636C184.921 160.268 185.353 160.827 185.891 161.272C186.429 161.717 187.059 162.037 187.735 162.21C188.412 162.383 189.118 162.404 189.803 162.271C188.205 170.032 184.356 177.151 178.739 182.739ZM134.795 154C134.795 150.993 135.687 148.053 137.358 145.553C139.029 143.052 141.403 141.104 144.182 139.953C146.96 138.802 150.017 138.501 152.966 139.088C155.916 139.674 158.625 141.123 160.751 143.249C162.878 145.375 164.326 148.085 164.912 151.034C165.499 153.983 165.198 157.041 164.047 159.819C162.896 162.597 160.948 164.972 158.447 166.642C155.947 168.313 153.007 169.205 150 169.205C145.969 169.2 142.104 167.597 139.254 164.746C136.403 161.896 134.8 158.031 134.795 154ZM190.227 159.846C189.831 160.08 189.379 160.203 188.919 160.201C188.234 160.2 187.577 159.928 187.092 159.443C186.607 158.958 186.335 158.301 186.334 157.615V149.451C186.334 148.248 185.856 147.094 185.005 146.243C184.155 145.393 183.001 144.915 181.798 144.915C180.595 144.915 179.442 145.393 178.591 146.243C177.74 147.094 177.263 148.248 177.263 149.451V173.836C177.263 174.515 176.993 175.167 176.512 175.647C176.032 176.127 175.38 176.397 174.701 176.397C174.022 176.397 173.37 176.127 172.89 175.647C172.41 175.167 172.14 174.515 172.14 173.836V161.006C172.138 159.731 171.631 158.509 170.73 157.607C169.828 156.706 168.606 156.199 167.331 156.197C167.295 156.197 167.259 156.199 167.223 156.2C167.521 153.869 167.342 151.501 166.697 149.241C166.053 146.981 164.956 144.875 163.474 143.051C161.991 141.227 160.154 139.724 158.073 138.631C155.992 137.538 153.711 136.879 151.368 136.694C149.025 136.509 146.669 136.802 144.443 137.555C142.216 138.307 140.166 139.504 138.415 141.073C136.665 142.641 135.251 144.549 134.26 146.68C133.269 148.811 132.721 151.121 132.649 153.47C132.2 153.823 131.646 154.015 131.075 154.014C130.396 154.013 129.745 153.743 129.265 153.263C128.785 152.782 128.514 152.131 128.514 151.452V144.719C128.514 143.468 128.017 142.268 127.132 141.383C126.247 140.498 125.047 140.001 123.796 140.001C122.545 140.001 121.345 140.498 120.46 141.383C119.575 142.268 119.078 143.468 119.078 144.719V159.095C119.078 159.678 118.847 160.237 118.435 160.649C118.023 161.061 117.464 161.293 116.881 161.293C116.298 161.293 115.739 161.061 115.327 160.649C114.915 160.237 114.683 159.678 114.683 159.095V153.66C114.682 152.499 114.22 151.387 113.4 150.566C112.579 149.745 111.466 149.284 110.305 149.282C110.077 149.282 109.849 149.3 109.624 149.335C110.501 141.745 113.5 134.556 118.277 128.593C123.054 122.629 129.415 118.133 136.63 115.62C143.846 113.107 151.624 112.678 159.071 114.383C166.519 116.088 173.336 119.859 178.739 125.261C182.525 129.026 185.526 133.505 187.57 138.438C189.613 143.371 190.658 148.66 190.643 154C190.643 155.956 190.504 157.91 190.227 159.846Z" fill="#284268"/>
<path d="M157.064 188.379C154.739 188.854 152.373 189.093 150 189.093C149.714 189.093 149.44 189.207 149.238 189.409C149.035 189.611 148.922 189.885 148.922 190.171C148.922 190.457 149.035 190.731 149.238 190.933C149.44 191.136 149.714 191.249 150 191.249C152.518 191.25 155.03 190.996 157.497 190.491C157.636 190.463 157.769 190.408 157.886 190.329C158.004 190.249 158.105 190.148 158.184 190.029C158.262 189.911 158.316 189.778 158.343 189.639C158.37 189.5 158.369 189.356 158.341 189.217C158.312 189.078 158.257 188.946 158.177 188.829C158.097 188.711 157.995 188.611 157.877 188.533C157.758 188.455 157.625 188.401 157.486 188.375C157.346 188.348 157.203 188.35 157.064 188.379V188.379Z" fill="#284268"/>
<path d="M145.104 188.752C137.815 187.726 131.036 184.427 125.731 179.325C125.523 179.135 125.249 179.034 124.968 179.043C124.687 179.052 124.42 179.171 124.225 179.375C124.03 179.578 123.923 179.849 123.926 180.131C123.928 180.412 124.041 180.682 124.24 180.881C129.872 186.297 137.068 189.798 144.805 190.888C144.855 190.895 144.905 190.898 144.956 190.898C145.229 190.898 145.492 190.795 145.692 190.609C145.891 190.422 146.013 190.167 146.032 189.895C146.05 189.622 145.965 189.353 145.793 189.141C145.621 188.929 145.375 188.79 145.104 188.752H145.104Z" fill="#284268"/>
<path d="M121.201 174.033C121.12 173.916 121.017 173.817 120.898 173.741C120.779 173.665 120.645 173.613 120.506 173.588C120.367 173.563 120.224 173.566 120.085 173.597C119.947 173.627 119.816 173.685 119.7 173.766C119.584 173.847 119.485 173.95 119.409 174.069C119.333 174.188 119.281 174.322 119.256 174.461C119.231 174.6 119.234 174.743 119.264 174.882C119.295 175.02 119.352 175.151 119.433 175.267C119.837 175.845 120.261 176.418 120.695 176.97C120.782 177.083 120.891 177.177 121.014 177.248C121.138 177.318 121.274 177.363 121.415 177.381C121.557 177.399 121.7 177.388 121.837 177.35C121.974 177.312 122.102 177.247 122.214 177.159C122.326 177.071 122.42 176.962 122.489 176.838C122.559 176.713 122.603 176.577 122.619 176.435C122.636 176.294 122.624 176.151 122.585 176.014C122.545 175.877 122.479 175.749 122.391 175.638C121.982 175.118 121.582 174.578 121.201 174.033Z" fill="#284268"/>
</svg>
