<svg width="2465" height="2520" viewBox="0 0 2465 2520" fill="none" xmlns="http://www.w3.org/2000/svg">
<ellipse cx="1210" cy="2423.5" rx="506" ry="47.5" fill="#211717" fill-opacity="0.43"/>
<path d="M2123.09 1318C2142.26 1318.04 2160.86 1311.18 2175.73 1298.57C2104.72 1774.27 1709.69 2138.36 1233 2138.36C706.055 2138.36 278.844 1693.43 278.844 1144.63C278.844 1120.41 279.68 1096.4 281.351 1072.6C292.63 1064.2 305.912 1059.21 319.74 1058.16C333.567 1057.11 347.404 1060.05 359.732 1066.66C372.059 1073.27 382.399 1083.29 389.617 1095.61C396.835 1107.94 400.651 1122.1 400.646 1136.54V1266C400.646 1286.7 408.539 1306.54 422.588 1321.17C436.637 1335.81 455.691 1344.03 475.56 1344.03C495.428 1344.03 514.483 1335.81 528.532 1321.17C542.581 1306.54 550.474 1286.7 550.474 1266V923.578C550.474 912.194 552.627 900.922 556.81 890.404C560.993 879.887 567.124 870.33 574.853 862.281C582.582 854.231 591.758 847.846 601.856 843.489C611.955 839.133 622.778 836.891 633.709 836.891C644.64 836.891 655.463 839.133 665.562 843.489C675.66 847.846 684.836 854.231 692.565 862.281C700.295 870.33 706.426 879.887 710.609 890.404C714.792 900.922 716.944 912.194 716.944 923.578V1083.94C716.938 1101.23 721.894 1118.12 731.175 1132.45C740.455 1146.78 753.637 1157.89 769.028 1164.36C784.418 1170.83 801.314 1172.36 817.545 1168.75C833.775 1165.14 848.6 1156.56 860.115 1144.12H860.608V1144.63C860.619 1240.14 894.463 1332.28 955.658 1403.41C1016.85 1474.55 1101.1 1519.66 1192.25 1530.12C1283.4 1540.58 1375.05 1515.65 1449.65 1460.1C1524.25 1404.55 1576.54 1322.28 1596.52 1229.07L1597.17 1229.2C1610.13 1223.71 1624.18 1221.63 1638.09 1223.12C1652 1224.62 1665.34 1229.65 1676.95 1237.78C1688.55 1245.91 1698.06 1256.88 1704.64 1269.74C1711.21 1282.59 1714.65 1296.93 1714.66 1311.5V1617.08C1714.66 1640.07 1723.43 1662.12 1739.04 1678.37C1754.65 1694.63 1775.82 1703.76 1797.9 1703.76C1819.97 1703.76 1841.14 1694.63 1856.75 1678.37C1872.36 1662.12 1881.13 1640.07 1881.13 1617.08V1036.27C1881.13 1014.42 1889.46 993.471 1904.29 978.025C1919.13 962.578 1939.24 953.9 1960.22 953.9C1981.19 953.9 2001.31 962.578 2016.14 978.025C2030.97 993.471 2039.3 1014.42 2039.3 1036.27V1230.74C2039.3 1242.2 2041.46 1253.55 2045.67 1264.14C2049.88 1274.73 2056.05 1284.35 2063.83 1292.45C2071.61 1300.56 2080.85 1306.99 2091.02 1311.37C2101.19 1315.75 2112.09 1318.01 2123.09 1318V1318Z" fill="#F6C583"/>
<path d="M410.599 1252.22L400.646 1136.54C400.663 1122.1 396.854 1107.93 389.639 1095.59C382.423 1083.26 372.081 1073.23 359.75 1066.62C347.418 1060.01 333.575 1057.08 319.743 1058.13C305.911 1059.18 292.627 1064.19 281.351 1072.6C279.666 1096.4 278.83 1120.41 278.844 1144.63C278.844 1693.43 706.055 2138.36 1233 2138.36C1253.8 2138.36 1274.44 2137.66 1294.92 2136.26C906.182 2110.55 580.703 1842.42 456.328 1475.4C432.209 1403.29 416.847 1328.31 410.599 1252.22V1252.22Z" fill="#FFE3C2"/>
<path d="M2187.16 1144.63C2187.17 1196.17 2183.35 1247.64 2175.73 1298.57C2163.44 1308.94 2148.57 1315.46 2132.86 1317.39C2117.15 1319.33 2101.24 1316.58 2086.97 1309.49C2072.69 1302.39 2060.64 1291.23 2052.2 1277.29C2043.77 1263.35 2039.29 1247.21 2039.3 1230.74V1036.26C2039.3 1014.42 2030.97 993.469 2016.14 978.023C2001.31 962.577 1981.19 953.899 1960.22 953.899C1939.24 953.899 1919.13 962.577 1904.29 978.023C1889.46 993.469 1881.13 1014.42 1881.13 1036.26V1617.08C1881.13 1640.07 1872.36 1662.12 1856.75 1678.37C1841.14 1694.63 1819.97 1703.76 1797.9 1703.76C1775.82 1703.76 1754.65 1694.63 1739.04 1678.37C1723.43 1662.12 1714.66 1640.07 1714.66 1617.08V1311.5C1714.65 1296.93 1711.21 1282.59 1704.64 1269.74C1698.06 1256.88 1688.55 1245.91 1676.95 1237.78C1665.35 1229.65 1652 1224.62 1638.09 1223.12C1624.18 1221.62 1610.13 1223.71 1597.17 1229.2L1596.52 1229.07C1607.9 1175.88 1608.4 1120.79 1597.97 1067.39C1587.55 1013.99 1566.44 963.475 1536.01 919.14C1505.59 874.805 1466.54 837.645 1421.4 810.08C1376.27 782.516 1326.06 765.167 1274.05 759.163C1222.05 753.16 1169.41 758.637 1119.58 775.237C1069.74 791.838 1023.82 819.189 984.812 855.508C945.804 891.828 914.582 936.301 893.182 986.028C871.781 1035.76 860.682 1089.62 860.608 1144.11H860.115C848.6 1156.56 833.775 1165.14 817.545 1168.74C801.315 1172.35 784.42 1170.82 769.03 1164.35C753.641 1157.88 740.459 1146.77 731.178 1132.44C721.897 1118.11 716.941 1101.22 716.945 1083.94V923.577C716.945 900.586 708.175 878.536 692.566 862.279C676.956 846.022 655.785 836.889 633.709 836.889C611.634 836.889 590.463 846.022 574.853 862.279C559.243 878.536 550.474 900.586 550.474 923.577V1266C550.474 1286.7 542.581 1306.54 528.532 1321.17C514.483 1335.8 495.428 1344.02 475.56 1344.02C455.692 1344.02 436.637 1335.8 422.588 1321.17C408.539 1306.54 400.646 1286.7 400.646 1266V1136.54C400.663 1122.1 396.854 1107.93 389.639 1095.59C382.423 1083.26 372.081 1073.23 359.75 1066.62C347.418 1060.01 333.575 1057.07 319.743 1058.13C305.911 1059.18 292.627 1064.19 281.351 1072.6C316.733 557.439 729.314 150.901 1233 150.901C1759.95 150.901 2187.16 595.829 2187.16 1144.63V1144.63Z" fill="#F89BB1"/>
<path d="M1201.19 309.595C1202.67 313.924 1203.42 318.484 1203.41 323.077C1203.4 331.444 1200.91 339.603 1196.26 346.432C1191.62 353.26 1185.06 358.423 1177.48 361.21L1070.19 400.627C1060.47 404.197 1049.79 403.6 1040.5 398.969C1031.2 394.338 1024.06 386.052 1020.63 375.932C1017.2 365.813 1017.77 354.69 1022.22 345.011C1026.67 335.331 1034.62 327.888 1044.34 324.318L1151.64 284.901C1161.35 281.335 1172.03 281.934 1181.32 286.564C1190.62 291.195 1197.76 299.479 1201.19 309.595V309.595Z" fill="#7AE5F3"/>
<path d="M981.958 603.536C986.161 606.544 989.753 610.386 992.53 614.84C995.307 619.295 997.213 624.276 998.141 629.499C999.068 634.722 998.998 640.084 997.935 645.278C996.872 650.473 994.836 655.398 991.944 659.773L927.468 757.395C924.576 761.769 920.886 765.507 916.607 768.395C912.328 771.284 907.544 773.265 902.53 774.227C897.515 775.189 892.368 775.112 887.382 774.001C882.395 772.89 877.668 770.767 873.47 767.752H873.429C869.227 764.743 865.636 760.902 862.86 756.447C860.084 751.992 858.177 747.011 857.25 741.788C856.323 736.566 856.392 731.205 857.455 726.01C858.518 720.816 860.553 715.891 863.444 711.516L927.961 613.893C930.85 609.517 934.539 605.776 938.816 602.885C943.094 599.994 947.876 598.009 952.891 597.043C957.905 596.077 963.053 596.15 968.041 597.256C973.028 598.363 977.757 600.482 981.958 603.493V603.536Z" fill="#7AE5F3"/>
<path d="M1899.05 707.578C1906.84 714.588 1911.65 724.536 1912.4 735.234C1913.16 745.932 1909.8 756.505 1903.07 764.627L1903.03 764.67C1899.7 768.688 1895.64 771.982 1891.09 774.365C1886.53 776.748 1881.57 778.173 1876.49 778.559C1871.41 778.944 1866.3 778.283 1861.46 776.612C1856.63 774.941 1852.15 772.294 1848.3 768.822L1762.16 691.4C1758.3 687.933 1755.14 683.708 1752.85 678.967C1750.55 674.225 1749.18 669.06 1748.81 663.766C1748.43 658.472 1749.07 653.153 1750.67 648.113C1752.27 643.073 1754.81 638.411 1758.14 634.393V634.35C1764.87 626.231 1774.42 621.228 1784.69 620.441C1794.96 619.654 1805.12 623.149 1812.91 630.156L1899.05 707.578Z" fill="#7AE5F3"/>
<path d="M1679.69 831.091C1689.85 831.083 1699.79 834.214 1708.24 840.089C1716.7 845.965 1723.29 854.319 1727.18 864.096C1731.07 873.874 1732.09 884.634 1730.11 895.015C1728.13 905.397 1723.24 914.933 1716.05 922.417C1708.87 929.902 1699.71 934.998 1689.74 937.061C1679.77 939.123 1669.44 938.06 1660.05 934.006C1650.67 929.952 1642.64 923.088 1637 914.284C1631.36 905.48 1628.36 895.131 1628.36 884.546C1628.37 870.37 1633.78 856.777 1643.4 846.753C1653.03 836.729 1666.08 831.096 1679.69 831.091V831.091Z" fill="#55D8D8"/>
<path d="M1646.4 328.342C1657.1 328.347 1667.56 331.655 1676.46 337.85C1685.35 344.044 1692.28 352.847 1696.37 363.144C1700.46 373.441 1701.53 384.77 1699.44 395.699C1697.35 406.628 1692.19 416.665 1684.62 424.542C1677.05 432.419 1667.41 437.781 1656.92 439.951C1646.42 442.121 1635.54 441.001 1625.66 436.732C1615.78 432.464 1607.33 425.239 1601.39 415.971C1595.45 406.703 1592.28 395.808 1592.28 384.665C1592.29 369.722 1597.99 355.393 1608.14 344.831C1618.29 334.269 1632.06 328.338 1646.4 328.342V328.342Z" fill="#55D8D8"/>
<path d="M1475.21 590.481C1475.33 591.808 1475.37 593.092 1475.37 594.419C1475.36 604.463 1471.77 614.146 1465.29 621.587C1458.82 629.029 1449.91 633.699 1440.32 634.692L1327.06 646.162C1321.99 646.677 1316.86 646.146 1311.99 644.599C1307.11 643.052 1302.57 640.519 1298.63 637.144C1294.69 633.77 1291.43 629.621 1289.03 624.933C1286.63 620.246 1285.15 615.112 1284.65 609.826C1284.53 608.499 1284.45 607.13 1284.45 605.803C1284.46 595.766 1288.07 586.095 1294.55 578.674C1301.04 571.252 1309.95 566.612 1319.54 565.658L1432.8 554.146C1437.87 553.63 1443 554.161 1447.87 555.708C1452.75 557.255 1457.29 559.788 1461.23 563.163C1465.17 566.537 1468.43 570.686 1470.83 575.374C1473.23 580.061 1474.71 585.195 1475.21 590.481V590.481Z" fill="#7AE5F3"/>
<path d="M852.883 325.261C860.872 325.261 868.682 327.729 875.325 332.351C881.968 336.974 887.146 343.545 890.203 351.232C893.261 358.919 894.06 367.378 892.502 375.539C890.943 383.7 887.096 391.196 881.447 397.08C875.797 402.964 868.599 406.97 860.764 408.594C852.928 410.217 844.806 409.384 837.424 406.2C830.043 403.015 823.734 397.623 819.296 390.705C814.857 383.786 812.488 375.652 812.488 367.332C812.495 356.176 816.754 345.48 824.328 337.592C831.902 329.704 842.172 325.269 852.883 325.261V325.261Z" fill="#55D8D8"/>
<path d="M1233 150.901C729.314 150.901 316.733 557.439 281.351 1072.6C292.63 1064.2 305.912 1059.21 319.74 1058.16C333.567 1057.11 347.404 1060.05 359.732 1066.66C372.059 1073.27 382.399 1083.28 389.617 1095.61C396.835 1107.94 400.651 1122.1 400.646 1136.54L402.125 1144.63C402.125 1120.4 402.961 1096.4 404.632 1072.6C438.559 578.654 819.268 184.639 1294.55 152.998C1274.19 151.667 1253.68 150.901 1233 150.901V150.901Z" fill="#FFC5D6"/>
<path d="M743.655 548.325C744.944 553.462 745.248 558.814 744.55 564.073C743.851 569.333 742.163 574.397 739.583 578.976C737.003 583.556 733.581 587.56 729.513 590.761C725.445 593.961 720.811 596.295 715.876 597.628L605.745 627.501C595.778 630.195 585.192 628.656 576.314 623.223C567.437 617.789 560.995 608.906 558.405 598.527L558.363 598.484C555.777 588.104 557.255 577.079 562.472 567.833C567.689 558.588 576.218 551.878 586.184 549.181L696.315 519.351C701.248 518.008 706.386 517.691 711.436 518.419C716.486 519.147 721.349 520.905 725.746 523.592C730.143 526.279 733.988 529.843 737.061 534.08C740.134 538.316 742.375 543.143 743.655 548.282V548.325Z" fill="#7AE5F3"/>
<path d="M431.179 860.023C439.684 860.027 447.997 862.658 455.067 867.583C462.137 872.507 467.646 879.505 470.897 887.691C474.148 895.876 474.996 904.882 473.332 913.569C471.669 922.257 467.57 930.235 461.552 936.496C455.535 942.757 447.871 947.018 439.528 948.742C431.185 950.466 422.539 949.575 414.682 946.181C406.826 942.787 400.112 937.044 395.39 929.676C390.668 922.308 388.15 913.648 388.154 904.789C388.151 898.906 389.263 893.08 391.425 887.645C393.587 882.21 396.757 877.272 400.753 873.114C404.749 868.956 409.493 865.66 414.714 863.413C419.935 861.167 425.53 860.015 431.179 860.023V860.023Z" fill="#55D8D8"/>
<path d="M1224.44 301.039C1218.82 284.516 1207.13 270.988 1191.95 263.424C1176.77 255.859 1159.32 254.876 1143.45 260.689L1036.16 300.115C1020.33 305.935 1007.35 318.052 1000.07 333.813C992.794 349.574 991.807 367.696 997.328 384.213C997.357 384.307 997.39 384.401 997.422 384.491C1000.19 392.68 1004.49 400.22 1010.06 406.681C1015.63 413.141 1022.37 418.395 1029.89 422.143C1037.41 425.89 1045.57 428.058 1053.89 428.521C1062.22 428.985 1070.55 427.736 1078.41 424.845L1185.71 385.42C1201.54 379.585 1214.5 367.467 1221.78 351.711C1229.05 335.956 1230.05 317.842 1224.54 301.326C1224.5 301.227 1224.47 301.133 1224.44 301.039V301.039ZM1169.29 336.989L1061.99 376.402C1058.47 377.687 1054.61 377.477 1051.23 375.816C1047.86 374.156 1045.25 371.179 1043.97 367.53L1043.92 367.38C1042.67 363.691 1042.87 359.636 1044.49 356.105C1046.11 352.575 1049.01 349.857 1052.55 348.549L1159.85 309.119C1163.38 307.832 1167.25 308.042 1170.62 309.704C1174 311.366 1176.61 314.347 1177.89 318L1177.95 318.154C1179.19 321.846 1178.98 325.901 1177.36 329.431C1175.74 332.962 1172.85 335.68 1169.31 336.989H1169.29Z" fill="#4B4B4B"/>
<path d="M767.469 541.656C763.194 524.727 752.648 510.255 738.142 501.413C723.636 492.572 706.355 490.083 690.09 494.492L579.959 524.331C571.889 526.517 564.312 530.336 557.661 535.572C551.009 540.807 545.412 547.356 541.191 554.844C536.97 562.333 534.206 570.614 533.058 579.215C531.91 587.816 532.401 596.568 534.501 604.971L534.575 605.245C538.156 619.334 546.102 631.797 557.18 640.702C568.258 649.606 581.848 654.454 595.841 654.493C601.271 654.494 606.679 653.775 611.934 652.353L722.065 622.51C738.348 618.075 752.277 607.095 760.798 591.979C769.318 576.862 771.734 558.843 767.515 541.874C767.506 541.793 767.49 541.724 767.469 541.656V541.656ZM709.655 572.791L599.523 602.63C595.889 603.61 592.03 603.048 588.794 601.066C585.558 599.085 583.209 595.847 582.264 592.063L582.223 591.901C581.315 588.126 581.875 584.131 583.781 580.785C585.688 577.438 588.786 575.012 592.402 574.032L702.533 544.194C704.334 543.704 706.21 543.59 708.053 543.856C709.897 544.122 711.672 544.764 713.277 545.745C714.882 546.726 716.286 548.027 717.408 549.573C718.53 551.119 719.349 552.88 719.817 554.756L719.85 554.889C720.763 558.67 720.203 562.674 718.293 566.027C716.384 569.381 713.278 571.812 709.655 572.791V572.791Z" fill="#4B4B4B"/>
<path d="M1739.48 617.571L1739.31 617.768C1728.38 631.052 1722.95 648.307 1724.21 665.753C1725.47 683.199 1733.32 699.414 1746.03 710.845L1832.17 788.275C1843.65 798.655 1858.35 804.361 1873.55 804.342C1875.13 804.342 1876.71 804.282 1878.3 804.162C1894.98 802.933 1910.51 794.856 1921.47 781.706C1921.56 781.603 1921.64 781.501 1921.73 781.398C1932.71 768.114 1938.19 750.837 1936.95 733.356C1935.72 715.875 1927.88 699.616 1915.16 688.145L1829.02 610.715C1816.26 599.277 1799.67 593.575 1782.89 594.86C1766.1 596.145 1750.49 604.313 1739.48 617.571V617.571ZM1884.52 747.707L1884.38 747.87C1883.16 749.337 1881.68 750.541 1880.02 751.412C1878.35 752.283 1876.54 752.804 1874.69 752.946C1872.83 753.088 1870.97 752.848 1869.2 752.239C1867.43 751.63 1865.8 750.665 1864.39 749.398L1778.26 671.968C1776.85 670.701 1775.69 669.158 1774.86 667.427C1774.02 665.695 1773.52 663.808 1773.38 661.874C1773.25 659.941 1773.48 657.998 1774.06 656.157C1774.65 654.316 1775.57 652.614 1776.79 651.146L1776.88 651.035C1779.35 648.11 1782.83 646.319 1786.55 646.049C1790.28 645.78 1793.96 647.055 1796.79 649.597L1882.93 727.027C1885.75 729.567 1887.49 733.159 1887.79 737.029C1888.09 740.898 1886.91 744.734 1884.52 747.707V747.707Z" fill="#4B4B4B"/>
<path d="M1499.7 587.718C1498 570.316 1489.76 554.323 1476.77 543.24C1463.77 532.158 1447.09 526.889 1430.38 528.588L1317.14 540.084C1300.45 541.778 1285.08 550.277 1274.39 563.726C1263.7 577.176 1258.55 594.484 1260.07 611.873C1260.07 612.027 1260.09 612.181 1260.11 612.335C1261.66 628.667 1268.97 643.818 1280.64 654.85C1292.31 665.882 1307.49 672.009 1323.25 672.043C1325.3 672.043 1327.37 671.937 1329.46 671.726L1442.7 660.231C1459.45 658.509 1474.86 649.939 1485.55 636.4C1496.24 622.861 1501.34 605.458 1499.73 588.009C1499.73 587.915 1499.7 587.825 1499.7 587.718V587.718ZM1437.91 609.117L1324.67 620.613C1320.97 620.981 1317.27 619.82 1314.38 617.381C1311.49 614.942 1309.63 611.418 1309.21 607.568C1309.21 607.486 1309.21 607.405 1309.21 607.324C1308.85 603.426 1309.98 599.538 1312.37 596.514C1314.76 593.49 1318.21 591.578 1321.95 591.198L1435.18 579.693C1437.04 579.504 1438.91 579.698 1440.69 580.262C1442.47 580.827 1444.13 581.752 1445.56 582.984C1447 584.216 1448.19 585.732 1449.07 587.444C1449.94 589.156 1450.49 591.03 1450.67 592.961V593.132C1450.99 597.006 1449.83 600.856 1447.45 603.848C1445.06 606.84 1441.64 608.733 1437.93 609.117H1437.91Z" fill="#4B4B4B"/>
<path d="M996.231 582.561L995.931 582.342C982.053 572.423 964.964 568.641 948.413 571.826C931.861 575.012 917.199 584.904 907.641 599.333L843.148 696.96C833.635 711.354 829.98 729.086 832.983 746.279C835.987 763.472 845.403 778.727 859.175 788.71L859.479 788.933C873.355 798.857 890.444 802.641 906.996 799.455C923.548 796.27 938.211 786.375 947.765 771.942L1012.28 674.32C1021.79 659.925 1025.45 642.194 1022.44 625.003C1019.44 607.812 1010.03 592.557 996.256 582.573L996.231 582.561ZM971.644 645.196L907.127 742.822C905.01 746.018 901.77 748.217 898.109 748.945C894.447 749.673 890.657 748.871 887.558 746.713C887.509 746.678 887.456 746.636 887.398 746.601C885.864 745.502 884.552 744.098 883.539 742.47C882.525 740.842 881.83 739.022 881.492 737.115C881.155 735.207 881.181 733.248 881.57 731.351C881.96 729.454 882.704 727.656 883.761 726.058L948.258 628.432C950.374 625.236 953.612 623.035 957.274 622.306C960.935 621.578 964.724 622.379 967.823 624.537L967.991 624.657C969.526 625.756 970.838 627.16 971.852 628.787C972.865 630.415 973.561 632.235 973.899 634.143C974.237 636.05 974.211 638.009 973.822 639.906C973.433 641.803 972.689 643.602 971.632 645.2L971.644 645.196Z" fill="#4B4B4B"/>
<path d="M917.959 367.33C917.959 353.928 914.143 340.826 906.993 329.682C899.844 318.538 889.682 309.853 877.793 304.723C865.904 299.594 852.822 298.251 840.2 300.865C827.578 303.48 815.984 309.933 806.884 319.409C797.784 328.886 791.586 340.96 789.075 354.105C786.563 367.249 787.85 380.875 792.774 393.258C797.697 405.64 806.036 416.225 816.735 423.672C827.435 431.119 840.014 435.095 852.883 435.097C870.135 435.079 886.676 427.933 898.876 415.229C911.076 402.524 917.939 385.298 917.959 367.33V367.33ZM837.136 367.33C837.136 364.085 838.06 360.913 839.791 358.214C841.522 355.516 843.983 353.413 846.862 352.171C849.741 350.929 852.908 350.604 855.965 351.237C859.021 351.87 861.828 353.433 864.032 355.728C866.235 358.022 867.736 360.946 868.344 364.129C868.952 367.312 868.64 370.611 867.447 373.61C866.255 376.608 864.235 379.171 861.644 380.974C859.053 382.777 856.007 383.739 852.891 383.739C848.714 383.735 844.709 382.004 841.755 378.928C838.801 375.852 837.14 371.681 837.136 367.33V367.33Z" fill="#4B4B4B"/>
<path d="M1725.16 384.667C1725.16 368.444 1720.54 352.586 1711.88 339.099C1703.23 325.611 1690.93 315.1 1676.54 308.893C1662.14 302.687 1646.31 301.064 1631.03 304.231C1615.75 307.397 1601.72 315.21 1590.71 326.682C1579.69 338.155 1572.19 352.77 1569.16 368.682C1566.12 384.593 1567.68 401.085 1573.64 416.073C1579.6 431.06 1589.7 443.871 1602.65 452.883C1615.6 461.896 1630.83 466.706 1646.4 466.706C1667.29 466.681 1687.31 458.03 1702.07 442.649C1716.84 427.269 1725.14 406.416 1725.16 384.667V384.667ZM1616.96 384.667C1616.96 378.601 1618.69 372.673 1621.93 367.631C1625.17 362.589 1629.77 358.66 1635.15 356.341C1640.53 354.022 1646.45 353.417 1652.16 354.602C1657.87 355.787 1663.12 358.709 1667.24 362.999C1671.35 367.289 1674.16 372.755 1675.29 378.704C1676.43 384.653 1675.84 390.819 1673.61 396.422C1671.38 402.025 1667.61 406.814 1662.76 410.183C1657.92 413.552 1652.23 415.35 1646.4 415.349C1638.59 415.341 1631.11 412.105 1625.59 406.352C1620.07 400.6 1616.96 392.8 1616.96 384.667V384.667Z" fill="#4B4B4B"/>
<path d="M1679.69 805.429C1664.66 805.428 1649.97 810.068 1637.47 818.764C1624.97 827.459 1615.23 839.818 1609.48 854.279C1603.73 868.739 1602.23 884.651 1605.16 900.003C1608.09 915.354 1615.33 929.456 1625.95 940.524C1636.58 951.592 1650.12 959.13 1664.86 962.183C1679.6 965.237 1694.88 963.671 1708.76 957.681C1722.65 951.691 1734.51 941.548 1742.86 928.534C1751.21 915.519 1755.67 900.219 1755.67 884.567C1755.65 863.586 1747.64 843.471 1733.39 828.635C1719.15 813.799 1699.83 805.454 1679.69 805.429V805.429ZM1679.69 912.347C1674.41 912.348 1669.25 910.719 1664.87 907.667C1660.48 904.615 1657.06 900.277 1655.04 895.201C1653.02 890.124 1652.49 884.539 1653.52 879.15C1654.55 873.76 1657.09 868.81 1660.82 864.925C1664.55 861.039 1669.3 858.393 1674.48 857.32C1679.65 856.248 1685.02 856.798 1689.89 858.901C1694.76 861.003 1698.93 864.564 1701.86 869.132C1704.79 873.701 1706.36 879.072 1706.36 884.567C1706.35 891.93 1703.54 898.99 1698.54 904.197C1693.54 909.405 1686.76 912.335 1679.69 912.347V912.347Z" fill="#4B4B4B"/>
<path d="M431.166 834.344C417.784 834.344 404.703 838.477 393.576 846.22C382.449 853.963 373.777 864.969 368.656 877.845C363.535 890.721 362.195 904.889 364.806 918.559C367.416 932.228 373.861 944.784 383.323 954.639C392.786 964.494 404.842 971.205 417.967 973.924C431.091 976.643 444.696 975.248 457.059 969.914C469.423 964.581 479.99 955.549 487.424 943.961C494.859 932.372 498.827 918.748 498.827 904.811C498.807 886.129 491.671 868.218 478.987 855.007C466.303 841.797 449.105 834.366 431.166 834.344V834.344ZM431.166 923.921C427.538 923.921 423.99 922.8 420.973 920.7C417.955 918.6 415.604 915.616 414.215 912.124C412.826 908.632 412.463 904.79 413.171 901.083C413.879 897.376 415.626 893.971 418.192 891.299C420.758 888.626 424.028 886.806 427.587 886.069C431.146 885.332 434.835 885.71 438.188 887.156C441.541 888.603 444.406 891.052 446.423 894.195C448.439 897.337 449.515 901.032 449.515 904.811C449.505 909.875 447.568 914.727 444.129 918.306C440.69 921.885 436.028 923.898 431.166 923.903V923.921Z" fill="#4B4B4B"/>
<path d="M1233 125.23C1039.41 125.231 850.17 185.018 689.207 297.031C528.244 409.044 402.789 568.252 328.706 754.522C254.623 940.792 235.239 1145.76 273.006 1343.5C310.774 1541.25 403.995 1722.88 540.883 1865.45C631.706 1960.43 739.623 2035.82 858.457 2087.3C977.29 2138.79 1104.71 2165.36 1233.41 2165.5C1362.12 2165.63 1489.59 2139.33 1608.52 2088.1C1727.46 2036.86 1835.52 1961.7 1926.53 1866.92C2017.54 1772.14 2089.71 1659.59 2138.9 1535.72C2188.09 1411.86 2213.35 1279.1 2213.21 1145.06C2213.08 1011.01 2187.57 878.314 2138.13 754.552C2088.7 630.79 2016.31 518.397 1925.12 423.807C1834.44 328.849 1726.58 253.567 1607.78 202.316C1488.97 151.065 1361.59 124.865 1233 125.23ZM1890.25 1829.14C1760.25 1964.52 1594.63 2056.71 1414.33 2094.06C1234.03 2131.42 1047.14 2112.24 877.298 2038.98C707.457 1965.71 562.291 1841.63 460.157 1682.44C358.024 1523.25 303.51 1336.09 303.509 1144.63C303.509 1125.63 304.096 1106.73 305.132 1087.91C312.86 1084.46 321.291 1083.05 329.669 1083.83C338.046 1084.6 346.108 1087.53 353.131 1092.35C360.154 1097.17 365.919 1103.73 369.908 1111.44C373.897 1119.15 375.985 1127.77 375.986 1136.53V1265.99C375.986 1293.49 386.476 1319.87 405.149 1339.32C423.822 1358.76 449.148 1369.69 475.556 1369.69C501.964 1369.69 527.29 1358.76 545.963 1339.32C564.636 1319.87 575.126 1293.49 575.126 1265.99V923.577C575.126 907.396 581.298 891.878 592.284 880.437C603.269 868.996 618.169 862.568 633.705 862.568C649.241 862.568 664.141 868.996 675.127 880.437C686.113 891.878 692.284 907.396 692.284 923.577V1083.95C692.306 1102.11 696.553 1120.01 704.662 1136.1C712.771 1152.18 724.5 1165.99 738.847 1176.33C753.194 1186.67 769.732 1193.23 787.046 1195.46C804.36 1197.69 821.936 1195.53 838.27 1189.14C848.263 1285.25 890.268 1374.67 956.986 1441.87C1023.7 1509.07 1110.92 1549.8 1203.48 1556.99C1296.04 1564.18 1388.09 1537.38 1463.64 1481.23C1539.19 1425.08 1593.47 1343.14 1617.05 1249.65C1625.87 1247.74 1634.99 1247.9 1643.75 1250.12C1652.5 1252.34 1660.67 1256.57 1667.66 1262.49C1674.65 1268.42 1680.28 1275.89 1684.15 1284.37C1688.02 1292.85 1690.02 1302.12 1690.01 1311.5V1617.08C1690.01 1646.88 1701.38 1675.46 1721.61 1696.54C1741.85 1717.61 1769.29 1729.45 1797.9 1729.45C1826.52 1729.45 1853.96 1717.61 1874.19 1696.54C1894.43 1675.46 1905.8 1646.88 1905.8 1617.08V1036.27C1905.8 1021.24 1911.53 1006.82 1921.73 996.194C1931.94 985.566 1945.78 979.595 1960.21 979.595C1974.64 979.595 1988.48 985.566 1998.69 996.194C2008.89 1006.82 2014.63 1021.24 2014.63 1036.27V1230.74C2014.58 1247.37 2018.07 1263.8 2024.85 1278.86C2031.62 1293.92 2041.51 1307.23 2053.82 1317.83C2066.12 1328.43 2080.52 1336.06 2095.99 1340.18C2111.46 1344.29 2127.61 1344.79 2143.29 1341.63C2106.72 1526.48 2018.71 1696.03 1890.25 1829.14ZM885.277 1144.63C885.278 1073 905.672 1002.99 943.881 943.433C982.09 883.879 1036.4 837.463 1099.94 810.054C1163.47 782.645 1233.39 775.474 1300.84 789.447C1368.29 803.421 1430.25 837.913 1478.88 888.56C1527.51 939.207 1560.63 1003.73 1574.04 1073.98C1587.46 1144.23 1580.57 1217.05 1554.25 1283.22C1527.94 1349.39 1483.37 1405.95 1426.18 1445.74C1369 1485.54 1301.77 1506.78 1233 1506.78C1140.81 1506.67 1052.43 1468.48 987.238 1400.58C922.05 1332.69 885.382 1240.64 885.277 1144.63ZM2152.97 1283.86C2143.91 1289.44 2133.59 1292.36 2123.07 1292.32C2107.39 1292.31 2092.36 1285.81 2081.28 1274.27C2070.19 1262.72 2063.96 1247.07 2063.94 1230.74V1036.27C2063.94 1007.62 2053.01 980.138 2033.56 959.879C2014.11 939.619 1987.72 928.237 1960.21 928.237C1932.7 928.237 1906.32 939.619 1886.86 959.879C1867.41 980.138 1856.48 1007.62 1856.48 1036.27V1617.08C1856.48 1633.26 1850.31 1648.77 1839.33 1660.22C1828.34 1671.66 1813.44 1678.08 1797.9 1678.08C1782.37 1678.08 1767.47 1671.66 1756.48 1660.22C1745.5 1648.77 1739.32 1633.26 1739.32 1617.08V1311.5C1739.29 1281.13 1727.69 1252.02 1707.08 1230.55C1686.46 1209.07 1658.51 1197 1629.35 1196.96C1628.53 1196.96 1627.71 1197.01 1626.88 1197.03C1633.69 1141.5 1629.6 1085.11 1614.86 1031.27C1600.12 977.442 1575.04 927.286 1541.14 883.847C1507.23 840.408 1465.22 804.59 1417.63 778.565C1370.04 752.54 1317.87 736.848 1264.29 732.442C1210.71 728.036 1156.82 735.007 1105.9 752.932C1054.98 770.857 1008.09 799.363 968.061 836.723C928.033 874.083 895.705 919.518 873.037 970.275C850.369 1021.03 837.832 1076.05 836.187 1132.01C825.931 1140.42 813.25 1144.98 800.197 1144.95C784.665 1144.94 769.775 1138.5 758.793 1127.06C747.811 1115.62 741.634 1100.12 741.617 1083.94V923.577C741.617 893.775 730.25 865.194 710.017 844.122C689.783 823.049 662.34 811.21 633.726 811.21C605.111 811.21 577.669 823.049 557.435 844.122C537.201 865.194 525.834 893.775 525.834 923.577V1265.99C525.834 1279.87 520.539 1293.19 511.114 1303C501.689 1312.82 488.906 1318.33 475.577 1318.33C462.247 1318.33 449.464 1312.82 440.039 1303C430.614 1293.19 425.319 1279.87 425.319 1265.99V1136.53C425.29 1108.89 414.732 1082.38 395.963 1062.84C377.194 1043.29 351.746 1032.29 325.202 1032.26C319.982 1032.26 314.769 1032.68 309.611 1033.52C329.68 852.74 398.27 681.511 507.512 539.475C616.755 397.439 762.227 290.349 927.241 230.487C1092.26 170.626 1270.13 160.418 1440.46 201.034C1610.79 241.65 1766.68 331.446 1890.25 460.121C1976.83 549.801 2045.47 656.477 2092.21 773.973C2138.94 891.469 2162.83 1017.45 2162.49 1144.63C2162.49 1191.22 2159.31 1237.75 2152.97 1283.86Z" fill="#4B4B4B"/>
<path d="M1394.55 1963.46C1341.39 1974.78 1287.26 1980.48 1233 1980.47C1226.46 1980.47 1220.19 1983.18 1215.57 1988C1210.94 1992.81 1208.34 1999.34 1208.34 2006.15C1208.34 2012.96 1210.94 2019.49 1215.57 2024.31C1220.19 2029.13 1226.46 2031.83 1233 2031.83C1290.59 2031.84 1348.04 2025.79 1404.46 2013.77C1407.64 2013.1 1410.67 2011.79 1413.36 2009.9C1416.05 2008.02 1418.36 2005.59 1420.16 2002.78C1421.95 1999.96 1423.19 1996.8 1423.81 1993.48C1424.42 1990.16 1424.4 1986.75 1423.75 1983.43C1423.1 1980.12 1421.83 1976.98 1420 1974.18C1418.18 1971.38 1415.85 1968.99 1413.13 1967.13C1410.42 1965.28 1407.38 1964 1404.19 1963.37C1401 1962.74 1397.72 1962.77 1394.55 1963.46V1963.46Z" fill="#4B4B4B"/>
<path d="M1121.02 1972.36C954.338 1947.91 799.306 1869.33 677.98 1747.81C673.227 1743.29 666.964 1740.88 660.529 1741.1C654.093 1741.33 647.997 1744.16 643.542 1749C639.087 1753.84 636.628 1760.31 636.69 1767.01C636.751 1773.72 639.329 1780.13 643.872 1784.89C772.676 1913.87 937.252 1997.27 1114.19 2023.22C1115.34 2023.39 1116.49 2023.48 1117.65 2023.48C1123.89 2023.48 1129.9 2021.01 1134.47 2016.57C1139.03 2012.13 1141.81 2006.06 1142.24 1999.57C1142.67 1993.08 1140.72 1986.66 1136.79 1981.61C1132.85 1976.56 1127.22 1973.26 1121.04 1972.36H1121.02Z" fill="#4B4B4B"/>
<path d="M574.387 1621.76C572.533 1619 570.175 1616.64 567.447 1614.82C564.718 1613.01 561.673 1611.77 558.485 1611.18C555.297 1610.59 552.029 1610.66 548.866 1611.38C545.704 1612.11 542.71 1613.47 540.055 1615.4C537.4 1617.33 535.136 1619.79 533.392 1622.63C531.648 1625.47 530.459 1628.64 529.892 1631.97C529.325 1635.29 529.392 1638.69 530.088 1641.98C530.785 1645.28 532.097 1648.39 533.95 1651.16C543.18 1664.93 552.89 1678.58 562.81 1691.73C564.8 1694.41 567.281 1696.66 570.108 1698.34C572.935 1700.02 576.054 1701.1 579.283 1701.51C582.513 1701.93 585.79 1701.68 588.926 1700.77C592.062 1699.86 594.994 1698.32 597.553 1696.22C600.112 1694.13 602.248 1691.53 603.838 1688.57C605.427 1685.61 606.438 1682.36 606.813 1678.99C607.188 1675.62 606.919 1672.21 606.022 1668.95C605.125 1665.7 603.618 1662.65 601.587 1660.01C592.238 1647.61 583.09 1634.75 574.387 1621.76V1621.76Z" fill="#4B4B4B"/>
</svg>
