<svg width="3529" height="2682" viewBox="0 0 3529 2682" fill="none" xmlns="http://www.w3.org/2000/svg">
<ellipse cx="1220" cy="2595.5" rx="1057" ry="51.5" fill="#211717" fill-opacity="0.43"/>
<path d="M2154.68 638.837C2154.68 622.269 2168.12 608.837 2184.68 608.837H2247C2263.57 608.837 2277 622.269 2277 638.837V1248.59C2277 1265.16 2263.57 1278.59 2247 1278.59H2184.68C2168.12 1278.59 2154.68 1265.16 2154.68 1248.59V638.837Z" fill="#BAB8B9"/>
<path d="M2276.05 674.075H1869.61V2033.9C1869.61 2135.38 1960.6 2217.66 2072.83 2217.66C2185.06 2217.66 2276.05 2135.38 2276.05 2033.9V674.075Z" fill="#BAB8B9"/>
<path d="M2011.86 2208.33C2094.08 2184.8 2154.12 2116.07 2154.12 2033.9V674.075H1869.61V2033.9C1869.61 2116.03 1929.64 2184.76 2011.86 2208.33Z" fill="#D9D7D8"/>
<path d="M2072.83 2217.66C2185.06 2217.66 2276.05 2135.38 2276.05 2033.9V1188.6H1869.61V2033.9C1869.61 2135.38 1960.6 2217.66 2072.83 2217.66Z" fill="#D46B69"/>
<path d="M2011.86 2208.33C2094.08 2184.8 2154.12 2116.07 2154.12 2033.9V1188.6H1869.61V2033.9C1869.61 2116.03 1929.64 2184.76 2011.86 2208.33Z" fill="#ED7775"/>
<path d="M1309.81 2240.09C1398.15 2240.09 1469.78 2173.7 1469.78 2091.83V2055.5C1469.78 2030.71 1463.07 2006.27 1450.27 1984.52L989.854 1202.24V831.585H590.264V1202.24L129.902 1984.52C117.111 2006.31 110.373 2030.71 110.373 2055.5V2091.83C110.373 2173.7 182.003 2240.09 270.35 2240.09H1309.81Z" fill="#BAB8B9"/>
<path d="M1349.56 2086.68V2050.66C1349.56 2026.08 1342.73 2001.85 1329.73 1980.28L861.833 1204.63V837.114H577.684V1204.63L109.846 1980.28C96.8467 2001.89 90 2026.08 90 2050.66V2086.68C90 2167.86 162.793 2233.69 252.575 2233.69H1186.98C1276.76 2233.69 1349.56 2167.86 1349.56 2086.68Z" fill="#D9D7D8"/>
<path d="M1469.72 2092.89V2056.29C1469.72 2031.31 1462.9 2006.7 1449.92 1984.78L1159.75 1495.41H1097.42C1075.89 1495.41 1055.24 1503.29 1040.02 1517.29L1006.4 1548.22C991.181 1562.22 970.529 1570.1 949.004 1570.1H935.09C913.566 1570.1 892.913 1562.22 877.691 1548.22L844.076 1517.29C828.815 1503.29 808.162 1495.41 786.638 1495.41H772.724C751.199 1495.41 730.547 1503.29 715.325 1517.29L681.71 1548.22C666.448 1562.22 645.796 1570.1 624.271 1570.1H610.357C588.833 1570.1 568.18 1562.22 552.958 1548.22L519.343 1517.29C504.082 1503.29 483.429 1495.41 461.905 1495.41H399.967L109.82 1984.78C96.8379 2006.74 90 2031.31 90 2056.29V2092.89C90 2175.38 162.7 2242.26 252.366 2242.26H1307.35C1397.02 2242.26 1469.72 2175.38 1469.72 2092.89Z" fill="#599072"/>
<path d="M1401.16 1276.71V1589.83C1262.32 1635.27 1162.68 1757.36 1162.68 1901.27C1162.68 2083.9 1322.81 2231.92 1520.4 2231.92C1717.99 2231.92 1878.12 2083.9 1878.12 1901.27C1878.12 1757.36 1778.48 1635.27 1639.64 1589.83V1276.71" fill="#BAB8B9"/>
<path d="M1148.51 1901.91C1148.51 2072.14 1290.8 2212.21 1473.66 2230.51C1656.52 2212.21 1798.81 2072.14 1798.81 1901.91C1798.81 1757.96 1696.92 1635.82 1554.95 1590.37V1277.13H1392.37V1590.37C1250.4 1635.82 1148.51 1757.96 1148.51 1901.91Z" fill="#D9D7D8"/>
<path d="M1877.93 1901.91C1877.93 1889.46 1876.91 1877.26 1875.41 1865.16H1830.3C1808.74 1865.16 1788.06 1872.91 1772.82 1886.7L1739.17 1917.13C1723.92 1930.91 1703.25 1938.67 1681.69 1938.67H1667.76C1646.21 1938.67 1625.53 1930.91 1610.29 1917.13L1576.63 1886.7C1561.35 1872.91 1540.67 1865.16 1519.12 1865.16H1505.19C1483.63 1865.16 1462.96 1872.91 1447.71 1886.7L1414.06 1917.13C1398.77 1930.91 1378.1 1938.67 1356.54 1938.67H1342.61C1321.06 1938.67 1300.38 1930.91 1285.14 1917.13L1251.48 1886.7C1236.2 1872.91 1215.52 1865.16 1193.97 1865.16H1148.86C1147.35 1877.26 1146.34 1889.46 1146.34 1901.91C1146.34 2084.61 1310.09 2232.68 1512.13 2232.68C1714.18 2232.68 1877.93 2084.61 1877.93 1901.91Z" fill="#85B6CF"/>
<path d="M1471.49 2230.51C1654.35 2212.21 1796.64 2072.14 1796.64 1901.91C1796.64 1892.1 1795.67 1882.52 1794.65 1872.95C1786.68 1876.49 1779.19 1880.94 1772.82 1886.7L1739.17 1917.13C1723.92 1930.91 1703.25 1938.67 1681.69 1938.67H1667.76C1656.01 1938.67 1644.58 1936.17 1634.1 1931.83C1623.59 1936.17 1612.15 1938.67 1600.41 1938.67H1586.47C1564.92 1938.67 1544.24 1930.91 1529 1917.13L1495.34 1886.7C1488.44 1880.45 1480.26 1875.61 1471.53 1872C1462.8 1875.61 1454.66 1880.45 1447.71 1886.7L1414.06 1917.13C1398.78 1930.91 1378.1 1938.67 1356.54 1938.67H1342.61C1330.86 1938.67 1319.43 1936.17 1308.95 1931.83C1298.44 1936.17 1287 1938.67 1275.26 1938.67H1261.32C1239.77 1938.67 1219.09 1930.91 1203.85 1917.13L1170.19 1886.7C1163.82 1880.94 1156.34 1876.49 1148.36 1872.95C1147.31 1882.52 1146.34 1892.1 1146.34 1901.91C1146.34 2072.14 1288.63 2212.21 1471.49 2230.51V2230.51Z" fill="#94CCE7"/>
<path d="M831.929 2130.05C831.929 2155.17 809.96 2175.53 782.863 2175.53C755.767 2175.53 733.797 2155.17 733.797 2130.05C733.797 2104.93 755.767 2084.57 782.863 2084.57C809.96 2084.57 831.929 2104.93 831.929 2130.05Z" fill="#70B48F"/>
<path d="M601.031 1745.65C601.031 1770.76 579.062 1791.13 551.965 1791.13C524.869 1791.13 502.899 1770.76 502.899 1745.65C502.899 1720.53 524.869 1700.16 551.965 1700.16C579.062 1700.16 601.031 1720.53 601.031 1745.65Z" fill="#70B48F"/>
<path d="M1034.91 1864.63C1034.91 1905.22 998.514 1938.14 953.624 1938.14C908.733 1938.14 872.336 1905.22 872.336 1864.63C872.336 1824.04 908.733 1791.13 953.624 1791.13C998.514 1791.13 1034.91 1824.04 1034.91 1864.63Z" fill="#70B48F"/>
<path d="M414.755 2012.17C414.755 2052.76 378.358 2085.67 333.467 2085.67C288.577 2085.67 252.18 2052.76 252.18 2012.17C252.18 1971.58 288.577 1938.66 333.467 1938.66C378.358 1938.66 414.755 1971.58 414.755 2012.17Z" fill="#70B48F"/>
<path d="M990.31 616.115C990.31 697.466 923.704 763.425 841.555 763.425C759.405 763.425 692.799 697.466 692.799 616.115C692.799 534.764 759.405 468.806 841.555 468.806C923.704 468.806 990.31 534.764 990.31 616.115Z" fill="#599072"/>
<path d="M763.286 395C763.286 435.592 726.889 468.503 681.998 468.503C637.108 468.503 600.711 435.592 600.711 395C600.711 354.407 637.108 321.496 681.998 321.496C726.889 321.496 763.286 354.407 763.286 395Z" fill="#70B48F"/>
<path d="M969.059 211.014C969.059 272.027 916.197 321.496 850.999 321.496C785.8 321.496 732.938 272.027 732.938 211.014C732.938 150 785.8 100.532 850.999 100.532C916.197 100.532 969.059 150 969.059 211.014Z" fill="#599072"/>
<path d="M1828.97 284.305C1791.73 237.54 1800.98 171.499 1849.63 136.812C1898.27 102.124 1967.9 111.917 2005.14 158.682C2042.38 205.447 2033.13 271.488 1984.48 306.175C1935.84 340.862 1866.2 331.07 1828.97 284.305Z" fill="#D46B69"/>
<path d="M2064.36 341.417C2045.78 318.082 2052.27 283.795 2078.85 264.84C2105.43 245.885 2142.05 249.436 2160.63 272.771C2179.21 296.105 2172.72 330.393 2146.14 349.348C2119.56 368.303 2082.94 364.752 2064.36 341.417Z" fill="#ED7775"/>
<path d="M2017.54 531.831C1989.61 496.757 1998.27 445.999 2036.88 418.469C2075.48 390.939 2129.43 397.056 2157.35 432.13C2185.28 467.204 2176.62 517.962 2138.02 545.491C2099.41 573.021 2045.46 566.904 2017.54 531.831Z" fill="#D46B69"/>
<path d="M1534.92 948.733C1540.99 892.158 1593.92 850.839 1653.14 856.454C1712.36 862.069 1755.46 912.492 1749.39 969.068C1743.33 1025.64 1690.39 1066.96 1631.18 1061.35C1571.96 1055.73 1528.86 1005.31 1534.92 948.733Z" fill="#94CCE7"/>
<path d="M1454.53 1138.66C1457.92 1106.85 1488.58 1083.72 1523 1087C1557.43 1090.28 1582.58 1118.73 1579.19 1150.53C1575.79 1182.34 1545.14 1205.47 1510.71 1202.19C1476.29 1198.91 1451.14 1170.47 1454.53 1138.66Z" fill="#94CCE7"/>
<rect x="577.1" y="791.045" width="283.344" height="85.1634" rx="18.5" fill="#D9D7D8"/>
<rect x="827.388" y="791.045" width="35.4181" height="55.2411" fill="#D9D7D8"/>
<rect x="862.805" y="791.045" width="127.505" height="80.56" rx="17.5" fill="#BAB8B9"/>
<rect x="862.805" y="791.045" width="47.2241" height="55.2411" fill="#BAB8B9"/>
<rect x="1391.72" y="1246.78" width="162.923" height="52.9394" rx="11.5" fill="#D9D7D8"/>
<rect x="1523.94" y="1246.78" width="30.6957" height="39.1291" fill="#D9D7D8"/>
<rect x="1554.64" y="1246.78" width="85.0033" height="41.4308" rx="14" fill="#BAB8B9"/>
<rect x="1554.64" y="1246.78" width="30.6957" height="36.8274" fill="#BAB8B9"/>
<rect x="1608.95" y="1267.5" width="30.6957" height="36.8274" fill="#BAB8B9"/>
<rect x="1870.16" y="610.299" width="283.344" height="138.103" rx="30" fill="#D9D7D8"/>
<rect x="2070.86" y="610.299" width="82.6421" height="87.4651" fill="#D9D7D8"/>
<rect x="2153.5" y="610.299" width="56.6689" height="82.8617" fill="#BAB8B9"/>
</svg>
